<svg viewBox="0 0 35 35" fill="none" xmlns="http://www.w3.org/2000/svg">
<path d="M17.9849 24.7636L16.8661 24.9138C16.9118 25.2598 16.9355 25.6143 16.9355 25.9677H18.0645C18.0645 25.5647 18.038 25.1593 17.9849 24.7636Z" fill="#039855"/>
<path d="M33.3064 3.3871H32.7419V1.69355C32.7419 0.759839 31.9821 0 31.0484 0H29.9194C28.9856 0 28.2258 0.759839 28.2258 1.69355V3.3871H12.4194V1.69355C12.4194 0.759839 11.6595 0 10.7258 0H9.59677C8.66306 0 7.90323 0.759839 7.90323 1.69355V3.3871H7.33871C6.405 3.3871 5.64516 4.14694 5.64516 5.08065V17.6005C2.33935 18.9435 0 22.1855 0 25.9677C0 30.9479 4.0521 35 9.03226 35C12.7688 35 16.0452 32.686 17.399 29.3548H33.3064C34.2402 29.3548 35 28.595 35 27.6613V5.08065C35 4.14694 34.2402 3.3871 33.3064 3.3871ZM29.3548 1.69355C29.3548 1.3825 29.6083 1.12903 29.9194 1.12903H31.0484C31.3594 1.12903 31.6129 1.3825 31.6129 1.69355V6.20968C31.6129 6.52073 31.3594 6.77419 31.0484 6.77419H29.9194C29.6083 6.77419 29.3548 6.52073 29.3548 6.20968V1.69355ZM9.03226 1.69355C9.03226 1.3825 9.28573 1.12903 9.59677 1.12903H10.7258C11.0369 1.12903 11.2903 1.3825 11.2903 1.69355V6.20968C11.2903 6.52073 11.0369 6.77419 10.7258 6.77419H9.59677C9.28573 6.77419 9.03226 6.52073 9.03226 6.20968V1.69355ZM16.8655 27.0223C16.3456 30.9265 12.9782 33.871 9.03226 33.871C4.67419 33.871 1.12903 30.3258 1.12903 25.9677C1.12903 21.6097 4.67419 18.0645 9.03226 18.0645C12.5769 18.0645 15.7099 20.4479 16.6515 23.8598L17.7399 23.5601C16.6634 19.6593 13.0827 16.9355 9.03226 16.9355C8.25153 16.9355 7.49734 17.0456 6.77419 17.233V5.08065C6.77419 4.7696 7.02766 4.51613 7.33871 4.51613H7.90323V6.20968C7.90323 7.14339 8.66306 7.90323 9.59677 7.90323H10.7258C11.6595 7.90323 12.4194 7.14339 12.4194 6.20968V4.51613H28.2258V6.20968C28.2258 7.14339 28.9856 7.90323 29.9194 7.90323H31.0484C31.9821 7.90323 32.7419 7.14339 32.7419 6.20968V4.51613H33.3064C33.6175 4.51613 33.871 4.7696 33.871 5.08065V10.1613H10.1613V11.2903H33.871V22.5123L32.0724 19.9946C31.981 19.8665 31.8404 19.7829 31.6846 19.7626C31.531 19.7456 31.3719 19.7885 31.251 19.889L29.3543 21.4697V19.1935H32.7414V18.0645H28.7898C28.4781 18.0645 28.2252 18.3169 28.2252 18.629V22.4102L21.2473 28.2258H17.7715C17.8607 27.8809 17.9369 27.5315 17.9849 27.1713L16.8655 27.0223ZM31.5068 21.1456L33.574 24.0394L24.154 28.2258H23.0108L31.5068 21.1456ZM33.3064 28.2258H26.9348L33.871 25.143V27.6613C33.871 27.9729 33.6175 28.2258 33.3064 28.2258Z" fill="#039855"/>
<path d="M7.90323 10.1613H9.03226V11.2903H7.90323V10.1613Z" fill="#039855"/>
<path d="M12.4194 16.371V12.9839C12.4194 12.6723 12.1665 12.4194 11.8548 12.4194H8.46774C8.15613 12.4194 7.90323 12.6723 7.90323 12.9839V16.371C7.90323 16.6826 8.15613 16.9355 8.46774 16.9355H9.03226H11.8548C12.1665 16.9355 12.4194 16.6826 12.4194 16.371ZM11.2903 15.8065H9.03226V13.5484H11.2903V15.8065Z" fill="#039855"/>
<path d="M18.629 16.9355C18.9407 16.9355 19.1936 16.6826 19.1936 16.371V12.9839C19.1936 12.6723 18.9407 12.4194 18.629 12.4194H15.2419C14.9303 12.4194 14.6774 12.6723 14.6774 12.9839V16.371C14.6774 16.6826 14.9303 16.9355 15.2419 16.9355H18.629ZM15.8065 13.5484H18.0645V15.8065H15.8065V13.5484Z" fill="#039855"/>
<path d="M22.0161 16.9355H25.4032C25.7148 16.9355 25.9677 16.6826 25.9677 16.371V12.9839C25.9677 12.6723 25.7148 12.4194 25.4032 12.4194H22.0161C21.7045 12.4194 21.4516 12.6723 21.4516 12.9839V16.371C21.4516 16.6826 21.7045 16.9355 22.0161 16.9355ZM22.5806 13.5484H24.8387V15.8065H22.5806V13.5484Z" fill="#039855"/>
<path d="M28.7903 16.9355H32.1774C32.489 16.9355 32.7419 16.6826 32.7419 16.371V12.9839C32.7419 12.6723 32.489 12.4194 32.1774 12.4194H28.7903C28.4787 12.4194 28.2258 12.6723 28.2258 12.9839V16.371C28.2258 16.6826 28.4787 16.9355 28.7903 16.9355ZM29.3548 13.5484H31.6129V15.8065H29.3548V13.5484Z" fill="#039855"/>
<path d="M18.0645 22.5806H19.1936V18.629C19.1936 18.3169 18.9407 18.0645 18.629 18.0645H15.2419V19.1935H18.0645V22.5806Z" fill="#039855"/>
<path d="M22.0161 22.5806H25.4032C25.7148 22.5806 25.9677 22.3283 25.9677 22.0161V18.629C25.9677 18.3169 25.7148 18.0645 25.4032 18.0645H22.0161C21.7045 18.0645 21.4516 18.3169 21.4516 18.629V22.0161C21.4516 22.3283 21.7045 22.5806 22.0161 22.5806ZM22.5806 19.1935H24.8387V21.4516H22.5806V19.1935Z" fill="#039855"/>
<path d="M13.383 21.0525C13.1623 20.8318 12.8055 20.8318 12.5848 21.0525L6.7742 26.8631L4.91525 25.0041C4.69453 24.7834 4.33775 24.7834 4.11703 25.0041L2.42348 26.6977C2.20275 26.9184 2.20275 27.2752 2.42348 27.4959L6.37509 31.4475C6.48517 31.5576 6.62969 31.6129 6.7742 31.6129C6.91872 31.6129 7.06324 31.5576 7.17332 31.4475L15.0765 23.5443C15.2973 23.3236 15.2973 22.9668 15.0765 22.7461L13.383 21.0525ZM6.7742 30.2502L3.62082 27.0968L4.51614 26.2015L6.37509 28.0604C6.59582 28.2811 6.95259 28.2811 7.17332 28.0604L12.9839 22.2498L13.8792 23.1452L6.7742 30.2502Z" fill="#039855"/>
</svg>
