<svg viewBox="0 0 35 35" fill="none" xmlns="http://www.w3.org/2000/svg">
<path d="M8.63254 27.7597C9.29235 27.7597 9.29344 26.7343 8.63254 26.7343C7.97281 26.7343 7.97171 27.7597 8.63254 27.7597Z" fill="#6938EF"/>
<path d="M17.5002 27.7597C18.16 27.7597 18.161 26.7343 17.5002 26.7343C16.8404 26.7343 16.8393 27.7597 17.5002 27.7597Z" fill="#6938EF"/>
<path d="M26.3677 27.7597C27.0275 27.7597 27.0286 26.7343 26.3677 26.7343C25.7079 26.7343 25.7068 27.7597 26.3677 27.7597Z" fill="#6938EF"/>
<path d="M10.9056 18.0917C11.5654 18.0917 11.5665 17.0663 10.9056 17.0663C10.2458 17.0663 10.2447 18.0917 10.9056 18.0917Z" fill="#6938EF"/>
<path d="M17.5002 18.0917C18.16 18.0917 18.161 17.0663 17.5002 17.0663C16.8404 17.0663 16.8393 18.0917 17.5002 18.0917Z" fill="#6938EF"/>
<path d="M24.0948 18.0917C24.7546 18.0917 24.7556 17.0663 24.0948 17.0663C23.4349 17.0663 23.4339 18.0917 24.0948 18.0917Z" fill="#6938EF"/>
<path d="M24.1759 5.67013C24.4355 5.67013 24.6898 5.40872 24.6887 5.15518L24.685 4.34491C24.6822 3.70117 23.6566 3.67376 23.6596 4.34943L23.6633 5.15969C23.6646 5.44208 23.8938 5.67013 24.1759 5.67013Z" fill="#6938EF"/>
<path d="M22.0276 6.28987C22.4983 6.75553 23.2203 6.02764 22.7488 5.56102L22.1724 4.99063C21.7012 4.52442 20.98 5.2532 21.4512 5.71948L22.0276 6.28987Z" fill="#6938EF"/>
<path d="M20.8565 8.24685H20.8588L21.6703 8.24323C22.3178 8.24035 22.2992 7.21783 21.6658 7.21783L20.8543 7.22146C20.1927 7.2244 20.1952 8.24685 20.8565 8.24685Z" fill="#6938EF"/>
<path d="M22.0734 9.1542L21.5021 9.72965C21.0352 10.1998 21.7623 10.9229 22.2298 10.4521L22.8011 9.87663C23.2682 9.40631 22.5403 8.68362 22.0734 9.1542Z" fill="#6938EF"/>
<path d="M25.6685 9.10588C25.4693 9.30713 25.471 9.6317 25.6723 9.8309L26.2487 10.4013C26.7194 10.867 27.4414 10.1391 26.97 9.67244C26.7208 9.34152 26.0958 8.67406 25.6685 9.10588Z" fill="#6938EF"/>
<path d="M26.2404 7.66365C26.2416 7.91781 26.4964 8.17409 26.7554 8.17409L27.5669 8.17047C28.2144 8.1676 28.1957 7.14508 27.5624 7.14508L26.7509 7.1487C26.4677 7.15 26.2392 7.38058 26.2404 7.66365Z" fill="#6938EF"/>
<path d="M25.9839 6.38919C26.1158 6.38919 26.2475 6.33868 26.3478 6.23771L26.919 5.66226C27.386 5.19181 26.6582 4.46932 26.1913 4.93984L25.6201 5.51529C25.3174 5.82024 25.5546 6.38919 25.9839 6.38919Z" fill="#6938EF"/>
<path d="M10.7547 2.05709C11.0143 2.05709 11.2686 1.79569 11.2675 1.54214L11.2639 0.731877C11.261 0.0881366 10.2355 0.0607245 10.2385 0.736389L10.2421 1.54665C10.2434 1.82904 10.4726 2.05709 10.7547 2.05709Z" fill="#6938EF"/>
<path d="M8.60646 2.67674C9.07718 3.1424 9.79919 2.41451 9.32772 1.94789L8.75131 1.3775C8.28018 0.911219 7.55892 1.64007 8.03005 2.10635L8.60646 2.67674Z" fill="#6938EF"/>
<path d="M7.43532 4.63375H7.43764L8.24913 4.63013C8.89663 4.62726 8.87797 3.60474 8.24462 3.60474L7.43313 3.60836C6.77148 3.61137 6.77401 4.63375 7.43532 4.63375Z" fill="#6938EF"/>
<path d="M8.65216 5.54116L8.08095 6.11661C7.61413 6.58685 8.3412 7.30989 8.80864 6.83903L9.37985 6.26358C9.84688 5.79313 9.11913 5.07064 8.65216 5.54116Z" fill="#6938EF"/>
<path d="M12.2473 5.4929C12.0481 5.69415 12.0499 6.01879 12.2512 6.21792L12.8276 6.78824C13.2982 7.25411 14.0204 6.52595 13.5488 6.05939L12.9724 5.48907C12.7711 5.2898 12.4465 5.29158 12.2473 5.4929Z" fill="#6938EF"/>
<path d="M12.8192 4.05056C12.8205 4.33295 13.0497 4.561 13.3318 4.561H13.3342L14.1457 4.55737C14.7932 4.5545 14.7745 3.53198 14.1412 3.53198L13.3297 3.53561C13.0465 3.53684 12.818 3.76741 12.8192 4.05056Z" fill="#6938EF"/>
<path d="M12.5627 2.77608C12.6945 2.77608 12.8263 2.72556 12.9265 2.6246L13.4978 2.04915C13.9649 1.57877 13.237 0.856072 12.7701 1.32673L12.1989 1.90218C11.8961 2.20713 12.1334 2.77608 12.5627 2.77608Z" fill="#6938EF"/>
<path d="M34.4873 31.653H31.3022V26.0321C31.3022 24.1623 29.7874 22.6401 27.9206 22.6272V16.8845C27.9206 15.0767 26.5044 13.5939 24.7233 13.4859V7.38616C24.7233 7.10295 24.4938 6.87347 24.2106 6.87347C23.9274 6.87347 23.6979 7.10295 23.6979 7.38616V13.479H19.8853V7.73131C19.8853 7.4481 19.6558 7.21861 19.3726 7.21861H18.0044V5.3952C20.0456 4.83513 19.3212 2.78913 18.6512 1.50965C18.2988 0.836719 17.9519 0.268926 17.9373 0.245068C17.6458 -0.0816895 17.3543 -0.0816895 17.0628 0.245068C17.0481 0.268926 16.7012 0.836719 16.3489 1.50965C15.6803 2.78633 14.9462 4.81271 16.9791 5.39048V7.21861H15.6276C15.3444 7.21861 15.1149 7.4481 15.1149 7.73131V13.479H11.3023V3.77303C11.3023 3.11015 10.2769 3.11015 10.2769 3.77303V13.4859C8.4957 13.594 7.07957 15.0767 7.07957 16.8845V22.6272C5.21274 22.6401 3.6979 24.1623 3.6979 26.0321V31.653H0.512695C0.229482 31.653 0 31.8825 0 32.1657C0 33.7285 1.27148 35 2.83432 35H32.1657C33.7285 35 35 33.7285 35 32.1657C35 31.8825 34.7705 31.653 34.4873 31.653ZM16.6186 3.55893C16.6186 2.90199 17.1994 2.07409 17.5008 1.53036C17.7916 2.05324 18.4942 3.06093 18.3472 3.71328C18.1288 4.68364 16.6186 4.67811 16.6186 3.55893ZM16.1401 10.3504H18.8598V11.3725H16.1401V10.3504ZM18.8599 8.244V9.32504H16.1402V8.244H18.8599ZM16.1401 12.3979H18.8598V13.4789H16.1401V12.3979ZM10.485 14.5044H24.515C25.7146 14.5044 26.7092 15.3965 26.8715 16.552C26.1002 16.7752 25.6668 17.4789 25.3066 18.0645C24.8886 18.7441 24.6064 19.1607 24.0946 19.1607C23.5828 19.1607 23.3006 18.7441 22.8825 18.0644C22.4483 17.3586 21.908 16.48 20.797 16.48C19.6861 16.48 19.1458 17.3586 18.7116 18.0645C18.2936 18.7441 18.0115 19.1607 17.4997 19.1607C16.9879 19.1607 16.7057 18.7441 16.2877 18.0645C15.8536 17.3586 15.3133 16.48 14.2023 16.48C13.7367 16.48 13.3167 16.6422 12.9541 16.9622C12.4571 17.4008 13.1354 18.1697 13.6325 17.7311C13.8094 17.5751 13.9852 17.5054 14.2023 17.5054C14.7141 17.5054 14.9963 17.922 15.4143 18.6016C15.8484 19.3076 16.3888 20.1861 17.4997 20.1861C18.6106 20.1861 19.1509 19.3076 19.5851 18.6016C20.0031 17.922 20.2852 17.5054 20.797 17.5054C21.3088 17.5054 21.591 17.922 22.0091 18.6016C22.4433 19.3076 22.9837 20.1861 24.0946 20.1861C25.2056 20.1861 25.7459 19.3076 26.1801 18.6016C26.4418 18.1761 26.6503 17.8538 26.8952 17.6722V22.6265H8.10482V17.6723C8.34969 17.8539 8.55812 18.1762 8.81979 18.6017C9.25395 19.3076 9.79426 20.1862 10.9052 20.1862C11.4491 20.1862 11.9121 19.9753 12.3208 19.5413C12.7753 19.0588 12.0287 18.3557 11.5743 18.8383C11.3615 19.0644 11.1613 19.1608 10.9052 19.1608C10.3934 19.1608 10.1112 18.7442 9.69322 18.0646C9.33317 17.4791 8.89964 16.7753 8.12854 16.5521C8.29076 15.3964 9.28539 14.5044 10.485 14.5044ZM7.10336 23.6519H7.59206H27.4079H27.8966C29.0619 23.6519 30.0336 24.4939 30.237 25.6013C29.2073 25.8454 28.6433 26.7609 28.1377 27.583C27.542 28.5515 27.1251 29.1396 26.3594 29.1396C25.8485 29.1396 25.474 29.0349 24.581 27.583C23.9915 26.6245 23.3233 25.5382 21.9292 25.5382C20.5352 25.5382 19.867 26.6246 19.2775 27.5831C18.6819 28.5516 18.2649 29.1397 17.4993 29.1397C16.9885 29.1397 16.6141 29.035 15.7212 27.5831C15.1317 26.6246 14.4636 25.5382 13.0696 25.5382C11.6755 25.5382 11.0075 26.6246 10.418 27.5831C9.82242 28.5516 9.4055 29.1397 8.64001 29.1397C8.12923 29.1397 7.75476 29.035 6.86185 27.5831C6.35626 26.761 5.79236 25.8455 4.76273 25.6014C4.96631 24.4939 5.93804 23.6519 7.10336 23.6519ZM32.1657 33.9746H2.83432C2.01489 33.9746 1.32091 33.4269 1.09936 32.6784H25.0532C25.7161 32.6784 25.7161 31.653 25.0532 31.653H4.72315V26.6548C5.04567 26.8008 5.40723 27.1749 5.98862 28.1202C6.57809 29.0786 7.24616 30.165 8.64021 30.165C10.0342 30.165 10.7022 29.0786 11.2917 28.1202C11.8873 27.1517 12.3042 26.5636 13.0698 26.5636C13.5805 26.5636 13.955 26.6683 14.8479 28.1202C15.4374 29.0786 16.1055 30.165 17.4995 30.165C18.8936 30.165 19.5617 29.0786 20.1512 28.1202C20.7469 27.1517 21.1638 26.5636 21.9294 26.5636C22.4403 26.5636 22.8148 26.6683 23.7078 28.1202C24.2973 29.0786 24.9655 30.1649 26.3596 30.1649C27.7537 30.1649 28.4218 29.0786 29.0113 28.1202C29.4595 27.3915 29.8065 26.8784 30.277 26.6688V31.653H27.6499C26.9871 31.653 26.9871 32.6784 27.6499 32.6784H33.9007C33.6791 33.4269 32.9851 33.9746 32.1657 33.9746Z" fill="#6938EF"/>
</svg>
