<svg width="30" height="35" viewBox="0 0 30 35" fill="none" xmlns="http://www.w3.org/2000/svg">
<g clip-path="url(#clip0_283_236)">
<path d="M8.57143 0C9.7567 0 10.7143 0.954806 10.7143 2.13663V4.27326H19.2857V2.13663C19.2857 0.954806 20.2433 0 21.4286 0C22.6138 0 23.5714 0.954806 23.5714 2.13663V4.27326H26.7857C28.5603 4.27326 30 5.7088 30 7.4782V10.6831H0V7.4782C0 5.7088 1.43973 4.27326 3.21429 4.27326H6.42857V2.13663C6.42857 0.954806 7.38616 0 8.57143 0ZM0 12.8198H30V30.9811C30 32.7505 28.5603 34.186 26.7857 34.186H3.21429C1.43973 34.186 0 32.7505 0 30.9811V12.8198ZM22.0312 20.3647C22.6607 19.7371 22.6607 18.7222 22.0312 18.1012C21.4018 17.4803 20.3839 17.4736 19.7612 18.1012L13.3996 24.4444L10.2522 21.3062C9.62277 20.6786 8.60491 20.6786 7.98214 21.3062C7.35937 21.9338 7.35268 22.9487 7.98214 23.5697L12.2679 27.8429C12.8973 28.4706 13.9152 28.4706 14.5379 27.8429L22.0312 20.3647Z" fill="#039855"/>
</g>
<defs>
<clipPath id="clip0_283_236">
<rect width="30" height="34.186" fill="white"/>
</clipPath>
</defs>
</svg>
