<svg xmlns="http://www.w3.org/2000/svg" version="1.1" xmlns:xlink="http://www.w3.org/1999/xlink" x="0" y="0" viewBox="0 0 512 512" style="enable-background:new 0 0 512 512" xml:space="preserve"><g><path fill="#ffffff" d="M427.946 260.864c29.482-.002 55.317-20.961 61.425-49.839l15.246-72.057c7.189-33.971-14.484-67.295-48.468-74.484L298.641 31.157c-34.208-7.245-67.405 15.017-74.484 48.468l-15.246 72.061c-3.973 18.782.941 37.406 11.87 51.509-2.494.224-4.981.58-7.437 1.1L55.835 237.621C21.939 244.793.197 278.206 7.368 312.105l15.246 72.057c6.108 28.88 31.943 49.841 61.428 49.841 3.335 0 6.688-.27 10.001-.803-.918 7.042-2.249 14.437-4.182 21.399-5.532 19.934 17.164 35.217 33.574 23.582 15.094-10.699 35.968-30.01 51.704-62.062l79.465-16.814c16.422-3.474 30.508-13.135 39.662-27.202 9.155-14.068 12.284-30.86 8.808-47.281l-15.246-72.059a62.286 62.286 0 0 0-9.451-22.153l58.47 12.371c15.734 32.05 36.61 51.363 51.7 62.059 16.613 11.775 39.058-3.823 33.576-23.577-1.931-6.963-3.264-14.357-4.182-21.401 3.314.533 6.665.802 10 .802z" opacity="1" data-original="#ffffff"></path><path fill="#ff3d81" d="M216.638 219.858 59.129 253.184c-25.357 5.365-41.564 30.27-36.199 55.628l15.246 72.058c5.365 25.357 30.27 41.564 55.628 36.199l17.882-3.784c-.495 11.341-1.998 29.354-6.497 45.569-1.475 5.316 4.546 9.539 9.047 6.349 13.635-9.665 34.133-28.425 48.827-60.761a5.82 5.82 0 0 0 .514-2.137l87.734-18.563c25.357-5.365 41.564-30.271 36.199-55.628l-15.246-72.058c-5.365-25.357-30.27-41.564-55.628-36.199z" opacity="1" data-original="#ff3d81"></path><path fill="#fcc836" d="M161.121 351.521c-5.169 1.156-6.914-.97-8.061-6.099-3.866-17.29-1.22-24.024 7.006-34.71 5.823-7.564 9.619-14.579 7.549-23.842-2.471-11.046-11.53-14.766-22.667-12.275-10.91 2.439-12.002 6.985-15.252 12.427-1.341 2.248-4.31 3.426-8.215 1.665-4.663-2.098-4.129-7.995-1.698-12.586 4.262-8.06 13.985-12.915 22.856-14.9 21.543-4.817 35.618 5.682 39.002 20.817 1.398 6.248 1.478 13.557-3.413 23.518-1.614 3.279-3.32 6.15-5.115 8.613-8.668 11.88-9.962 14.184-6.258 30.766.293 1.309.064 2.591-.686 3.846-.748 1.256-2.432 2.175-5.049 2.761zm7.26 31.692c-5.881 1.316-10.876-2.553-12.008-7.619-1.226-5.481 2.129-10.779 7.618-12.008 5.126-1.146 10.587 2.033 11.845 7.656 1.133 5.067-1.798 10.705-7.455 11.971z" opacity="1" data-original="#fcc836"></path><path fill="#776cff" d="m295.348 46.72 157.508 33.325c25.357 5.365 41.564 30.27 36.199 55.628l-15.246 72.058c-5.365 25.357-30.27 41.564-55.628 36.199l-17.882-3.784c.495 11.341 1.998 29.354 6.497 45.569 1.475 5.316-4.546 9.539-9.047 6.349-13.635-9.665-34.133-28.425-48.827-60.761a5.82 5.82 0 0 1-.514-2.137l-87.734-18.563c-25.357-5.365-41.564-30.271-36.199-55.628l15.246-72.058c5.365-25.357 30.27-41.564 55.628-36.199z" opacity="1" data-original="#776cff"></path><path fill="#5ed4be" d="M341.928 207.222c-5.86-1.303-8.763-6.91-7.634-11.997 1.221-5.488 6.512-8.855 11.997-7.635 5.099 1.133 8.728 6.304 7.471 11.961-1.128 5.081-6.187 8.926-11.834 7.671zm6.891-31.774c-5.065-1.125-5.875-3.692-4.708-8.943 3.866-17.395 9.14-22.287 21.087-28.448 5.226-2.694 9.626-5.532 13.097-9.879 4.343-5.442 6.404-15.286 1.501-21.813-5.384-7.151-20.307-11.111-27.957-5.526a132.7 132.7 0 0 1-4.072 2.872c-2.17 1.469-5.36 1.264-8.144-1.98-3.331-3.886-.34-8.996 3.809-12.116 13.464-10.139 45.52-4.573 52.76 16.36 3.276 9.47.542 20.385-4.436 26.912-13.51 17.726-27.637 14.039-32.575 29.93-.801 2.568-1.588 5.6-2.363 9.089-.632 2.853-3.042 4.646-7.998 3.544z" opacity="1" data-original="#5ed4be"></path></g></svg>