<svg xmlns="http://www.w3.org/2000/svg" version="1.1" xmlns:xlink="http://www.w3.org/1999/xlink" x="0" y="0" viewBox="0 0 64 64" style="enable-background:new 0 0 512 512" xml:space="preserve" class=""><g><path d="M53.419 26.423c.028-.265.042-.533.042-.804 0-4.39-3.567-7.96-7.951-7.96a7.781 7.781 0 0 0-4.391 1.337 8.756 8.756 0 0 0-6.989-3.486c-4.807 0-8.717 3.911-8.717 8.717 0 1.016.181 2.035.529 2.999-.222.102-.432.241-.647.364-2.073-1.07-4.684-.982-6.607.248a7.29 7.29 0 0 0-5.719-2.77c-4.019 0-7.288 3.265-7.288 7.278 0 .787.132 1.581.387 2.34C3.596 35.878 2 38.381 2 41.212c0 4.013 3.265 7.278 7.278 7.278h19.265c1.09 0 2.148-.253 3.109-.711.8.451 1.721.712 2.703.712h13.864c2.752 0 5.034-2.026 5.449-4.664C58.296 43.619 62 39.799 62 35.12c0-4.748-3.836-8.619-8.581-8.697zM9.278 46.49A5.284 5.284 0 0 1 4 41.212c0-2.284 1.512-4.346 3.677-5.015a.997.997 0 0 0 .597-1.406 5.453 5.453 0 0 1-.593-2.445c0-2.911 2.372-5.278 5.288-5.278a5.282 5.282 0 0 1 4.611 2.701c.15.269.415.453.719.5a.996.996 0 0 0 .837-.257c1.471-1.374 3.895-1.571 5.62-.443a4.648 4.648 0 0 1 2.124 3.908c0 .434-.061.85-.18 1.238a.999.999 0 0 0 1.085 1.286 5.383 5.383 0 0 1 3.723.888c.023.418.082.836.2 1.243a5.472 5.472 0 0 0-2.875 4.838 5.49 5.49 0 0 0 1.126 3.329 5.317 5.317 0 0 1-1.416.193H9.278zm38.94 0H34.354a3.526 3.526 0 0 1-3.522-3.522c0-1.542.986-2.886 2.455-3.343a1 1 0 0 0 .595-1.406 3.526 3.526 0 0 1 3.126-5.153c1.275 0 2.455.692 3.08 1.806a.998.998 0 0 0 1.555.242 2.955 2.955 0 0 1 2.026-.787 3.077 3.077 0 0 1 3.074 3.074c0 .28-.04.555-.118.818a1 1 0 0 0 1.096 1.275c.161-.022.33-.038.498-.038 1.942 0 3.522 1.576 3.522 3.513s-1.58 3.522-3.522 3.522zm5.396-4.661a5.525 5.525 0 0 0-4.872-4.349v-.08a5.08 5.08 0 0 0-5.074-5.074c-.884 0-1.735.227-2.479.652a5.538 5.538 0 0 0-4.182-1.914c-2.396 0-4.435 1.537-5.197 3.674a7.261 7.261 0 0 0-2.948-.79 6.63 6.63 0 0 0-1.78-5.02c.16-.064.317-.138.479-.187a.996.996 0 0 0 .601-1.411 6.884 6.884 0 0 1-.75-3.106 6.724 6.724 0 0 1 6.717-6.717 6.752 6.752 0 0 1 5.882 3.441 1 1 0 0 0 1.556.24c1.054-.988 2.454-1.533 3.941-1.533 3.281 0 5.951 2.674 5.951 5.96a5.49 5.49 0 0 1-.229 1.589 1.001 1.001 0 0 0 1.089 1.28c.332-.043.653-.066.953-.066 3.709 0 6.727 3.005 6.727 6.698 0 3.594-2.835 6.53-6.386 6.709z" fill="#000000" opacity="1" data-original="#000000" class=""></path><path d="M42.161 23.516a1 1 0 0 0-.123 1.993c.123.029 1.105.289 1.649 1.128.399.615.48 1.436.241 2.438a1 1 0 0 0 1.946.464c.511-2.143-.119-3.526-.737-4.309-1.02-1.292-2.56-1.713-2.976-1.713z" fill="#000000" opacity="1" data-original="#000000" class=""></path></g></svg>