<svg viewBox="0 0 24 24" fill="none" xmlns="http://www.w3.org/2000/svg">
<path d="M11.5906 23.1996C9.10926 23.1976 6.69396 22.4 4.69942 20.924C2.70488 19.4479 1.23623 17.3712 0.509154 14.9988C-0.217919 12.6264 -0.165088 10.0833 0.659888 7.74317C1.48486 5.403 3.0385 3.38905 5.09263 1.9971C7.14675 0.605142 9.59308 -0.0914483 12.0723 0.00963298C14.5516 0.110714 16.9331 1.00414 18.8671 2.55869C20.8011 4.11324 22.1856 6.24699 22.8174 8.64654C23.4491 11.0461 23.2947 13.585 22.3769 15.8903C22.2965 16.085 22.1426 16.2401 21.9485 16.322C21.7545 16.404 21.536 16.4062 21.3404 16.3281C21.1448 16.2501 20.9878 16.0981 20.9034 15.9051C20.8191 15.7121 20.8142 15.4937 20.8898 15.2971C21.7422 13.1554 21.8285 10.785 21.1341 8.58702C20.4396 6.38904 19.0071 4.4985 17.0789 3.23537C15.1507 1.97223 12.8453 1.41409 10.5529 1.65539C8.26052 1.8967 6.12188 2.92263 4.49898 4.55957C2.87607 6.1965 1.86857 8.34388 1.647 10.6383C1.42543 12.9327 2.00339 15.2332 3.28307 17.1504C4.56274 19.0676 6.46554 20.4839 8.66941 21.1594C10.8733 21.8349 13.2429 21.7282 15.3771 20.8574C15.5719 20.7852 15.7871 20.7915 15.9773 20.875C16.1675 20.9585 16.3178 21.1126 16.3964 21.3049C16.4751 21.4971 16.476 21.7124 16.3988 21.9053C16.3217 22.0982 16.1727 22.2535 15.9832 22.3385C14.589 22.9089 13.0969 23.2014 11.5906 23.1996Z" fill="white"/>
<path d="M9.58902 15.5937C9.48387 15.5938 9.37974 15.5732 9.2826 15.5329C9.18546 15.4926 9.09723 15.4336 9.02299 15.3591L6.62112 12.9573C6.54679 12.8829 6.48783 12.7946 6.44761 12.6975C6.40739 12.6003 6.3867 12.4962 6.38672 12.3911C6.38674 12.2859 6.40746 12.1818 6.44772 12.0847C6.48797 11.9876 6.54696 11.8993 6.62132 11.825C6.69568 11.7507 6.78395 11.6917 6.8811 11.6515C6.97824 11.6113 7.08236 11.5906 7.1875 11.5906C7.29264 11.5906 7.39675 11.6113 7.49388 11.6516C7.59101 11.6918 7.67927 11.7508 7.7536 11.8252L9.58902 13.6598L15.426 7.82329C15.5761 7.67311 15.7797 7.58872 15.9921 7.58868C16.2044 7.58865 16.4081 7.67296 16.5582 7.82309C16.7084 7.97321 16.7928 8.17684 16.7928 8.38918C16.7929 8.60153 16.7086 8.80519 16.5584 8.95537L10.1563 15.3579C10.082 15.4328 9.9936 15.4921 9.89623 15.5326C9.79887 15.573 9.69446 15.5938 9.58902 15.5937Z" fill="white"/>
<path d="M19.1965 24.0002H19.1781C19.0181 23.9965 18.8629 23.9449 18.7326 23.8522C18.6022 23.7594 18.5026 23.6297 18.4467 23.4798L16.0448 17.0749C15.9922 16.9345 15.98 16.7821 16.0097 16.6351C16.0394 16.4881 16.1098 16.3525 16.2128 16.2435C16.3159 16.1346 16.4475 16.0568 16.5926 16.019C16.7377 15.9812 16.8905 15.9849 17.0336 16.0296L23.4386 18.0312C23.5872 18.0778 23.7191 18.1667 23.818 18.2871C23.9169 18.4075 23.9785 18.5541 23.9953 18.709C24.0121 18.8639 23.9833 19.0203 23.9125 19.1591C23.8417 19.2979 23.7319 19.413 23.5967 19.4903L21.0275 20.9579L19.9322 23.5135C19.8708 23.6577 19.7683 23.7808 19.6374 23.8673C19.5066 23.9539 19.3533 24.0001 19.1965 24.0002ZM18.1196 18.0476L19.2461 21.0499L19.6616 20.0804C19.7303 19.9204 19.8492 19.7872 20.0003 19.7009L21.2072 19.0108L18.1196 18.0476Z" fill="white"/>
<path d="M14.7931 15.5937C14.6879 15.5939 14.5837 15.5733 14.4866 15.533C14.3894 15.4928 14.3012 15.4337 14.227 15.3591L13.8267 14.9588C13.6809 14.8078 13.6002 14.6056 13.602 14.3957C13.6038 14.1857 13.688 13.9849 13.8365 13.8365C13.9849 13.688 14.1857 13.6038 14.3956 13.602C14.6055 13.6002 14.8078 13.6809 14.9588 13.8267L15.3591 14.227C15.471 14.339 15.5473 14.4817 15.5781 14.6369C15.609 14.7922 15.5932 14.9532 15.5326 15.0994C15.472 15.2457 15.3694 15.3707 15.2378 15.4587C15.1061 15.5467 14.9514 15.5937 14.7931 15.5937Z" fill="white"/>
<path d="M13.964 17.5953H13.398C13.1856 17.5953 12.982 17.5109 12.8318 17.3608C12.6817 17.2106 12.5974 17.007 12.5974 16.7946C12.5974 16.5823 12.6817 16.3787 12.8318 16.2285C12.982 16.0784 13.1856 15.994 13.398 15.994H13.964C14.1764 15.994 14.38 16.0784 14.5301 16.2285C14.6803 16.3787 14.7646 16.5823 14.7646 16.7946C14.7646 17.007 14.6803 17.2106 14.5301 17.3608C14.38 17.5109 14.1764 17.5953 13.964 17.5953Z" fill="white"/>
<path d="M16.7946 14.7647C16.5823 14.7647 16.3786 14.6803 16.2285 14.5302C16.0783 14.3801 15.994 14.1764 15.994 13.9641V13.398C15.994 13.1857 16.0783 12.9821 16.2285 12.8319C16.3786 12.6818 16.5823 12.5974 16.7946 12.5974C17.0069 12.5974 17.2106 12.6818 17.3607 12.8319C17.5109 12.9821 17.5952 13.1857 17.5952 13.398V13.9641C17.5952 14.1764 17.5109 14.3801 17.3607 14.5302C17.2106 14.6803 17.0069 14.7647 16.7946 14.7647Z" fill="white"/>
</svg>
