<svg xmlns="http://www.w3.org/2000/svg" version="1.1" xmlns:xlink="http://www.w3.org/1999/xlink" width="512" height="512" x="0" y="0" viewBox="0 0 512 512" style="enable-background:new 0 0 512 512" xml:space="preserve" class=""><g><path fill="#ffffff" d="m494.59 444.4-42.052-42.053a19.017 19.017 0 0 0-20.244-4.32l-15.209-15.209a228.59 228.59 0 0 0 53.609-147.384C470.694 108.924 367.777 6 241.276 6 114.766 6 11.84 108.924 11.84 235.434a229.62 229.62 0 0 0 69.283 164.257l-2.044 2.632-17.278-17.04a26.667 26.667 0 1 0-36.244 39.093l40.16 34.992a30.725 30.725 0 0 0 45.076-5.188l14.84-20.576a229.567 229.567 0 0 0 250.05-12.22l16.579 16.58a19.037 19.037 0 0 0 4.242 20.415l42.053 42.052a18.999 18.999 0 0 0 26.885.001l29.147-29.148a18.998 18.998 0 0 0 0-26.883z" opacity="1" data-original="#ffffff" class=""></path><path fill="#d1d5db" d="m335.58 54.24 60.194 60.194-275.269 275.268-60.193-60.193z" opacity="1" data-original="#eae5db" class=""></path><path fill="#a369f7" d="m235.442 219.006-75.447 16.222s-24.424 4.543-34.247 29.355-40.427 90.381-40.427 90.381 70.601 79.482 116.652 82.84 122.467-10.422 142.94-23.45 40.946-39.83 40.946-39.83L360.778 270.04s-9.353-35.228-48.943-38.982l-57.749-10.269z" opacity="1" data-original="#a369f7" class=""></path><path fill="#ffad92" d="m262.666 186.635 3.603 36.706s-7.34 22.824-25.493 21.356-30.566-20.555-30.566-20.555l8.676-34.57z" opacity="1" data-original="#ffad92" class=""></path><path fill="#ed6c4d" d="m262.666 186.635-43.78 2.937-2.073 8.258s8.177 15.604 23.382 14.748 23.632-14.114 23.632-14.114z" opacity="1" data-original="#ed6c4d"></path><path fill="#ff605b" d="m265.407 433.392-11.664-174.586 7.91-10.647-6.998-10.343-27.074.609-6.084 7.3 10.343 13.69-3.796 170.935s-1.849 22.602 37.363 3.042z" opacity="1" data-original="#ff605b" class=""></path><path fill="#ffad92" d="M217.878 281.67s3.33-19.101 13.485-21.368c0 0 14.55 5.397 22.405-.83 0 0 8.105-1.126 6.638 5.81 0 0 8.028 22.905-2.696 29.25s-27.592 4.15-27.592 4.15l-44.187 44.602s-17.185-14.683-19.765-29.236z" opacity="1" data-original="#ffad92" class=""></path><path fill="#824cd8" d="m264.725 214.294-12.695 22.817 13.381 19.043 6.862-28.307zM213.43 212.578l16.532 25.189-7.892 18.387-16.189-30.023z" opacity="1" data-original="#824cd8"></path><path fill="#1d1d3d" d="m246.804 163.118 33.345 11.11 9.66-13.344a192.717 192.717 0 0 0 4.798-27.297c1.432-14.624-11.751-22.87-11.751-22.87s-6.93-22.683-38.024-24.656c-34.694-2.202-66.062 21.119-52.054 71.514a130.587 130.587 0 0 0 7.907 20.012l9.86-.607 17.964-13.931z" opacity="1" data-original="#1d1d3d" class=""></path><path fill="#ffad92" d="M205.169 182.477s11.817 24.903 39.264 22.07 34.382-23.309 34.382-23.309 7.404 2.258 12.324-11.166-.385-15.697-6.122-14.613l-5.8 12.613.011-20.866-3.847-7.372-1.5-14.804a23.092 23.092 0 0 1-20.128 15.305s12.066-9.055 14.136-17.675c0 0-11.437 9.984-23.223 12.744 0 0 7.231-6.132 9.54-12.589 0 0-16.7 15.62-44.627 12.257l-6.466 22.343-.345 16.233-6.717-19.555s-13.012-1.745-7.029 14.328c6.17 16.573 14.4 15.803 16.147 14.056z" opacity="1" data-original="#ffad92" class=""></path><path fill="#ffffff" d="M224.179 176.184s17.042 2.942 32.033-.802c0 0-.288 11.688-16.897 11.688-13.019 0-15.136-10.886-15.136-10.886z" opacity="1" data-original="#ffffff" class=""></path><g fill="#824cd8"><path d="m341.641 410.61-28.892-92.53a2.5 2.5 0 1 1 4.772-1.491l28.893 92.532a2.5 2.5 0 0 1-4.773 1.49zM112.574 338.68a2.5 2.5 0 0 1 1.228-3.315l51.32-23.588a2.5 2.5 0 1 1 2.088 4.543l-51.32 23.588a2.5 2.5 0 0 1-3.316-1.228zM137.1 395.967a2.5 2.5 0 0 1-1.792-4.243l48.83-50.184a2.5 2.5 0 0 1 3.585 3.487l-48.83 50.184a2.494 2.494 0 0 1-1.793.756zM306.937 331.162h-36.7a2.5 2.5 0 0 1 0-5h36.7a2.5 2.5 0 0 1 0 5z" fill="#824cd8" opacity="1" data-original="#824cd8"></path></g><path fill="#b2aca3" d="m384.573 367.02 69.843 69.842-23.183 23.182-69.842-69.842z" opacity="1" data-original="#b2aca3" class=""></path><path fill="#4b5563" d="M241.276 17.878c-120.157 0-217.557 97.4-217.557 217.556 0 120.14 97.4 217.54 217.557 217.54a217.563 217.563 0 0 0 217.54-217.54c0-120.156-97.4-217.556-217.54-217.556zm2.333 408.61c-104.219 0-188.721-84.502-188.721-188.72S139.39 49.045 243.608 49.045c104.22 0 188.722 84.503 188.722 188.721S347.828 426.488 243.61 426.488z" opacity="1" data-original="#00abfe" class=""></path><rect width="73.736" height="55.486" x="408.68" y="423.647" fill="#111928" rx="6.004" transform="rotate(45 445.664 451.343)" opacity="1" data-original="#ffb020" class=""></rect><path fill="#111928" d="M121.986 143.682c-2.724 10.924-9.606 29.35-26.178 39.409a2.811 2.811 0 0 0 1.245 5.204c11.063.988 25.477 5.115 31.504 19.148a2.808 2.808 0 0 0 5.224-.078c3.092-8.268 9.944-19.129 25.117-25.861a2.806 2.806 0 0 0 .152-5.084c-8.044-3.998-21.974-13.368-31.807-33.25a2.814 2.814 0 0 0-5.257.512zM403.007 347.81c-1.967-8.318-3.742-23.144 3.933-35.7a2.134 2.134 0 0 0-2.652-3.077c-7.807 3.186-18.967 5.423-27.92-1.944a2.131 2.131 0 0 0-3.496 1.872c.794 6.654-.045 16.366-7.935 26.192a2.13 2.13 0 0 0 1.667 3.482c6.82-.105 19.479 1.364 33.035 11.35a2.136 2.136 0 0 0 3.368-2.176z" opacity="1" data-original="#ffb020" class=""></path><path fill="#111928" d="m53.462 393.74 26.797 26.429 53.803-69.27a14.839 14.839 0 0 1 22.909-.643 14.839 14.839 0 0 1 .845 18.426l-56.656 78.55a18.828 18.828 0 0 1-27.638 3.18l-40.16-34.991a14.79 14.79 0 0 1-2.405-19.626 14.79 14.79 0 0 1 22.505-2.055z" opacity="1" data-original="#7ad001" class=""></path></g></svg>