<svg xmlns="http://www.w3.org/2000/svg" version="1.1" xmlns:xlink="http://www.w3.org/1999/xlink" width="512" height="512" x="0" y="0" viewBox="0 0 512 512" style="enable-background:new 0 0 512 512" xml:space="preserve" class=""><g><path d="M257.245 512c-17.502-.043-34.845-1.843-51.94-5.547l-49.647 4.738a13.257 13.257 0 0 1-14.495-12.458l-.565-10.154a13.24 13.24 0 0 1 .891-5.574 246.57 246.57 0 0 1-68.515-54.417C33.639 383.86 11.975 326.384 11.975 266.753c0-7.865.386-15.808 1.148-23.715a14.421 14.421 0 0 1-3.613-9.561c0-5.119 2.671-9.626 6.689-12.201 11.196-59.357 44.714-113.472 93.148-150.162.421-.816.91-1.599 1.471-2.345 3.048-4.079 7.354-6.642 12.335-7.395A244.388 244.388 0 0 1 146.6 47.833a14.958 14.958 0 0 1-.037-1.042c0-6.822 4.742-12.556 11.103-14.082.3-3.806 2.05-7.276 4.936-9.783a14.48 14.48 0 0 1 7-3.334c2.062-5.485 7.363-9.398 13.558-9.398 6.621 0 12.219 4.467 13.936 10.545a14.499 14.499 0 0 1 10.387 4.901c.226.26.442.525.649.795a245.738 245.738 0 0 1 38.69-4.71 13.254 13.254 0 0 1 18.033-12.17l22.228 8.591 11.505-13.49a13.257 13.257 0 0 1 15.869-3.328 13.255 13.255 0 0 1 7.218 14.514l-2.688 13.512a243.381 243.381 0 0 1 51.215 19.68 80.479 80.479 0 0 1 30.665-6.096c44.213 0 80.183 35.968 80.183 80.181a80.485 80.485 0 0 1-6.097 30.663c18.033 34.719 27.535 73.629 27.535 112.971 0 50.495-15.155 98.824-43.861 140.006l-6.232 57.694c-.015.151-.035.302-.056.451l-1.128 7.896a13.25 13.25 0 0 1-11.861 11.319l-85.611 8.169a228 228 0 0 1-5.522 2.278c-.386.198-.783.378-1.193.537-19.349 7.536-39.006 12.536-59.605 15.045-10.402 1.286-19.895 1.825-30.174 1.852z" style="" fill="#ffffff" data-original="#ffffff"></path><path d="M489.237 266.753c0 50.432-16.082 97.109-43.408 135.148-19.704 27.436-45.241 50.41-74.798 67.066-.243.155-.508.287-.773.42a222.737 222.737 0 0 1-19.903 9.919 214.755 214.755 0 0 1-8.35 3.468c-10.515 4.131-141.458-34.547-141.458-34.547s-91.683 1.124-117.617-28.388c-35.919-40.845-57.7-94.414-57.7-153.086 0-128.124 103.868-231.992 232.014-231.992 128.125-.001 231.993 103.868 231.993 231.992z" style="" fill="#4647de" data-original="#4647de"></path><path d="M365.591 237.353a51.141 51.141 0 0 1 1.414 6.81c.313 2.286.564 4.559.749 6.817.044.595.13 1.555.255 2.879.126 1.322.244 2.799.357 4.429.11 1.632.172 3.339.183 5.121a42.709 42.709 0 0 1-.236 4.929c-.167 1.509-.456 2.793-.868 3.861s-.993 1.707-1.744 1.918c-.753.209-1.584.035-2.489-.522-.905-.56-1.808-1.33-2.713-2.315a31.03 31.03 0 0 1-2.687-3.416 65.865 65.865 0 0 1-2.427-3.793 85.478 85.478 0 0 1-1.925-3.414 145.802 145.802 0 0 1-1.238-2.359c-.015.531-.033 1.374-.053 2.537a65.87 65.87 0 0 1-.203 3.949 79.929 79.929 0 0 1-.496 4.546 43.1 43.1 0 0 1-.817 4.365c-.335 1.348-.753 2.5-1.255 3.451-.507.952-1.117 1.529-1.83 1.729-.941.262-1.883.077-2.828-.551-.945-.625-1.846-1.522-2.696-2.683a30.964 30.964 0 0 1-2.456-3.998 56.197 56.197 0 0 1-2.112-4.517 125.135 125.135 0 0 1-1.672-4.246 95.876 95.876 0 0 1-1.125-3.154 671.366 671.366 0 0 1-1.791-5.216 101.27 101.27 0 0 1-1.621-5.262 84.092 84.092 0 0 1-.676-2.641 17.952 17.952 0 0 1-.491-3.392c-.055-1.139.059-2.183.341-3.134.282-.949.901-1.599 1.859-1.947.815-.269 1.623-.13 2.425.414.802.546 1.575 1.357 2.319 2.423a25.124 25.124 0 0 1 2.09 3.674 64.15 64.15 0 0 1 1.738 4.046c.511 1.319.94 2.535 1.293 3.656.355 1.117.586 1.945.694 2.482l.355 1.48a75.966 75.966 0 0 1-.053-2.478c-.013-1.13 0-2.423.042-3.876.042-1.447.099-2.945.174-4.487a41.8 41.8 0 0 1 .419-4.282c.201-1.313.456-2.429.767-3.348.311-.916.707-1.465 1.185-1.637.63-.218 1.343-.011 2.15.615.802.628 1.617 1.507 2.438 2.634a38.735 38.735 0 0 1 2.443 3.85 101.15 101.15 0 0 1 2.24 4.207 63.768 63.768 0 0 1 1.742 3.742c.478 1.123.822 1.921 1.033 2.387a61.925 61.925 0 0 1-.513-2.929 91.825 91.825 0 0 1-.592-4.517 76.251 76.251 0 0 1-.383-5.185 38.163 38.163 0 0 1 .099-4.982c.137-1.537.421-2.844.85-3.918.432-1.073 1.059-1.725 1.888-1.956.94-.262 1.78-.161 2.518.302.736.462 1.359 1.099 1.87 1.912.509.806.936 1.683 1.28 2.621.34.941.602 1.73.78 2.369zM390.535 268.093c-2.295.641-4.447.621-6.46-.053-2.013-.672-3.846-1.824-5.497-3.449-1.648-1.628-3.106-3.645-4.363-6.048-1.26-2.407-2.284-5.022-3.07-7.841a39.457 39.457 0 0 1-1.366-8.257c-.172-2.868.037-5.566.632-8.081.595-2.518 1.621-4.729 3.075-6.639 1.454-1.901 3.458-3.214 6.017-3.929 2.48-.692 4.746-.606 6.795.264 2.044.868 3.863 2.225 5.453 4.07 1.59 1.848 2.969 4.026 4.136 6.537a50.373 50.373 0 0 1 2.854 7.72c.819 2.934 1.304 5.786 1.449 8.563.148 2.78-.09 5.33-.72 7.652-.628 2.324-1.674 4.321-3.132 5.984-1.462 1.666-3.396 2.836-5.803 3.507zm-8.114-31.67c-.716.198-1.249.652-1.597 1.357-.352.709-.566 1.568-.648 2.584-.082 1.018-.037 2.119.132 3.308.17 1.189.419 2.368.744 3.535a32.052 32.052 0 0 0 1.357 3.877c.537 1.269 1.121 2.381 1.753 3.341.632.958 1.291 1.687 1.978 2.183.687.5 1.388.645 2.101.447.828-.231 1.37-.826 1.628-1.793.26-.962.368-2.066.322-3.31a23.453 23.453 0 0 0-.443-3.769 43.27 43.27 0 0 0-.727-3.143 28.568 28.568 0 0 0-1.095-3.163 17.545 17.545 0 0 0-1.524-2.947c-.57-.877-1.187-1.564-1.852-2.068-.669-.501-1.378-.65-2.129-.439zM426.692 223.996c.725 2.597.773 5.099.148 7.502-.625 2.405-1.714 4.676-3.266 6.812a38.075 38.075 0 0 1 2.744 2.639 34.69 34.69 0 0 1 2.784 3.326 33.933 33.933 0 0 1 2.359 3.661c.692 1.247 1.198 2.432 1.513 3.561.337 1.205.346 2.365.031 3.487-.315 1.126-1.17 1.879-2.559 2.266-1.167.326-2.33.044-3.491-.848-1.163-.894-2.291-2.026-3.383-3.405a68.821 68.821 0 0 1-3.136-4.262c-1-1.465-1.879-2.619-2.641-3.46-.612.414-1.2.852-1.76 1.313-.562.46-1.143.919-1.747 1.372.194.835.445 1.993.755 3.469.311 1.469.504 2.967.584 4.486.081 1.52-.053 2.894-.399 4.125s-1.081 2.004-2.211 2.319c-1.24.346-2.339.108-3.302-.718-.96-.826-1.775-1.899-2.447-3.209a25.681 25.681 0 0 1-1.669-4.125c-.44-1.436-.777-2.57-1.009-3.398a120.187 120.187 0 0 1-1.343-5.249c-.405-1.736-.85-3.484-1.344-5.251a155.652 155.652 0 0 0-1.44-4.83 143.365 143.365 0 0 1-1.456-4.883l-.403-1.438a20.901 20.901 0 0 1-.419-1.83 45.305 45.305 0 0 1-.299-1.832c-.084-.584-.077-1.07.018-1.465.154-.892.799-1.885 1.936-2.971a30.513 30.513 0 0 1 3.872-3.119 41.395 41.395 0 0 1 4.321-2.606c1.434-.744 2.526-1.222 3.279-1.434 1.916-.535 3.709-.652 5.376-.346 1.667.304 3.158.932 4.478 1.879 1.319.951 2.447 2.158 3.383 3.619a17.93 17.93 0 0 1 2.143 4.843zm-10.215 3.707c-.273-.978-.707-1.661-1.302-2.039-.592-.381-1.396-.432-2.412-.148a7.334 7.334 0 0 0-2.174 1.031c-.698.48-1.322.978-1.863 1.498a148.074 148.074 0 0 1 2.643 8.808 18.963 18.963 0 0 0 2.141-1.694 11.375 11.375 0 0 0 1.859-2.161 8.606 8.606 0 0 0 1.154-2.511c.242-.881.227-1.806-.046-2.784zM464.582 242.731c.295 1.051.269 1.982-.073 2.786-.344.806-1.059 1.359-2.152 1.665-.863.24-1.736.203-2.617-.119a10.787 10.787 0 0 1-2.575-1.381 16.888 16.888 0 0 1-2.321-1.995 45.277 45.277 0 0 1-1.786-1.936 571.585 571.585 0 0 1-3.665-4.083 283.374 283.374 0 0 1-3.625-4.158l-2.802 3.033a19.68 19.68 0 0 1 .744 3.321 51.73 51.73 0 0 0 .575 3.366c.137.773.242 1.628.319 2.555.079.934.035 1.837-.126 2.711a5.959 5.959 0 0 1-.978 2.372c-.493.705-1.209 1.189-2.15 1.452-.866.242-1.63.264-2.293.064a4.579 4.579 0 0 1-1.769-.998 5.914 5.914 0 0 1-1.297-1.705c-.35-.672-.63-1.383-.841-2.134l-.125-.454a63.634 63.634 0 0 1-1.5-6.788 93.155 93.155 0 0 0-1.403-6.876 705.467 705.467 0 0 1-2.207-8.991 344.76 344.76 0 0 1-2.037-9.044 8.755 8.755 0 0 1-.214-2.066c.007-.692.13-1.344.363-1.958a4.446 4.446 0 0 1 1.044-1.597c.463-.454 1.07-.789 1.822-.998 1.165-.326 2.156-.156 2.971.509.813.665 1.496 1.548 2.046 2.652a18.14 18.14 0 0 1 1.319 3.524c.326 1.249.608 2.284.839 3.11.661 2.37 1.266 4.755 1.817 7.156a30.047 30.047 0 0 0 2.319-3.993 31.657 31.657 0 0 0 1.742-4.317c.291-.852.579-1.995.868-3.434a45.209 45.209 0 0 1 1.062-4.251c.421-1.394.96-2.661 1.617-3.797.656-1.134 1.491-1.846 2.507-2.13 1.09-.304 1.978-.216 2.659.26.681.482 1.163 1.227 1.447 2.244.419 1.504.615 3.112.586 4.821a27.538 27.538 0 0 1-.59 5.185 35.733 35.733 0 0 1-1.465 5.092c-.615 1.65-1.289 3.128-2.02 4.423a122.5 122.5 0 0 1 4.48 4.498c1.438 1.524 2.881 3.057 4.326 4.601a25.052 25.052 0 0 1 1.537 1.696c.52.628 1.015 1.28 1.489 1.956.474.681.901 1.374 1.277 2.077.385.706.669 1.396.856 2.074zM362.023 314.765c.156.555.293 1.229.414 2.033a9.57 9.57 0 0 1 .057 2.37c-.079.784-.286 1.482-.621 2.097-.335.612-.89 1.029-1.663 1.245-1.022.284-1.892.128-2.61-.478-.72-.603-1.335-1.39-1.846-2.363a19.215 19.215 0 0 1-1.278-3.059c-.344-1.068-.617-1.916-.821-2.542a157.087 157.087 0 0 1-5.643 2.513c.123.652.225 1.474.306 2.46.086.989.062 1.971-.068 2.947a7.953 7.953 0 0 1-.822 2.661c-.416.804-1.053 1.324-1.907 1.562-.665.185-1.249.09-1.758-.291a5.322 5.322 0 0 1-1.33-1.482 9.516 9.516 0 0 1-.925-1.954 31.995 31.995 0 0 1-.553-1.742 30.465 30.465 0 0 1-.929-4.768 91.069 91.069 0 0 1-.408-4.819 60.543 60.543 0 0 1-.123-3.004 42.235 42.235 0 0 1 .082-3.621c.082-1.258.233-2.52.46-3.79a17.17 17.17 0 0 1 1.004-3.517c.445-1.077 1.031-2.018 1.762-2.817a5.673 5.673 0 0 1 2.711-1.65c1.048-.293 2.026-.315 2.932-.06a7.498 7.498 0 0 1 2.551 1.299 11.628 11.628 0 0 1 2.185 2.225 26.8 26.8 0 0 1 1.806 2.714 44.573 44.573 0 0 1 1.491 2.775l1.194 2.436a91.065 91.065 0 0 1 2.434 5.198 42.303 42.303 0 0 1 1.916 5.422zm-10.807-7.837c-.093-.33-.264-.868-.518-1.617a19.407 19.407 0 0 0-.908-2.207c-.352-.718-.753-1.337-1.209-1.848-.456-.515-.932-.703-1.429-.564-.277.079-.487.339-.632.78-.143.445-.234.976-.271 1.595-.033.621-.031 1.297.009 2.031.044.731.097 1.434.163 2.099.066.667.145 1.264.231 1.791.088.526.148.905.183 1.132a57.94 57.94 0 0 0 4.716-1.989l-.335-1.203zM376.058 286.949c.192.692.097 1.394-.282 2.11a8.623 8.623 0 0 1-1.533 2.037 14.728 14.728 0 0 1-2.046 1.709c-.725.502-1.333.879-1.826 1.137a145.96 145.96 0 0 0 1.258 6.504c.465 2.15.996 4.286 1.59 6.414a65.668 65.668 0 0 0 1.02 3.332c.366 1.09.7 2.189 1.009 3.295a10.8 10.8 0 0 1 .313 1.674 7.166 7.166 0 0 1-.029 1.819 3.941 3.941 0 0 1-.604 1.599c-.315.474-.775.797-1.383.967-.718.2-1.348.159-1.888-.123a4.182 4.182 0 0 1-1.405-1.191 7.64 7.64 0 0 1-.991-1.709 14.587 14.587 0 0 1-.617-1.729 299 299 0 0 1-2.967-9.982 321.625 321.625 0 0 1-1.134-4.15c-.366-1.357-.745-2.74-1.139-4.152a16.929 16.929 0 0 1-2.356.839c-.333.092-.777.178-1.335.26a7.339 7.339 0 0 1-1.659.064 4.148 4.148 0 0 1-1.493-.388c-.447-.218-.74-.577-.877-1.073-.233-.83-.112-1.645.366-2.449.474-.802 1.152-1.573 2.033-2.308a21.308 21.308 0 0 1 3.033-2.097 37.192 37.192 0 0 1 3.438-1.767 54.519 54.519 0 0 1 3.205-1.319c.987-.366 1.755-.623 2.308-.777a25.875 25.875 0 0 1 1.694-.407 6.365 6.365 0 0 1 1.777-.117 3.3 3.3 0 0 1 1.548.507c.454.291.778.782.972 1.471zM405.065 283.808a150.676 150.676 0 0 1 1.758 6.945c.533 2.337 1.04 4.678 1.513 7.015.088.423.216.989.388 1.7a41.218 41.218 0 0 1 .826 4.883c.092.87.09 1.683-.011 2.44-.101.755-.319 1.414-.656 1.967-.335.557-.835.927-1.5 1.112-.579.163-1.132.183-1.656.062a3.68 3.68 0 0 1-1.412-.654 4.758 4.758 0 0 1-1.086-1.174 5.293 5.293 0 0 1-.696-1.524 50.15 50.15 0 0 1-.687-2.78 46.304 46.304 0 0 1-.52-2.824l-3.986 1.562c.119.738.269 1.628.454 2.665a14.76 14.76 0 0 1 .231 3.061c-.033 1.004-.245 1.921-.641 2.747-.396.826-1.103 1.381-2.128 1.667-.634.176-1.198.178-1.694.002a3.345 3.345 0 0 1-1.306-.839 5.589 5.589 0 0 1-.965-1.363 8.406 8.406 0 0 1-.603-1.529 61.132 61.132 0 0 1-1.176-5.009 103.543 103.543 0 0 0-1.092-5.033 143.402 143.402 0 0 0-1.401-5.262 137.75 137.75 0 0 1-1.414-5.299 77.966 77.966 0 0 0-.504-2.048 9.495 9.495 0 0 1-.319-2.258 4.215 4.215 0 0 1 .434-1.974c.295-.59.872-1.004 1.729-1.242 1.187-.333 2.172-.271 2.954.181s1.425 1.108 1.932 1.962c.509.857.908 1.802 1.196 2.839l.782 2.795c.308 1.106.582 2.198.824 3.277.242 1.077.487 2.163.731 3.258l4.249-1.903c-.35-1.359-.696-2.709-1.037-4.044a98.223 98.223 0 0 1-.947-4.022c-.15-.643-.308-1.326-.482-2.055a7.793 7.793 0 0 1-.227-2.081c.024-.659.209-1.258.553-1.784s.971-.919 1.883-1.172c.773-.216 1.462-.172 2.07.134a5.14 5.14 0 0 1 1.612 1.291 8.01 8.01 0 0 1 1.167 1.863c.31.687.551 1.321.711 1.903l.149.542zM424.291 305.464c-1.687.471-3.268.456-4.746-.038-1.478-.493-2.824-1.341-4.035-2.537-1.216-1.194-2.284-2.674-3.207-4.442a29.516 29.516 0 0 1-2.258-5.757 28.849 28.849 0 0 1-1-6.064c-.128-2.108.029-4.086.465-5.936.436-1.848 1.189-3.473 2.255-4.876 1.07-1.396 2.542-2.361 4.421-2.885 1.824-.509 3.487-.445 4.989.192 1.504.637 2.841 1.637 4.009 2.991 1.167 1.357 2.18 2.958 3.039 4.802a37.326 37.326 0 0 1 2.097 5.669c.601 2.156.956 4.251 1.064 6.29.108 2.042-.068 3.914-.531 5.621-.46 1.709-1.229 3.174-2.302 4.394-1.073 1.225-2.494 2.082-4.26 2.576zm-5.962-23.261c-.524.148-.916.476-1.172.998-.26.518-.416 1.147-.476 1.896-.062.747-.026 1.557.097 2.429.123.872.308 1.738.546 2.595.271.967.603 1.916.996 2.848.396.934.826 1.751 1.291 2.456.465.705.947 1.24 1.454 1.604.502.366 1.015.473 1.542.328.608-.17 1.007-.608 1.196-1.317.189-.707.267-1.52.236-2.434a17.182 17.182 0 0 0-.326-2.766 32.825 32.825 0 0 0-.533-2.31 20.823 20.823 0 0 0-.806-2.319c-.326-.804-.7-1.524-1.117-2.167-.421-.643-.872-1.15-1.361-1.515-.492-.375-1.014-.48-1.567-.326zM463.793 288.086c.119.745.198 1.482.238 2.214.042.733.026 1.399-.044 2-.07.599-.233 1.108-.491 1.522-.258.414-.606.683-1.046.806-.443.123-.938-.101-1.484-.678-.551-.577-1.139-1.379-1.769-2.412a43.946 43.946 0 0 1-1.93-3.548 104.81 104.81 0 0 1-1.903-4.092 102.173 102.173 0 0 1-1.703-4.101 186.844 186.844 0 0 1-1.339-3.515c.128 1.097.262 2.328.403 3.687a75.44 75.44 0 0 1 .319 4.176c.07 1.425.103 2.828.103 4.216 0 1.385-.066 2.639-.2 3.762-.132 1.125-.348 2.057-.648 2.795-.302.74-.714 1.183-1.238 1.328-.469.132-1.026-.055-1.674-.557-.65-.507-1.339-1.216-2.07-2.128a35.458 35.458 0 0 1-2.207-3.112 96.93 96.93 0 0 1-2.15-3.533 106.859 106.859 0 0 1-1.888-3.403 85.503 85.503 0 0 1-1.385-2.72c.163.582.335 1.225.518 1.934.183.711.317 1.214.403 1.518.04.139.159.597.361 1.374.2.777.412 1.716.63 2.817.218 1.101.416 2.291.595 3.566.176 1.275.251 2.482.227 3.619-.022 1.141-.17 2.134-.438 2.982-.271.85-.742 1.396-1.418 1.648-.621-.097-1.2-.385-1.74-.877-.54-.491-1.044-1.101-1.518-1.835a18.002 18.002 0 0 1-1.297-2.405 51.225 51.225 0 0 1-1.077-2.581 32.7 32.7 0 0 1-.822-2.383 91.048 91.048 0 0 1-.533-1.817c-.231-.828-.471-1.883-.727-3.169a50.433 50.433 0 0 1-.63-4.09 46.291 46.291 0 0 1-.286-4.388c-.026-1.482.064-2.837.271-4.073.205-1.231.551-2.291 1.033-3.172.485-.877 1.17-1.44 2.055-1.689.414-.115.921-.002 1.522.335.601.339 1.242.822 1.923 1.451.683.628 1.377 1.35 2.079 2.165.705.815 1.39 1.645 2.057 2.487a51.109 51.109 0 0 1 1.822 2.44c.546.786 1.002 1.456 1.366 2.007.035-.723.095-1.573.181-2.553.084-.976.192-1.996.326-3.062.134-1.064.315-2.128.54-3.187.225-1.062.498-2.029.817-2.91.322-.877.689-1.621 1.101-2.227.41-.606.89-.987 1.445-1.143.965-.269 1.894-.139 2.788.385.89.526 1.729 1.295 2.52 2.313.788 1.013 1.522 2.196 2.194 3.54a52.397 52.397 0 0 1 1.824 4.048 55.962 55.962 0 0 1 1.385 3.835c.381 1.205.674 2.176.883 2.925.084.304.2.718.348 1.242.145.524.304 1.119.476 1.788.17.665.333 1.379.487 2.141.151.761.292 1.525.415 2.294zM484.581 280.139c.145.524.15 1.075.013 1.647-.145.548-.641 1.282-1.484 2.203a31.566 31.566 0 0 1-2.894 2.751 42.64 42.64 0 0 1-3.203 2.458c-1.048.722-1.848 1.165-2.401 1.319-.388.108-.868.145-1.44.11a11.799 11.799 0 0 1-1.766-.242 8.28 8.28 0 0 1-1.698-.555c-.529-.238-.936-.498-1.22-.775-.165-.163-.377-.518-.634-1.073a28.508 28.508 0 0 1-.817-1.962 97.576 97.576 0 0 1-.872-2.412c-.3-.857-.579-1.672-.841-2.447a65.406 65.406 0 0 1-.667-2.07 58.194 58.194 0 0 1-.39-1.317 72.356 72.356 0 0 1-.881-3.553 45.433 45.433 0 0 1-.723-4.11 26.879 26.879 0 0 1-.229-4.09c.031-1.335.244-2.515.639-3.553.123-.302.438-.674.943-1.11a16.655 16.655 0 0 1 1.83-1.359 39.46 39.46 0 0 1 2.352-1.416c.85-.476 1.676-.907 2.476-1.295a65.305 65.305 0 0 1 2.196-1.018c.663-.286 1.174-.482 1.533-.581a2.758 2.758 0 0 1 1.258-.062c.423.077.808.229 1.156.458a3.8 3.8 0 0 1 .903.841c.255.33.443.705.559 1.117.099.359.137.678.108.954a4.834 4.834 0 0 1-.205.949c-.174.438-.634 1.026-1.379 1.771a43.378 43.378 0 0 1-2.471 2.275 66.508 66.508 0 0 1-2.619 2.141c-.843.652-1.438 1.115-1.777 1.388.066.667.128 1.344.185 2.029.057.681.15 1.363.282 2.042a24.224 24.224 0 0 1 2.553-2.053c.969-.689 1.936-1.167 2.905-1.438 1.96-.548 3.211.145 3.751 2.081.13.469.156.905.077 1.317-.079.41-.225.793-.438 1.152a5.065 5.065 0 0 1-.791 1.002c-.315.308-.625.612-.932.908a22.164 22.164 0 0 1-2.434 1.996c-.87.615-1.744 1.222-2.617 1.828.004.236.018.493.038.771.015.28.062.54.13.789.108.385.242.766.408 1.139l.489 1.112c.302-.203.782-.531 1.445-.984.663-.452 1.361-.916 2.09-1.388a36.993 36.993 0 0 1 2.143-1.289c.694-.39 1.222-.632 1.584-.733a2.66 2.66 0 0 1 1.233-.055c.41.079.78.229 1.11.451.328.218.623.502.883.846.258.342.443.707.551 1.095z" style="" fill="#ffb800" data-original="#ffb800"></path><path d="m231.492 318.823-38.372 1.68v-29.331l37.244-2.254.155 4 .331 9.195z" style="" fill="#ffc5d2" data-original="#ffc5d2"></path><path d="M230.85 302.113c-4.818 3.669-10.764 5.858-16.821 6.012-7.67.221-15.34-2.829-20.91-8.068v-5.681l24.269-1.812c4.288 0 8.731.133 13.129.354l.333 9.195z" style="" fill="#ff898b" data-original="#ff898b"></path><path d="M95.971 241.356c-4.103 4.864-10.472 7.329-16.778 8.276-13.771 2.056-28.909-4.098-34.101-17.74-2.384-6.241-2.462-11.999-.948-16.84.178-.531.359-1.042.564-1.536 5.245-12.985 22.487-18.68 36.94-8.679 6.111 4.23 10.76 10.297 14.261 16.866 3.349 6.231-.103 12.562.062 19.653z" style="" fill="#ffc5d2" data-original="#ffc5d2"></path><path d="M91.743 239.646a.783.783 0 0 1-.285.105.764.764 0 0 1-.755-.324c-5.87-9.113-14.635-16.426-24.619-20.612-7.184-2.996-14.744-4.286-21.94-3.762.178-.531.359-1.042.564-1.536 7.214-.406 14.764.945 21.945 3.922 10.283 4.301 19.261 11.821 25.309 21.167a.765.765 0 0 1-.219 1.04z" style="" fill="#020334" data-original="#020334"></path><path d="M313.874 227.828c4.542 3.941 10.849 5.312 16.874 5.274 13.157-.094 26.39-8.052 29.242-21.547 1.314-6.175.544-11.562-1.577-15.86-.244-.469-.488-.92-.751-1.351-6.795-11.355-23.724-14.152-35.755-2.703-5.086 4.842-8.54 11.186-10.849 17.831-2.214 6.306 1.934 11.711 2.816 18.356z" style="" fill="#ffc5d2" data-original="#ffc5d2"></path><path d="M317.571 225.613a.766.766 0 0 0 .282.056.72.72 0 0 0 .657-.413c4.148-9.366 11.262-17.474 19.971-22.842 6.269-3.848 13.138-6.156 19.933-6.719-.244-.469-.488-.92-.751-1.351-6.795.675-13.645 3.04-19.914 6.869-8.972 5.518-16.254 13.852-20.534 23.462-.15.356 0 .769.356.938z" style="" fill="#020334" data-original="#020334"></path><path d="M326.292 229.968a241.28 241.28 0 0 1-.641 3.912c-4.2 24.225-21.816 40.029-45.754 49.91-36.25 15.008-86.977 16.467-127.316 13.306a123.85 123.85 0 0 1-4.288-.398c-30.26-3.205-49.291-14.301-59.79-33.443-11.493-20.91-12.798-51.457-7.405-91.817 10.543-79.02 120.397-79.02 120.397-79.02s48.163-6.012 86.535 14.301c31.763 16.821 47.457 64.122 38.262 123.249z" style="" fill="#ffc5d2" data-original="#ffc5d2"></path><path d="m72.07 201.528 8.465 24.455s28.781-17.306 28.781-40.256-2.257-33.861-2.257-33.861 36.118-20.316 44.019-52.296l-4.515-10.535s-51.92 3.762-68.097 38.751-6.396 73.742-6.396 73.742z" style="" fill="#020334" data-original="#020334"></path><path d="M328.281 185.341s-8.09-1.193-58.596-15.848l-30.945-36.449c2.078 13.24 7.338 24.203 11.029 30.635-.155-.066-.331-.111-.486-.155-68.852-20.313-99.708-63.569-99.708-63.569l-3.006-10.919c55.303-35.365 132.046-21.064 160.647 13.174 28.58 34.238 21.065 83.131 21.065 83.131z" style="" fill="#020334" data-original="#020334"></path><path d="M132.752 91.859c-3.006-1.324-5.918-3.007-8.138-5.429-1.852-2.02-5.303-6.884-3.187-9.715 6.146-8.219 23.664 7.592 27.401 11.976.693.813 1.371 1.673 1.723 2.683.592 1.697.018 3.237-1.539 4.07-3.652 1.951-12.851-2.084-16.26-3.585z" style="" fill="#020334" data-original="#020334"></path><path d="M149.737 75.342c.923-3.152 2.214-6.258 4.328-8.773 1.763-2.098 6.138-6.151 9.219-4.421 8.946 5.028-4.458 24.449-8.32 28.723-.717.793-1.481 1.576-2.436 2.056-1.606.806-3.207.438-4.235-.998-2.41-3.367.398-13.012 1.444-16.587zM154.239 237.685c-10.42 0-22.074-4.158-28.043-13.486a2.21 2.21 0 1 1 3.723-2.383c6.431 10.046 20.809 13.03 31.064 10.74 7.667-1.714 17.517-6.997 20.045-16.255a2.219 2.219 0 0 1 2.714-1.551 2.211 2.211 0 0 1 1.551 2.714c-3.044 11.156-14.479 17.426-23.345 19.404-2.408.538-5.018.817-7.709.817zM272.299 226.776c-9.229 0-19.233-3.37-24.915-11.173a2.084 2.084 0 0 1 .458-2.912 2.077 2.077 0 0 1 2.912.458c6.623 9.094 20.332 11.087 29.866 8.345 7.125-2.048 16.1-7.585 17.955-16.449a2.085 2.085 0 1 1 4.083.854c-2.233 10.678-12.647 17.233-20.884 19.603-2.894.833-6.134 1.274-9.475 1.274zM220.986 246.478c-1.716 0-3.445-.346-5.055-1.073-4.716-2.126-7.945-7.2-8.035-12.625a2.088 2.088 0 0 1 2.051-2.121h.035c1.137 0 2.066.912 2.086 2.051.062 3.784 2.357 7.44 5.577 8.894 3.304 1.487 7.531.531 9.607-2.194 1.852-2.425 2.114-5.846 2.253-9.737a2.085 2.085 0 1 1 4.167.145c-.126 3.564-.297 8.445-3.103 12.121-2.226 2.92-5.874 4.539-9.583 4.539z" style="" fill="#020334" data-original="#020334"></path><g style="opacity:0.64;"><path d="M158.593 271.699c0 9.748-3.934 18.589-10.3 24.999-30.26-3.205-49.291-14.301-59.79-33.443 3.78-15.561 17.815-27.121 34.548-27.121 19.628.001 35.542 15.915 35.542 35.565zM326.292 229.968a241.28 241.28 0 0 1-.641 3.912c-4.2 24.225-21.816 40.029-45.754 49.91a35.384 35.384 0 0 1-12.179-26.767c0-19.628 15.914-35.564 35.542-35.564 8.797-.001 16.843 3.182 23.032 8.509z" style="" fill="#ff898b" data-original="#ff898b"></path></g><path d="M126.416 189.727a1.102 1.102 0 0 1-.963-1.647c5.689-10.114 17.7-16.008 29.168-14.354.604.088 1.022.65.936 1.253a1.126 1.126 0 0 1-1.253.936c-10.431-1.526-21.759 4.057-26.926 13.248a1.098 1.098 0 0 1-.962.564z" style="" fill="#020334" data-original="#020334"></path><path d="M342.182 482.764a230.308 230.308 0 0 1-66.951 15.296c-.089.022-.177.022-.265.022-7.117.221-14.566.442-22.236.619-67.658-1.326-128.2-31.586-169.776-78.909 4.199-24.888 13.107-50.108 31.431-61.005 41.775-24.822 65.846-24.822 71.107-33.111 5.283-8.267 5.283-19.561 5.283-19.561l41.753-3.382s1.879 14.301 6.012 18.434c4.156 4.133 52.672 9.416 70.355 30.857 15.605 18.919 30.944 94.248 33.287 130.74z" style="" fill="#ffb800" data-original="#ffb800"></path><path d="m246.331 338.382-20.869 144.386 213.759-19.74 15.229-141.002z" style="" fill="#020334" data-original="#020334"></path><path d="m439.221 463.028-1.128 7.896-283.695 27.072-.565-10.152z" style="" fill="#020334" data-original="#020334"></path><circle cx="350.39" cy="402.961" r="22.842" style="" fill="#ffdbd3" data-original="#ffdbd3"></circle><path d="M314.746 473.849c-.111.243-.221.464-.354.707a754.587 754.587 0 0 1-4.352 8.593c-.707 1.37-1.392 2.695-2.033 3.932-1.414 2.739-2.673 5.103-3.6 6.87-1.105 2.077-.186.404-.186.404s-4.223.96-8.562 1.208c-7.36.422-18.755-4.794-29.667-8.218-6.76-2.121-13.276-4.396-18.269-6.627a70.177 70.177 0 0 1-1.855-.862c-2.739-1.326-4.882-2.607-6.185-3.822 0 0 1.436-3.402 3.645-8.35 5.942-13.365 17.407-37.995 20.898-37.598 4.771.574.596 21.759.596 21.759s20.765-39.343 26.332-38.216c5.412 1.082-7.754 35.764-8.505 37.752 1.149-2.01 20.058-35.212 25.426-32.848 5.567 2.43-10.383 36.25-10.383 36.25s21.185-26.066 24.609-24.454c3.38 1.591-12.68 30.661-13.254 31.7.685-.685 12.105-12.061 14.933-11.001 1.435.532-3.668 11.621-9.234 22.821z" style="" fill="#ffc5d2" data-original="#ffc5d2"></path><path d="M309.444 492.847c-1.679.398-2.944.964-4.622 1.317-.648.264-1.608.384-1.608.384s-3.411.711-7.558 1.008a225.067 225.067 0 0 1-20.563 2.505c-.088.022-.177.022-.265.022-5.81.442-11.664.663-17.584.663-1.546 0-3.093-.022-4.639-.044a232.704 232.704 0 0 1-33.29-3.049c.773-1.325 1.568-2.695 2.386-4.086a271.373 271.373 0 0 1 5.5-8.947c.265-.398.53-.818.795-1.215 4.838-7.444 9.587-13.585 12.216-13.895.619-.066 1.679 0 3.115.177 7.179.883 23.504 4.705 38.172 9.057.729.221 1.436.442 2.143.663 7.091 2.143 13.652 4.418 18.423 6.495 2.563 1.127 4.617 2.187 5.942 3.181.972.685 1.568 1.326 1.723 1.922.222.815.112 2.141-.286 3.842z" style="" fill="#ffb800" data-original="#ffb800"></path><circle cx="400.869" cy="123.119" r="66.929" style="" transform="rotate(-76.714 400.902 123.117)" fill="#ffdbd3" data-original="#ffdbd3"></circle><path d="M400.869 186.089c-34.721 0-62.97-28.25-62.97-62.97s28.25-62.968 62.97-62.968 62.968 28.247 62.968 62.968-28.247 62.97-62.968 62.97zm0-124.833c-34.113 0-61.865 27.752-61.865 61.863 0 34.113 27.752 61.865 61.865 61.865 34.111 0 61.863-27.752 61.863-61.865 0-34.111-27.752-61.863-61.863-61.863z" style="" fill="#020334" data-original="#020334"></path><path d="M437.341 127.808h-36.848a.555.555 0 0 1-.553-.553v-26.32c0-.304.249-.553.553-.553.304 0 .553.249.553.553v25.767h36.296c.304 0 .553.249.553.553a.556.556 0 0 1-.554.553z" style="" fill="#020334" data-original="#020334"></path><path d="m291.074 33.895 17.603-20.64-5.255 26.405 23.913 15.39-25.846-4.001-8.317 29.276-5.125-26.45-27.708 12.036 20.828-23.333-21.087-20.661zM67.796 318.318l1.42-27.089 11.888 24.155 28.342-2.327L86.497 325.6l11.204 28.298-20.155-17.879-14.675 26.406 2.342-31.188-29.304-3.576z" style="" fill="#ff4740" data-original="#ff4740"></path><path d="M183.162 70.134a1.23 1.23 0 0 1-1.227-1.227V24.672a1.23 1.23 0 0 1 1.227-1.227 1.23 1.23 0 0 1 1.227 1.227v44.236c0 .676-.55 1.226-1.227 1.226z" style="" fill="#ffdbd3" data-original="#ffdbd3"></path><path d="M205.28 48.016h-44.236a1.23 1.23 0 0 1-1.227-1.227 1.23 1.23 0 0 1 1.227-1.227h44.236a1.23 1.23 0 0 1 1.227 1.227c0 .677-.551 1.227-1.227 1.227z" style="" fill="#ffdbd3" data-original="#ffdbd3"></path><path d="M195.891 62.414a1.22 1.22 0 0 1-.925-.423l-23.787-27.333a1.225 1.225 0 1 1 1.85-1.608l23.787 27.333a1.225 1.225 0 0 1-.925 2.031z" style="" fill="#ffdbd3" data-original="#ffdbd3"></path><path d="M169.286 60.223a1.225 1.225 0 0 1-.804-2.152l27.333-23.787a1.223 1.223 0 0 1 1.729.121c.445.509.39 1.284-.121 1.729L170.09 59.921a1.211 1.211 0 0 1-.804.302zM294.271 332.398a1.23 1.23 0 0 1-1.227-1.227v-44.236a1.23 1.23 0 0 1 1.227-1.227 1.23 1.23 0 0 1 1.227 1.227v44.236c0 .677-.551 1.227-1.227 1.227z" style="" fill="#ffdbd3" data-original="#ffdbd3"></path><path d="M316.389 310.281h-44.236c-.676 0-1.227-.551-1.227-1.227s.551-1.227 1.227-1.227h44.236c.676 0 1.227.551 1.227 1.227s-.551 1.227-1.227 1.227z" style="" fill="#ffdbd3" data-original="#ffdbd3"></path><path d="M307 324.679a1.22 1.22 0 0 1-.925-.423l-23.787-27.336a1.225 1.225 0 1 1 1.85-1.608l23.787 27.336a1.225 1.225 0 0 1-.925 2.031z" style="" fill="#ffdbd3" data-original="#ffdbd3"></path><path d="M280.395 322.487a1.225 1.225 0 0 1-.804-2.152l27.336-23.787a1.223 1.223 0 0 1 1.729.121c.445.511.39 1.284-.121 1.729l-27.336 23.787a1.211 1.211 0 0 1-.804.302zM46.108 256.821a1.23 1.23 0 0 1-1.227-1.227v-44.236a1.23 1.23 0 0 1 1.227-1.227 1.23 1.23 0 0 1 1.227 1.227v44.236a1.23 1.23 0 0 1-1.227 1.227z" style="" fill="#ffdbd3" data-original="#ffdbd3"></path><path d="M68.225 234.703H23.99a1.23 1.23 0 0 1-1.227-1.227 1.23 1.23 0 0 1 1.227-1.227h44.236a1.23 1.23 0 0 1 1.227 1.227 1.23 1.23 0 0 1-1.228 1.227z" style="" fill="#ffdbd3" data-original="#ffdbd3"></path><path d="M58.836 249.101a1.22 1.22 0 0 1-.925-.423l-23.787-27.333a1.225 1.225 0 1 1 1.85-1.608l23.787 27.333a1.225 1.225 0 0 1-.925 2.031z" style="" fill="#ffdbd3" data-original="#ffdbd3"></path><path d="M32.232 246.909a1.225 1.225 0 0 1-.804-2.152l27.336-23.787a1.223 1.223 0 0 1 1.729.121c.445.511.39 1.284-.121 1.729l-27.336 23.787a1.215 1.215 0 0 1-.804.302z" style="" fill="#ffdbd3" data-original="#ffdbd3"></path></g></svg>