<svg viewBox="0 0 35 21" fill="none" xmlns="http://www.w3.org/2000/svg">
<path d="M17.0496 9.50086C17.9891 9.50086 18.9076 9.22225 19.6888 8.70027C20.47 8.17829 21.0788 7.43637 21.4384 6.56834C21.7979 5.70031 21.892 4.74516 21.7087 3.82367C21.5254 2.90218 21.073 2.05573 20.4086 1.39137C19.7443 0.727011 18.8978 0.274577 17.9763 0.0912804C17.0548 -0.092016 16.0997 0.00205812 15.2316 0.361607C14.3636 0.721156 13.6217 1.33003 13.0997 2.11123C12.5777 2.89244 12.2991 3.81089 12.2991 4.75043C12.3006 6.00988 12.8015 7.21735 13.6921 8.10791C14.5826 8.99848 15.7901 9.49943 17.0496 9.50086ZM17.0496 1.23047C17.7457 1.23047 18.4263 1.43691 19.0051 1.82369C19.584 2.21047 20.0352 2.76021 20.3016 3.4034C20.568 4.04659 20.6377 4.75434 20.5019 5.43714C20.3661 6.11995 20.0308 6.74714 19.5385 7.23942C19.0463 7.73169 18.4191 8.06694 17.7363 8.20276C17.0535 8.33858 16.3457 8.26887 15.7025 8.00245C15.0593 7.73603 14.5096 7.28487 14.1228 6.70602C13.736 6.12716 13.5296 5.44661 13.5296 4.75043C13.5306 3.8172 13.9018 2.9225 14.5617 2.2626C15.2216 1.60271 16.1163 1.23152 17.0496 1.23047ZM27.3403 12.0703C28.095 12.0703 28.8328 11.8465 29.4603 11.4272C30.0878 11.0079 30.5769 10.412 30.8657 9.71472C31.1545 9.01747 31.23 8.25023 31.0828 7.51004C30.9356 6.76984 30.5722 6.08992 30.0385 5.55627C29.5049 5.02262 28.8249 4.6592 28.0847 4.51196C27.3445 4.36473 26.5773 4.4403 25.8801 4.72911C25.1828 5.01792 24.5869 5.507 24.1676 6.13451C23.7483 6.76202 23.5245 7.49977 23.5245 8.25447C23.5256 9.26614 23.928 10.2361 24.6434 10.9514C25.3587 11.6668 26.3286 12.0692 27.3403 12.0703ZM27.3403 5.66918C27.8517 5.66918 28.3515 5.82081 28.7767 6.1049C29.2018 6.38898 29.5332 6.79276 29.7289 7.26518C29.9245 7.73759 29.9757 8.25742 29.876 8.75893C29.7762 9.26045 29.53 9.72111 29.1684 10.0827C28.8068 10.4442 28.3462 10.6905 27.8446 10.7902C27.3431 10.89 26.8233 10.8388 26.3509 10.6431C25.8785 10.4474 25.4747 10.116 25.1906 9.69083C24.9066 9.26566 24.7549 8.7658 24.755 8.25447C24.7558 7.56909 25.0285 6.91203 25.5132 6.42743C25.9978 5.94283 26.6549 5.66992 27.3403 5.66918ZM6.74247 12.0703C7.49717 12.0703 8.23492 11.8465 8.86243 11.4272C9.48993 11.0079 9.97902 10.412 10.2678 9.71472C10.5566 9.01747 10.6322 8.25023 10.485 7.51004C10.3377 6.76984 9.97431 6.08992 9.44066 5.55627C8.90701 5.02262 8.22709 4.6592 7.4869 4.51196C6.7467 4.36473 5.97947 4.4403 5.28222 4.72911C4.58497 5.01792 3.98902 5.507 3.56973 6.13451C3.15044 6.76202 2.92665 7.49977 2.92665 8.25447C2.92779 9.26613 3.33018 10.236 4.04554 10.9514C4.76089 11.6668 5.7308 12.0691 6.74247 12.0703ZM6.74247 5.66918C7.25381 5.66918 7.75366 5.82081 8.17882 6.1049C8.60398 6.38898 8.93535 6.79276 9.13103 7.26518C9.32671 7.73759 9.3779 8.25742 9.27814 8.75893C9.17838 9.26045 8.93214 9.72111 8.57056 10.0827C8.20899 10.4442 7.74832 10.6905 7.2468 10.7902C6.74529 10.89 6.22546 10.8388 5.75305 10.6431C5.28064 10.4474 4.87687 10.116 4.59279 9.69083C4.30872 9.26566 4.1571 8.7658 4.15712 8.25447C4.15799 7.56909 4.43066 6.91204 4.91533 6.42745C5.4 5.94286 6.0571 5.66994 6.74247 5.66918ZM34.0092 16.5889C33.8833 15.4809 33.4365 14.402 32.7832 13.6285C32.0059 12.7083 30.9828 12.2602 29.9014 12.3689C29.775 12.3815 29.6556 12.4329 29.5596 12.5161C28.7977 13.1759 28.0746 13.4815 27.3475 13.4533C27.331 13.4526 27.3146 13.4526 27.2982 13.4533C26.5702 13.4822 25.8478 13.1757 25.0861 12.5161C24.9901 12.4329 24.8707 12.3815 24.7443 12.3689C24.6135 12.3559 24.4819 12.351 24.3505 12.3543C24.2259 12.1651 24.0903 11.9833 23.9446 11.8098C22.9797 10.6675 21.7127 10.1118 20.3762 10.2452C20.2498 10.2578 20.1304 10.3092 20.0344 10.3923C19.028 11.2639 18.0246 11.6853 17.0514 11.647C17.035 11.6463 17.0186 11.6463 17.0022 11.647C16.0298 11.6847 15.0255 11.2638 14.0191 10.3923C13.9231 10.3092 13.8037 10.2578 13.6773 10.2452C12.3414 10.1117 11.074 10.6675 10.109 11.8098C9.96305 11.9836 9.82735 12.1656 9.70257 12.3551C9.56913 12.3512 9.43559 12.3557 9.30273 12.3687C9.17634 12.3813 9.05693 12.4327 8.96094 12.5159C8.19914 13.1756 7.47672 13.4809 6.74876 13.4531C6.73235 13.4524 6.71592 13.4524 6.69947 13.4531C5.97131 13.4804 5.24916 13.1755 4.48729 12.5158C4.39129 12.4326 4.27189 12.3813 4.1455 12.3687C3.06398 12.2602 2.04098 12.7081 1.26381 13.6283C0.610496 14.4018 0.163631 15.4809 0.0377815 16.5887C-0.224718 18.8993 0.89911 20.6168 2.83368 20.8632C2.85946 20.8665 2.88542 20.8682 2.9114 20.8682H10.5379C10.5638 20.8682 10.5898 20.8665 10.6156 20.8632C10.8462 20.834 11.0732 20.7813 11.2931 20.706C11.5316 20.7794 11.7759 20.832 12.0235 20.8632C12.0493 20.8665 12.0752 20.8682 12.1012 20.8682H21.9534C21.9794 20.8682 22.0053 20.8665 22.0311 20.8632C22.2771 20.8322 22.5201 20.7801 22.7572 20.7075C22.9765 20.7821 23.2028 20.8342 23.4326 20.8632C23.4584 20.8665 23.4844 20.8682 23.5104 20.8682H31.1358C31.1617 20.8682 31.1877 20.8665 31.2135 20.8632C33.1481 20.617 34.2717 18.8992 34.0092 16.5889ZM4.09737 19.6379V17.2941C4.09737 17.1309 4.03255 16.9744 3.91717 16.8591C3.80179 16.7437 3.64531 16.6789 3.48214 16.6789C3.31897 16.6789 3.16248 16.7437 3.0471 16.8591C2.93172 16.9744 2.8669 17.1309 2.8669 17.2941V19.6229C1.47333 19.37 1.12018 17.9754 1.26196 16.7277C1.44216 15.1411 2.44383 13.5838 3.83569 13.5838H3.84704C4.78356 14.3461 5.75215 14.7148 6.72552 14.6835C7.45088 14.7066 8.17262 14.5078 8.88068 14.0902C8.72897 14.5618 8.62403 15.0472 8.56739 15.5394C8.42343 16.8071 8.62372 18.0125 9.13149 18.9337C9.27 19.1858 9.43581 19.4219 9.62594 19.6378L4.09737 19.6379ZM21.9131 19.6379H21.8333V16.4299C21.8333 16.2667 21.7685 16.1102 21.6532 15.9949C21.5378 15.8795 21.3813 15.8147 21.2181 15.8147C21.0549 15.8147 20.8985 15.8795 20.7831 15.9949C20.6677 16.1102 20.6029 16.2667 20.6029 16.4299V19.6379H13.4525V16.4299C13.4525 16.2667 13.3877 16.1102 13.2723 15.9949C13.1569 15.8795 13.0004 15.8147 12.8373 15.8147C12.6741 15.8147 12.5176 15.8795 12.4022 15.9949C12.2868 16.1102 12.222 16.2667 12.222 16.4299V19.6379H12.1423C10.1095 19.3564 9.59326 17.4118 9.7902 15.678C10.0323 13.5466 11.3948 11.4564 13.2939 11.4564C13.3207 11.4564 13.3475 11.4568 13.3745 11.4577C14.5672 12.4425 15.7958 12.9196 17.0278 12.8773C18.2619 12.9203 19.4888 12.4424 20.6811 11.4577C22.6225 11.3955 24.02 13.5167 24.2654 15.678C24.4616 17.4118 23.9459 19.3564 21.9131 19.6379ZM31.1819 19.6229V17.2941C31.1819 17.1309 31.1171 16.9744 31.0017 16.8591C30.8863 16.7437 30.7298 16.6789 30.5667 16.6789C30.4035 16.6789 30.247 16.7437 30.1316 16.8591C30.0163 16.9744 29.9514 17.1309 29.9514 17.2941V19.6379H24.429C24.6191 19.422 24.7849 19.1859 24.9235 18.9338C25.4312 18.0126 25.6315 16.8072 25.4876 15.5395C25.4311 15.049 25.3266 14.5652 25.1756 14.0951C25.8813 14.5098 26.6005 14.7075 27.323 14.6839C28.2965 14.7153 29.2644 14.3464 30.2014 13.5842H30.2128C31.6045 13.5842 32.6064 15.1416 32.7866 16.7282C32.9283 17.9757 32.5758 19.37 31.1819 19.6229Z" fill="#7F56D9"/>
</svg>
