<svg xmlns="http://www.w3.org/2000/svg" version="1.1" xmlns:xlink="http://www.w3.org/1999/xlink" x="0" y="0" viewBox="0 0 512 512" style="enable-background:new 0 0 512 512" xml:space="preserve" class=""><g><path fill="#211312" d="M328.694 351.777c-.049 7.043-.069 13.845-.148 20.647-.212 18.307-2.63 36.39-5.728 54.389-1.622 9.425-3.456 18.817-5.329 28.197-.658 3.293-1.685 6.516-2.604 9.754-1.235 4.356-.841 4.708 2.476 7.656 3.206 2.85 6.397 5.953 8.71 9.518 4.183 6.447 1.736 11.818-5.638 13.985-8.645 2.541-17.434 2.01-26.138.935-7.976-.986-15.866-2.695-23.765-4.237-1.956-.382-3.798-1.35-5.88-2.117-4.95 8.552-13.673 9.908-22.321 11.13-13.64 1.929-27.33 2.781-40.997.185-6.414-1.218-8.374-5.883-4.867-11.394 1.14-1.79 2.462-3.466 3.733-5.17 1.211-1.624 2.464-3.217 3.856-5.028-3.95-1.615-4.646-4.382-3.872-8.221 2.488-12.326 4.908-24.672 6.979-37.073 2.374-14.21 3.1-28.554 1.628-42.912-.657-6.422-2.66-12.75-2.884-19.162-.52-14.86-.575-29.747-.344-44.616.162-10.446.932-20.893 1.764-31.312.517-6.479 3.093-12.328 7.377-17.782-2.452-.572-4.637-1.084-6.823-1.592-17.197-3.995-33.76-9.532-48.186-20.131-2.776-2.04-5.254-4.483-8.003-6.563-.826-.624-2.181-1.057-3.17-.88-13.637 2.44-28.253-6.352-32.057-19.526-.63-2.185-.535-4.57-1.034-6.806-.246-1.104-.825-2.43-1.688-3.059-17.709-12.918-26.567-31.18-31.071-51.906-3.885-17.873-.593-35.064 6.174-51.728 7.596-18.707 18.944-34.764 34.47-47.74 5.555-4.642 11.842-8.055 18.866-10.057 1.088-.31 2.35-1.06 2.917-1.984 8.2-13.378 19.998-22.797 33.285-30.633 13.321-7.857 27.64-12.832 43.005-14.496 14.47-1.567 28.88-.636 43.125 2.29 24.354 5.002 46.154 15.279 64.654 32.07 17.063 15.486 27.288 34.853 31.843 57.31 2.284 11.26 3.685 22.568 1.049 34.006-.198.86.217 1.925.534 2.829 4.927 14.071 7.825 28.52 8.027 43.456.027 1.993 1.26 2.237 2.716 2.53 9.898 1.997 19.783 4.056 29.69 6.006 2.255.444 3.505 1.657 4.348 3.746 4.35 10.787 8.008 21.78 10.361 33.191.257 1.244.84 2.572 1.663 3.524 6.363 7.363 8.012 16.247 8.161 25.524.058 3.603-.436 7.269-1.165 10.806-.365 1.771-1.854 3.3-2.77 4.974-.52.95-1.31 1.975-1.298 2.958.21 16.162-3.5 31.648-8.03 46.983-2.355 7.976-5.023 15.859-7.384 23.833-.578 1.95-1.63 2.74-3.487 3.004-22.636 3.228-45.3 4.956-68.083 1.491-2.186-.332-4.392-.533-6.647-.802zM145.218 196.164l1.67.575.202.01.2-.018.578.487 1.519.13c.721 1.372 1.398 1.431 1.664-.19.311-1.907.423-3.846.621-5.772.014-.154.013-.309-.003-.463l.479-1.074c.487-2.686.909-5.385 1.473-8.054 2.442-11.562 5.074-23.087 7.352-34.68 2.167-11.028 4.3-22.037 9.414-32.178.445-.882 1.488-1.462 2.254-2.182.495.824.989 1.649 1.488 2.47.13.216.278.422.605.913l11.46-2.706c1.049-.143 2.123-.183 3.14-.444 21.59-5.543 43.182-11.08 64.756-16.684 15.913-4.134 31.782-8.461 48.105-10.743 3.934-.55 7.89-.94 11.836-1.404l.191.693-8.594 4.216c9.894 5.233 19.274 9.713 29.373 12.534 2.902 1.044 5.735 2.428 8.725 3.043 3.4.699 5.221 2.422 6.155 5.704.869 3.056 2.222 5.974 3.603 9.58.391-1.026.574-1.263.547-1.471-.496-3.775-.88-7.572-1.556-11.315-3.787-20.958-12.97-39.125-28.529-53.806-13.868-13.085-30.303-21.775-48.471-27.26-9.257-2.793-18.673-4.895-28.366-5.504l-23.397-.112c-1.666.154-3.344.224-4.995.476-9.395 1.436-18.617 3.673-27.14 7.906-6.95 3.453-13.766 7.284-20.258 11.533-8.534 5.587-16.532 11.902-21.534 21.18-1.127 2.09-2.262 4.215-3.711 6.077-.661.85-2.078 1.413-3.185 1.47-.465.025-1.147-1.552-1.484-2.49-.263-.731-.146-1.6-.23-2.92-2.114 1.563-3.947 2.562-5.326 3.997-7.112 7.404-14.31 14.742-21.1 22.437-11.212 12.709-18.35 27.7-22.711 43.928-3.864 14.382-3.455 28.868 1.064 43.134 3.49 11.016 8.926 20.997 16.524 29.713 2.077 2.383 4.695 4.296 7.123 6.478 1.54-2.61 2.607-4.64 3.879-6.533 3.777-5.624 8.509-9.928 15.598-10.794l9.02.129zm172.459 163.021c-3.586 4.43-7.28 8.8-8.49 14.91l8.947 1.213 3.8.962c-.198-8.658.73-17.035.34-25.404l-.973-.097-3.624 8.416zm-5.022 129.388c1.308.008 2.647.196 3.92-.013 2.884-.475 3.271-1.532 1.428-3.801a483.917 483.917 0 0 0-8.114-9.698c-1.42-1.657-3.054-1.98-4.798-.407-.85.202-1.698.572-2.55.578-5.312.034-10.625-.014-15.938-.035l-16.487-5.807c-.033 4.703-.021 9.017-.111 13.33-.04 1.861.662 3.208 2.496 3.484 5.385.81 10.793 1.47 16.192 2.188.644.217 1.28.589 1.934.626 4.221.238 8.449.585 12.67.532 3.123-.04 6.239-.632 9.358-.977zm8.04-186.78c.632-6.94 1.379-13.872 1.843-20.822.2-3.003-1.15-3.722-4.263-2.787-4.003.573-7.554 1.725-8.941 6.177-.414 1.327-1.203 2.57-1.988 3.74-1.123 1.674-.936 3.195-.147 4.97 3.266 7.353 6.403 14.762 9.6 22.145.332.765.755 1.49 1.136 2.235l.785-.074 1.974-15.585zm30.786-46.164c.504-8.935-4.3-14.628-11.595-18.668-4.958-2.745-9.97-1.017-12.668 4.134l-4.09 12.69c-.13.32-.392.65-.368.958.322 4.101.533 8.22 1.075 12.294.596 4.485 2.567 5.725 7.131 5.218 5.347-.595 10.047-2.775 14.248-5.937 3.495-2.63 6.535-5.75 6.267-10.69zm68.414 1.564c-.83-5.04-1.524-10.106-2.531-15.11-.781-3.875-1.545-4.302-5.44-4.078-1.317.075-2.656.18-3.932.49-3.148.764-6.019 2.004-7.48 5.22-4.14 6.367-4.143 14.814-.006 20.746 3.06 5.518 8.028 6.158 13.642 5.536 4.4-.488 6.171-2.528 5.59-7.004l.157-5.8zm-116.793 39.125c-.822-.516-1.599-1.22-2.493-1.434-.266-.063-1.041 1.197-1.278 1.947-4.457 14.11-7.59 28.509-9.572 43.175-.575 4.257.097 7.654 3.682 10.556 4.714 3.814 9.048 8.098 13.725 12.344l3.267-5.198 6.938-8.124c-1.41-.68-2.326-1.225-3.31-1.572-2.167-.765-2.91-1.878-2.167-4.337 1.221-4.036 1.962-8.218 2.905-12.34.032-2.133.699-4.51-.011-6.357-3.703-9.627-7.755-19.12-11.686-28.66zm-93.905 199.118c10.647-.465 21.315-.67 31.932-1.514 4.744-.377 9.625-1.384 13.45-4.814 2.45-.974 3.51-2.736 2.805-4.72-.969-2.729-2.827-.98-4.363-.847-4.746.443-9.493 1.258-14.238 1.245-7.5-.02-15-.596-22.5-.936-4.16-1.482-4.16-1.482-7.02 1.657-.177.195-.384.366-.54.576-2.049 2.754-4.091 5.513-6.135 8.271l.454 1.04 6.155.042zm76.26-87.373c1.002-.528 2.03-1.01 3-1.593 4.243-2.55 8.419-5.22 12.735-7.64 1.15-.644 2.711-.757 4.085-.762 2.106-.006 2.571 1.317 1.774 3.06a5.537 5.537 0 0 1-1.622 2.042c-7.154 5.407-14.596 10.336-22.905 13.859-.866.367-1.762 1.432-2.01 2.345-.79 2.898-1.228 5.89-1.892 8.824a5572.61 5572.61 0 0 1-7.231 31.585c-.506 2.179-.084 3.6 2.3 4.193 2.232.555 4.409 1.323 6.61 1.998 7.94 2.066 15.883 3.886 23.896.306 3.687-.593 4.925-1.96 5.116-5.523.071-1.324.136-2.675.445-3.955 4.64-19.223 7.746-38.713 10.165-58.32.592-4.793 1.028-9.605 1.55-14.536l-3.868-.398c-9.205-1.048-18.405-2.903-27.616-2.954-13.944-.077-27.902.993-41.842 1.799-5.63.325-11.227 1.24-16.838 1.886-4.469.58-8.94 1.14-13.403 1.75-1.957.268-2.51 1.328-2.274 3.363 1.375 11.905 1.576 23.832.551 35.792-1.44 16.803-4.015 33.347-10.537 49.537l10.69 1.426c12.283 2.31 24.517 1.989 36.705-.698 1.893-.428 3.774-.931 5.683-1.264 2.51-.438 3.587-1.95 3.79-4.381.227-2.737.334-5.519.925-8.185 4.02-18.124 7.02-36.54 14.97-53.566 4.35-6.024 8.631-12.1 13.085-18.047 1.848-2.468 3.98-4.744 6.15-6.944 1.334-1.354 3.016-1.439 4.529-.086 1.455 1.303 1.381 2.787.278 4.253-1.007 1.337-2.097 2.613-3.15 3.916-3.202 3.656-6.462 7.263-9.583 10.987-1.559 1.86-2.861 3.934-4.28 5.911l-.241.221c.056-.002.132.019.162-.01.05-.047.067-.126.099-.19zm20.709-143.695.922-10.7c.3-.93.602-1.857 1.036-3.197-7.549 2.455-14.559 4.726-21.557 7.036-.364.12-.62.567-.926.86-5.045 1.636-10.132 3.152-15.126 4.929-13.76 4.894-27.482 9.898-41.22 14.86-2.583 1.422-6.103 2.225-7.545 4.404-2.576 3.892-4.65 8.463-5.565 13.024-1.295 6.462-1.83 13.172-1.841 19.777-.032 18.94.344 37.88.613 56.819.036 2.53.385 5.057.614 7.891l14.736-2.838c1.931-.22 3.858-.485 5.794-.655 13.837-1.215 27.66-2.629 41.519-3.522 6.914-.445 13.891.072 20.84.154l7.253.376.548-.75c-.674-1.327-1.057-2.957-2.07-3.933-5.22-5.03-10.563-9.934-15.942-14.796-3.82-3.454-5.792-7.374-4.588-12.714 1.34-5.94 2.274-11.973 3.448-17.952 1.855-9.44 3.086-19.066 7.163-27.906 1.272-2.76.154-4.411-1.413-6.32-1.235-1.503-2.417-1.96-3.943-.507-5.42 1.886-10.847 3.755-16.26 5.663-7.51 2.647-14.986 5.39-22.537 7.913-1.144.382-2.614-.21-3.933-.352l.816-3.631 62.908-25.736-3.744-8.197zm107.958 19.934.532-7.532c-7.474 1.73-13.53-.373-18.592-5.54-3.433-3.504-4.406-8.15-5.693-12.64.188-3.435.197-6.891.598-10.301 1.055-8.971 7.348-15.181 16.256-16.282 1.194-.148 2.385-.314 3.75-.495-2.84-9.504-5.69-18.704-8.293-27.973-.701-2.498-1.965-3.493-4.43-4.085-13.686-3.283-27.5-5.83-41.469-7.503-7.279-.872-14.582-1.536-21.875-2.293l-10.798-1.225c1.377 13.884 2.73 27.53 4.11 41.427 4.991-2.258 10.471-1.91 15.887.355 2.786 2.293 5.775 4.382 8.322 6.916 9.483 9.436 12.043 24.198-1.226 34.544-1.945 1.516-3.831 3.11-5.745 4.667-3.451 1.105-6.91 2.188-10.353 3.32-5.107 1.682-5.146 1.697-5.256 7.053-.324 15.755-3.007 31.153-6.93 46.367-.83 3.22-1.68 6.436-2.514 9.625.478.245.696.428.94.472 25.736 4.722 51.476 3.747 77.202-.05.873-.128 2.08-.963 2.341-1.735.954-2.832 1.573-5.775 2.318-8.677 2.494-8.28 5.434-16.459 7.352-24.87 1.76-7.718 2.42-15.687 3.566-23.546zm-62.134-100.65 9.439 1.423c-.335-10.614-.877-20.768-3.783-30.44-3.505-11.668-7.863-23.085-12.02-34.55-2.932-8.086-3.057-8.04-11.244-10.286-.168-.046-.346-.052-.52-.076-.714-.35-1.403-.768-2.146-1.04-11.175-4.108-22.026-8.83-31.675-15.988-.796-.59-2.385-.616-3.414-.294-3.123.977-6.076 2.544-9.23 3.368-21.68 5.67-43.37 11.311-65.11 16.75-11.25 2.814-22.606 5.196-33.914 7.774-3.954.478-7.9 1.056-11.865 1.386-1.715.142-2.334.719-2.722 2.442a12775.296 12775.296 0 0 1-16.885 74.066c-.612 2.65-1.677 5.217-2.766 7.72-.312.719-1.39 1.278-2.226 1.505-.31.084-.942-.992-1.415-1.549-.61-.719-1.07-1.689-1.836-2.132-3.383-1.956-7.036-2.427-10.753-1.156-8.246 2.821-14.632 12.902-13.8 21.61 1.022 10.683 10.48 18.208 22.038 17.114 6.514-.616 13.321-1.237 16.235-8.775.026-.07.307-.042.47-.06 1.802 5.879-2.079 9.395-5.622 13.104.789.551 1.419 1.037 2.09 1.453 18.832 11.675 39.145 19.366 61.11 22.484 4.962.705 9.972 1.694 14.956-.325 14.118-5.718 28.275-11.34 42.416-17 13.599-4.781 27.217-9.508 40.755-14.455.98-.357 2.037-2.369 1.94-3.517-1.065-12.594-2.306-25.175-3.605-37.75-.46-4.46-1.211-8.893-1.845-13.454 1.047-.207 1.634-.423 2.222-.425 4.422-.014 8.849-.102 13.266.054 7.156.251 14.306.67 21.46 1.019zm-34.62 86.305c-.676-3.94-1.729-7.487-1.772-11.046-.043-3.592.916-7.196 1.517-11.36-1.69 1.003-4.067 1.565-4.527 2.826-2.584 7.086-2.19 14.008 2.467 20.38l2.315-.8zm-21.572 16.254-.17.84c1.598.493 3.363 1.63 4.738 1.27 1.035-.27 1.57-2.458 2.327-3.792l-.75-.84-6.145 2.522z" opacity="1" data-original="#211312" class=""></path><path fill="#fdebba" d="M188.373 120.293c11.308-2.578 22.665-4.96 33.913-7.774 21.74-5.439 43.43-11.08 65.112-16.75 3.153-.824 6.106-2.39 9.229-3.368 1.03-.322 2.618-.296 3.414.294 9.65 7.157 20.5 11.88 31.675 15.987.743.273 1.432.69 2.146 1.04.22 1.119.329 2.272.677 3.349 3.997 12.35 8.252 24.622 11.987 37.05 3.277 10.901 5.178 22.104 5.464 33.53-7.153-.348-14.303-.767-21.46-1.018-4.417-.156-8.843-.068-13.265-.054-.588.002-1.175.218-2.223.425.635 4.561 1.385 8.993 1.846 13.455 1.3 12.574 2.54 25.154 3.604 37.75.098 1.147-.96 3.159-1.939 3.516-13.538 4.947-27.156 9.674-40.755 14.454-.652-.262-1.286-.584-1.956-.777-14.341-4.116-26.805-11.775-38.554-20.678-8.2-6.213-15.402-13.51-22.148-21.278-6.103-7.026-11.545-14.5-15.831-22.76-7.985-15.387-10.984-31.929-11.037-49.11-.017-5.76.064-11.522.1-17.283zm64.142 49.277c-1.204.204-2.735.263-4.124.736-4.92 1.675-9.88 3.285-14.654 5.322-3.714 1.585-7.22 3.688-10.727 5.72-1.633.945-3.08 2.34-2.359 4.534.744 2.267 2.578 2.99 4.835 2.855.618-.036 1.253.027 1.852-.094 4.824-.982 9.669-1.888 14.455-3.034 4.786-1.145 9.606-2.278 14.23-3.925 2.79-.993 5.038-3.477 5.244-6.486.204-2.988-2.757-4.042-5.072-5.077-.997-.446-2.235-.355-3.68-.55zm78.344-4.24-.02.7c-4.677-.033-9.362-.23-14.028-.016-1.868.087-3.828.83-5.508 1.723-2.577 1.37-2.704 3.93-.697 6.009 1.987 2.055 4.584 2.02 7.104 2.305 4.632.526 9.267 1.025 13.898 1.56 4.56.526 9.122 1.181 13.384-1.32 2.343-1.375 3.05-3.177 1.736-5.297-1.531-2.471-3.624-4.437-6.65-4.837-3.056-.404-6.145-.562-9.219-.828zm-83.234-7.431c-.844-5.581-5.578-10.927-11.656-13.44-8.668-3.585-17.713 1.141-19.057 10.381-.478 3.286.462 6.783.794 10.18.177 1.807 1.221 3.394 2.975 2.841.903-.284 1.543-2.408 1.72-3.776.352-2.702.068-5.489.46-8.18.74-5.078 4.642-7.403 9.472-5.91 5.491 1.696 10.787 3.784 15.292 7.904zm60.261-7.827c2.564-2.463 5.263-4.939 7.825-7.549 2.668-2.718 5.729-2.536 8.819-1.237 4.57 1.92 7.304 5.336 8.054 10.377.219 1.47 1.25 2.818 1.951 4.31 2.897-2.095 3.868-5.45 2.602-9.194-2.32-6.865-7.68-10.375-14.391-11.964-9.628-2.28-17.355 6.005-14.86 15.257zm-45.412 45.68c6.414 6.921 24.288 10.14 32.334 5.991 1.25-.644 2.047-2.167 3.053-3.283l-.584-.655c-11.949 5.132-23.37 1.729-34.803-2.053z" opacity="1" data-original="#fdebba" class=""></path><path fill="#642a23" d="m186.194 113.431-11.46 2.707c-.327-.492-.474-.697-.605-.912-.5-.822-.993-1.648-1.488-2.472-.766.72-1.81 1.3-2.254 2.183-5.113 10.14-7.247 21.15-9.414 32.177-2.278 11.594-4.91 23.119-7.353 34.68-.563 2.67-.985 5.37-1.472 8.054l-.479 1.074c.016.155.017.31.003.465l-2.285 5.961-1.519-.13-.578-.487-.2.018-.202-.01-1.67-.575.028.016c-2.984-1.648-5.992-1.6-9.02-.128-7.09.865-11.821 5.169-15.599 10.793-1.271 1.892-2.338 3.923-3.878 6.533-2.428-2.182-5.046-4.095-7.124-6.478-7.597-8.716-13.033-18.696-16.523-29.713-4.52-14.266-4.929-28.752-1.064-43.134 4.36-16.228 11.498-31.22 22.712-43.928 6.79-7.694 13.987-15.033 21.099-22.437 1.378-1.435 3.211-2.433 5.325-3.996.085 1.319-.033 2.188.23 2.92.337.937 1.02 2.514 1.485 2.49 1.107-.058 2.523-.622 3.185-1.471 1.449-1.862 2.584-3.986 3.711-6.077 5.002-9.278 13-15.593 21.534-21.18 6.492-4.25 13.307-8.08 20.258-11.533 8.522-4.233 17.745-6.47 27.14-7.906 1.65-.252 3.33-.322 4.995-.476-.228.652-.333 1.386-.705 1.942-1.766 2.645-3.604 5.242-5.417 7.856-10.87 15.67-19.574 32.418-24.768 50.83-2.99 10.606-6.213 21.196-6.628 32.344z" opacity="1" data-original="#642a23" class=""></path><path fill="#fddb7e" d="M188.373 120.293c-.037 5.76-.118 11.522-.1 17.283.052 17.181 3.051 33.723 11.036 49.11 4.286 8.26 9.728 15.734 15.83 22.76 6.747 7.768 13.95 15.065 22.149 21.278 11.75 8.903 24.213 16.562 38.554 20.678.67.193 1.304.515 1.956.777-14.142 5.66-28.298 11.283-42.416 17.001-4.984 2.019-9.994 1.03-14.956.325-21.966-3.118-42.278-10.81-61.11-22.484-.671-.416-1.301-.902-2.09-1.453 3.543-3.709 7.424-7.225 5.621-13.103-.163.017-.443-.011-.47.059-2.913 7.538-9.72 8.159-16.234 8.775-11.559 1.094-21.016-6.431-22.038-17.114-.832-8.708 5.554-18.789 13.8-21.61 3.716-1.271 7.37-.8 10.753 1.156.767.443 1.226 1.413 1.836 2.132.473.557 1.105 1.633 1.415 1.549.836-.227 1.914-.786 2.226-1.505 1.088-2.503 2.154-5.07 2.766-7.72 5.701-24.672 11.33-49.36 16.885-74.066.388-1.723 1.007-2.3 2.722-2.442 3.966-.33 7.911-.909 11.865-1.386zm-51.38 101.711c-.868 4.284-.142 7.914 3.722 10.295 2.062 1.27 4.04.8 6.024-.808-.958-1.601-1.97-3.14-2.828-4.763-1.461-2.763-.757-4.511 2.144-5.596.775-.29 1.556-.564 2.398-.869-2.297-3.791-8.044-5.063-12.482-2.833-1.063.535-1.765 1.786-2.633 2.708l3.008 1.536.647.33z" opacity="1" data-original="#fddb7e" class=""></path><path fill="#8d473f" d="M186.194 113.431c.415-11.148 3.637-21.738 6.629-32.344 5.193-18.412 13.897-35.16 24.767-50.83 1.813-2.614 3.652-5.21 5.418-7.856.371-.556.476-1.29.704-1.943l23.397.112c.93.632 1.795 1.398 2.798 1.876 9.584 4.57 19.273 8.93 28.776 13.665 15.21 7.577 28.818 17.325 39.614 30.636 7.544 9.302 13.294 19.614 16.871 31.069.354 1.133-.092 2.517-.167 3.784-10.1-2.821-19.48-7.301-29.374-12.534l8.595-4.216-.191-.692c-3.946.463-7.902.853-11.836 1.403-16.324 2.282-32.192 6.609-48.106 10.743-21.574 5.605-43.165 11.141-64.755 16.684-1.017.261-2.092.3-3.14.443z" opacity="1" data-original="#8d473f" class=""></path><path fill="#fbfbfb" d="M345.458 276.342c1.914-1.558 3.8-3.15 5.745-4.667 13.27-10.346 10.709-25.108 1.226-34.544-2.547-2.534-5.536-4.623-8.322-6.916-.134-1.745-.3-3.49-.397-5.237-.483-8.665-2.17-17.065-5.303-25.179-1.287-3.334-2.34-6.758-3.499-10.141 7.292.757 14.596 1.422 21.875 2.293 13.97 1.672 27.783 4.22 41.47 7.503 2.464.592 3.728 1.587 4.43 4.085 2.602 9.27 5.451 18.47 8.291 27.973-1.364.18-2.555.347-3.749.495-8.908 1.1-15.2 7.31-16.256 16.282-.401 3.41-.41 6.866-.598 10.3-1.221.123-3.041-.569-3.15 1.42-.313 5.733-.578 11.517 3.195 16.471 2.921 3.836 6.966 6.106 11.301 7.926 4.137 1.738 8.28.92 12.407-.104-1.145 7.858-1.805 15.827-3.566 23.545-1.918 8.411-4.858 16.59-7.352 24.87-1.66-.191-3.315-.46-4.98-.561-7.127-.433-14.254-.883-21.387-1.203-11.157-.499-21.61-3.867-32.016-7.537-2.05-.723-2.493-1.923-2.236-3.835.573-4.266 1.316-8.53 1.558-12.818.572-10.133.892-20.28 1.313-30.421z" opacity="1" data-original="#fbfbfb"></path><path fill="#4984ba" d="M298.46 373.21c-6.949-.082-13.926-.6-20.84-.154-13.858.893-27.683 2.307-41.52 3.522-1.935.17-3.862.434-5.793.655-.699-6.646-1.524-13.282-2.066-19.94-.742-9.122-1.472-18.253-1.813-27.395-.207-5.541.28-11.113.548-16.667.373-7.751.788-15.5 1.274-23.246.248-3.95.69-7.887 1.045-11.83 13.738-4.96 27.46-9.965 41.22-14.86 4.994-1.776 10.081-3.292 15.126-4.927.965-.083 1.957-.05 2.89-.268 6.193-1.447 12.373-2.949 18.557-4.433l-.922 10.7c-1.037.161-2.153.128-3.097.515-3.439 1.413-6.838 2.926-10.22 4.473-8.459 3.869-16.92 7.736-25.343 11.682-5.937 2.78-11.954 5.438-17.68 8.61-5.437 3.01-5.292 3.273-2.824 8.654l-.817 3.63c1.32.142 2.79.735 3.934.353 7.551-2.522 15.028-5.266 22.537-7.913 5.413-1.908 10.84-3.777 16.26-5.663 1.562 4.1 1.159 8.086.11 12.33-3.577 14.47-6.716 29.049-10.191 43.545-.914 3.809.094 6.69 2.712 9.38 5.44 5.584 10.808 11.24 16.138 16.93.506.54.528 1.534.775 2.317z" opacity="1" data-original="#4984ba" class=""></path><path fill="#4a84ba" d="M253.04 475.45c-12.187 2.686-24.42 3.008-36.705.698-.451-6.324.306-12.554 2.026-18.604 3.208-11.29 6.582-22.535 10.049-33.749 2.31-7.472 3.7-15.09 3.745-22.88.032-5.544-.543-11.09-.847-16.636 5.612-.646 11.209-1.56 16.84-1.886 13.939-.806 27.897-1.876 41.841-1.799 9.21.051 18.411 1.906 27.616 2.954l-.64 2.392c-2.029.368-4.12.535-6.071 1.147-3.905 1.224-7.734 2.691-11.594 4.058 1.054-1.303 2.143-2.578 3.15-3.916 1.104-1.466 1.178-2.95-.278-4.252-1.512-1.354-3.194-1.269-4.529.085-2.168 2.2-4.3 4.476-6.15 6.944-4.453 5.947-8.734 12.023-13.084 18.048-2.897-.426-3.78 1.614-4.672 3.738-7.493 17.842-12.114 36.477-15.188 55.518-.396 2.452-1.649 3.626-3.485 4.88-.966.659-1.367 2.146-2.023 3.26z" opacity="1" data-original="#4a84ba" class=""></path><path fill="#daf1fa" d="M345.458 276.342c-.421 10.141-.74 20.288-1.313 30.421-.241 4.289-.985 8.552-1.558 12.818-.257 1.912.186 3.112 2.236 3.835 10.407 3.67 20.86 7.038 32.016 7.537 7.133.32 14.26.77 21.388 1.203 1.665.101 3.32.37 4.979.561-.745 2.902-1.364 5.845-2.318 8.677-.26.772-1.468 1.607-2.34 1.736-25.727 3.796-51.467 4.77-77.203.05-.244-.045-.462-.228-.94-.473.833-3.189 1.684-6.404 2.514-9.625 3.923-15.214 6.606-30.612 6.93-46.367.11-5.356.149-5.37 5.256-7.052 3.443-1.133 6.902-2.216 10.353-3.321z" opacity="1" data-original="#daf1fa"></path><path fill="#d3776b" d="M335 101.6c.076-1.267.522-2.65.168-3.784-3.576-11.455-9.327-21.767-16.87-31.07-10.797-13.31-24.404-23.058-39.615-30.635-9.503-4.734-19.191-9.095-28.776-13.665-1.003-.478-1.869-1.243-2.798-1.876 9.693.61 19.109 2.712 28.366 5.506 18.168 5.484 34.603 14.173 48.471 27.259 15.559 14.68 24.742 32.847 28.529 53.806.676 3.743 1.06 7.54 1.556 11.314.027.209-.156.445-.547 1.472-1.38-3.607-2.734-6.524-3.603-9.58-.934-3.282-2.754-5.005-6.155-5.704-2.99-.615-5.823-1.999-8.725-3.043z" opacity="1" data-original="#d3776b"></path><path fill="#2a5a98" d="M229.295 278.155c-.354 3.943-.797 7.88-1.045 11.83-.486 7.745-.9 15.495-1.274 23.246-.268 5.554-.755 11.126-.548 16.668.34 9.141 1.07 18.272 1.813 27.394.541 6.658 1.367 13.294 2.066 19.94l-14.736 2.838c-.229-2.834-.578-5.36-.614-7.891-.27-18.94-.645-37.88-.613-56.819.011-6.605.545-13.315 1.84-19.777.915-4.561 2.99-9.132 5.566-13.024 1.442-2.179 4.962-2.982 7.545-4.405z" opacity="1" data-original="#2a5a98" class=""></path><path fill="#4a85ba" d="M304.197 466.28c-8.013 3.58-15.956 1.76-23.896-.306.002-.177-.034-.365.012-.53 3.6-12.915 7.117-25.855 10.858-38.73 1.424-4.9 3.962-9.11 8.309-12.273 6.155-4.479 11.117-10.052 13.89-17.367.541-1.428 1.976-2.518 3-3.764-.716 5.487-1.204 11.016-2.197 16.453-1.773 9.697-3.8 19.35-5.815 29.002-1.901 9.097-5.117 17.988-4.161 27.515z" opacity="1" data-original="#4a85ba"></path><path fill="#2a5a98" d="M231.308 384.279c.305 5.545.88 11.092.848 16.636-.045 7.79-1.436 15.408-3.746 22.88-3.467 11.214-6.84 22.459-10.05 33.749-1.72 6.05-2.476 12.28-2.025 18.603l-10.69-1.426c6.522-16.19 9.097-32.734 10.538-49.537 1.025-11.96.824-23.887-.551-35.792-.235-2.035.317-3.095 2.273-3.362 4.464-.611 8.935-1.17 13.403-1.751zM316.37 393.31c-1.024 1.246-2.458 2.335-3 3.764-2.773 7.315-7.735 12.888-13.89 17.367-4.347 3.163-6.885 7.372-8.309 12.274-3.741 12.874-7.258 25.814-10.857 38.73-.047.164-.01.352-.013.53-2.201-.676-4.379-1.444-6.61-2-2.384-.593-2.806-2.013-2.3-4.192a5572.61 5572.61 0 0 0 7.231-31.585c.664-2.935 1.102-5.926 1.891-8.824.249-.913 1.145-1.978 2.011-2.345 8.309-3.522 15.75-8.452 22.905-13.86a5.537 5.537 0 0 0 1.622-2.04c.797-1.744.332-3.067-1.774-3.06-1.374.004-2.934.117-4.085.762-4.316 2.42-8.492 5.089-12.736 7.64-.968.582-1.997 1.064-2.998 1.592l-.02-.02c1.418-1.977 2.721-4.05 4.28-5.91 3.12-3.725 6.38-7.332 9.583-10.988 3.86-1.367 7.688-2.834 11.593-4.058 1.951-.612 4.042-.78 6.071-1.148l-.596 7.37z" opacity="1" data-original="#2a5a98" class=""></path><path fill="#fbf2da" d="M351.99 183.652c-.286-11.427-2.187-22.63-5.464-33.53-3.735-12.43-7.99-24.701-11.987-37.052-.348-1.076-.457-2.23-.677-3.347.174.024.352.03.52.077 8.187 2.245 8.312 2.2 11.244 10.286 4.157 11.464 8.515 22.882 12.02 34.55 2.906 9.671 3.447 19.825 3.782 30.439l-9.438-1.423z" opacity="1" data-original="#fbf2da"></path><path fill="#8bcdd7" d="M314.8 331.336c-.944 4.12-1.684 8.302-2.906 12.339-.744 2.46 0 3.572 2.167 4.337.984.347 1.9.893 3.31 1.572l-6.938 8.124c-.972-.515-2.107-.854-2.888-1.576-3.173-2.936-6.318-5.912-9.3-9.038-1.105-1.157-2.38-2.742-2.439-4.179-.11-2.673.6-5.383.994-8.073 1.043-7.118 2.07-14.238 3.162-21.348.692-4.499 1.49-8.981 2.24-13.471.447 1.13 1.061 2.225 1.313 3.397 2.135 9.968 5.89 19.27 11.284 27.916z" opacity="1" data-original="#8bcdd7"></path><path fill="#d9eff8" d="M334.908 189.658c1.16 3.383 2.212 6.807 3.499 10.141 3.133 8.114 4.82 16.514 5.303 25.179.097 1.748.263 3.492.397 5.237-5.416-2.266-10.896-2.613-15.888-.354l-4.11-41.427 10.799 1.224z" opacity="1" data-original="#d9eff8"></path><path fill="#2a5a98" d="M247.002 298.3c-2.468-5.38-2.613-5.642 2.824-8.653 5.727-3.172 11.743-5.83 17.68-8.61 8.424-3.946 16.884-7.813 25.344-11.682 3.382-1.547 6.78-3.06 10.22-4.473.943-.387 2.059-.354 3.096-.514l3.744 8.197-62.908 25.735z" opacity="1" data-original="#2a5a98" class=""></path><path fill="#2a5996" d="M298.46 373.21c-.247-.783-.27-1.776-.775-2.317a1197.545 1197.545 0 0 0-16.138-16.93c-2.618-2.69-3.626-5.57-2.712-9.38 3.476-14.496 6.614-29.074 10.19-43.544 1.05-4.245 1.452-8.23-.11-12.33 1.526-1.454 2.709-.997 3.944.507 1.567 1.908 2.685 3.56 1.412 6.32-4.077 8.84-5.307 18.465-7.162 27.905-1.175 5.98-2.108 12.011-3.448 17.952-1.204 5.34.767 9.26 4.588 12.715 5.378 4.861 10.721 9.766 15.941 14.795 1.014.976 1.397 2.606 2.07 3.934l-.547.75-7.253-.377z" opacity="1" data-original="#2a5996"></path><path fill="#6f6f6e" d="M216.283 483.85c7.5.34 15 .915 22.5.936 4.745.013 9.492-.802 14.238-1.245l1.558 5.567c-3.825 3.43-8.707 4.437-13.45 4.814-10.617.845-21.285 1.05-31.932 1.514 1.068-1.845 2.1-3.711 3.213-5.528 1.252-2.043 2.58-4.04 3.873-6.058z" opacity="1" data-original="#6f6f6e"></path><path fill="#66b7c4" d="M302.203 300.023c-.75 4.49-1.55 8.972-2.24 13.471-1.093 7.11-2.12 14.23-3.163 21.348-.395 2.69-1.104 5.4-.994 8.073.06 1.437 1.334 3.022 2.438 4.179 2.983 3.126 6.128 6.102 9.3 9.038.782.722 1.917 1.06 2.889 1.576l-3.267 5.198c-4.677-4.246-9.01-8.53-13.725-12.344-3.585-2.902-4.257-6.3-3.682-10.556 1.982-14.666 5.116-29.066 9.572-43.175.237-.75 1.012-2.01 1.278-1.947.894.213 1.671.918 2.493 1.435l-.9 3.704z" opacity="1" data-original="#66b7c4"></path><path fill="#81c4e0" d="m316.37 393.31.595-7.37.64-2.392 3.867.398c-.52 4.931-.957 9.743-1.549 14.536-2.42 19.607-5.525 39.097-10.165 58.32-.31 1.28-.374 2.631-.445 3.955-.191 3.564-1.43 4.93-5.116 5.523-.956-9.527 2.26-18.418 4.16-27.515 2.017-9.652 4.043-19.305 5.816-29.002.993-5.437 1.48-10.966 2.196-16.453z" opacity="1" data-original="#81c4e0"></path><path fill="#fdebba" d="m323.127 253.785 4.09-12.69c1.328.01 2.662.107 3.983.02 9.495-.63 16.666 5.335 19.242 14.467-5.703 3.358-11.64 4.444-17.97 1.893-3.107-1.251-6.23-2.461-9.345-3.69zM400.506 264.461c-4.137-5.933-4.135-14.38.005-20.746 1.47-.259 2.95-.463 4.406-.786 5.18-1.148 6.809-.451 9.006 4.328 1.027 2.233 1.78 4.6 2.553 6.94.568 1.718 1.254 3.165 3.42 2.996l-.158 5.8-2.832-4.952c-5.338 2.92-9.658 7.86-16.4 6.42z" opacity="1" data-original="#fdebba" class=""></path><path fill="#fbda7b" d="M323.127 253.785c3.115 1.229 6.238 2.439 9.344 3.69 6.331 2.551 12.268 1.465 17.97-1.892l1.04.046c.267 4.94-2.772 8.059-6.267 10.69-4.2 3.161-8.9 5.34-14.248 5.936-4.564.507-6.535-.733-7.131-5.218-.542-4.074-.753-8.193-1.075-12.294-.024-.308.238-.638.367-.958z" opacity="1" data-original="#fbda7b"></path><path fill="#4982b7" d="m320.695 301.792-1.975 15.585-.785.074c-.38-.744-.803-1.47-1.135-2.235-3.198-7.383-6.335-14.792-9.601-22.144-.789-1.776-.976-3.297.147-4.971.785-1.17 1.574-2.413 1.988-3.74 1.387-4.452 4.938-5.604 8.942-6.177.505 6.083.976 12.17 1.536 18.247.166 1.799.581 3.575.883 5.361z" opacity="1" data-original="#4982b7"></path><path fill="#6f6f6e" d="M286.603 475.197c5.313.021 10.626.069 15.938.035.851-.006 1.7-.376 2.55-.578.61 1.252 1.168 2.532 1.841 3.75 1.882 3.403 3.812 6.78 5.722 10.168-3.119.346-6.234.938-9.357.978-4.221.053-8.449-.294-12.67-.532-.654-.037-1.29-.41-1.935-.626l-2.089-13.195z" opacity="1" data-original="#6f6f6e"></path><path fill="#d9eff8" d="M414.124 284.301c-4.128 1.025-8.27 1.842-12.407.105-4.335-1.82-8.38-4.09-11.301-7.926-3.773-4.954-3.508-10.738-3.195-16.47.109-1.99 1.929-1.298 3.15-1.42 1.287 4.49 2.26 9.136 5.693 12.64 5.062 5.167 11.118 7.27 18.592 5.54l-.532 7.531z" opacity="1" data-original="#d9eff8"></path><path fill="#81c4e0" d="M253.04 475.45c.657-1.114 1.058-2.601 2.024-3.26 1.837-1.254 3.09-2.428 3.485-4.88 3.074-19.04 7.695-37.677 15.188-55.519.892-2.123 1.775-4.164 4.672-3.738-7.95 17.026-10.95 35.442-14.97 53.565-.591 2.667-.698 5.449-.926 8.186-.202 2.431-1.28 3.943-3.789 4.38-1.91.334-3.79.837-5.683 1.265z" opacity="1" data-original="#81c4e0"></path><path fill="#4d4a4a" d="m286.603 475.197 2.09 13.195c-5.399-.718-10.807-1.377-16.192-2.188-1.834-.276-2.535-1.623-2.496-3.484.09-4.313.078-8.627.11-13.33l16.488 5.807z" opacity="1" data-original="#4d4a4a"></path><path fill="#fbda7b" d="M400.506 264.461c6.742 1.44 11.062-3.5 16.4-6.42l2.832 4.952c.58 4.476-1.19 6.516-5.59 7.003-5.614.623-10.582-.017-13.642-5.535z" opacity="1" data-original="#fbda7b"></path><path fill="#f8efd7" d="M351.481 255.629c-.346-.016-.693-.03-1.04-.047-2.575-9.132-9.746-15.096-19.241-14.468-1.321.088-2.655-.008-3.982-.02 2.698-5.15 7.71-6.878 12.668-4.133 7.296 4.04 12.099 9.733 11.595 18.668zM419.895 257.192c-2.165.17-2.851-1.278-3.419-2.995-.773-2.34-1.526-4.707-2.553-6.94-2.197-4.78-3.827-5.477-9.006-4.328-1.455.323-2.936.527-4.406.786 1.462-3.216 4.333-4.457 7.48-5.22 1.277-.31 2.616-.415 3.934-.49 3.894-.224 4.658.203 5.438 4.078 1.008 5.004 1.703 10.07 2.532 15.11z" opacity="1" data-original="#f8efd7"></path><path fill="#c7dee2" d="m302.203 300.023.9-3.704c3.93 9.539 7.982 19.032 11.685 28.66.71 1.846.043 4.223.011 6.356-5.394-8.644-9.15-17.947-11.284-27.915-.252-1.172-.866-2.267-1.312-3.397zM317.37 269.957l-2.315.8c-4.657-6.372-5.05-13.294-2.467-20.38.46-1.261 2.836-1.823 4.527-2.827-.601 4.165-1.56 7.769-1.517 11.361.043 3.559 1.096 7.105 1.772 11.046z" opacity="1" data-original="#c7dee2"></path><path fill="#81c4e0" d="m317.677 359.185 3.623-8.416.974.097c.39 8.369-.538 16.746-.34 25.404l-3.8-.962-.457-16.123z" opacity="1" data-original="#81c4e0"></path><path fill="#abaaaa" d="M312.655 488.573c-1.911-3.388-3.84-6.766-5.723-10.17-.673-1.217-1.23-2.497-1.84-3.749 1.743-1.573 3.377-1.25 4.797.407 2.742 3.2 5.456 6.427 8.114 9.698 1.843 2.269 1.456 3.326-1.428 3.801-1.273.21-2.612.02-3.92.013z" opacity="1" data-original="#abaaaa"></path><path fill="#4982b7" d="m317.677 359.185.457 16.123-8.948-1.213c1.21-6.11 4.905-10.48 8.491-14.91z" opacity="1" data-original="#4982b7"></path><path fill="#4d4a4a" d="M216.283 483.85c-1.294 2.018-2.62 4.015-3.873 6.058-1.114 1.817-2.145 3.683-3.213 5.528l-6.155-.042-.454-1.04c2.044-2.758 4.086-5.517 6.135-8.27.156-.21.363-.382.54-.577 2.86-3.139 2.86-3.14 7.02-1.657z" opacity="1" data-original="#4d4a4a"></path><path fill="#2a5996" d="M320.695 301.792c-.302-1.786-.717-3.562-.883-5.36-.56-6.079-1.031-12.165-1.537-18.248 3.113-.935 4.464-.216 4.263 2.787-.464 6.95-1.211 13.882-1.844 20.821z" opacity="1" data-original="#2a5996"></path><path fill="#81c4e0" d="M307.088 253.667c-6.184 1.484-12.364 2.986-18.556 4.433-.934.219-1.926.185-2.89.268.305-.294.561-.74.925-.86 6.998-2.31 14.008-4.582 21.557-7.037l-1.036 3.196z" opacity="1" data-original="#81c4e0"></path><path fill="#66b7c4" d="m295.798 286.21 6.146-2.52.749.84c-.758 1.333-1.292 3.52-2.327 3.79-1.375.36-3.14-.776-4.738-1.27l.17-.84z" opacity="1" data-original="#66b7c4"></path><path fill="#abaaaa" d="m254.579 489.108-1.558-5.567c1.536-.134 3.394-1.882 4.363.847.705 1.984-.354 3.746-2.805 4.72z" opacity="1" data-original="#abaaaa"></path><g fill="#4d4a4a"><path d="m149.387 197.349 2.285-5.962c-.198 1.925-.31 3.864-.622 5.77-.265 1.622-.942 1.563-1.663.191zM136.226 196.052c3.028-1.471 6.036-1.52 9.02.128l-9.02-.129zM145.218 196.164l1.67.575-1.67-.575zM151.67 190.923l.478-1.075-.479 1.075zM147.29 196.731z" fill="#4d4a4a" opacity="1" data-original="#4d4a4a"></path></g><path fill="#2a5a98" d="M285.458 408.063c-.032.066-.05.144-.099.191-.03.029-.107.009-.162.01l.241-.22.02.02z" opacity="1" data-original="#2a5a98" class=""></path><path fill="#fea1b2" d="M252.515 169.57c1.445.196 2.683.105 3.68.551 2.316 1.035 5.276 2.089 5.072 5.077-.206 3.01-2.454 5.493-5.244 6.486-4.624 1.647-9.444 2.78-14.23 3.925s-9.63 2.052-14.455 3.034c-.6.121-1.234.058-1.852.094-2.257.134-4.09-.588-4.835-2.855-.72-2.194.726-3.588 2.36-4.534 3.506-2.032 7.012-4.135 10.726-5.72 4.774-2.037 9.734-3.647 14.654-5.322 1.39-.473 2.92-.532 4.124-.736zM330.86 165.33c3.073.265 6.162.423 9.217.827 3.027.4 5.12 2.366 6.651 4.837 1.313 2.12.607 3.921-1.736 5.296-4.262 2.502-8.825 1.847-13.384 1.32-4.631-.534-9.266-1.034-13.898-1.559-2.52-.286-5.117-.25-7.103-2.306-2.008-2.077-1.88-4.638.696-6.008 1.68-.893 3.64-1.636 5.508-1.723 4.666-.215 9.351-.017 14.029.016l.02-.7z" opacity="1" data-original="#fea1b2"></path><path fill="#271915" d="M247.625 157.899c-4.505-4.12-9.8-6.207-15.291-7.904-4.83-1.493-8.733.832-9.473 5.91-.392 2.691-.108 5.479-.459 8.18-.178 1.368-.818 3.492-1.72 3.777-1.755.553-2.8-1.035-2.976-2.842-.332-3.397-1.272-6.894-.794-10.18 1.344-9.24 10.389-13.966 19.057-10.382 6.078 2.514 10.812 7.86 11.656 13.44zM307.886 150.072c-2.495-9.252 5.231-17.537 14.86-15.257 6.712 1.59 12.07 5.1 14.391 11.964 1.266 3.744.295 7.1-2.602 9.195-.7-1.493-1.732-2.841-1.95-4.31-.75-5.042-3.485-8.457-8.055-10.378-3.09-1.3-6.15-1.481-8.82 1.237-2.561 2.61-5.26 5.086-7.824 7.549z" opacity="1" data-original="#271915"></path><path fill="#2f211a" d="M262.474 195.752c11.433 3.782 22.854 7.185 34.803 2.053l.584.654c-1.006 1.117-1.803 2.64-3.053 3.284-8.046 4.15-25.92.93-32.334-5.991z" opacity="1" data-original="#2f211a" class=""></path><path fill="#432720" d="m136.993 222.004-.647-.33-3.008-1.536c.868-.922 1.57-2.174 2.633-2.708 4.437-2.23 10.185-.958 12.482 2.833-.842.305-1.623.58-2.398.87-2.9 1.084-3.606 2.832-2.144 5.595.857 1.622 1.87 3.162 2.828 4.763-1.983 1.608-3.962 2.079-6.024.808-3.864-2.38-4.59-6.01-3.722-10.295z" opacity="1" data-original="#432720" class=""></path></g></svg>