<svg xmlns="http://www.w3.org/2000/svg" version="1.1" xmlns:xlink="http://www.w3.org/1999/xlink" width="512" height="512" x="0" y="0" viewBox="0 0 64 64" style="enable-background:new 0 0 512 512" xml:space="preserve"><g><path fill="#b8c3d5" d="M16 26c0 12.15 9.85 22 22 22 2.23 0 4.38-.33 6.41-.95.73.59 1.6 1.15 2.61 1.6 3.7 1.66 7.04.95 8.04.7-1.1-1.13-2.67-3.04-3.79-5.8C56.57 39.54 60 33.17 60 26c0-12.15-9.85-22-22-22s-22 9.85-22 22z" opacity="1" data-original="#b8c3d5"></path><path fill="#325068" d="M50 24H26c-.55 0-1-.45-1-1s.45-1 1-1h24c.55 0 1 .45 1 1s-.45 1-1 1zM50 18H26c-.55 0-1-.45-1-1s.45-1 1-1h24c.55 0 1 .45 1 1s-.45 1-1 1zM50 30H26c-.55 0-1-.45-1-1s.45-1 1-1h24c.55 0 1 .45 1 1s-.45 1-1 1zM50 36H26c-.55 0-1-.45-1-1s.45-1 1-1h24c.55 0 1 .45 1 1s-.45 1-1 1z" opacity="1" data-original="#325068"></path><path fill="#d3dce5" d="M48 34c0 12.15-9.85 22-22 22-2.23 0-4.38-.33-6.41-.95-.73.59-1.6 1.15-2.61 1.6-3.7 1.66-7.04.95-8.04.7 1.1-1.13 2.67-3.04 3.79-5.8C7.43 47.54 4 41.17 4 34c0-12.15 9.85-22 22-22s22 9.85 22 22z" opacity="1" data-original="#d3dce5"></path><g fill="#536882"><path d="M19 32.78c-.26 0-.51-.1-.71-.29a.996.996 0 0 1 0-1.41l3.66-3.66a.996.996 0 1 1 1.41 1.41l-3.66 3.66c-.2.2-.45.29-.71.29z" fill="#536882" opacity="1" data-original="#536882"></path><path d="M22.66 32.78c-.26 0-.51-.1-.71-.29l-3.66-3.66a.996.996 0 1 1 1.41-1.41l3.66 3.66a.996.996 0 0 1-.71 1.7zM29.34 32.78c-.26 0-.51-.1-.71-.29a.996.996 0 0 1 0-1.41l3.66-3.66a.996.996 0 1 1 1.41 1.41l-3.66 3.66c-.2.2-.45.29-.71.29z" fill="#536882" opacity="1" data-original="#536882"></path><path d="M33 32.78c-.26 0-.51-.1-.71-.29l-3.66-3.66a.996.996 0 1 1 1.41-1.41l3.66 3.66a.996.996 0 0 1-.71 1.7zM32.47 42.59c-.36 0-.7-.19-.88-.53-1.1-2.07-3.24-3.35-5.58-3.35s-4.48 1.28-5.58 3.35c-.26.49-.87.67-1.35.41a.996.996 0 0 1-.41-1.35c1.45-2.72 4.27-4.41 7.35-4.41s5.9 1.69 7.35 4.41c.26.49.08 1.09-.41 1.35-.15.08-.31.12-.47.12z" fill="#536882" opacity="1" data-original="#536882"></path></g></g></svg>