<svg  viewBox="0 0 33 37" fill="none" xmlns="http://www.w3.org/2000/svg">
<path d="M30.55 9.45001V9.20001C30.55 7.55001 29.3 6.25001 27.7 6.25001H20.2C18.85 2.85001 15.6 0.450012 11.75 0.450012C9.95 0.450012 8.2 0.950012 6.7 1.95001C6.4 2.15001 6.35 2.55001 6.55 2.80001C6.6 2.90001 6.7 2.95001 6.8 3.00001C7 3.10001 7.25 3.10001 7.45 3.00001C8.75 2.15001 10.25 1.70001 11.8 1.70001C13.7 1.70001 15.55 2.40001 16.95 3.65001C18.6 5.10001 19.55 7.15001 19.6 9.35001C19.65 12.15 18.2 14.85 15.75 16.3C14.55 17 13.15 17.4 11.75 17.4C10.2 17.4 8.7 16.95 7.4 16.1C5.45 14.8 4.1 12.65 3.95 10.2H5.8C6.15 10.2 6.4 9.90001 6.4 9.60001C6.4 9.45001 6.35 9.30001 6.25 9.20001L4.8 6.75001L3.8 5.00001C3.6 4.60001 2.95 4.60001 2.7 5.00001L0.2 9.30001C0.1 9.50001 0.1 9.75001 0.2 9.90001C0.3 10.1 0.5 10.2 0.75 10.2H2.65C2.85 13.4 4.7 16.15 7.35 17.6V31.05C7.35 32.6 8.45 33.85 9.9 34C10 35.5 11.2 36.65 12.7 36.65H28.95C31.15 36.65 33 34.85 33 32.6V12.25C33.1 10.8 32 9.60001 30.55 9.45001ZM1.9 8.90001L3.3 6.45001L4.15 7.95001L4.7 8.90001H3.65H1.9ZM10.65 32.65C10.45 32.65 10.25 32.65 10 32.6C9.25 32.45 8.7 31.75 8.7 30.95V18.05C9.1 18.2 9.55 18.35 10 18.4C10.2 18.45 10.4 18.45 10.6 18.5C10.8 18.55 11 18.55 11.2 18.55C11.4 18.55 11.55 18.6 11.75 18.6C14.95 18.6 17.8 16.9 19.4 14.4H26.15C26.5 14.4 26.75 14.1 26.75 13.8C26.75 13.45 26.45 13.2 26.15 13.2H20.15C20.5 12.4 20.7 11.6 20.85 10.7C20.9 10.5 20.9 10.3 20.9 10.1C20.9 9.95001 20.95 9.75001 20.95 9.60001C20.95 9.55001 20.95 9.55001 20.95 9.50001C20.95 8.85001 20.85 8.15001 20.7 7.55001H27.8C28.65 7.55001 29.4 8.30001 29.4 9.25001V9.50001V10.1V10.7V31C29.4 31.5 29.2 31.95 28.85 32.3C28.25 32.85 27.3 32.7 26.55 32.7C26.1 32.7 25.6 32.7 25.15 32.7C24.55 32.7 24 32.7 23.4 32.7C22.75 32.7 22.05 32.7 21.4 32.7C20.7 32.7 20 32.7 19.3 32.7C18.6 32.7 17.9 32.7 17.2 32.7C16.55 32.7 15.9 32.7 15.25 32.7C14.7 32.7 14.15 32.7 13.55 32.7C12.95 32.7 12.35 32.7 11.75 32.7C11.35 32.65 11 32.7 10.65 32.65ZM31.85 32.55C31.85 34.1 30.6 35.35 29.05 35.35H12.85C12.05 35.35 11.35 34.75 11.3 33.95H27.75C29.3 33.95 30.6 32.65 30.6 31V10.7C31.35 10.85 31.9 11.45 31.9 12.25V32.55H31.85Z" fill="#0086C9"/>
<path d="M20.05 18.1H26.2C26.55 18.1 26.8 17.8 26.8 17.5C26.8 17.15 26.5 16.9 26.2 16.9H20.05C19.7 16.9 19.45 17.2 19.45 17.5C19.4 17.8 19.7 18.1 20.05 18.1Z" fill="#0086C9"/>
<path d="M26.2 20.5H12.55C12.2 20.5 11.95 20.8 11.95 21.1C11.95 21.4 12.25 21.7 12.55 21.7H26.2C26.55 21.7 26.8 21.4 26.8 21.1C26.8 20.8 26.55 20.5 26.2 20.5Z" fill="#0086C9"/>
<path d="M26.2 24.2H12.55C12.2 24.2 11.95 24.5 11.95 24.8C11.95 25.15 12.25 25.4 12.55 25.4H26.2C26.55 25.4 26.8 25.1 26.8 24.8C26.8 24.45 26.55 24.2 26.2 24.2Z" fill="#0086C9"/>
<path d="M26.2 27.85H12.55C12.2 27.85 11.95 28.15 11.95 28.45C11.95 28.75 12.25 29.05 12.55 29.05H26.2C26.55 29.05 26.8 28.75 26.8 28.45C26.8 28.15 26.55 27.85 26.2 27.85Z" fill="#0086C9"/>
<path d="M12 9.30002V7.45002C12 7.25002 12 7.05003 12 6.85003C12 6.25003 12 5.65002 12 5.00002C12 4.65002 11.7 4.40002 11.4 4.40002C11.1 4.40002 10.8 4.70002 10.8 5.05002V6.90002V7.50002V9.45002C10.8 9.75002 10.9 10 11.15 10.2C11.5 10.5 11.9 10.75 12.25 11.05C13 11.6 13.75 12.2 14.5 12.75C14.6 12.8 14.7 12.9 14.75 12.95C14.85 13.05 15 13.1 15.15 13.1C15.35 13.1 15.55 13 15.65 12.85C15.85 12.6 15.8 12.2 15.55 11.95C14.95 11.5 14.35 11.05 13.75 10.6L12 9.30002Z" fill="#0086C9"/>
</svg>
