<svg viewBox="0 0 26 27" fill="none" xmlns="http://www.w3.org/2000/svg">
<path d="M2.43702 13.7147C2.43702 7.55917 7.16383 2.57151 12.9975 2.57151C16.2011 2.57151 19.0697 4.07692 21.0092 6.45556C21.4458 6.99665 22.2175 7.05558 22.7253 6.59485C23.233 6.13412 23.2939 5.31981 22.8573 4.78408C20.4761 1.85363 16.9424 0 12.9975 0C5.81839 0 0 6.13948 0 13.7147V15.8576C0 16.5702 0.543253 17.1434 1.21851 17.1434C1.89377 17.1434 2.43702 16.5702 2.43702 15.8576V13.7147ZM25.7182 10.8807C25.7167 10.8807 25.7155 10.8796 25.7152 10.8782C25.577 10.1832 24.9279 9.73978 24.2738 9.8896C23.6188 10.0396 23.1923 10.72 23.3345 11.4111C23.4817 12.1557 23.563 12.9272 23.563 13.7201V15.863C23.563 16.5755 24.1062 17.1488 24.7815 17.1488C25.4567 17.1488 26 16.5755 26 15.863V13.7147C26 12.7459 25.9037 11.7985 25.7213 10.8832C25.721 10.8817 25.7197 10.8807 25.7182 10.8807ZM12.9975 4.28585C12.0328 4.28585 11.0986 4.44657 10.2304 4.74658C9.4587 5.01445 9.281 6.01626 9.80902 6.66986C10.1695 7.11451 10.7635 7.24845 11.3017 7.09308C11.8399 6.93772 12.4085 6.85736 12.9975 6.85736C16.587 6.85736 19.4962 9.9271 19.4962 13.7147V15.0487C19.4962 16.3987 19.42 17.7434 19.2728 19.0828C19.1865 19.8649 19.75 20.5721 20.5015 20.5721C21.1006 20.5721 21.6134 20.1114 21.6844 19.4846C21.852 18.0166 21.9383 16.538 21.9383 15.0541V13.7147C21.9383 8.50741 17.9375 4.28585 13.0025 4.28585H12.9975ZM7.65124 7.96633C7.18922 7.39845 6.36673 7.35559 5.93009 7.9449C4.75727 9.53602 4.06171 11.5397 4.06171 13.7147V15.0487C4.06171 16.3452 3.9297 17.6416 3.66569 18.9006C3.49307 19.7363 4.06678 20.5721 4.87913 20.5721C5.41222 20.5721 5.88947 20.1971 6.00625 19.6453C6.33119 18.1399 6.49873 16.6023 6.49873 15.0487V13.7147C6.49873 12.2575 6.93029 10.9075 7.66139 9.79853C8.02695 9.24137 8.06756 8.48063 7.65124 7.96633ZM12.9975 8.5717C10.3066 8.5717 8.12341 10.8753 8.12341 13.7147V15.0487C8.12341 16.972 7.88987 18.8792 7.42277 20.7328C7.22984 21.4989 7.76294 22.2864 8.51435 22.2864C8.99668 22.2864 9.42316 21.9543 9.55009 21.4614C10.0832 19.372 10.3574 17.2184 10.3574 15.0487V13.7147C10.3574 12.1772 11.5403 10.9289 12.9975 10.9289C14.4546 10.9289 15.6376 12.1772 15.6376 13.7147V15.0487C15.6376 16.9934 15.4599 18.9274 15.1095 20.8292C14.9725 21.5739 15.5005 22.2864 16.2164 22.2864C16.7342 22.2864 17.181 21.9114 17.2826 21.3757C17.6735 19.297 17.8715 17.1809 17.8715 15.0487V13.7147C17.8715 10.8753 15.6883 8.5717 12.9975 8.5717ZM14.216 13.7147C14.216 13.0022 13.6727 12.429 12.9975 12.429C12.3222 12.429 11.7789 13.0022 11.7789 13.7147V15.0487C11.7789 18.2577 11.2205 21.44 10.1289 24.4347L9.82933 25.2544C9.58563 25.9187 9.90041 26.6634 10.53 26.9151C11.1595 27.1669 11.8653 26.8401 12.1039 26.1758L12.4034 25.3562C13.6016 22.0668 14.216 18.5738 14.216 15.0487V13.7147Z" fill="white"/>
</svg>
