<svg xmlns="http://www.w3.org/2000/svg" version="1.1" xmlns:xlink="http://www.w3.org/1999/xlink" x="0" y="0" viewBox="0 0 512 512" style="enable-background:new 0 0 512 512" xml:space="preserve" class=""><g><path d="M453.373 235.006c.392-.991.709-2.025.942-3.098.125-.587.23-1.183.325-1.83.118-.594.21-1.189.284-1.801.102-.592.189-1.194.251-1.835.09-.612.164-1.225.212-1.84.087-1.082.079-2.15-.01-3.2.21-14.97-4.697-28.154-14.279-38.269-4.615-4.871-10.219-8.968-16.79-12.282 5.099-5.241 9.046-10.902 11.821-16.97 5.814-12.712 6.18-26.811 1.093-40.933a19.89 19.89 0 0 0-1.039-3.054 25.681 25.681 0 0 0-.794-1.655 25.967 25.967 0 0 0-.845-1.673 24.502 24.502 0 0 0-.863-1.623 25.763 25.763 0 0 0-.914-1.634 19.47 19.47 0 0 0-1.874-2.584c-10.815-15.5-26.148-23.673-44.503-23.673-3.343 0-6.766.279-10.262.836 1.073-7.237.965-14.14-.333-20.689-2.716-13.714-10.667-25.368-23.054-33.851a19.483 19.483 0 0 0-2.578-1.836 26.675 26.675 0 0 0-1.694-.929 25.7 25.7 0 0 0-1.628-.842 24.787 24.787 0 0 0-1.659-.819c-.576-.29-1.16-.564-1.751-.813a19.282 19.282 0 0 0-2.967-.97c-6.43-2.249-12.853-3.387-19.122-3.387-15.932 0-28.606 6.721-38.651 16.781C268.927 3.881 245.686.035 233.466.035c-.54 0-1.083.006-1.633.02a20.01 20.01 0 0 0-3.218.02c-.604.054-1.211.132-1.858.234-.612.066-1.216.157-1.833.271a24.51 24.51 0 0 0-1.817.305c-.63.1-1.257.216-1.879.361a19.25 19.25 0 0 0-2.992.951c-15.116 4.486-26.587 13.755-33.278 26.932-3.676 7.237-5.65 15.198-6.369 23.48-9.241-5.145-19.183-8.31-29.656-8.31-12.418 0-23.96 4.329-34.345 12.872a19.621 19.621 0 0 0-2.519 1.997c-.435.407-.855.832-1.295 1.3-.443.43-.865.878-1.288 1.352-.425.433-.837.878-1.231 1.343a26.89 26.89 0 0 0-1.283 1.468 19.327 19.327 0 0 0-1.769 2.584c-8.726 12.236-12.188 25.923-10.014 39.748 1.037 6.594 3.31 13.113 6.812 19.538-22.391 4.448-37.852 18.546-43.596 40.243-.361.96-.648 1.962-.858 2.996a26.098 26.098 0 0 0-.315 1.939 24.793 24.793 0 0 0-.253 1.833 22.626 22.626 0 0 0-.212 1.807c-.08.612-.141 1.225-.179 1.838a19.54 19.54 0 0 0 .074 3.243c.079 14.771 5.114 27.727 14.647 37.603 4.774 4.944 10.575 9.054 17.379 12.323-4.999 5.339-8.837 11.074-11.496 17.196-5.573 12.826-5.665 26.933-.305 40.96.266.983.614 1.96 1.047 2.917.264.584.553 1.157.878 1.76.269.557.558 1.098.873 1.646.282.549.578 1.091.901 1.621.302.557.619 1.106.96 1.638a19.33 19.33 0 0 0 1.899 2.506c10.862 14.947 25.952 22.829 43.801 22.829 3.704 0 7.503-.348 11.386-1.043-.937 7.257-.696 14.156.725 20.678a51.167 51.167 0 0 0 4.72 12.976c-9.658 4.354-21.597 11.839-26.74 25.596-4.928 13.186-2.637 28.752 6.448 43.83 27.096 44.971 86.891 51.301 104.569 52.172 2.575.125 5.191.19 7.779.19 22.457 0 44.633-4.68 65.081-13.644 11.253 16.524 24.065 30.551 38.234 41.841 4.864 3.875 10.982 6.008 17.225 6.008 4.82 0 9.589-1.257 13.785-3.638 8.125-4.608 14.74-11.058 19.135-18.659 7.121-12.315 3.696-27.935-7.966-36.332a161.452 161.452 0 0 1-9.013-7.024c9.676-6.412 18.293-14.207 25.54-23.171 18.231-22.55 26.899-51.639 23.783-79.803-1.098-9.924-4.201-18.594-8.895-25.402 2.759-7.93 3.55-16.231 2.289-24.6-.96-6.375-3.075-12.702-6.328-18.962 22.458-4.022 38.214-17.864 44.37-39.406z" style="" fill="#ffffff" data-original="#ffffff" class=""></path><path d="M322.715 438.06c-7.36-21.202-6.551-45.126 2.226-65.782 8.776-20.656 25.435-37.846 45.805-47.266 5.318-2.459 11.319-4.43 16.964-2.861 9.43 2.623 13.61 13.653 14.686 23.381 2.563 23.174-4.871 47.152-19.53 65.284-14.659 18.132-36.259 30.338-59.239 34.28M301.447 422.152c-15.864-26.662-42.747-46.535-72.889-53.883-22.663-5.525-46.706-5.454-68.703 2.608-8.87 3.251-20.46 7.867-24.102 17.611-3.308 8.848.241 19.115 4.872 26.8 17.358 28.807 56.63 41.105 88.697 42.683 28.265 1.391 56.9-5.919 81.039-20.689" style="" fill="#43aa99" data-original="#43aa99" class=""></path><path d="M382.169 338.828c-.357-.231-4.174 4.885-9.846 13.491-5.674 8.603-13.151 20.731-20.832 34.459-7.674 13.731-14.091 26.451-18.45 35.789-4.362 9.339-6.723 15.269-6.339 15.452.409.196 3.485-5.385 8.351-14.441 4.864-9.058 11.572-21.564 19.218-35.246 7.654-13.678 14.797-25.942 19.967-34.828 5.168-8.887 8.312-14.429 7.931-14.676z" style="" fill="#235e54" data-original="#235e54"></path><path d="M327.068 380.509c-.849.228.744 8.912 3.56 19.395 2.815 10.483 5.786 18.797 6.635 18.569.849-.228-.745-8.911-3.56-19.395s-5.785-18.797-6.635-18.569z" style="" fill="#235e54" data-original="#235e54"></path><path d="M376.028 411.216c-.1-.874-9.257-.54-20.453.745-11.196 1.285-20.19 3.035-20.09 3.909.1.874 9.257.54 20.453-.745 11.196-1.285 20.191-3.035 20.09-3.909zM352.886 388.938c.847-.237-.664-8.266-3.375-17.933-2.711-9.666-5.595-17.31-6.441-17.073s.664 8.266 3.375 17.933c2.71 9.666 5.594 17.31 6.441 17.073zM388.194 381.053c-.17-.863-8.021-.043-17.536 1.831-9.515 1.874-17.09 4.093-16.92 4.956.17.863 8.021.043 17.536-1.831 9.514-1.875 17.09-4.094 16.92-4.956zM369.263 359.616c.844-.277.062-4.946-1.289-10.554-1.363-5.604-2.802-10.115-3.68-9.975-.859.134-.811 4.981.585 10.724 1.385 5.746 3.558 10.079 4.384 9.805z" style="" fill="#235e54" data-original="#235e54"></path><path d="M388.264 353.613c-.282-.833-4.751-.075-9.984 1.694-5.232 1.769-9.245 3.878-8.963 4.711.282.833 4.751.075 9.983-1.694 5.232-1.768 9.245-3.877 8.964-4.711zM315.191 426.639c-.056-.533-8.674.277-22.593.319-6.959.051-15.241-.264-24.401-.98-9.152-.816-19.178-2.091-29.595-4.066-10.403-2.048-20.182-4.599-28.979-7.252-8.767-2.748-16.57-5.542-23.009-8.181-12.902-5.225-20.597-9.187-20.848-8.713-.104.194 1.721 1.364 5.123 3.32a90.584 90.584 0 0 0 6.299 3.376c2.498 1.234 5.312 2.716 8.543 4.088 6.383 2.929 14.186 5.973 23.005 8.907 8.848 2.838 18.73 5.509 29.261 7.582 10.545 2 20.711 3.203 29.98 3.866 9.277.563 17.653.645 24.667.305 3.51-.069 6.674-.397 9.452-.611a91.052 91.052 0 0 0 7.104-.787c3.885-.548 6.015-.954 5.991-1.173z" style="" fill="#235e54" data-original="#235e54"></path><path d="M255.056 387.227c-.87.13-.264 9.026 1.353 19.871 1.617 10.845 3.633 19.531 4.503 19.401.87-.13.264-9.026-1.353-19.871-1.617-10.845-3.633-19.531-4.503-19.401z" style="" fill="#235e54" data-original="#235e54"></path><path d="M224.207 448.4c.318.783 9.625-2.372 19.923-8.644 10.321-6.236 17.419-13.033 16.871-13.676-.577-.709-8.423 4.854-18.523 10.953-10.075 6.139-18.634 10.528-18.271 11.367zM225.764 420.765c-.415-.803-7.818 2.252-17.023 5.674-9.193 3.453-16.785 6.003-16.571 6.881.191.833 8.288-.37 17.686-3.898 9.409-3.5 16.309-7.902 15.908-8.657z" style="" fill="#235e54" data-original="#235e54"></path><path d="M221.816 379.419c-.892.269 1.386 9.63 2.345 21.364 1.035 11.727.369 21.338 1.293 21.453.815.147 2.943-9.589 1.88-21.722-1-12.14-4.74-21.377-5.518-21.095zM191.316 410.294c-.26-.849-6.326.265-13.662 2.064-7.333 1.81-13.223 3.636-13.06 4.509.158.856 6.39.417 13.82-1.417 7.434-1.822 13.159-4.324 12.902-5.156z" style="" fill="#235e54" data-original="#235e54"></path><path d="M185.291 380.888c-.862.226.245 7.243 1.923 15.793 1.692 8.547 3.329 15.459 4.212 15.341.861-.112.625-7.3-1.087-15.957-1.7-8.659-4.209-15.4-5.048-15.177z" style="" fill="#235e54" data-original="#235e54"></path><path d="M273.367 330.944s10.859 105.911 78.334 159.673c2.586 2.061 6.185 2.274 9.061.643 3.665-2.078 8.504-5.68 11.809-11.397 2.064-3.569.912-8.129-2.434-10.538-17.207-12.388-71.377-56.978-83.423-134.795" style="" fill="#43aa99" data-original="#43aa99" class=""></path><path d="M369.345 180.06c33.115-11.205 61.407-31.025 48.683-62.274l.122-.064c-.168-.39-.391-.756-.575-1.139-.025-.058-.039-.113-.065-.171-.123-.279-.292-.53-.427-.802-.144-.267-.253-.55-.41-.811-.033-.055-.07-.097-.103-.151-.206-.372-.378-.764-.6-1.126l-.122.063c-18.209-28.394-50.693-16.701-78.923 3.902 20.314-28.452 31.677-61.073 3.083-78.985l.062-.123c-.364-.218-.759-.385-1.133-.588-.054-.032-.097-.069-.152-.101-.263-.154-.547-.259-.815-.401-.273-.132-.526-.298-.807-.419-.059-.025-.114-.038-.172-.063-.385-.181-.754-.399-1.145-.563l-.062.123c-31.375-12.389-50.892 16.093-61.747 49.314-.156-34.96-10.009-68.07-43.679-65.883l-.022-.136c-.423.037-.841.131-1.263.185-.063.006-.119.001-.183.007-.304.029-.595.109-.896.151-.299.053-.602.066-.899.132-.062.014-.114.036-.176.05-.418.078-.845.117-1.258.213l.022.136c-37.573 9.531-30.875 53.681-15.922 90.825-22.386-33.209-55.221-63.515-84.176-37.728l-.101-.094c-.311.289-.582.621-.881.923-.046.043-.094.074-.14.118-.222.209-.402.453-.614.671-.203.226-.434.422-.628.657-.04.049-.068.098-.108.147-.281.319-.594.612-.861.942l.101.094c-20.672 26.654 1.209 53.36 30.064 73.077-33.607-9.632-68.149-9.435-75.471 23.502l-.137-.018c-.083.416-.109.844-.175 1.264-.012.062-.032.115-.044.177-.057.299-.062.602-.105.902-.033.302-.105.596-.125.9-.004.064.002.12-.002.183-.042.423-.124.844-.148 1.268l.137.018c-1.187 33.71 32.18 42.582 67.117 41.706-32.895 11.835-60.804 32.192-47.485 63.193l-.121.065c.175.386.405.749.597 1.128.026.058.041.112.068.17.129.277.302.525.442.794.15.264.263.545.425.804.034.054.072.096.106.149.213.367.393.757.621 1.115l.121-.066c18.747 28.041 51.003 15.73 78.834-5.408-19.766 28.835-30.505 61.667-1.574 79.03l-.06.124c.368.211.766.371 1.144.566.055.031.099.067.154.098.266.149.552.249.823.385.276.127.532.288.815.403.059.024.114.036.173.06.388.173.761.384 1.156.541l.06-.124c31.605 11.788 50.575-17.062 60.794-50.484.824 34.951 11.307 67.867 44.93 65.036l.024.136c.422-.044.838-.147 1.259-.209.063-.007.119-.004.182-.011.303-.034.593-.121.893-.168.298-.058.6-.077.897-.149.062-.015.113-.037.175-.053.416-.086.842-.133 1.254-.237l-.024-.136c32.532-8.917 31.052-43.412 19.801-76.5 21.103 27.872 48.854 48.445 74.476 26.49l.099.096c.316-.283.594-.609.899-.906.047-.042.095-.073.142-.115.226-.205.411-.445.626-.659.208-.222.442-.413.64-.645.041-.048.07-.097.111-.145.287-.313.606-.601.879-.925l-.099-.096c21.178-26.254-.189-53.373-28.662-73.638 33.416 10.272 67.956 10.735 75.906-22.056l.136.02c.091-.414.126-.842.199-1.26.013-.062.034-.114.048-.176.063-.299.073-.601.123-.901.039-.301.116-.594.142-.898.005-.064 0-.12.005-.183.05-.422.14-.841.172-1.264l-.136-.02c1.829-33.682-31.361-43.19-66.309-42.981zm-72.847 38.534-.175.441-.051.085.013.01-5.388 13.595-13.419 5.785-.049-.063-.4.256-.09.039a.131.131 0 0 1 .005.015l-12.32 7.879-14.268-3.153-.004-.08-.475-.026-.095-.021-.005.016-14.601-.812-9.732-10.9.044-.066-.37-.299-.065-.073-.013.01-11.371-9.196-1.522-14.533.074-.028-.125-.458-.01-.098h-.016l-3.848-14.109 7.263-12.679.077.02.167-.445.049-.085-.013-.009 5.128-13.696 13.84-6.283c-.37-1.13-.8-2.346-1.278-3.624a96.431 96.431 0 0 0 2.3 3.117l12.96-7.943 14.205 3.425.002.079.473.035.096.023a.098.098 0 0 0 .005-.016l14.583 1.091 9.522 11.084-.045.066.364.306.064.074.013-.009 11.193 9.411 1.244 14.559-.074.027.116.46.008.098h.016l3.578 14.179-7.504 12.539c-.024-.005-.051-.013-.076-.02z" style="" fill="#c851a0" data-original="#c851a0" class=""></path><path d="M249.622 156.932c1.303-.206-.726-19.906-4.532-44.002-3.806-24.095-7.947-43.462-9.25-43.256-1.303.206.726 19.906 4.532 44.001 3.806 24.096 7.947 43.463 9.25 43.257zM275.455 161.015c1.177.595 11.05-16.574 22.051-38.347 11.001-21.772 18.965-39.905 17.787-40.5-1.177-.595-11.05 16.573-22.051 38.346-11.001 21.774-18.965 39.906-17.787 40.501zM294.024 179.432c.607 1.171 18.655-6.984 40.31-18.216 21.655-11.231 38.717-21.285 38.11-22.456-.607-1.171-18.654 6.985-40.309 18.215-21.655 11.232-38.718 21.286-38.111 22.457zM298.321 205.23c-.192 1.305 19.217 5.241 43.352 8.791 24.134 3.55 43.855 5.37 44.047 4.065.192-1.305-19.217-5.241-43.352-8.791-24.134-3.549-43.855-5.37-44.047-4.065zM286.723 228.672c-.919.947 12.526 15.488 30.03 32.48 17.503 16.991 32.438 29.998 33.357 29.051.919-.946-12.526-15.488-30.029-32.479-17.505-16.992-32.439-29.999-33.358-29.052zM263.608 240.907c-1.299.23 1.106 19.889 5.371 43.907 4.265 24.018 8.776 43.302 10.074 43.072 1.299-.231-1.106-19.889-5.371-43.907-4.265-24.018-8.775-43.303-10.074-43.072zM237.701 237.318c-1.188-.572-10.731 16.781-21.315 38.761-10.583 21.979-18.199 40.26-17.01 40.832 1.188.572 10.731-16.781 21.314-38.76 10.584-21.979 18.2-40.261 17.011-40.833zM218.783 219.259c-.629-1.159-18.518 7.339-39.955 18.982-21.436 11.642-38.304 22.02-37.674 23.18.63 1.159 18.518-7.34 39.954-18.982 21.437-11.643 38.305-22.021 37.675-23.18zM213.995 193.548c.167-1.309-19.314-4.873-43.512-7.962-24.198-3.089-43.949-4.532-44.116-3.223-.167 1.308 19.314 4.873 43.512 7.962 24.197 3.088 43.949 4.531 44.116 3.223zM225.143 169.889c.901-.964-12.819-15.246-30.644-31.9-17.825-16.654-33.005-29.373-33.905-28.409-.901.964 12.819 15.246 30.644 31.9 17.825 16.654 33.005 29.373 33.905 28.409z" style="" fill="#9b377e" data-original="#9b377e"></path><circle cx="256.771" cy="202.197" r="77.531" style="" transform="rotate(-55.272 256.757 202.188)" fill="#fec400" data-original="#fec400" class=""></circle><path d="M235.821 193.434c1.064 6.738-.893 12.645-4.371 13.195-3.478.549-7.161-4.467-8.225-11.206-1.064-6.738.893-12.645 4.371-13.195 3.479-.549 7.161 4.468 8.225 11.206zM286.596 185.414c1.064 6.738-.893 12.645-4.371 13.195-3.478.549-7.161-4.467-8.225-11.206-1.064-6.738.893-12.645 4.371-13.195 3.478-.548 7.16 4.469 8.225 11.206zM267.791 188.905c-.689.22-.136 2.786-1.249 6.33-.563 1.743-1.557 3.71-3.175 5.309-1.577 1.598-3.889 2.764-6.501 3.15-2.616.356-5.161-.12-7.12-1.217-2-1.086-3.501-2.699-4.527-4.216-2.056-3.095-2.239-5.713-2.961-5.732-.551-.123-1.763 2.796-.046 7.271a14.17 14.17 0 0 0 5.231 6.428c2.701 1.848 6.412 2.714 10.094 2.195 3.682-.526 7.005-2.391 9.085-4.917a14.164 14.164 0 0 0 3.236-7.631c.404-4.775-1.572-7.241-2.067-6.97z" style="" fill="#d18e22" data-original="#d18e22"></path><path d="M227.516 229.744c-3.269-20.695-22.695-34.822-43.39-31.553-1.661.263-3.262.664-4.832 1.127a77.854 77.854 0 0 0 .896 14.975c3.45 21.844 15.721 40.088 32.595 51.723 10.875-8.164 17-21.906 14.731-36.272zM333.352 190.101a77.837 77.837 0 0 0-3.763-14.522c-1.637.044-3.283.155-4.944.418-20.695 3.268-34.822 22.695-31.553 43.39 2.269 14.367 12.332 25.552 25.193 29.966 12.467-16.269 18.517-37.408 15.067-59.252z" style="" fill="#f4a32c" data-original="#f4a32c" class=""></path></g></svg>