<svg width="59" height="59" viewBox="0 0 59 59" fill="none" xmlns="http://www.w3.org/2000/svg">
<path d="M56.2813 0.375H42.2188C41.5972 0.375 41.0011 0.621931 40.5615 1.06147C40.122 1.50101 39.8751 2.09715 39.8751 2.71875C39.8751 3.34035 40.122 3.93649 40.5615 4.37603C41.0011 4.81557 41.5972 5.0625 42.2188 5.0625H50.6241L38.2989 17.3877C33.6433 13.5822 27.7033 11.7116 21.7073 12.1628C15.7113 12.6139 10.1181 15.3523 6.08437 19.8116C2.05069 24.2708 -0.114839 30.1098 0.0356715 36.1209C0.186182 42.132 2.64122 47.8552 6.89301 52.107C11.1448 56.3588 16.8681 58.8139 22.8792 58.9644C28.8902 59.1149 34.7292 56.9494 39.1885 52.9157C43.6477 48.882 46.3861 43.2887 46.8373 37.2928C47.2884 31.2968 45.4178 25.3567 41.6124 20.7012L53.9376 8.37891V16.7812C53.9376 17.4028 54.1845 17.999 54.624 18.4385C55.0636 18.8781 55.6597 19.125 56.2813 19.125C56.9029 19.125 57.4991 18.8781 57.9386 18.4385C58.3781 17.999 58.6251 17.4028 58.6251 16.7812V2.71875C58.6251 2.09715 58.3781 1.50101 57.9386 1.06147C57.4991 0.621931 56.9029 0.375 56.2813 0.375ZM36.7227 48.7998C34.1001 51.4212 30.7592 53.2061 27.1223 53.9289C23.4854 54.6517 19.7158 54.2799 16.2902 52.8605C12.8646 51.4411 9.93671 49.0379 7.8768 45.9546C5.8169 42.8714 4.71744 39.2466 4.71744 35.5386C4.71744 31.8305 5.8169 28.2057 7.8768 25.1225C9.93671 22.0393 12.8646 19.636 16.2902 18.2166C19.7158 16.7972 23.4854 16.4254 27.1223 17.1482C30.7592 17.871 34.1001 19.656 36.7227 22.2773C40.2337 25.7977 42.2053 30.5667 42.2053 35.5386C42.2053 40.5105 40.2337 45.2794 36.7227 48.7998Z" fill="#9CD322"/>
</svg>
