<svg width="75" height="75" viewBox="0 0 75 75" fill="none" xmlns="http://www.w3.org/2000/svg">
<path d="M60.9375 28.125C60.9374 23.5894 59.6214 19.1513 57.1489 15.3489C54.6765 11.5465 51.1539 8.54316 47.0083 6.70314C42.8628 4.86312 38.2724 4.26546 33.7939 4.98266C29.3154 5.69986 25.1412 7.7011 21.7775 10.7437C18.4139 13.7862 16.0053 17.7394 14.8439 22.1238C13.6825 26.5081 13.8182 31.1352 15.2345 35.444C16.6508 39.7528 19.2869 43.558 22.823 46.3983C26.3591 49.2385 30.6434 50.9918 35.1562 51.4453V58.5937H25.7813C25.1596 58.5937 24.5635 58.8407 24.124 59.2802C23.6844 59.7197 23.4375 60.3159 23.4375 60.9375C23.4375 61.5591 23.6844 62.1552 24.124 62.5948C24.5635 63.0343 25.1596 63.2812 25.7813 63.2812H35.1562V70.3125C35.1562 70.9341 35.4032 71.5302 35.8427 71.9698C36.2823 72.4093 36.8784 72.6562 37.5 72.6562C38.1216 72.6562 38.7177 72.4093 39.1573 71.9698C39.5968 71.5302 39.8438 70.9341 39.8438 70.3125V63.2812H49.2188C49.8404 63.2812 50.4365 63.0343 50.876 62.5948C51.3156 62.1552 51.5625 61.5591 51.5625 60.9375C51.5625 60.3159 51.3156 59.7197 50.876 59.2802C50.4365 58.8407 49.8404 58.5937 49.2188 58.5937H39.8438V51.4453C45.6221 50.8573 50.9772 48.1475 54.8735 43.84C58.7698 39.5325 60.9304 33.9332 60.9375 28.125ZM18.75 28.125C18.75 24.4166 19.8497 20.7915 21.9099 17.7081C23.9702 14.6246 26.8986 12.2214 30.3247 10.8023C33.7508 9.38311 37.5208 9.0118 41.1579 9.73527C44.7951 10.4587 48.136 12.2445 50.7583 14.8667C53.3805 17.489 55.1663 20.8299 55.8897 24.4671C56.6132 28.1042 56.2419 31.8742 54.8227 35.3003C53.4036 38.7264 51.0004 41.6548 47.9169 43.715C44.8335 45.7753 41.2084 46.875 37.5 46.875C32.5289 46.8696 27.7629 44.8924 24.2477 41.3773C20.7326 37.8621 18.7554 33.0961 18.75 28.125Z" fill="#313131"/>
</svg>
