<svg width="75" height="75" viewBox="0 0 75 75" fill="none" xmlns="http://www.w3.org/2000/svg">
<path d="M60.9375 7.03125H49.2187C48.5971 7.03125 48.001 7.27818 47.5614 7.71772C47.1219 8.15726 46.875 8.7534 46.875 9.375C46.875 9.9966 47.1219 10.5927 47.5614 11.0323C48.001 11.4718 48.5971 11.7188 49.2187 11.7188H55.2803L47.9121 19.0869C45.7486 17.0707 43.1388 15.5948 40.296 14.7798C37.4531 13.9648 34.4578 13.8339 31.5547 14.3976C28.6515 14.9614 25.9229 16.2038 23.5917 18.0236C21.2605 19.8433 19.3928 22.1886 18.1411 24.868C16.8894 27.5475 16.2893 30.485 16.3897 33.4406C16.4902 36.3963 17.2883 39.2862 18.719 41.8745C20.1497 44.4628 22.1723 46.6759 24.6217 48.3332C27.0711 49.9904 29.8778 51.0448 32.8125 51.4102V56.25H25.7812C25.1596 56.25 24.5635 56.4969 24.1239 56.9365C23.6844 57.376 23.4375 57.9721 23.4375 58.5938C23.4375 59.2154 23.6844 59.8115 24.1239 60.251C24.5635 60.6906 25.1596 60.9375 25.7812 60.9375H32.8125V67.9688C32.8125 68.5904 33.0594 69.1865 33.4989 69.626C33.9385 70.0656 34.5346 70.3125 35.1562 70.3125C35.7778 70.3125 36.374 70.0656 36.8135 69.626C37.253 69.1865 37.5 68.5904 37.5 67.9688V60.9375H44.5312C45.1528 60.9375 45.749 60.6906 46.1885 60.251C46.628 59.8115 46.875 59.2154 46.875 58.5938C46.875 57.9721 46.628 57.376 46.1885 56.9365C45.749 56.4969 45.1528 56.25 44.5312 56.25H37.5V51.4102C40.6416 51.0177 43.6324 49.8352 46.1928 47.9731C48.7533 46.111 50.7999 43.6301 52.1413 40.7624C53.4828 37.8946 54.0752 34.7335 53.8633 31.5746C53.6514 28.4157 52.6421 25.3621 50.9297 22.6992L58.5937 15.0322V21.0938C58.5937 21.7154 58.8407 22.3115 59.2802 22.751C59.7197 23.1906 60.3159 23.4375 60.9375 23.4375C61.5591 23.4375 62.1552 23.1906 62.5948 22.751C63.0343 22.3115 63.2812 21.7154 63.2812 21.0938V9.375C63.2812 8.7534 63.0343 8.15726 62.5948 7.71772C62.1552 7.27818 61.5591 7.03125 60.9375 7.03125ZM35.1562 46.875C32.3749 46.875 29.6561 46.0502 27.3435 44.505C25.031 42.9598 23.2285 40.7636 22.1642 38.194C21.0998 35.6244 20.8213 32.7969 21.3639 30.069C21.9065 27.3412 23.2459 24.8355 25.2125 22.8688C27.1792 20.9021 29.6849 19.5628 32.4128 19.0202C35.1406 18.4776 37.9681 18.7561 40.5377 19.8204C43.1073 20.8848 45.3036 22.6872 46.8488 24.9998C48.394 27.3124 49.2187 30.0312 49.2187 32.8125C49.2148 36.5409 47.732 40.1155 45.0956 42.7519C42.4592 45.3883 38.8846 46.8711 35.1562 46.875Z" fill="#313131"/>
</svg>
