<svg xmlns="http://www.w3.org/2000/svg" version="1.1" xmlns:xlink="http://www.w3.org/1999/xlink" width="512" height="512" x="0" y="0" viewBox="0 0 135.467 135.467" style="enable-background:new 0 0 512 512" xml:space="preserve"><g><path fill="#ffffff" d="M103.13 6.08c-2.621.01-2.88.543-3.908.982-.667.286-1.318.617-1.981 1a5.882 5.882 0 0 0-1.683.381c-.796.307-1.524.877-2.11 1.505-3.545.132-4.545 1.564-5.995 2.809-.134.115-.257.247-.387.366-.161-.02-.317-.063-.48-.067-2.398-.057-3.992 1.263-4.816 2.294-.298.373-.518.74-.71 1.106-1.91-.202-2.107.355-2.506.528-.46.2-.76.37-1.065.551-.606.36-1.169.754-1.76 1.213-.815.119-1.787.384-2.578.934-1.437 1-1.877 1.855-2.102 2.458-.096.095-.168.172-.284.274-.148.128-.236.191-.317.252-.808.337-1.55.817-2.071 1.384-.097.105-.162.212-.247.318-2.391.601-4.163 2.19-5.466 4.028-1.4.167-2.45.786-3.062 1.294-1.367 1.134-1.748 1.837-1.867 2.354-.251-.062-.514-.154-.743-.174-2.485-.217-3.794.605-5 1.361-1.207.757-2.24 1.691-3.191 2.823-1.92 2.282-3.653 4.976-5.047 7.523-2.6-2.334-5.878-3.862-9.2-4.03-.517-.026-.97-.05-1.488-.049-1.543.002-3.654.67-4.829 1.248-2.65 1.305-5.037 3.86-6.29 6.573-.433.937-.77 1.895-1.03 2.868-1.06-.262-2.132-.338-3.12-.36-1.679-.04-3.413.226-5.174 1.053-2.945 1.384-4.883 3.423-6.303 6.225-3.073 6.064-2.497 13.281.08 19.9 2.144 5.513 5.69 10.23 10.775 12.716 1.697.83 4.136 1.372 6.476 1.37 1.129-.003 1.999.01 3.148-.192.738-.131 1.425-.383 2.043-.645.403.302.827.603 1.357.926a8.087 8.087 0 0 0 2.802 1.066c-.352.19-.645.39-.86.55a5.702 5.702 0 0 0-.764.672c-.688.1-1.204.268-1.583.478-.041-.025-.087-.069-.127-.09-1.942-1.08-2.53-.744-3.064-.746h-.016c-.619 0-1.092.042-1.73.096-1.199.101-1.83-.169-3.959.903-.509.256-1.248.867-1.892 1.685l-2.644.105c-1.373.055-2.854.313-4.396 1.126-2.202 1.161-3.503 2.67-4.639 4.333-.689 1.009-1.318 2.043-1.734 3.326-.95.7-1.786 1.489-2.546 2.688-.829 1.306-1.533 3.825-1.533 5.38 0 1.467.212 2.846.82 4.283.27.639.663 1.39 1.242 2.1.283 2.073 1.017 3.825 2.183 5.662.981 1.546 2.87 3.213 4.582 4.152 2.732 1.498 3.666.972 5.027.88 1.36-.093 2.573-.184 4.367-1.09.082-.042.125-.077.202-.117.58.215 1.143.392 1.63.457.654.088 1.655.222 3.009-.147.103-.028.195-.077.296-.11 2.08.536 4.237.468 6.242-.22 2.686-.92 5.242-3.215 6.088-6.392.03-.116.085-.291.121-.393.782-1.394 1.378-2.921 1.693-4.503.579-.314.946-.683 1.196-.92.505-.479.685-.774.835-1.003.3-.458.388-.677.481-.882.186-.408.283-.686.392-.996.217-.62.42-1.288.616-1.977.073-.26.127-.503.195-.76a9.13 9.13 0 0 0 1.77-.501c1.621-.66 2.989-1.619 4.445-2.744 2.651 2.126 5.853 3.436 9.251 3.438 2.11.002 4.08-.41 5.954-1.11.029.35.03.73.076 1.07.228 1.71.977 3.8 2.275 5.189.707.756 1.827 1.687 3.478 2.084 1.651.397 3.472 0 4.615-.588 2.286-1.175 3.081-2.488 4.214-4.026 2.136-2.899 4.545-7.41 6.84-12.042 1.148-2.317 2.505-4.503 3.068-6.604 1.003-3.745 3.248-6.08 4.777-7.644 9.977-10.2 20.522-23.122 27.989-34.321 5.518-8.278 9.156-14.631 9.75-20.824.148-1.554-.327-4.296-1-5.592-.697-1.346-2.188-3.171-4.061-4.043-1.873-.871-3.45-.946-5.118-1.013a22.864 22.864 0 0 0-.89-.018c-1.784-.002-3.669.215-5.598.54-.23-1.787-1.262-3.033-1.891-3.553-.706-.585-1.14-.74-1.464-.873-.65-.264-.932-.299-1.2-.35-.254-.05-.423-.056-.622-.08.221-.593.421-1.191.573-1.83.46-1.938.003-5.37-1.793-7.167-1.64-1.64-2.37-2.111-5.038-2.094zM53.345 34.376c.007.014-.016.053-.07.094-.136.104-.193.183-.316.282.238-.322.371-.402.386-.376z" opacity="1" data-original="#ffffff"></path><path fill="#ffb54e" d="M32.71 44.899c-.966.001-1.356.156-2.44.69-1.807.889-2.838 1.98-3.762 3.98-2.171 4.699-.92 11.776 3.149 17.801 1.207 1.79 2.482 3.696 4.556 4.906 1.284-.945 2.244-3.269 2.244-3.269l.015-.087-.02.003c-.248-.013-2.922-3.847-3.85-5.52-3.073-5.54-3.137-12.123-.13-13.38 3.2-1.336 6.662 3.472 8.103 11.255.327 1.764.763 3.685.97 4.267.201.569.34 1.935.313 1.978l4.012-1.026.09-2.669c.144-4.253-1.92-10.93-4.655-14.57-2.23-2.966-4.274-4.16-7.39-4.318a24.415 24.415 0 0 0-1.205-.041zM17.306 55.225c-.93-.022-1.905.148-2.74.54-1.453.683-2.982 2.21-3.77 3.767-1.892 3.731-1.768 10.177.295 15.48 1.71 4.394 4.883 8.235 8.102 9.808 1.573.769 1.832.821 4.087.819 2.139-.003 2.544-.074 3.624-.642.669-.351 1.563-.963 1.987-1.36l.772-.72.36.698c.507.98 1.783 2.387 2.637 2.907.972.593 2.391.574 3.005-.04.928-.927.66-1.98-1.65-6.516-1.172-2.3-2.85-6.02-3.727-8.268-2.572-6.586-3.518-7.822-6.126-7.998-1.184-.08-1.502.001-2.47.623-2.046 1.315-3.305 4.882-2.135 6.052.719.719 1.272.594 2.673-.602.726-.62 1.358-.992 1.479-.872.175.176 2.894 7.265 3.413 8.901.132.415-.091.66-1.337 1.464-1.788 1.156-3.041 1.27-4.724.43-1.357-.678-3.399-2.87-4.482-4.815-2.428-4.356-3.136-10.368-1.582-13.415.78-1.528 2.294-2.458 4.854-2.982.883-.181 1.236-.876.862-1.697-.436-.958-1.858-1.526-3.407-1.562z" opacity="1" data-original="#ffb54e"></path><path fill="#ffd42a" d="M52.746 69.048s3.833 9.16 7.081 13.774c3.248 4.612 12.929 10.524 13.708 10.72s3.444-.196-1.104 3.768-10.395 8.38-15.852 7.47c-5.458-.909-10.915-10.459-13.709-12.538-2.793-2.079-6.886-7.991-4.093-10.785s13.969-12.409 13.969-12.409z" paint-order="fill markers stroke" opacity="1" data-original="#ffd42a"></path><path fill="#ff8280" d="M56.29 85.106s-12.174 7.075-16.998 9.923-5.88 4.778-2.756 7.534c3.123 2.757 5.375 2.802 10.52-1.654s10.29-12.22 10.887-13.736.23-2.94-1.653-2.067z" paint-order="fill markers stroke" opacity="1" data-original="#ff8280"></path><path fill="#ff8280" d="M51.776 57.401c-.148-.276-.334-1.418-.413-2.538-.12-1.705-.198-1.991-.478-1.759-.617.512-.835-.106-.437-1.236.203-.574.479-1.177.613-1.339.135-.162.303-1.578.374-3.146.121-2.667.104-2.82-.264-2.37-.605.738-2.959 4.58-3.543 5.781-.524 1.078-1.204 1.41-1.47.718-.502-1.31 3.103-8.034 6.432-11.992 1.652-1.965 3.683-2.863 4.217-1.864.203.378.1.565-.605 1.103-.468.357-1.433 1.355-2.146 2.22-1.13 1.37-1.251 1.615-.949 1.918.247.247.348.923.348 2.336v1.99l.971-.925c.93-.884 1.52-1.135 1.752-.744.059.099-.584 1.153-1.428 2.342l-1.536 2.162-.028 2.285c-.046 3.738-.268 5.395-.737 5.484-.222.042-.525-.15-.673-.426zm7.98-4.882c-.967-1.03-1.362-3.267-1.368-7.747-.005-3.233.083-4.372.418-5.454.476-1.537.971-2.168 1.534-1.952.297.114.349.363.237 1.132-.532 3.65-.333 10.875.318 11.526.493.494 1.05-4.432 1.346-11.914.11-2.774.253-4.097.463-4.27.486-.404.846.257 1.13 2.077.311 1.99.111 11.253-.277 12.822-.617 2.498-.768 2.898-1.355 3.595-.754.896-1.71.968-2.446.185zm6.559-3.388c-.547-.835-.9-7.705-.645-12.55.2-3.795.217-3.883.963-4.967 1.9-2.76 4.619-2.836 5.343-.148.438 1.63-.13 4.006-2.101 8.799-.088.213.18.3.923.302.576 0 1.442.11 1.923.244.875.243 1.601.844 1.338 1.107-.077.077-1.553.31-3.28.52l-3.14.381v3.152c0 2.132-.094 3.246-.289 3.441-.415.415-.614.361-1.035-.28zm3.25-13.625c.599-1.776.832-3.583.521-4.039-.183-.268-.337-.262-.913.038a5.362 5.362 0 0 0-1.216.924c-.501.541-.517.702-.379 4.05l.144 3.485.667-1.473c.367-.81.896-2.153 1.176-2.985zm7.507 6.922c-1.146-1.223-1.689-4.069-1.898-9.949l-.155-4.359-.986.448c-1.206.547-1.45.559-1.92.09-.382-.383-.282-1.075.157-1.075.574 0 2.886-2.018 3.215-2.806.304-.728.43-.816.999-.695.527.112.947-.092 2.206-1.072.856-.666 1.72-1.18 1.92-1.141 1.116.215.03 2.015-2.301 3.813l-1.366 1.053.15 3.85c.184 4.71.754 9.687 1.244 10.858.273.655.296.953.092 1.2-.388.466-.776.405-1.357-.215zm3.944-4.312c-.541-.845-.833-2.205-1.123-5.244-.258-2.701-.138-6.11.237-6.715.103-.167.391-.265.64-.218.38.072.49.43.692 2.267l.24 2.182 1.183-1.408c.65-.774 1.435-1.471 1.743-1.549.555-.139.56-.173.56-3.69 0-1.953.07-3.898.155-4.322.158-.793.677-1.2 1.049-.823.115.117.385 2.501.6 5.3.215 2.797.58 6.451.811 8.12.365 2.626.375 3.073.078 3.32-.78.647-1.727-1.57-2.24-5.238l-.28-2.002-.961 1.486c-.529.818-1.334 1.92-1.79 2.449l-.83.961.081 2.743c.086 2.886-.13 3.496-.845 2.381zm9.822-5.57c-.715-1.092-1.671-8.255-1.544-11.574.03-.793-.026-1.628-.125-1.854-.431-.992 2.835-3.795 4.421-3.795.893 0 .52.696-1.064 1.98-1.727 1.402-1.733 1.422-1.414 4.466l.153 1.47 1.109-.982c1.178-1.043 2.101-1.574 2.333-1.342.322.322-.28 1.275-1.76 2.783l-1.57 1.601.294 2.306c.16 1.268.369 2.428.462 2.578.098.16.653-.566 1.333-1.743 1.581-2.736 2.488-3.688 2.891-3.037.29.47-2.336 6.33-3.242 7.236-.666.665-1.81.619-2.277-.093zm7.626-4.302c-.334-.406-.69-1.856-.992-4.026-.366-2.642-.785-9.953-.597-10.441.115-.3.34-.387.783-.302.387.074.866-.054 1.267-.34 1.057-.753 3.165-1.654 3.873-1.657.364-.002.89.227 1.17.507.91.91.543 2.451-1.55 6.521-1.743 3.388-1.8 3.55-1.292 3.668.291.068 2.153.15 4.136.182 2.205.036 3.606.152 3.606.299 0 .512-1.843 1.1-4.309 1.376-2.193.245-2.785.233-3.986-.08l-1.41-.367.141 2.48c.12 2.127.088 2.48-.227 2.48a.91.91 0 0 1-.613-.3zm2.01-9.945c1.784-3.324 2.397-4.9 1.907-4.9-.265 0-2.835 1.118-3.697 1.608-.108.061.23 5.845.341 5.845.044 0 .697-1.149 1.45-2.553z" opacity="1" data-original="#ff8280"></path><g stroke-linecap="round" stroke-linejoin="round" stroke-width="45.354" paint-order="fill markers stroke"><path fill="#ff8280" d="M55.968 64.847s-11.117 1.792-16.492 3.675c-5.375 1.884-7.81 4.089-4.594 5.926 3.216 1.838 7.35 3.675 7.35 3.675zM83.026 88.781l-12.77 10.796s-1.012 8.82.091 10.842 2.113.827 4.364-2.251 8.775-16.217 8.315-19.387zM102.964 32.551s5.191 3.17 7.672 5.927c2.48 2.756 4.18 8.774 4.089 10.474-.092 1.7-.322 2.435-.322 2.435s10.52-14.93 9.877-19.525-2.848-4.318-6.845-3.72c-3.997.596-11.76 2.388-14.471 4.41z" opacity="1" data-original="#ff8280"></path><path fill="#e3f0fd" d="M102.964 32.551s-10.133 3.234-22.607 12.914-27.611 23.583-27.611 23.583 1.494 5.588 5.847 11.825 12.279 10.98 12.928 11.629c.65.65 4.418 1.884 4.418 1.884s10.98-9.226 22.154-21.83c11.175-12.603 16.047-20.4 16.047-20.4s2.206-12.443-11.176-19.605z" opacity="1" data-original="#e3f0fd"></path><path fill="#ffffff" d="M82.598 58.978c-2.5-.13-6.114 1.373-5.067 5.1 1.046 3.728 3.476 4.288 6.01 3.216 2.533-1.072 2.533-5.035 1.461-6.53-1.072-1.493-2.404-1.786-2.404-1.786zM93.74 45.01s-2.176 6.042.553 8.933 6.886 3.346 9.94-.52c3.053-3.865 2.76-10.394 1.104-11.564-1.656-1.17-7.276-3.995-11.597 3.151z" opacity="1" data-original="#ffffff"></path><path fill="#e3f0fd" d="M35.074 98.317s-1.592-.358-4.028 1.949c-2.436 2.306-7.211 5.132-8.38 4.872s-2.534-3.508-6.465-2.923c-3.93.584-5.555 5.23-5.555 5.23s.065 1.072-.812 1.591c-.877.52-3.183 2.274-2.696 4.645.487 2.372 2.014 2.21 2.014 2.21s-.357 5.49 2.599 6.886c2.956 1.397 7.276-1.072 7.276-1.072s2.729 1.364 3.703 1.234c.975-.13 1.072-.747 1.072-.747s3.768 1.332 5.88.065c2.111-1.267 3.02-6.724 3.15-7.796.13-1.072-1.818-4.645-1.818-4.645l6.302-5.717s-2.892-3.249-2.242-5.782z" opacity="1" data-original="#e3f0fd"></path></g><path fill="#4d4d4d" d="M119.794 26.887c-7.136-.009-18.314 4.105-29.059 10.726-8.031 4.95-16.44 11.322-28.115 21.308-5.583 4.775-5.629 4.807-6.852 4.876-.678.038-2.854.403-4.838.811-1.983.408-3.933.801-4.333.874 0 0-8.572 1.22-13.706 6.354-.24.462-.326.997-.23 1.429.291 1.33 2.58 2.92 6.11 4.25.86.323 1.65.642 1.756.708.107.066-.563.942-1.49 1.948-1.146 1.244-1.733 2.09-1.838 2.65-.497 2.649 1.099 6.29 3.826 8.73l.963.862-.818.598c-1.692 1.238-3.943 2.784-5.155 3.559-.477.305-2.032 1.44-2.032 2.654 0 1.023 1.364 3.55 2.53 4.683.751.73 1.51 1.198 2.344 1.446 2.247.667 3.813.03 7.714-3.137 1.417-1.15 2.602-2.05 2.635-2 2.282 3.485 5.234 5.298 8.63 5.3 2.371.003 5.83-1.31 8.6-3.262.596-.42 1.465-.985 1.932-1.257l.85-.493-.097 4.527c-.105 4.882.099 6.412.98 7.356 1.03 1.1 2.044.58 3.976-2.043 3.178-4.314 10.147-18.378 10.8-21.793.104-.55 1.253-1.882 4.374-5.073 9.707-9.923 20.13-22.704 27.353-33.537 5.307-7.96 8.503-14.57 8.863-18.331.122-1.278.06-1.663-.414-2.579-.826-1.592-1.737-2.016-4.581-2.13a17.345 17.345 0 0 0-.678-.014zm-.187 1.787c2.24-.008 2.652.055 3.246.496.57.424.692.706.753 1.757.13 2.218-1.437 6.308-4.385 11.44-.888 1.548-2.134 3.627-2.768 4.621l-1.152 1.806-.176-1.65c-.594-5.585-4.198-10.77-9.594-13.8l-1.415-.794 1.775-.69c4.976-1.932 10.325-3.174 13.716-3.186zm-9.657 3.735c-.106 0-.211.09-.393.273-.217.216-.329.564-.249.773.08.208.37.379.642.379.66 0 .885-.66.394-1.152-.183-.183-.288-.273-.394-.273zm-7.458.875 1.953 1.176c1.074.647 2.641 1.806 3.483 2.575l1.53 1.399-1.858 1.253-1.857 1.255-.9-.75c-1.052-.878-2.324-1.31-3.863-1.31-1.448 0-4.431 1.527-6.008 3.074-2.208 2.168-3.306 5.495-2.819 8.545l.244 1.527-1.56 1.561c-1.829 1.828-1.93 2.323-.928 4.556l.634 1.412-.634.902c-.349.496-1.201 1.496-1.893 2.224l-1.26 1.322-.139-1.683c-.248-2.996-1.746-4.688-4.149-4.688-.976 0-3.425 1.154-4.553 2.144-1.65 1.448-2.078 4.198-.953 6.113l.445.758-1.797 1.683a85.021 85.021 0 0 1-3.983 3.44c-3.769 3.03-3.93 3.46-2.065 5.501.66.724 1.202 1.456 1.202 1.628 0 .172-.352.589-.782.926s-1.324 1.134-1.988 1.771a65.626 65.626 0 0 0-2.564 2.654l-1.358 1.495-1.387-1.434c-1.923-1.988-3.933-4.73-5.36-7.309-1.27-2.298-3.641-7.638-3.613-8.138.035-.64 17.982-15.652 25.106-21C86.79 41.88 95.643 36.31 100.8 34.031zm10.526 2.285c-.189-.013-.404.065-.595.257-.21.21-.308.55-.223.771.228.594 1.218.368 1.313-.3.061-.43-.18-.707-.495-.728zm2.042 3.093c-.094.006-.212.053-.403.126-.378.145-.525 1.07-.22 1.377.32.319 1.031.15 1.274-.304.187-.35.156-.557-.13-.842-.268-.269-.363-.368-.52-.357zm-4.579 1.093.458.585c.733.939 1.884 3.383 2.262 4.804.196.737.348 2.395.352 3.787l.003 2.476-2.316 3.174c-10.069 13.797-22.142 27.395-31.7 35.704-1.852 1.61-3.529 2.917-3.727 2.907-.607-.032-1.505-.358-2.797-1.014-1.387-.704-5.793-3.64-7.025-4.682l-.806-.681 1.924-2.288c1.058-1.258 2.448-2.748 3.09-3.312 1.998-1.755 2.058-2.238.532-4.25-.51-.674-.929-1.342-.929-1.485 0-.143 1.11-1.116 2.465-2.163 1.355-1.046 3.33-2.714 4.387-3.707l1.923-1.804.703.429c1.859 1.135 4.018.76 5.718-.995.622-.643 1.442-1.33 1.82-1.525.754-.39 3.29-3.007 4.402-4.543.854-1.178.872-1.836.097-3.502-.33-.707-.599-1.414-.599-1.571 0-.158.528-.807 1.174-1.443l1.175-1.157 1.035 1.123c1.542 1.672 2.827 2.335 4.8 2.476 1.451.104 1.823.038 2.976-.526 3.948-1.931 6.353-8.031 5.084-12.889-.343-1.314-.343-1.315.3-1.837.355-.288 1.224-.876 1.932-1.307zm-9.143 1.067c1.005.03 1.866.37 2.565 1.021 3.381 3.149 1.115 12.165-3.394 13.504-.673.2-1.286.353-1.36.34-4.721-.85-6.888-5.792-4.588-10.463.907-1.843 2.403-3.24 4.178-3.905.949-.355 1.818-.52 2.6-.497zm14.69 1.223c-.214.019-.443.193-.503.506-.056.289.074.418.418.418s.498-.154.498-.498c0-.308-.199-.445-.413-.426zm-17.612.898c-.315.005-.877.283-1.255.687-1.196 1.279-1.51 2.191-1.513 4.388-.003 1.804.076 2.177.667 3.182.368.626.963 1.298 1.322 1.493.79.428.941.445 1.137.128.084-.135-.125-.575-.464-.977-.848-1.008-1.435-3.135-1.249-4.524.082-.608.473-1.768.87-2.577.396-.81.72-1.54.72-1.623 0-.125-.092-.18-.235-.177zM82.492 59.586c.61-.007.892.11 1.306.438.679.538 1.145 1.771 1.149 3.032.002 1.052-1.068 3.05-1.893 3.538-2.91 1.719-6.216-2.225-4.37-5.213.75-1.213 1.439-1.606 3.07-1.75.294-.027.534-.043.738-.045zm-2.016 1.848c-.133 0-.307.114-.528.335-.358.358-.38 2.22-.033 2.867.48.897.823.348.896-1.432.05-1.212-.043-1.77-.335-1.77zm20.384 1.249c-.672 0-1.252.573-3.932 3.886-3.677 4.545-5.947 6.956-8.84 9.39-2.748 2.31-4.852 3.717-7.047 4.71-.892.405-1.622.865-1.622 1.024 0 .563 2.45.031 4.447-.964 4.807-2.396 9.939-7.364 14.897-14.421 2.224-3.166 2.49-3.625 2.097-3.625zm-46.62 3.186c.13.043-1.05 1.206-2.619 2.584a804.444 804.444 0 0 0-6.137 5.46c-1.805 1.624-3.428 2.95-3.606 2.946-.544-.014-5.39-2.05-6.124-2.574-.38-.27-.88-.701-1.11-.957-.403-.445-.397-.486.12-.952 1.773-1.595 5.014-3.195 8.381-4.137 2.409-.674 10.804-2.467 11.095-2.37zm2.877 3.645a.663.663 0 0 0-.432.153c-.366.304-.46.994-.174 1.28.374.375 1.39.031 1.466-.495.072-.51-.401-.937-.86-.938zm-4.855.685c.077-.004.121.033.145.1 1.273 3.672 3.684 8.458 5.688 11.294 1.959 2.773 5.972 6.772 8.823 8.791 1.256.89 3.434 2.207 4.84 2.927l2.557 1.308-.634.595c-2.096 1.97-6.267 4.765-9.668 6.48-3.936 1.985-5.363 2.382-7.452 2.072-1.931-.286-4.226-1.718-5.708-3.563l-.723-.9 1.843-1.906c4.023-4.163 7.252-9.398 7.252-11.76 0-1.14-.807-1.667-2.195-1.433-1.347.228-6.284 2.728-10.395 5.264l-3.334 2.057-1.651-1.652c-2.07-2.07-3.1-4.083-3.1-6.061-.196-.877.293-1.753 1.322-2.63l1.628-1.577c1.622-1.572 4.706-4.408 6.853-6.3 2.617-2.31 3.575-3.088 3.91-3.106zm7.684 4.865c-.199 0-.396.243-.438.54-.059.417.042.541.438.541.395 0 .496-.124.437-.54-.042-.298-.239-.541-.437-.541zm21.05 2.283c-1.107 0-2.058.387-2.058.836 0 .45 1.362.502 2.272.087.898-.409.78-.923-.213-.923zm-16.329 2.51a.816.816 0 0 0-.545.16c-.343.285-.449 1.218-.17 1.498.253.252 1.238.186 1.411-.094.245-.397-.081-1.36-.517-1.527a.608.608 0 0 0-.179-.037zm-22.12 2.141a.05.05 0 0 0-.028 0c-.363.128-.25 1.834.189 2.862.224.524.552.901.784.901.219 0 .35-.135.291-.3a61.92 61.92 0 0 1-.564-1.925c-.236-.837-.527-1.498-.673-1.538zm2.854.638c-.388 0-.445.22-.215.82.188.49.576.252.576-.353 0-.257-.163-.467-.361-.467zm24.308 2.886c-.292-.038-.628.125-.628.44 0 .242.072.513.16.601.463.463 1.097-.08.867-.742-.063-.18-.223-.275-.399-.299zm-12.476.403c.202-.013.308.038.308.16 0 .584-1.495 3.398-2.877 5.416-1.871 2.733-4.338 5.367-7.682 8.204-1.48 1.256-2.804 2.323-2.941 2.372-.402.141-3.627-3.336-4.352-4.691l-.661-1.237 3.969-2.549c6.763-4.343 12.826-7.583 14.236-7.675zm17.578 2.997a.966.966 0 0 0-.704.353c-.276.332-.244.452.223.83.59.478 1.121.405 1.348-.186.227-.591-.31-1.025-.867-.997zm7.444 1.602c.285 0-.137.958-1.089 3.171-1.998 4.641-5.78 11.779-7.755 14.637-1.43 2.068-2.07 2.782-2.244 2.5-.409-.661-.662-4.023-.513-6.8.263-4.9-.02-4.362 3.836-7.27 1.851-1.396 4.431-3.48 5.734-4.63 1.16-1.026 1.81-1.608 2.031-1.608zm-44.23 6.472c.1.012.15.096.198.24.702 2.08 2.309 4.2 3.788 4.997.476.257.866.555.866.664 0 .11-.352.34-.781.515-1.217.492-1.92.583-2.736.353-1.492-.42-3.702-3.293-3.691-4.797.003-.435.313-.787 1.207-1.372.674-.44.982-.62 1.149-.6zM26.222 98.51c-.277 0-.686.026-1.272.076-2.075.175-2.523.4-2.014 1.014.562.676 3.507.027 3.788-.835.058-.176-.04-.254-.502-.255zm5.914.263c-.261-.006-.702.33-1.686 1.192-1.804 1.58-4.227 3.187-6 3.979-1.708.763-5.321 2.01-5.839 2.015-.572.005-1.058.39-.873.69.473.766 5.403-.186 8.144-1.572 3.466-1.753 7.114-5.16 6.533-6.101-.079-.127-.16-.2-.279-.203zm-15.922 2.521c-.756.03-1.484.189-2.082.504-1.911 1.008-3.942 3.981-3.948 5.78-.002.43-.121.78-.267.78-.75 0-2.033.916-2.653 1.893-.553.873-.689 1.36-.689 2.474 0 1.66.586 3.043 1.371 3.24.467.117.553.295.553 1.151 0 1.395.625 3.406 1.476 4.746.674 1.061 1.211 1.535 2.61 2.303.786.43 3.23.264 4.339-.296a7.774 7.774 0 0 0 1.5-1.046c.477-.446.762-.56.988-.394 1.262.926 1.679 1.133 2.512 1.245.756.101 1.048.022 1.47-.401.507-.507.56-.512 1.351-.137 2.875 1.364 6.16.237 6.85-2.35.147-.554.365-1.17.483-1.369 1.424-2.382 1.789-4.502 1.09-6.334-.47-1.228-1.41-2.2-1.932-2-.314.12-.281.324.226 1.413.598 1.285.76 2.916.446 4.487-.193.965-.356.946-.923-.107-.453-.84-1.241-1.475-1.505-1.211-.073.073.045.765.261 1.538.896 3.192.288 4.608-2.062 4.803-1.626.135-2.843-.237-3.947-1.207-.645-.567-.898-.667-1.12-.445-.222.221-.19.455.143 1.035.636 1.108.204 1.342-1.19.646-.778-.39-1.382-.937-1.878-1.703-.988-1.526-1.442-1.523-1.26.012.136 1.153.127 1.173-.784 1.685-1.24.696-3.101 1.032-4.138.745-1.056-.291-2.194-1.476-2.878-2.996-.414-.918-.564-1.782-.64-3.666-.055-1.355-.19-2.464-.3-2.464-.319 0-.948 1.025-.948 1.544 0 .342-.073.402-.26.215-.144-.143-.316-.896-.382-1.671-.153-1.788.574-3.324 1.919-4.055.562-.305.886-.656.889-.961.006-.92 1.186-3.014 2.361-4.19 1.895-1.894 3.934-2.163 6.413-.845 1.35.717 1.321.716 1.321.028 0-1.446-2.518-2.509-4.786-2.418zm19.194 4.42c-.518.005-1.385.325-2.321.902-1.822 1.122-2.656 1.867-4.643 4.147-2.06 2.364-3.117 3.925-3.117 4.6 0 .436.75-.19 3.667-3.069 2.016-1.99 4.396-4.131 5.288-4.76.893-.627 1.623-1.293 1.623-1.48 0-.234-.186-.344-.497-.34zm1.91 1.676c-.3-.015-.75.383-1.06.983-.43.83-.743 3.094-.512 3.696.08.207.233.377.34.377.239 0 1.599-4.791 1.413-4.977a.267.267 0 0 0-.18-.079zm-21.683 1.302c-.678.032-1.366 1.17-1.366 2.512 0 1.196 1.214 3.062 2.4 3.686 1.52.8 2.178.342.97-.674-1.413-1.189-2.243-3.538-1.597-4.523.309-.472.318-.614.051-.836a.657.657 0 0 0-.458-.165z" opacity="1" data-original="#4d4d4d"></path></g></svg>