<svg xmlns="http://www.w3.org/2000/svg" version="1.1" xmlns:xlink="http://www.w3.org/1999/xlink" width="512" height="512" x="0" y="0" viewBox="0 0 512 512" style="enable-background:new 0 0 512 512" xml:space="preserve" class=""><g><path d="M227.644 359.826c.16.362.242.759.199 1.149l-2.658 27.965-1.361 14.12-.491 5.321-3.079 32.327c-.199 2.069-2.863 3.247-4.527 2.003l-26.052-19.374-4.294-3.204-33.918-25.266a2.258 2.258 0 0 1-.731-.883l-8.692-19.57c-.55-1.242.13-2.78 1.527-3.399l44.392-19.707 27.46-12.183c1.397-.618 2.982-.113 3.542 1.155l8.683 19.546zM80.592 28.579l25.036 56.573-76.958 34.056L3.635 62.635a10.37 10.37 0 0 1 2.549-11.924 114 114 0 0 1 6.923-5.817A111.985 111.985 0 0 1 35.49 31.586a111.606 111.606 0 0 1 34.55-9.165 10.432 10.432 0 0 1 10.552 6.158z" style="" fill="#ff8ede" data-original="#ff8ede"></path><g style="opacity:0.5;"><path d="m96.458 64.432 9.169 20.72-76.957 34.056L3.635 62.635a10.37 10.37 0 0 1 2.549-11.924 114 114 0 0 1 6.923-5.817 17.24 17.24 0 0 1 7.143 3.211c5.219 4.032 8.085 10.373 10.006 16.669 2.143 7.218 4.524 16.094 11.815 18.033 4.065 1.078 8.4-.593 11.821-3.066 3.397-2.462 6.182-5.674 9.46-8.331 9.074-7.386 21.707-9.667 33.106-6.978zM225.185 388.94l-1.361 14.12-.491 5.321-3.079 32.327c-.199 2.069-2.863 3.247-4.527 2.003l-26.052-19.374-4.294-3.204-33.918-25.266a2.258 2.258 0 0 1-.731-.883l-8.692-19.57c-.55-1.242.13-2.78 1.527-3.399l44.392-19.707c.277 6.498-1.315 13.172-1.941 19.729-.827 8.687.845 18.897 8.378 23.266 6.238 3.612 14.16 1.869 20.801-.946 3.311-1.4 6.594-3.069 9.988-4.417z" style="" fill="#fc09b2" data-original="#fc09b2"></path></g><path d="M37.312 138.682 28.7 119.298c9.304-8.123 22.05-15.962 36.168-22.23C78.987 90.8 93.35 86.604 105.617 85.15l8.612 19.384a6.702 6.702 0 0 1-2.092.543c-11.338 1.059-25.115 4.987-38.798 11.061-13.683 6.075-25.835 13.66-34.223 21.357a6.695 6.695 0 0 1-1.804 1.187z" style="" fill="#322bbf" data-original="#322bbf"></path><path d="M73.341 116.132c13.695-6.068 27.446-9.997 38.805-11.062a6.755 6.755 0 0 0 2.09-.528l8.666 19.501L227.891 360.37c-11.589 1.095-26.009 4.991-40.895 11.59-14.838 6.614-27.434 14.686-36.005 22.541l-7.792-17.543L37.302 138.689c.646-.288 1.272-.714 1.837-1.186 8.361-7.688 20.508-15.303 34.202-21.371z" style="" fill="#ffcf00" data-original="#ffcf00"></path><path d="M95.364 236.109c-4.001-7.642-7.743-15.399-11.446-23.174-3.708-7.772-7.204-15.64-10.816-23.455-3.421-7.901-6.944-15.756-10.269-23.7-3.324-7.944-6.61-15.905-9.631-23.984a1.56 1.56 0 0 1 2.845-1.271c3.997 7.643 7.73 15.404 11.428 23.182 3.693 7.779 7.19 15.646 10.789 23.467 3.407 7.907 6.931 15.761 10.242 23.711 3.317 7.947 6.594 15.912 9.613 23.992a1.511 1.511 0 0 1-2.755 1.232zM158.734 378.046c-4.172-8.022-8.086-16.159-11.959-24.315-3.878-8.153-7.545-16.401-11.329-24.597-3.592-8.281-7.286-16.517-10.782-24.841-3.494-8.325-6.951-16.666-10.144-25.126a1.56 1.56 0 0 1 2.845-1.27c4.169 8.024 8.072 16.166 11.941 24.323 3.865 8.16 7.533 16.407 11.302 24.608 3.579 8.287 7.273 16.523 10.755 24.853 3.488 8.328 6.936 16.673 10.125 25.135a1.51 1.51 0 0 1-2.754 1.23zM120.069 225.176c-4.004-7.645-7.747-15.407-11.452-23.186-3.71-7.777-7.207-15.649-10.822-23.468-3.423-7.905-6.948-15.764-10.274-23.712-3.324-7.949-6.612-15.914-9.636-23.997a1.56 1.56 0 0 1 2.846-1.27c3.999 7.648 7.735 15.413 11.434 23.195 3.696 7.783 7.195 15.654 10.795 23.479 3.409 7.911 6.935 15.77 10.248 23.724 3.318 7.952 6.597 15.921 9.617 24.005a1.512 1.512 0 0 1-2.756 1.23zM183.429 367.025c-4.169-8.015-8.08-16.147-11.951-24.296-3.877-8.146-7.539-16.388-11.32-24.577-3.59-8.275-7.28-16.504-10.773-24.822-3.491-8.319-6.945-16.654-10.135-25.107a1.56 1.56 0 0 1 2.845-1.271c4.166 8.017 8.067 16.153 11.932 24.304 3.862 8.153 7.527 16.394 11.294 24.589 3.574 8.281 7.267 16.51 10.747 24.834 3.485 8.321 6.93 16.66 10.116 25.115a1.51 1.51 0 0 1-2.755 1.231zM144.772 214.244c-4.006-7.652-7.753-15.421-11.461-23.206-3.712-7.784-7.213-15.661-10.83-23.487-3.426-7.911-6.953-15.777-10.283-23.732-3.327-7.955-6.618-15.927-9.645-24.016a1.562 1.562 0 0 1 2.845-1.27c4.003 7.654 7.742 15.425 11.442 23.214 3.7 7.789 7.201 15.667 10.804 23.499 3.412 7.918 6.941 15.783 10.257 23.743 3.321 7.958 6.604 15.933 9.626 24.025a1.51 1.51 0 0 1-2.755 1.23zM208.11 356.041c-4.168-8.011-8.075-16.138-11.945-24.283-3.874-8.142-7.536-16.38-11.315-24.564-3.586-8.271-7.276-16.496-10.767-24.809-3.489-8.314-6.942-16.645-10.129-25.094a1.56 1.56 0 0 1 2.845-1.27c4.164 8.013 8.064 16.144 11.926 24.291 3.861 8.148 7.523 16.385 11.288 24.576 3.574 8.277 7.263 16.501 10.741 24.821 3.483 8.317 6.927 16.652 10.112 25.102a1.512 1.512 0 0 1-2.756 1.23z" style="" fill="#fd8a02" data-original="#fd8a02"></path><path d="M112.147 105.071a6.755 6.755 0 0 0 2.09-.528l8.666 19.501c-14.082 5.245-24.499 13.636-30.258 27.646-9.442 23.05-.483 46.55 9.588 67.462 23.646 49.097 67.462 125.813 45.562 152.016-1.192 1.427-2.774 3.657-4.596 5.79L37.302 138.689c.646-.288 1.272-.714 1.837-1.186 17.669-16.247 49.966-30.272 73.008-32.432z" style="opacity:0.5;" fill="#fd8a02" data-original="#fd8a02"></path><path d="M68.195 32.065c3.007 3.997 5.218 8.346 7.242 12.777 1.941 4.468 3.691 9.022 4.636 13.931a1.758 1.758 0 0 1-3.133 1.387c-2.997-4.001-5.191-8.358-7.193-12.799-1.918-4.478-3.651-9.039-4.587-13.952a1.704 1.704 0 0 1 3.035-1.344z" style="opacity:0.5;" fill="#ffffff" data-original="#ffffff"></path><path d="M36.959 123.746c2.089-2.203 4.367-4.224 6.681-6.212a117.018 117.018 0 0 1 7.335-5.496c5.037-3.488 10.459-6.43 16.064-8.942 5.623-2.474 11.451-4.498 17.413-5.907a117.483 117.483 0 0 1 9.001-1.742c3.03-.371 6.057-.711 9.094-.776.883-.021 1.596.66 1.592 1.521-.003.759-.567 1.406-1.306 1.561-5.795 1.208-11.511 2.564-17.107 4.308-5.582 1.779-11.091 3.755-16.423 6.154-5.363 2.326-10.543 5.053-15.61 7.995-5.058 2.964-9.918 6.272-14.712 9.749-.695.504-1.663.375-2.16-.289-.439-.587-.363-1.396.138-1.924z" style="" fill="#6280ff" data-original="#6280ff"></path><path d="M151.79 252.784c-4.477-2.321-4.149-8.057-1.011-11.386 4.865-5.159 11.628-5.823 15.444-3.811 10.238 5.399-3.571 20.829-14.433 15.197zM122.099 265.923c1.293-4.874-3.173-8.489-7.747-8.404-7.09.131-12.129 4.691-13.206 8.868-2.89 11.207 17.816 11.363 20.953-.464z" style="" fill="#fc09b2" data-original="#fc09b2"></path><path d="M185.392 420.134c5.643-3.444 11.929-6.75 18.681-9.747 6.752-2.997 13.421-5.443 19.76-7.319l-.51 5.323-3.07 32.312c-.198 2.085-2.848 3.262-4.528 2.01l-26.04-19.389-4.293-3.19zM102.39 240.066c-3.462 1.58-4.912 5.429-3.422 8.916 1.379 3.226 5.589 4.909 9.021 3.313 8.015-3.731 2.729-16.03-5.599-12.229zM145.774 220.861c-4.123 1.933-4.623 6.128-3.509 8.947 1.234 3.127 5.699 4.929 8.772 3.472 8.559-4.058 2.589-16.103-5.263-12.419zM133.349 235.151c7.101 11.688-6.258 20.284-12.238 5.151-1.327-3.373-6.423-1.352-5.092 2.014 8.834 22.365 33.265 8.515 22.01-10.008-1.877-3.097-6.565-.253-4.68 2.843z" style="" fill="#000e3f" data-original="#000e3f"></path><path d="M230.149 358.719c-.003-.001-.003-.004-.003-.005l-.001-.002c-64.835-146.04-84.047-189.004-147.048-331.24a13.13 13.13 0 0 0-13.327-7.776c-25.245 2.502-48.368 13.34-65.414 28.976a13.08 13.08 0 0 0-3.225 15.072c131.751 296.751-109.473-246.143 147.202 331.518l.001.003.143.326c.084.192.234.337.361.501v.001c.932 1.208-.625-.395 65.248 48.815 3.352 2.499 8.492.277 8.893-3.938 8.317-87.886 7.98-79.712 7.17-82.251zM38.437 134.449l-6.387-14.38c18.16-15.155 47.598-28.505 71.915-31.914l6.371 14.345c-23.883 2.727-54.933 16.876-71.899 31.949zM14.771 47.071c18.236-13.937 42.81-21.96 56.288-21.96a7.671 7.671 0 0 1 7.026 4.576l.003.001 23.564 53.245c-24.297 3.782-53.45 16.966-71.915 31.917L6.14 61.528c-2.786-6.301 3.071-10.132 8.631-14.457zm97.899 60.689 111.2 250.317c-23.999 3.302-53.857 16.734-71.891 31.899L40.744 139.718c24.183-19.502 48.839-29.072 71.926-31.958zm104.885 332.605c-.043.059-.195.127-.195.151l-62.01-46.186c18.065-15.226 46.929-27.759 69.504-30.835l-7.299 76.87zM237.537 470.482c6.468 10.83 21.585 15.801 34.016 14.334 51.641-5.241 6.281-88.839 59.2-101.009 23.39-5.354 40.665 16.389 52.254 26.51 17.732 15.572 41.322 24.069 62.208 24.187 56.409.327 74.729-61.896 38.072-91.041-29.345-23.229-76.934 2.13-108.549-27.864-54.296-50.421 10.344-128.609 76.805-109.277 9.713 2.806 19.015 7.696 26.387 15.031 32.668 32.09-3.223 84.978-40.949 67.052-21.276-10.024-12.998-34.686 5.426-36.742a3.233 3.233 0 0 1 3.572 2.855c.345 3.084-3.109 3.739-2.824 3.568-8.821 1.129-14.002 9.859-11.384 15.997 3.041 7.398 12.509 10.645 20.522 10.282 34.271-1.496 47.472-55.82-3.049-69.948-47.71-13.552-97.977 31.135-82.843 72.749 5.572 15.394 18.845 29.271 37.678 33.27 17.633 3.856 37.51.851 56.719 3.833 22.901 3.425 39.025 16.968 46.802 36.258 18.502 44.791-23.117 100.193-91.911 78.377-27.703-8.846-39.858-23.256-49.132-31.829-9.842-9.241-20.84-17.737-34.016-14.839-14.322 3.215-19.479 13.123-21.791 27.516-3.845 23.624 1.562 68.491-38.417 72.391-15.422 1.543-32.953-4.892-40.671-18.19-3.175-5.42-7.082-18.74-.703-18.722a3.32 3.32 0 0 1 3.31 3.258c.214 1.587-.194 6.219 3.268 11.993zM210.166 119.798l.099-.065.086.019c2.733 3.323 5.712 7.353 7.419 11.417 1.88 3.667 1.062 6.498-.891 9.134-2.712 3.128-6.365 6.576-10.481 7.313-3.437.58-5.948-.518-8.628-2.875-.695-.626-1.864-1.879-2.904-3.143-3.193-4.032-4.924-6.143-8.026-11.241-1.361-2.21-2.736-4.548-3.795-6.954-1.089-2.452-1.88-5.1-.794-7.745.61-2.049 2.03-3.621 3.685-5.057 6.905-5.85 15.701-6.247 20.093 2.61l.15.337c-.021.302-.462.513-1.487 1.251-1.971 1.283-2.661 1.878-4.849 2.937-1.292-1.102-4.188-3.24-6.162-1.959-1.196.702-2.439 1.223-2.723 2.558-.051.25.123 1.07.332 1.727 1.145 3.855 5.012 10.253 8.7 15.044 1.102 1.367 2.669 3.223 4.592 3.414.431.002.936-.107 1.455-.302 1.11-.503 2.107-1.514 2.837-2.491.532-.842.757-1.712.388-2.837-.214-.651-1.417-3.173-1.923-3.062-.904.375-2.985 2.154-3.803 2.328-1.666-2.007-1.891-3.013-3.65-5.172l-.035-.051c-.032-.049-.032-.049.019-.083 0 0 .054-.032.07-.116 1.026-2.176 8.86-6.05 10.226-6.936zM250.44 122.974c-2.546 1.241-5.584 3.121-8.938 4.488l-.056.025c-3.017-2.62-9.216-7.642-14.153-9.932l-.185-.108c1.15 3.459 5.199 10.4 6.705 13.086-1.936 2.214-8.513 4.681-9.139 5.184.436-.211-16.504-34.318-18.815-37.685 3.774-2.574 8.336-5.731 13.88-7.694 8.772-3.735 18.86 2.95 18.028 12.669-.088 3.259-1.385 6.237-4.75 8.144l-.214.103-.053.025.027.053c5.643 3.887 12.538 6.764 17.606 11.669l.057-.027zm-29.461-14.677.056-.027c1.757-.653 3.867-1.546 5.467-2.664 2.477-1.938.586-6.378-2.185-6.974-2.284-.697-4.806.865-6.855 3.135 1.061 1.763 2.455 5.041 3.517 6.53zM272.865 106.607c1.043 2.382 2.014 5.105 2.199 7.599-7.743 2.692-15.769 6.191-23.313 8.177-4.691-13.172-9.88-25.583-13.773-38.843 8.633-3.588 23.254-9.053 23.377-8.712 1.348 2.525 1.923 5.393 2.869 8.057l.022.059c-4.44 2.796-9.797 3.747-14.629 5.979l-.171.059-.038.077c.848 2.196 1.188 4.76 2.426 6.623l.078.035c2.332-.638 4.696-1.543 7.039-2.317l.021.058c1.308 2.412 1.877 5.088 2.926 7.851-2.105 1.451-6.073 2.16-6.648 3.07.393 2.355 1.709 5.338 2.53 7.094l.078.036c4.993-1.779 9.866-3.002 14.969-5.013l.038.111zM302.546 107.697l.011.059c-2.233 1.021-5.266 1.551-7.914 1.617l-.056.012c-1.535-2.299-3.415-6.872-5.009-8.908-2.065.175-1.891.381-3.648.798-.479 2.712.468 7.503-.278 10.398-.059.015-.099.088-.158.099-.607.33-2.904.562-8.226 1.877-.059.015-.059.015-.131-.032.096-1.693-1.875-22.954-.666-43.046 1.073-.439 2.094-.306 7.143-1.991 1.423 2.886 7.833 15.918 9.7 19.626l9.232 19.491zm-18.657-13.249c1.364-.258 2.872-.674 4.338-1.02-7.111-19.682-5.528-11.388-4.338 1.02zM319.041 72.704c-1.532-.086-3.541.326-7.271 1.046l-.118.019-.062.007c.008.061-.043.129-.034.187-.072 1.169.615 5.512 4.849 31.495l.008.06.008.059c-2.854.898-6.927.937-9.716 1.827-.284-.69-.837-9.617-4.999-31.715l-.072-.052c-1.987-.686-6.258.477-7.256.317-.385-.552-1.345-5.525-1.589-9.323-.008-.062-.07-.052-.077-.111 8.098-1.229 16.94-2.809 25.236-3.093.559 2.597 1.099 6.353 1.093 9.277zM224.664 164.166l.128.207c7.224 11.753 14.014 24.412 21.845 35.65-.439 1.825-7.874 4.913-9.058 6.207-6.63-12.971-16.154-24.441-21.989-36.696l-.064-.104c.329-.268 1.709-.907 2.169-1.189 1.262-.706 2.69-1.372 5.739-3.315l1.23-.76zM258.977 162.001c.944.941 1.57 2.046 2.19 3.149 1.543 3.473 3.327 6.891 4.333 10.503.027.052-.027.079 0 .134.685 4.984-.059 10.079-1.099 14.85-4.654 2.543-9.556 5.005-14.078 7.281l-.027.079c-7.272-10.572-12.877-24.145-19.427-36.501.026-.08.026-.217.053-.297 3.576-3.081 8.638-4.812 12.706-7.06 2.61-.572 5.79.122 8.138 1.571 2.782 1.639 5.127 3.762 7.211 6.291zm-4.429 8.365c-1.541-1.994-3.541-4.361-6.392-4.003-1.321.462-2.859 1.165-4.015 2.083l-.107.056-.054.027.107.214c2.22 3.742 4.413 9.181 7.117 13.892 1.161.294 2.613-.709 3.824-1.518.407-.138.511-.461.805-.81.487-.785.701-1.701.808-2.562.287-2.506-.176-5.038-2.093-7.379zM295.41 169.8c1.067 2.369 2.067 5.083 2.282 7.575-7.716 2.777-15.704 6.361-23.23 8.428-4.835-13.118-10.157-25.482-14.196-38.7 8.601-3.685 23.163-9.306 23.286-8.966 1.377 2.511 1.982 5.37 2.96 8.03l.019.057c-4.408 2.843-9.754 3.851-14.565 6.136l-.171.061-.035.078c.872 2.186 1.236 4.748 2.498 6.596l.075.034c2.324-.661 4.68-1.591 7.02-2.393l.019.059c1.335 2.399 1.931 5.068 3.011 7.82-2.094 1.475-6.052 2.228-6.616 3.141.417 2.352 1.77 5.322 2.605 7.07l.078.036c4.977-1.833 9.834-3.112 14.92-5.176l.04.114zM325.088 170.588l.013.059c-2.225 1.044-5.25 1.606-7.895 1.698l-.059.015c-1.556-2.283-3.484-6.836-5.097-8.854-2.062.197-1.888.403-3.64.837-.449 2.713.543 7.495-.166 10.397-.059.014-.104.088-.163.103-.596.334-2.891.593-8.2 1.963-.059.015-.059.015-.131-.032.078-1.694-2.121-22.927-1.123-43.021 1.067-.452 2.091-.33 7.12-2.067 1.455 2.864 7.999 15.83 9.903 19.515l9.438 19.387zm-18.793-13.045c1.361-.275 2.87-.707 4.327-1.066-7.317-19.601-5.645-11.328-4.327 1.066zM320.649 128.778c2.051-.524 4.985-1.625 7.29-1.335 1.514 10.196 3.124 21.353 5.287 31.438-2.038.583-5.309 1.128-7.617 1.574l-.059.01c-1.562-10.493-3.937-20.727-5.081-31.656l.18-.031zm6.929 41.674c-.535.088-.612-4.786-.979-6.987l-.011-.06c1.773-1.089 4.915-.937 7.232-1.324.307 2.209.623 4.846 1.008 7.162l-.415.071c-.949.156-1.38.167-2.268.314l-.12.021-4.447.803z" style="" fill="#000e3f" data-original="#000e3f"></path><path d="M460.21 87.904c-1.971 2.979-6.318 6.909-9.112 18.457-.251 1.035-.518 2.081-.927 3.059-.569 1.362-2.106 1.633-3.114.516-2.279-2.526-2.93-6.906-10.328-13.705-4.342-3.989-8.207-4.937-5.365-8.025 7.083-7.697 8.559-18.11 9.671-20.954.48-1.228 1.945-1.5 2.878-.586 1 .98 1.61 2.242 2.288 3.451 5.015 8.948 10.858 12.6 13.286 14.427.609.457 1.402 2.335.723 3.36zM399.808 68.306c-2.271 3.429-7.272 7.94-10.495 21.258-.289 1.192-.597 2.397-1.067 3.523-.656 1.568-2.426 1.88-3.587.593-2.627-2.912-3.375-7.954-11.895-15.785-5-4.595-9.452-5.687-6.18-9.243 8.158-8.865 9.859-20.859 11.139-24.134.553-1.414 2.241-1.728 3.315-.675 1.152 1.129 1.854 2.583 2.635 3.975 5.787 10.325 12.539 14.537 15.302 16.616.703.528 1.617 2.691.833 3.872zM436.557 143.591c-.474.715-.955 1.432-1.5 2.091-7.686 9.304-8.558 19.092-10.062 22.69-.656 1.568-2.426 1.881-3.587.594-.809-.897-1.47-1.968-2.025-3.051-8.65-16.892-20.944-16.659-16.05-21.978 8.158-8.865 9.858-20.859 11.139-24.134.553-1.414 2.24-1.728 3.316-.675 1.152 1.129 1.855 2.582 2.635 3.975 5.787 10.325 12.54 14.537 15.302 16.616.701.528 1.617 2.688.832 3.872zM237.699 308.119c3.15 1.685 8.841 3.078 16.786 11.913.712.792 1.445 1.585 2.269 2.251 1.148.928 2.629.437 2.985-1.025.805-3.305-.703-7.469 2.577-16.966 1.925-5.573 4.876-8.243.909-9.61-9.889-3.408-16.135-11.87-18.464-13.844-1.006-.852-2.424-.396-2.811.852-.415 1.338-.352 2.738-.374 4.123-.162 10.256-3.57 16.246-4.838 19.006-.317.691-.124 2.72.961 3.3zM281.54 262.18c3.627 1.938 10.171 3.533 19.334 13.721.82.912 1.664 1.826 2.613 2.593 1.322 1.068 3.028.502 3.439-1.182.928-3.81-.81-8.603 2.969-19.54 2.217-6.419 5.616-9.495 1.047-11.07-11.39-3.926-18.584-13.672-21.267-15.945-1.158-.982-2.792-.456-3.238.981-.478 1.541-.405 3.153-.431 4.749-.187 11.835-4.128 18.749-5.572 21.891-.366.798-.144 3.135 1.106 3.802zM284.967 345.885c.757.404 1.521.806 2.314 1.128 11.184 4.536 16.6 12.735 19.633 15.186 1.322 1.068 3.028.503 3.438-1.182.286-1.173.359-2.43.333-3.647-.413-18.973 10.517-24.608 3.683-26.964-11.39-3.925-18.584-13.672-21.267-15.946-1.159-.982-2.792-.456-3.238.981-.478 1.54-.406 3.154-.431 4.749-.187 11.835-4.129 18.749-5.572 21.891-.367.8-.146 3.135 1.107 3.804z" style="" fill="#fd8a02" data-original="#fd8a02"></path></g></svg>