<svg  viewBox="0 0 35 27" fill="none" xmlns="http://www.w3.org/2000/svg">
<path d="M22.6784 15.9131C22.6767 15.9084 22.6748 15.9037 22.6729 15.899C22.5778 15.668 22.3551 15.5187 22.1052 15.5187C22.105 15.5187 22.1048 15.5187 22.1046 15.5187C21.8546 15.5189 21.6318 15.6687 21.5371 15.9002C21.5355 15.9041 21.534 15.9079 21.5325 15.9118L19.8568 20.3116C19.7559 20.5762 19.8888 20.8724 20.1534 20.9732C20.418 21.074 20.7142 20.9411 20.815 20.6766L21.1066 19.911H23.0912L23.3795 20.6752C23.457 20.8804 23.6521 21.007 23.8593 21.007C23.9194 21.007 23.9807 20.9963 24.0402 20.9738C24.3051 20.8739 24.4389 20.578 24.3389 20.3131L22.6784 15.9131ZM21.4971 18.8856L22.1035 17.2936L22.7043 18.8856H21.4971Z" fill="#F04438"/>
<path d="M14.679 19.9777C14.678 19.9777 14.677 19.9777 14.676 19.9777C14.3137 19.9797 13.9246 19.9812 13.6289 19.9814V16.0315C13.6289 15.7483 13.3994 15.5188 13.1162 15.5188C12.8331 15.5188 12.6035 15.7483 12.6035 16.0315V20.4904C12.6035 20.7402 12.7835 20.9536 13.0297 20.9958C13.0663 21.002 13.096 21.0072 13.5886 21.0072C13.8269 21.0072 14.1737 21.0059 14.6818 21.0031C14.9649 21.0016 15.1932 20.7707 15.1916 20.4876C15.19 20.2053 14.9608 19.9777 14.679 19.9777Z" fill="#F04438"/>
<path d="M31.595 16.5645C31.8781 16.5645 32.1076 16.335 32.1076 16.0518C32.1076 15.7687 31.8781 15.5391 31.595 15.5391H29.7318C29.4486 15.5391 29.2191 15.7687 29.2191 16.0518V20.4738C29.2191 20.7569 29.4486 20.9865 29.7318 20.9865H31.595C31.8781 20.9865 32.1076 20.7569 32.1076 20.4738C32.1076 20.1906 31.8781 19.9611 31.595 19.9611H30.2444V18.7755H31.4576C31.7408 18.7755 31.9703 18.546 31.9703 18.2628C31.9703 17.9797 31.7408 17.7501 31.4576 17.7501H30.2444V16.5646H31.595V16.5645Z" fill="#F04438"/>
<path d="M18.4615 16.5645C18.7447 16.5645 18.9742 16.335 18.9742 16.0518C18.9742 15.7687 18.7447 15.5391 18.4615 15.5391H16.5983C16.3152 15.5391 16.0856 15.7687 16.0856 16.0518V20.4738C16.0856 20.7569 16.3152 20.9865 16.5983 20.9865H18.4615C18.7447 20.9865 18.9742 20.7569 18.9742 20.4738C18.9742 20.1906 18.7447 19.9611 18.4615 19.9611H17.111V18.7755H18.3242C18.6073 18.7755 18.8369 18.546 18.8369 18.2628C18.8369 17.9797 18.6073 17.7501 18.3242 17.7501H17.111V16.5646H18.4615V16.5645Z" fill="#F04438"/>
<path d="M28.0033 15.5531C27.7346 15.4637 27.4444 15.6093 27.3551 15.878L26.2806 19.1123L25.1528 15.8633C25.06 15.5957 24.7678 15.4544 24.5004 15.547C24.2329 15.6399 24.0913 15.932 24.1841 16.1995L25.7111 20.5986C25.7979 20.8432 26.0299 21.0068 26.2892 21.0068H26.2933C26.5543 21.0051 26.786 20.8379 26.8712 20.5874L28.3283 16.2012C28.4175 15.9326 28.272 15.6424 28.0033 15.5531Z" fill="#F04438"/>
<path d="M32.8434 12.6035H11.985V11.4723C11.985 9.6788 10.5258 8.21967 8.73236 8.21967H7.63643C5.84295 8.21967 4.38382 9.6788 4.38382 11.4723V13.1515H1.02539V2.70457C1.02539 1.77864 1.77871 1.02539 2.70457 1.02539H13.6642C14.5901 1.02539 15.3433 1.77871 15.3433 2.70457V10.9242C15.3433 11.2074 15.5729 11.4369 15.856 11.4369C16.1392 11.4369 16.3687 11.2074 16.3687 10.9242V2.70457C16.3687 1.21324 15.1554 0 13.6642 0H2.70457C1.21331 0 0 1.21324 0 2.70457V23.5277C0 25.0191 1.21331 26.2323 2.70457 26.2323H13.6642C14.9801 26.2323 16.0791 25.2873 16.3194 24.0404H32.8433C34.0325 24.0404 34.9999 23.073 34.9999 21.8838V14.7601C35 13.5709 34.0326 12.6035 32.8434 12.6035ZM13.6642 25.207H2.70457C1.77871 25.207 1.02539 24.4537 1.02539 23.5278V14.1768H7.63636C7.9195 14.1768 8.14905 13.9473 8.14905 13.6642C8.14905 13.381 7.9195 13.1515 7.63636 13.1515H5.40921V11.4723C5.40921 10.2442 6.40835 9.24506 7.63643 9.24506H8.73236C9.96044 9.24506 10.9596 10.2442 10.9596 11.4723V12.6656C10.0172 12.8963 9.31567 13.7477 9.31567 14.7602V21.1235L7.27392 23.1653C7.12729 23.3119 7.0834 23.5324 7.16276 23.724C7.24213 23.9156 7.42909 24.0405 7.63643 24.0405H15.2631C15.0458 24.7164 14.4113 25.207 13.6642 25.207ZM33.9746 21.8838C33.9746 22.5076 33.4672 23.015 32.8434 23.015H8.87414L10.1909 21.6983C10.2871 21.6022 10.3411 21.4717 10.3411 21.3358V14.7601C10.3411 14.1363 10.8485 13.6289 11.4723 13.6289H32.8434C33.4672 13.6289 33.9746 14.1364 33.9746 14.7601V21.8838Z" fill="#F04438"/>
<path d="M7.08837 3.2879C6.50349 3.2879 6.02771 3.76368 6.02771 4.34857V5.44457C6.02771 6.63375 6.9952 7.60117 8.18438 7.60117C9.37356 7.60117 10.341 6.63375 10.341 5.44457V4.34857C10.341 3.76368 9.8652 3.2879 9.28032 3.2879H7.08837ZM9.31559 4.34857V5.44457C9.31559 6.06835 8.80816 6.57578 8.18438 6.57578C7.5606 6.57578 7.05317 6.06835 7.05317 5.44457V4.34857C7.05317 4.32908 7.06896 4.31329 7.08844 4.31329H9.28039C9.2998 4.31329 9.31559 4.32908 9.31559 4.34857Z" fill="#F04438"/>
<path d="M3.25262 18.0127H7.63644C7.91959 18.0127 8.14914 17.7831 8.14914 17.5C8.14914 17.2169 7.91959 16.9873 7.63644 16.9873H3.25262C2.96948 16.9873 2.73993 17.2169 2.73993 17.5C2.73993 17.7831 2.96941 18.0127 3.25262 18.0127Z" fill="#F04438"/>
<path d="M3.25262 20.2046H7.63644C7.91959 20.2046 8.14914 19.975 8.14914 19.6919C8.14914 19.4087 7.91959 19.1792 7.63644 19.1792H3.25262C2.96948 19.1792 2.73993 19.4087 2.73993 19.6919C2.73993 19.975 2.96941 20.2046 3.25262 20.2046Z" fill="#F04438"/>
<path d="M5.99247 21.3711H3.25262C2.96948 21.3711 2.73993 21.6006 2.73993 21.8838C2.73993 22.1669 2.96948 22.3965 3.25262 22.3965H5.99254C6.27568 22.3965 6.50523 22.1669 6.50523 21.8838C6.50523 21.6006 6.27561 21.3711 5.99247 21.3711Z" fill="#F04438"/>
</svg>
