<svg  viewBox="0 0 40 40" fill="none" xmlns="http://www.w3.org/2000/svg">
<path fill-rule="evenodd" clip-rule="evenodd" d="M20 0C31.0457 0 40 8.9543 40 20C40 31.0457 31.0457 40 20 40C8.9543 40 0 31.0457 0 20C0 8.9543 8.9543 0 20 0ZM23.0671 16.4802C23.0671 15.8736 22.8872 15.2806 22.5502 14.7762C22.2132 14.2719 21.7342 13.8787 21.1737 13.6466C20.6133 13.4145 19.9966 13.3537 19.4016 13.4721C18.8067 13.5904 18.2602 13.8825 17.8312 14.3115C17.4023 14.7404 17.1102 15.2869 16.9918 15.8819C16.8735 16.4768 16.9342 17.0935 17.1664 17.654C17.3985 18.2144 17.7916 18.6934 18.296 19.0304C18.8004 19.3675 19.3934 19.5473 20 19.5473C20.8132 19.5465 21.5928 19.2231 22.1678 18.6481C22.7428 18.0731 23.0663 17.2934 23.0671 16.4802ZM17.5739 16.4802C17.5739 16.9601 17.7161 17.4292 17.9827 17.8282C18.2493 18.2272 18.6282 18.5382 19.0715 18.7218C19.5149 18.9055 20.0027 18.9536 20.4733 18.86C20.944 18.7664 21.3763 18.5353 21.7156 18.196C22.0549 17.8567 22.286 17.4244 22.3796 16.9537C22.4732 16.4831 22.4252 15.9952 22.2416 15.5519C22.0579 15.1086 21.7469 14.7297 21.3479 14.4631C20.949 14.1965 20.4799 14.0542 20 14.0542C19.3568 14.055 18.7402 14.3108 18.2853 14.7656C17.8305 15.2204 17.5747 15.837 17.5739 16.4802ZM20 18.1457C20.0421 18.1457 20.0837 18.1374 20.1226 18.1213C20.1614 18.1052 20.1968 18.0816 20.2265 18.0519C20.2562 18.0221 20.2798 17.9868 20.2959 17.948C20.312 17.9091 20.3203 17.8675 20.3203 17.8254V16.8006H21.3452C21.3872 16.8006 21.4289 16.7923 21.4677 16.7762C21.5066 16.7601 21.5419 16.7366 21.5717 16.7068C21.6014 16.6771 21.625 16.6418 21.6411 16.6029C21.6572 16.564 21.6655 16.5224 21.6655 16.4803C21.6655 16.4382 21.6572 16.3966 21.6411 16.3577C21.625 16.3189 21.6014 16.2836 21.5717 16.2538C21.5419 16.2241 21.5066 16.2005 21.4677 16.1844C21.4289 16.1683 21.3872 16.16 21.3452 16.16H20.3203V15.1349C20.3203 15.05 20.2866 14.9685 20.2265 14.9084C20.1664 14.8484 20.085 14.8146 20 14.8146C19.915 14.8146 19.8336 14.8484 19.7735 14.9084C19.7134 14.9685 19.6797 15.05 19.6797 15.1349V16.16H18.6547C18.6126 16.16 18.571 16.1683 18.5321 16.1844C18.4932 16.2005 18.4579 16.2241 18.4282 16.2538C18.3984 16.2836 18.3749 16.3189 18.3588 16.3577C18.3427 16.3966 18.3344 16.4382 18.3344 16.4803C18.3344 16.5224 18.3427 16.564 18.3588 16.6029C18.3749 16.6418 18.3984 16.6771 18.4282 16.7068C18.4579 16.7366 18.4932 16.7601 18.5321 16.7762C18.571 16.7923 18.6126 16.8006 18.6547 16.8006H19.6797V17.8252C19.6797 17.8673 19.688 17.909 19.7041 17.9478C19.7202 17.9867 19.7438 18.022 19.7735 18.0517C19.8032 18.0815 19.8386 18.1051 19.8774 18.1212C19.9163 18.1373 19.9579 18.1457 20 18.1457ZM25.4703 16.4802C25.4703 15.3983 25.1495 14.3407 24.5484 13.4411C23.9473 12.5415 23.0929 11.8404 22.0933 11.4264C21.0938 11.0124 19.9939 10.904 18.9327 11.1151C17.8716 11.3262 16.8969 11.8472 16.1319 12.6122C15.3668 13.3773 14.8459 14.352 14.6348 15.4131C14.4237 16.4743 14.5321 17.5742 14.9461 18.5737C15.3601 19.5733 16.0613 20.4276 16.9609 21.0287C17.8605 21.6298 18.9181 21.9506 20 21.9506C21.4503 21.949 22.8408 21.3721 23.8663 20.3466C24.8918 19.321 25.4687 17.9306 25.4703 16.4802ZM26.5907 26.265C25.7518 25.7863 24.6228 25.4123 23.3087 25.1747L25.7515 22.0673C27.1173 20.3301 27.8964 18.2647 27.9455 16.2509C27.9984 14.0874 27.2309 12.1484 25.7261 10.6438C24.2045 9.13062 22.1459 8.28125 20 8.28125C17.8541 8.28125 15.7955 9.13062 14.2739 10.6438C12.7691 12.1484 12.0016 14.0874 12.0545 16.2509C12.1035 18.2647 12.8826 20.3301 14.2485 22.0673L16.6913 25.1747C15.3798 25.4118 14.2527 25.7847 13.4141 26.2622C12.3966 26.8417 11.8588 27.548 11.8588 28.3042C11.8588 29.2712 12.7442 30.1541 14.352 30.79C15.8658 31.3888 17.8716 31.7188 20 31.7188C22.1284 31.7188 24.1341 31.3888 25.648 30.79C27.2557 30.1541 28.1412 29.2712 28.1412 28.3042C28.1412 27.5491 27.605 26.8439 26.5907 26.265ZM14.727 11.097C11.9951 13.829 12.0055 18.1772 14.7523 21.6712L20 28.3459L25.2477 21.6712C27.9945 18.1772 28.005 13.829 25.273 11.097C23.8734 9.70058 21.9771 8.91632 20 8.91632C18.0229 8.91632 16.1266 9.70058 14.727 11.097ZM25.4122 30.1941C26.7391 29.6689 27.5 28.9805 27.5 28.3042C27.5 27.2304 25.5933 26.1816 22.8579 25.7478L20.2519 29.0625C20.2219 29.1007 20.1837 29.1315 20.14 29.1527C20.0964 29.174 20.0485 29.185 20 29.185C19.9514 29.185 19.9035 29.174 19.8599 29.1527C19.8163 29.1315 19.778 29.1007 19.748 29.0625L17.142 25.748C14.4063 26.1816 12.5 27.23 12.5 28.3042C12.5 28.9805 13.2611 29.6689 14.5881 30.1941C16.0283 30.7639 17.9504 31.0781 20 31.0781C22.0496 31.0781 23.9717 30.7639 25.4122 30.1941Z" fill="#3E4784"/>
</svg>
