<svg xmlns="http://www.w3.org/2000/svg" version="1.1" xmlns:xlink="http://www.w3.org/1999/xlink" width="512" height="512" x="0" y="0" viewBox="0 0 512 512" style="enable-background:new 0 0 512 512" xml:space="preserve"><g><path d="M455.055 342.034c-5.007-19.731-17.171-36.569-33.386-46.201-9.783-5.8-21.155-9.01-32.843-9.281a63.676 63.676 0 0 0-.977-.02c-.915-4.85-1.6-8.288-1.923-9.881-.854-11.045-11.423-17.558-22.494-21.714a24.88 24.88 0 0 0-1.45-6.998c-2.975-8.195-9.266-12.989-15.367-16.358a12.417 12.417 0 0 0 5.929-3.565l4.589-4.961 4.585 4.96c2.403 2.599 5.774 3.998 9.215 3.998a12.676 12.676 0 0 0 4.744-.923c4.851-1.962 7.913-6.691 7.644-11.811l-.349-6.674 6.838.341c.212.011.424.016.636.016 4.994 0 9.533-2.935 11.459-7.479 2.01-4.735.749-10.193-3.149-13.627l-5.079-4.477 5.079-4.478c3.898-3.435 5.158-8.892 3.149-13.627-1.927-4.544-6.465-7.479-11.459-7.479-.212 0-.923.029-.923.029 8.65-11.607 14.891-24.516 18.3-37.984 7.212-28.511 1.353-59.113-15.674-81.865-16.314-21.78-42.87-36.636-72.866-40.759A133.913 133.913 0 0 0 301.18 0c-20.604 0-41.8 4.463-62.998 13.266-6.64 2.757-13.091 5.855-19.328 8.852-12.114 5.82-23.557 11.317-35.614 14.111-8.517 1.974-17.508 2.628-27.027 3.322-11.453.835-23.296 1.698-35.101 4.985-28.036 7.788-51.617 29.078-61.54 55.559-10.118 26.989-5.822 58.123 11.215 81.257 15.078 20.461 39.578 34.319 69.456 39.853l.254 4.868-6.836-.341a12.271 12.271 0 0 0-.636-.016c-4.994 0-9.533 2.935-11.459 7.479-2.01 4.735-.749 10.193 3.149 13.628l5.079 4.478-5.079 4.478c-3.898 3.435-5.158 8.892-3.149 13.627.291.686.64 1.335 1.042 1.943a17.148 17.148 0 0 0-1.303 5.487c-.313 1.839-1.131 6.79-2.159 14.041-3.112 21.73-8.192 64.096-7.224 103.676 1.301 53.229 12.954 84.2 35.624 94.68 8.18 3.786 18.459 6.653 31.251 8.705 2.589 6.207 8.549 10.639 15.608 11.241 9.995.848 36.414 2.822 65.813 2.822 32.451 0 58.855-2.358 78.478-7.006 5.97-1.416 10.75-5.558 12.948-10.976l.655-.085c.818-.085 2.482-.3 4.786-.82 8.731-2.045 28.992-9.486 39.136-35.311a84.205 84.205 0 0 0 8.61-3.109c16.642-7.07 30.543-19.214 39.14-34.194 4.415-7.691 7.779-16.52 10.286-26.983 4.477-18.627 4.744-35.95.798-51.483z" style="" fill="#feffff" data-original="#feffff"></path><path d="M443.234 390.749c-2.242 9.359-5.196 17.149-9.03 23.829-7.487 13.044-19.452 23.139-33.268 29.007-9.781 4.149-20.498 6.215-31.241 5.733a72.127 72.127 0 0 1-7.213-.708l2.345-14.649c11.695 1.798 23.92-.604 34.386-6.138 9.043-4.749 16.765-11.799 21.75-20.489 3.113-5.439 5.574-11.978 7.503-19.976 3.452-14.398 3.757-27.481.876-38.848-3.285-12.901-10.912-23.712-20.942-29.66-5.398-3.193-11.691-4.971-18.092-5.319-8.323-.434-16.821 1.55-23.715 5.95l-4.895-7.294-3.403-5.104a49.283 49.283 0 0 1 8.021-4.148c7.308-3.068 15.303-4.487 23.222-4.274 9.368.218 18.669 2.737 26.746 7.526 13.433 7.98 23.555 22.097 27.78 38.759 3.477 13.678 3.187 29.087-.83 45.803z" style="" fill="#a0afff" data-original="#a0afff"></path><path d="M390.309 313.531c-8.323-.434-16.821 1.55-23.715 5.95l-4.895-7.294c1.32-2.972 2.859-6.198 4.618-9.252 7.308-3.068 15.303-4.487 23.222-4.274.888 5.335.616 11.548.761 14.627-.004.081.013.163.009.243zM400.936 443.585c-9.781 4.149-20.498 6.215-31.241 5.733a72.127 72.127 0 0 1-7.213-.708l2.345-14.649c11.695 1.798 23.92-.604 34.386-6.138.513 4.934 1.066 9.891 1.621 14.827.049.306.075.631.102.935z" style="" fill="#4c226c" data-original="#4c226c"></path><path d="m189.647 484.306 1.326 7.765c.466 2.726 2.744 4.798 5.565 5.037 19.518 1.657 94.328 7.001 140.29-3.887 2.422-.574 4.267-2.482 4.687-4.88l1.611-9.191-153.479 5.156z" style="" fill="#7b87ff" data-original="#7b87ff"></path><path d="M390.466 431.384c-2.978 38.826-26.43 47.891-35.219 49.951-2.068.464-3.33.565-3.33.565s-147.847 19.585-197.998-3.614c-41.403-19.141-27.547-143.008-21.425-185.731 1.282-9.045 2.234-14.456 2.234-14.456l2.295.182 237.602-.182s20.164 97.176 15.841 153.285z" style="" fill="#a0afff" data-original="#a0afff"></path><ellipse cx="254.682" cy="278.107" rx="119.949" ry="24.744" style="" fill="#7b87ff" data-original="#7b87ff"></ellipse><path d="M374.625 278.099c0 3.028-2.627 5.916-7.425 8.601-16.917 9.429-60.905 16.152-112.524 16.152-53.894 0-99.496-7.329-114.613-17.424-3.474-2.322-5.336-4.785-5.336-7.329 0-13.649 53.708-24.733 119.949-24.733 66.261-.001 119.949 11.084 119.949 24.733z" style="" fill="#7b87ff" data-original="#7b87ff"></path><path d="m262.69 353.094 32.479-35.122-2.473 47.257 48.405-2.414-35.975 31.708 35.975 31.709-48.405-2.413 2.473 47.256-32.479-35.122-32.479 35.122 2.472-47.256-48.404 2.413 35.975-31.709-35.975-31.708 48.404 2.414-2.472-47.257z" style="" fill="#ffe2b5" data-original="#ffe2b5"></path><path d="M247.377 386.662c0 2.918-2.423 5.284-5.412 5.284s-5.412-2.366-5.412-5.284c0-2.918 2.423-5.284 5.412-5.284s5.412 2.366 5.412 5.284z" style="" fill="#4c226c" data-original="#4c226c"></path><ellipse cx="285.791" cy="386.662" rx="5.412" ry="5.284" style="" fill="#4c226c" data-original="#4c226c"></ellipse><path d="M265.017 397.024c-3.265 0-6.344-1.961-7.384-4.735a.844.844 0 0 1 .495-1.087.843.843 0 0 1 1.087.495c.82 2.189 3.357 3.732 5.997 3.635 2.873-.088 4.882-1.321 6.142-3.771a.845.845 0 0 1 1.503.771c-1.547 3.004-4.102 4.58-7.593 4.687-.082.002-.166.005-.247.005z" style="" fill="#4c226c" data-original="#4c226c"></path><path d="M355.247 481.335c-2.068.464-3.33.565-3.33.565s-147.847 19.585-197.998-3.614c-41.403-19.141-27.547-143.008-21.425-185.731 4.178 11.185 10.754 21.705 17.661 31.638 49.572 71.333 122.389 126.957 205.092 157.142z" style="fill-opacity:0.5;" fill="#7b87ff" data-original="#7b87ff"></path><path d="M353.654 312.248c-.121 3.047.217 6.116.788 9.125.905 4.764 2.57 10.453 6.583 12.827 3.57 2.112 7.581.155 9.757-3.339 2.494-4.004 2.326-9.895 1.26-14.6-1.245-5.498-4.206-14.337-9.378-16.172-2.449-.869-4.403.332-6.029 2.332-1.492 1.836-2.333 4.31-2.706 6.841a27.701 27.701 0 0 0-.275 2.986zM375.158 348.129c0 3.488-2.896 6.315-6.468 6.315s-6.468-2.827-6.468-6.315c0-3.488 2.896-6.315 6.468-6.315s6.468 2.827 6.468 6.315zM135.419 436.659c.394 3.333 1.116 6.637 2.257 9.804.956 2.653 2.392 6.774 5.635 7.474 2.363.508 2.98-2.065 3.016-3.85.118-5.883-1.543-13.501-4.359-18.766-.479-.895-1.24-1.739-2.047-2.373-.376-.296-.812-.544-1.291-.602-.872-.106-1.706.441-2.24 1.123-1.403 1.794-1.276 4.309-1.056 6.433.027.253.055.506.085.757zM139.886 418.071a3.279 3.279 0 0 1 .663 4.666c-1.137 1.467-3.277 1.757-4.78.647a3.279 3.279 0 0 1-.663-4.666c1.137-1.467 3.277-1.757 4.78-.647z" style="" fill="#f7ebf4" data-original="#f7ebf4"></path><path d="M367.24 286.103c0 .202-.021.404-.041.606-1.737.969-3.764 1.898-6.06 2.807-12.077 4.785-31.518 8.661-55.218 10.983-15.531 1.514-32.924 2.362-51.247 2.362-23.39 0-45.25-1.393-63.697-3.796-19.047-2.443-34.495-5.976-44.34-10.176-2.44-1.03-4.508-2.12-6.225-3.23-.124-.061-.227-.141-.351-.222.724-5.29 10.03-10.135 25.189-13.972 20.826-5.27 52.674-8.642 88.369-8.642 37.287 0 70.397 3.695 91.12 9.368 13.608 3.735 21.86 8.339 22.459 13.326.021.202.042.384.042.586z" style="" fill="#4c226c" data-original="#4c226c"></path><path d="M367.24 286.103c0 .202-.021.404-.041.606-1.737.969-3.764 1.898-6.06 2.807-12.077 4.785-31.518 8.661-55.218 10.983-15.531 1.514-32.924 2.362-51.247 2.362-23.39 0-45.25-1.393-63.697-3.796-19.047-2.443-34.495-5.976-44.34-10.176-2.44-1.03-4.508-2.12-6.225-3.23 2.44-2.019 5.522-3.473 8.665-4.462 6.018-1.858 12.264-3.271 18.551-4.462 4.88-.929 9.782-1.736 14.621-2.524a377.236 377.236 0 0 1 38.115-4.2c9.451-.545 19.006-.747 28.271 1.131 2.047.404 4.24 1.03 5.377 2.726 2.192 3.251-1.034 7.41-4.343 9.59-3.288 2.201-7.383 4.644-7.404 8.52-.021 4.26 4.943 6.764 9.244 7.511 11.354 1.918 22.914-1.434 33.544-5.774 10.63-4.321 20.908-9.691 32.159-12.114a68.744 68.744 0 0 1 8.334-1.232c13.877-1.232 28.085 1.494 41.651 5.149.022.201.043.383.043.585z" style="opacity:0.48;" fill="#5d3080" data-original="#5d3080"></path><path d="M186.786 276.627c-1.334.276-2.66.58-3.976.909-3.921.981-8.252 1.88-11.157 4.451-1.557 1.378-2.563 3.324-2.158 5.213 1.019 4.753 9.34 6.428 14.07 7.046 10.231 1.339 21.218 1.01 30.728-2.643 1.974-.759 3.358-1.913 3.185-3.868-.101-1.14-.484-2.319-.051-3.398.748-1.864 4.761-3.001 6.494-4.085.436-.273.883-.574 1.081-1.003 1.243-2.688-5.632-4.49-7.58-4.82-3.683-.623-7.438-.308-11.134-.029-3.527.267-7.08.379-10.6.788-2.995.351-5.967.831-8.902 1.439z" style="opacity:0.86;" fill="#5d3080" data-original="#5d3080"></path><path d="M383.189 49.126c-15.024-20.052-39.372-32.448-64.574-35.913-25.184-3.447-51.1 1.476-74.522 11.202-19.013 7.891-36.826 18.941-56.93 23.601-20.196 4.679-41.634 2.613-61.598 8.173-24.141 6.706-44.656 25.049-53.282 48.071-8.626 23.004-5.02 50.123 9.632 70.017 21.631 29.35 62.381 39.38 99.35 37.234 4.87-.289 10.555-.407 13.589 3.307 1.236 1.518 1.794 3.458 1.965 5.367 1.286 13.557-13.89 22.829-18.779 35.59-1.504 3.946-1.935 8.078-1.499 12.2.291 2.79 1.007 5.576 2.036 8.286a35.8 35.8 0 0 0 2.178 4.679c.245.466.509.913.773 1.361a40.448 40.448 0 0 0 2.48 3.685 41.663 41.663 0 0 0 5.518 6.084 52.564 52.564 0 0 0 5.46 4.318 69.356 69.356 0 0 0 6.844 4.248c.777.421 3.18.648 4.084.745 17.581 1.897 34.735 2.35 52.42 2.151 16.354-.184 32.479-1.014 46.324-2.522.017-.09.035-.199.07-.289.889-4.498 3.252-9.156 6.816-12.116 3.072-2.54 6.538-4.399 10.193-6.008a106.579 106.579 0 0 1 4.868-2.038c3.913-1.594 7.846-3.116 11.515-5.086.22-.111.44-.239.66-.368 3.172-1.802 6.189-4.251 8.574-7.089 3.914-4.694 6.006-10.448 3.983-16.031-4.255-11.721-21.966-12.315-29.725-22.176-6.822-8.682-3.414-21.769 3.984-29.981 7.398-8.193 17.808-13.05 27.114-19.103 21.453-13.921 37.943-35.391 44.116-59.791 6.177-24.397 1.556-51.505-13.637-71.808zm-307.947 61.75c3.953-16.95 15.349-32.109 30.734-40.861.935-.533 3.532-1.103 4.562-1.385-14.519 11.789-26.499 25.927-35.296 42.246zm302.693 35.757c-9.052 11.961-20.807 21.699-32.921 30.739-9.845 7.338-20.246 14.52-26.882 24.741-5.602 8.678-8.19 20.854-3.131 30.331-3.064-3.101-4.832-7.389-5.73-11.542-2.129-9.907 1.623-18.852 7.637-27.084 7.721-10.594 19.003-18.128 30.03-25.425 22.384-14.778 39.099-37.567 46.256-63.005.047 14.868-6.207 29.284-15.259 41.245z" style="" fill="#d6dffe" data-original="#d6dffe"></path><path d="m357.769 169.151 13.971-15.108-1.064 20.327 20.821-1.038-15.474 13.639 15.474 13.639-20.821-1.038 1.064 20.326-13.971-15.107-13.97 15.107 1.064-20.326-20.821 1.038 15.474-13.639-15.474-13.639 20.821 1.038-1.064-20.327zM167.396 233.701l13.797-14.919-1.05 20.074 20.562-1.025-15.282 13.47 15.282 13.47-20.562-1.026 1.05 20.075-13.797-14.92-13.797 14.92 1.05-20.075-20.562 1.026 15.282-13.47-15.282-13.47 20.562 1.025-1.05-20.074z" style="" fill="#ffe2b5" data-original="#ffe2b5"></path><path d="m365.951 72.71 11.297 2.373c.803.169.817 1.283.018 1.47l-11.35 2.659a1.528 1.528 0 0 0-1.142 1.114l-2.802 11.398c-.187.761-1.292.774-1.497.017l-3.105-11.449a1.529 1.529 0 0 0-1.124-1.078l-10.856-2.609c-.806-.193-.775-1.321.04-1.473l11.1-2.063a1.53 1.53 0 0 0 1.217-1.145l2.768-11.818c.182-.779 1.318-.782 1.505-.004l2.753 11.477a1.525 1.525 0 0 0 1.178 1.131zM235.002 211.55l11.297 2.374c.803.169.817 1.283.018 1.47l-11.35 2.66a1.525 1.525 0 0 0-1.141 1.114l-2.802 11.397c-.187.762-1.292.774-1.498.017l-3.105-11.449a1.527 1.527 0 0 0-1.124-1.078l-10.856-2.608c-.805-.194-.775-1.321.04-1.473l11.1-2.064a1.528 1.528 0 0 0 1.217-1.145l2.768-11.819c.182-.779 1.318-.782 1.505-.004l2.753 11.477a1.522 1.522 0 0 0 1.178 1.131zM288.156 263.444l11.297 2.374c.804.169.817 1.283.018 1.47l-11.35 2.66a1.528 1.528 0 0 0-1.142 1.114l-2.802 11.398c-.187.761-1.292.774-1.497.017l-3.105-11.449a1.527 1.527 0 0 0-1.124-1.078l-10.856-2.609c-.806-.194-.775-1.321.04-1.473l11.1-2.064a1.53 1.53 0 0 0 1.217-1.145l2.768-11.819c.182-.779 1.318-.782 1.505-.004l2.753 11.477a1.525 1.525 0 0 0 1.178 1.131zM107.573 142.13l11.297 2.373c.803.169.817 1.283.018 1.47l-11.35 2.66a1.525 1.525 0 0 0-1.141 1.114l-2.802 11.397c-.187.762-1.292.774-1.498.017l-3.106-11.449a1.526 1.526 0 0 0-1.124-1.078l-10.856-2.608c-.805-.194-.775-1.322.04-1.473l11.1-2.063a1.53 1.53 0 0 0 1.217-1.145l2.768-11.818c.182-.779 1.318-.782 1.505-.004L106.394 141a1.528 1.528 0 0 0 1.179 1.13z" style="" fill="#f7ebf4" data-original="#f7ebf4"></path><ellipse cx="150.749" cy="76.203" rx="5.948" ry="5.807" style="" fill="#f7ebf4" data-original="#f7ebf4"></ellipse><path d="M298.911 180.678c0 3.207-2.663 5.807-5.948 5.807-3.285 0-5.948-2.6-5.948-5.807s2.663-5.807 5.948-5.807c3.285 0 5.948 2.6 5.948 5.807zM232.89 275.375c0 3.207-2.663 5.807-5.948 5.807s-5.948-2.6-5.948-5.807c0-3.207 2.663-5.807 5.948-5.807s5.948 2.6 5.948 5.807zM298.207 50.464c0 3.207-2.663 5.807-5.948 5.807-3.285 0-5.948-2.6-5.948-5.807 0-3.207 2.663-5.807 5.948-5.807 3.285 0 5.948 2.6 5.948 5.807z" style="" fill="#f7ebf4" data-original="#f7ebf4"></path><path d="m425.532 358.894 11.297 2.374c.803.169.817 1.283.018 1.47l-11.35 2.66a1.525 1.525 0 0 0-1.141 1.114l-2.802 11.397c-.187.762-1.292.774-1.497.017l-3.105-11.449a1.527 1.527 0 0 0-1.124-1.078l-10.856-2.609c-.805-.193-.774-1.321.04-1.473l11.1-2.064a1.528 1.528 0 0 0 1.217-1.145l2.768-11.819c.182-.779 1.318-.782 1.505-.004l2.753 11.477a1.52 1.52 0 0 0 1.177 1.132zM408.493 398.472c0 3.207-2.663 5.807-5.948 5.807s-5.948-2.6-5.948-5.807c0-3.207 2.663-5.807 5.948-5.807s5.948 2.6 5.948 5.807zM399.447 331.719c0 3.207-2.663 5.807-5.948 5.807-3.285 0-5.948-2.6-5.948-5.807 0-3.207 2.663-5.807 5.948-5.807 3.285 0 5.948 2.599 5.948 5.807z" style="" fill="#ffe2b5" data-original="#ffe2b5"></path><path d="M206.479 60.258c.119-.36.348-.628.684-.805.336-.176.772-.312 1.307-.408.535-.096.975-.126 1.321-.091.344.036.609.105.792.208.184.104.336.28.458.528.167.28.308.749.426 1.406l2.792 15.626c.081.45.125.781.134.993.009.211-.037.471-.136.779-.173.554-.859.938-2.061 1.152-.732.131-1.249.165-1.55.103a1.666 1.666 0 0 1-.8-.409c-5.229-4.876-8.664-8.059-10.305-9.548l1.655 9.264c.081.45.125.781.134.993.008.212-.037.471-.136.779-.173.554-.86.938-2.061 1.152-1.164.208-1.922.082-2.276-.377-.2-.255-.334-.492-.402-.711a8.515 8.515 0 0 1-.219-.979l-2.807-15.71c-.127-.712-.131-1.249-.012-1.61.12-.36.348-.628.685-.805.336-.176.786-.314 1.349-.415.563-.101 1.018-.129 1.365-.084s.598.122.752.229c.085.043.345.25.778.617 4.923 4.68 8.205 7.762 9.846 9.25l-1.7-9.516c-.129-.714-.134-1.25-.013-1.611zM221.044 72.923l8.672-1.549a8.24 8.24 0 0 1 .979-.131c.22-.011.485.034.793.134.554.173.938.859 1.153 2.061.235 1.314.025 2.145-.629 2.494-.299.169-.777.313-1.434.431l-11.149 1.992c-1.314.235-2.147.016-2.5-.658-.166-.279-.308-.749-.425-1.406l-2.797-15.654c-.171-.958-.109-1.641.186-2.052.294-.411.938-.705 1.934-.883l11.093-1.982c.432-.077.758-.122.979-.132.22-.011.485.034.793.134.554.173.938.859 1.153 2.06.235 1.314.025 2.146-.629 2.495-.299.17-.777.313-1.434.431l-8.644 1.544.508 2.843 5.575-.996a8.48 8.48 0 0 1 .979-.132c.22-.009.485.036.794.136.553.171.938.858 1.152 2.06.235 1.314.016 2.147-.657 2.5-.3.169-.777.312-1.434.429l-5.519.986.508 2.845zM255.938 50.651c1.338.225 2.074.715 2.208 1.465.043.244.013.724-.091 1.44l-2.614 16.592a2.954 2.954 0 0 1-.111.513c-.061.205-.265.498-.613.879-.348.383-.799.623-1.352.722-.554.099-1.061.03-1.52-.209-.459-.237-.781-.494-.966-.771l-5.03-9.125c-.983 6.528-1.484 9.852-1.501 9.972a2.444 2.444 0 0 1-.168.522c-.094.23-.211.445-.35.645a2.145 2.145 0 0 1-1.433.924c-.601.107-1.119.054-1.554-.159-.435-.212-.744-.448-.924-.706l-.272-.387-8.227-14.655c-.317-.583-.502-1.023-.556-1.324-.134-.75.389-1.454 1.569-2.111.51-.285.986-.467 1.428-.546.44-.079.806.012 1.094.27.289.258.582.681.88 1.266l4.777 8.851 1.414-9.812c.122-.835.503-1.464 1.144-1.889.276-.185.655-.32 1.133-.406a2.23 2.23 0 0 1 1.421.225c.467.236.785.495.952.774l4.983 9.19 1.407-10.013c.073-.458.137-.799.195-1.023.057-.222.195-.456.413-.698.218-.242.515-.397.89-.465.376-.063.834-.048 1.374.049zM127.295 105.983c-.093-1.19-.123-2.074-.094-2.666.029-.591.211-1.281.548-2.066.587-1.41 2.458-2.216 5.606-2.488 3.442-.298 5.549.407 6.331 2.215.312.836.535 2.144.676 3.956 1.182 14.933 2.395 29.864 3.576 44.797.096 1.241.128 2.137.098 2.704-.031.568-.214 1.249-.548 2.041-.583 1.424-2.44 2.278-5.579 2.551-3.434.299-5.521-.485-6.258-2.362-.356-.786-.603-2.069-.744-3.879-1.19-14.935-2.421-29.867-3.612-44.803zM152.285 96.738c5.448-.615 8.17-.952 13.611-1.668 7.104-.975 13.532.614 19.315 5.205 5.782 4.591 8.984 11.095 9.598 19.426.614 8.332-1.492 15.867-6.309 22.379-4.818 6.513-10.958 10.134-18.398 11.17-5.34.743-8.01 1.095-13.36 1.738-2.972.358-4.894-.056-5.699-1.226-.668-.971-1.081-2.574-1.253-4.8-1.173-14.932-2.375-29.861-3.548-44.793-.096-1.241-.127-2.137-.096-2.706.031-.568.213-1.253.549-2.05.584-1.432 2.449-2.303 5.59-2.675zm26.175 37.1c2.607-3.308 3.749-7.194 3.417-11.621s-1.989-7.906-4.971-10.436c-2.982-2.529-6.333-3.504-10.052-2.993-2.818.388-4.228.575-7.048.937.794 10.248 1.6 20.495 2.394 30.744 2.836-.368 4.254-.559 7.088-.953 3.506-.487 6.563-2.367 9.172-5.678zM213.703 132.066c9.023-2.053 13.531-3.285 22.549-5.62 1.123-.291 1.967-.47 2.535-.539.566-.068 1.232.005 1.995.219 1.372.367 2.183 2.158 2.425 5.343.265 3.484-.489 5.738-2.249 6.823-.808.523-2.066 1.02-3.772 1.493-9.567 2.725-19.251 5.358-28.992 7.396-3.419.712-5.492.119-6.221-1.699-.353-.756-.595-2.024-.728-3.834-1.097-14.913-2.192-29.826-3.29-44.739-.194-2.638.141-4.458 1.002-5.541.859-1.082 2.585-1.835 5.175-2.278 9.631-1.647 19.251-3.364 28.867-5.096 1.124-.201 1.968-.316 2.536-.342.566-.026 1.232.092 1.994.355 1.37.454 2.173 2.252 2.415 5.438.266 3.485-.479 5.723-2.238 6.682-.807.466-2.065.867-3.773 1.204-8.994 1.772-13.491 2.685-22.489 4.339l.599 8.065c5.802-1.13 8.703-1.739 14.503-2.963 1.122-.237 1.968-.376 2.536-.418.566-.041 1.233.068 1.997.324 1.373.443 2.188 2.309 2.443 5.612.279 3.613-.487 5.948-2.293 7.017-.807.512-2.064.976-3.772 1.387-5.74 1.381-8.61 2.067-14.352 3.311l.598 8.061zM275.402 80.478c7.606 12.469 15.48 24.732 23.472 36.955 1.004 1.496 1.544 2.661 1.62 3.49.161 1.756-1.147 3.615-3.931 5.586-1.633 1.156-2.937 1.829-3.911 2.013-.973.185-1.787.115-2.443-.21-.656-.325-1.139-.709-1.449-1.147a60.111 60.111 0 0 1-1.328-1.989c-1.8-2.883-2.707-4.318-4.516-7.188-8.206 1.527-12.284 2.048-20.402 3.721-1.274 3.483-1.912 5.237-3.194 8.753-.414 1.09-.739 1.886-.974 2.388-.235.501-.641 1.056-1.217 1.664-.576.608-1.339 1.026-2.291 1.259-.951.233-2.289.142-4.01-.264-2.934-.646-4.467-1.841-4.603-3.622-.064-.841.254-2.215.954-4.117 5.364-15.171 10.824-30.306 16.511-45.359.452-1.215 1.203-2.257 2.25-3.127 1.048-.869 2.181-1.409 3.394-1.618 2.62-.45 4.628.488 6.068 2.812zm-4.46 18.585c-1.599 4.325-2.408 6.467-4.019 10.809 3.9-.69 5.858-.994 9.76-1.697a1320.675 1320.675 0 0 1-5.741-9.112zM302.96 118.162c-1.444-1.32-2.228-2.595-2.358-3.832-.129-1.236.761-3.068 2.637-5.476 1.092-1.38 2.318-2.189 3.686-2.429 1.369-.24 3.424.632 6.177 2.636.788.707 1.866 1.329 3.234 1.875 1.367.546 2.591.74 3.669.58 4.556-.676 6.588-2.774 6.074-6.418-.155-1.102-.908-1.948-2.252-2.527-1.343-.578-2.961-.905-4.853-.969-1.892-.064-3.958-.297-6.192-.694-2.235-.397-4.339-.936-6.306-1.625-1.968-.69-3.7-2.012-5.189-3.982-1.489-1.968-2.403-4.495-2.745-7.588-.47-4.252.702-8.267 3.475-11.999 2.771-3.731 6.812-6.059 12.151-6.837 2.835-.413 5.471-.377 7.905.097 2.434.473 4.158 1.072 5.152 1.758l1.951 1.21c1.645 1.271 2.532 2.397 2.644 3.365.113.97-.31 2.346-1.249 4.139-1.328 2.561-2.838 3.931-4.567 4.126-1.009.114-2.324-.218-3.936-.993-.157-.077-.465-.284-.921-.616a11.01 11.01 0 0 0-1.233-.792c-1.084-.493-2.398-.633-3.941-.409-1.545.224-2.78.793-3.708 1.699-.929.907-1.311 2.026-1.142 3.348.169 1.324.916 2.294 2.245 2.921 1.329.627 2.925.946 4.788.973 1.862.027 3.919.201 6.172.531 2.252.331 4.361.838 6.326 1.514 1.964.676 3.727 2.035 5.284 4.06 1.556 2.027 2.569 4.599 3.013 7.713.444 3.115.179 5.912-.784 8.403-.964 2.493-2.402 4.494-4.299 6.017-3.654 2.984-7.767 4.82-12.295 5.492-2.314.343-4.537.409-6.668.189-2.131-.219-3.882-.625-5.249-1.231-2.777-1.104-4.76-2.28-5.945-3.551-.301-.27-.451-.406-.751-.678zM183.504 166.056c.912 1.364 1.481 2.958 1.708 4.784.227 1.826.069 3.539-.474 5.138-.543 1.599-1.333 2.931-2.371 3.992-2.097 2.183-4.39 3.465-6.881 3.844-2.1.319-3.151.473-5.253.77l.592 4.761c.08.646.119 1.134.118 1.462-.002.329-.089.72-.261 1.172-.299.813-1.345 1.347-3.14 1.585-1.964.261-3.181-.117-3.647-1.114-.228-.457-.403-1.176-.525-2.16l-2.906-23.383c-.08-.645-.12-1.133-.118-1.461.002-.326.089-.717.261-1.166.299-.807 1.347-1.323 3.143-1.562 3.603-.479 5.403-.737 8.997-1.283 2.463-.375 4.966.143 7.51 1.555 1.252.681 2.335 1.702 3.247 3.066zm-6.543 8.984c.734-.745 1.025-1.736.872-2.973-.154-1.236-.676-2.105-1.565-2.609-.89-.504-1.769-.69-2.636-.559-2.1.319-3.151.473-5.253.77l.927 7.457a414.22 414.22 0 0 0 5.295-.776c.839-.127 1.625-.564 2.36-1.31zM213.164 180.234c.543.923.842 1.609.898 2.059.133 1.068-.618 2.15-2.251 3.239-.841.579-1.532.924-2.075 1.035-.542.112-1.004.069-1.385-.126-.382-.195-.672-.417-.874-.664-.345-.476-1.746-2.797-4.204-6.971l-1.284.341c-2.105.415-3.158.619-5.265 1.019l.592 4.761c.08.646.119 1.135.118 1.465-.002.331-.088.728-.258 1.192-.296.832-1.336 1.418-3.12 1.746-1.952.359-3.161.042-3.625-.938-.227-.448-.401-1.163-.524-2.146l-2.906-23.383c-.08-.645-.12-1.134-.118-1.465.002-.329.088-.726.259-1.187.297-.828 1.338-1.401 3.122-1.729 3.614-.665 5.42-1.011 9.028-1.723 2.45-.484 4.94-.066 7.472 1.254 1.22.641 2.285 1.629 3.193 2.966.907 1.337 1.475 2.918 1.702 4.743.395 3.175-.323 6.008-2.154 8.491.797 1.362 2.016 3.37 3.659 6.021zm-17.367-7.525c2.14-.406 3.21-.613 5.348-1.035.807-.159 1.576-.629 2.307-1.41.73-.779 1.018-1.788.864-3.024-.154-1.236-.673-2.088-1.558-2.558-.886-.47-1.761-.619-2.624-.449-2.105.415-3.158.619-5.265 1.019.372 2.983.558 4.474.928 7.457zM226.754 150.513c4.105-.927 7.855-.245 11.249 2.061s5.369 5.681 5.922 10.133-.417 8.581-2.91 12.38c-2.494 3.8-5.847 6.184-10.064 7.137-4.217.953-7.996.2-11.338-2.247-3.342-2.447-5.279-5.814-5.81-10.083a17.916 17.916 0 0 1 .436-6.819c.58-2.214 1.48-4.159 2.697-5.838a18.207 18.207 0 0 1 4.387-4.295c1.707-1.187 3.517-1.996 5.431-2.429zm-5.602 17.573c.311 2.5 1.361 4.355 3.151 5.56 1.789 1.204 3.668 1.586 5.638 1.141 1.97-.445 3.65-1.609 5.042-3.487 1.392-1.879 1.929-4.097 1.611-6.654-.318-2.555-1.369-4.422-3.155-5.602-1.787-1.179-3.664-1.546-5.634-1.101s-3.648 1.622-5.036 3.532c-1.388 1.91-1.928 4.112-1.617 6.611zM266.594 165.095l.68-.722c.872-.781 1.503-1.217 1.891-1.307.859-.199 1.886.372 3.079 1.714.731.843 1.134 1.558 1.208 2.148a2.27 2.27 0 0 1-.377 1.604c-.326.48-.719.932-1.179 1.356s-.902.83-1.325 1.217-1.312.97-2.669 1.748c-1.358.778-2.695 1.323-4.011 1.631a15.961 15.961 0 0 1-4.055.408c-1.389-.035-2.848-.301-4.377-.794s-2.937-1.205-4.221-2.132c-1.284-.927-2.41-2.239-3.377-3.935-.966-1.696-1.586-3.639-1.858-5.83-.272-2.191-.16-4.262.339-6.214.499-1.952 1.237-3.643 2.214-5.071s2.137-2.704 3.481-3.83c2.527-2.154 5.162-3.553 7.906-4.196a13.655 13.655 0 0 1 4.045-.316c1.395.094 2.465.271 3.211.532l1.071.359c.538.193.957.357 1.259.488.794.424 1.237 1.008 1.33 1.752.093.745-.101 1.591-.583 2.54-.892 1.766-1.769 2.75-2.627 2.95-.499.116-1.316-.002-2.236-.434-1.248-.586-2.894-.799-4.833-.345-1.801.422-3.496 1.469-5.085 3.144-.754.813-1.338 1.847-1.753 3.099-.415 1.254-.534 2.591-.358 4.009.176 1.419.612 2.625 1.306 3.617.693.993 1.51 1.713 2.449 2.157 1.843.84 3.68 1.045 5.509.616a9.36 9.36 0 0 0 2.389-.906c.731-.403 1.252-.755 1.557-1.057zM283.223 161.927c5.127-1.153 7.693-1.719 12.828-2.816.638-.136 1.121-.217 1.446-.243.323-.025.709.03 1.155.167.799.235 1.31 1.253 1.534 3.05.244 1.966-.127 3.225-1.113 3.779-.452.268-1.164.506-2.137.713-6.602 1.41-9.899 2.146-16.489 3.644-1.941.441-3.144.169-3.61-.822-.222-.411-.394-1.108-.517-2.091l-2.912-23.426c-.178-1.432-.036-2.469.426-3.109.462-.64 1.428-1.129 2.898-1.463a1072.3 1072.3 0 0 1 16.406-3.625c.639-.136 1.121-.217 1.446-.242.324-.026.709.03 1.155.167.799.235 1.31 1.252 1.534 3.05.244 1.966-.127 3.225-1.113 3.779-.452.268-1.164.506-2.137.713a1008.718 1008.718 0 0 0-12.786 2.807l.529 4.255a1112.28 1112.28 0 0 1 8.244-1.827c.639-.139 1.121-.223 1.445-.249.324-.027.71.026 1.154.162.799.232 1.31 1.247 1.534 3.044.244 1.966-.141 3.23-1.154 3.796-.452.271-1.163.511-2.135.723-3.266.712-4.898 1.075-8.16 1.808l.529 4.256zM303.276 160.795c-.835-.749-1.296-1.483-1.385-2.199s.391-1.788 1.44-3.213c.611-.817 1.307-1.304 2.087-1.462.779-.157 1.951.327 3.518 1.456.448.401 1.063.747 1.841 1.041.777.294 1.474.382 2.086.264 2.591-.499 3.756-1.804 3.49-3.939-.08-.646-.503-1.12-1.268-1.422-.765-.301-1.689-.45-2.772-.443a22.664 22.664 0 0 1-3.544-.282 21.812 21.812 0 0 1-3.615-.854c-1.13-.376-2.13-1.13-2.998-2.264-.868-1.132-1.414-2.596-1.638-4.394-.307-2.471.335-4.817 1.929-7.027 1.593-2.209 3.962-3.628 7.111-4.235 1.671-.322 3.225-.392 4.659-.214 1.434.179 2.444.448 3.03.801l1.146.612c.966.66 1.484 1.272 1.554 1.833.07.563-.168 1.393-.716 2.497-.775 1.574-1.664 2.453-2.667 2.637-.586.108-1.346-.038-2.28-.439a4.56 4.56 0 0 1-.533-.331 5.95 5.95 0 0 0-.716-.425c-.631-.254-1.399-.295-2.304-.121-.905.174-1.631.539-2.175 1.091s-.768 1.215-.672 1.987c.096.773.528 1.327 1.298 1.666s1.694.49 2.774.456a29.389 29.389 0 0 1 3.567.124c1.297.118 2.508.334 3.631.648 1.123.314 2.119 1.035 2.986 2.159.867 1.125 1.414 2.601 1.641 4.427s.064 3.497-.489 5.015c-.553 1.517-1.368 2.761-2.445 3.731-2.075 1.897-4.394 3.091-6.958 3.584a14.231 14.231 0 0 1-3.778.24c-1.209-.092-2.206-.302-2.988-.634-1.588-.602-2.725-1.261-3.413-1.985l-.434-.386zM327.651 156.204c-.839-.776-1.301-1.522-1.39-2.238-.089-.716.393-1.767 1.448-3.148.614-.791 1.314-1.251 2.097-1.379.782-.128 1.96.399 3.534 1.583.45.416 1.068.785 1.849 1.109.781.324 1.481.44 2.096.348 2.605-.389 3.777-1.635 3.511-3.77-.08-.646-.505-1.136-1.274-1.47-.769-.333-1.697-.52-2.787-.558a23.634 23.634 0 0 1-3.561-.424 22.844 22.844 0 0 1-3.632-.989c-1.135-.417-2.139-1.203-3.01-2.363-.871-1.158-1.419-2.635-1.642-4.433-.307-2.471.339-4.785 1.942-6.926 1.602-2.14 3.983-3.463 7.148-3.937 1.68-.252 3.242-.255 4.684-.014 1.441.241 2.458.555 3.047.932l1.152.661c.971.701 1.491 1.334 1.561 1.895.07.563-.17 1.377-.722 2.449-.78 1.529-1.675 2.362-2.684 2.5-.589.081-1.354-.098-2.292-.537a4.82 4.82 0 0 1-.536-.353 6.234 6.234 0 0 0-.72-.454c-.634-.279-1.406-.353-2.316-.218-.91.136-1.639.469-2.187.997-.548.528-.773 1.178-.677 1.951.096.773.53 1.342 1.303 1.71.773.368 1.702.556 2.788.567 1.085.011 2.281.102 3.586.276 1.305.174 2.521.444 3.651.808 1.129.364 2.13 1.127 3.001 2.286s1.42 2.653 1.647 4.479c.227 1.826.062 3.479-.495 4.962-.557 1.482-1.378 2.68-2.462 3.596-2.088 1.792-4.421 2.877-6.998 3.26a14.511 14.511 0 0 1-3.797.086c-1.215-.139-2.216-.386-3.002-.746-1.595-.659-2.736-1.356-3.427-2.101l-.434-.397zM132.884 170.064a6.875 6.875 0 0 1-.071-.838c.001-.188.048-.412.146-.67.169-.464.77-.762 1.8-.895 1.127-.145 1.834.066 2.12.635.116.263.21.677.283 1.24l1.733 13.429c.05.387.074.67.073.85a1.987 1.987 0 0 1-.148.657c-.17.464-.77.763-1.8.896-1.127.146-1.827-.075-2.1-.662-.129-.245-.23-.649-.303-1.213l-1.733-13.429zM150.348 166.398a1.15 1.15 0 0 1 .615-.656c.293-.136.67-.234 1.128-.293.459-.059.835-.066 1.127-.022.292.045.514.114.665.209.152.095.274.251.368.468.13.246.231.65.304 1.213l1.729 13.405c.05.387.074.67.073.851-.001.18-.051.399-.149.657-.169.464-.769.763-1.799.896-.628.081-1.069.089-1.323.024a1.423 1.423 0 0 1-.663-.381c-4.246-4.363-7.036-7.211-8.371-8.545l1.025 7.946c.05.387.074.67.073.85a1.987 1.987 0 0 1-.148.657c-.17.464-.77.763-1.8.896-.999.129-1.639-.01-1.92-.416a1.918 1.918 0 0 1-.313-.622 7.465 7.465 0 0 1-.146-.841l-1.739-13.477c-.079-.612-.061-1.068.057-1.37a1.15 1.15 0 0 1 .615-.656c.292-.136.682-.236 1.165-.298.482-.062.871-.067 1.164-.015.293.052.503.127.631.225.07.04.282.226.637.557 3.994 4.183 6.657 6.941 7.992 8.275l-1.054-8.164c-.079-.614-.061-1.071.057-1.373z" style="" fill="#7b87ff" data-original="#7b87ff"></path></g></svg>