<svg xmlns="http://www.w3.org/2000/svg" version="1.1" xmlns:xlink="http://www.w3.org/1999/xlink" width="512" height="512" x="0" y="0" viewBox="0 0 512 512" style="enable-background:new 0 0 512 512" xml:space="preserve" class=""><g><path d="M99.845 450.047c-9.817 0-41.022-2.801-49.63-37.56a1.039 1.039 0 0 1 .758-1.257 1.046 1.046 0 0 1 1.257.758c9.77 39.451 48.73 36.056 50.385 35.892a1.036 1.036 0 1 1 .206 2.063c-.066.009-1.152.104-2.976.104z" style="" fill="#241726" data-original="#241726"></path><path d="M46.81 425.895c-1.385 0-1.891-1.865-2.107-2.663-.898-3.32-1.348-9.79-1.459-14.324-.252-10.266.794-10.876 1.297-11.17a1.57 1.57 0 0 1 .807-.205c3.337 0 18.134 11.582 19.871 14.403.497.807.287 1.433.119 1.735-.434.776-1.42 1.109-3.296 1.109-3.018 0-7.803-.878-9.946-1.303-.359 2.256-1.388 7.435-3.748 11.365-.42.698-.938 1.053-1.538 1.053zm-1.143-26.234c-1.188 3.492.023 19.713 1.198 23.554 2.582-4.765 3.319-11.028 3.327-11.095.032-.29.187-.553.426-.726.238-.17.54-.225.823-.172.069.016 6.924 1.482 10.602 1.482.521 0 .881-.03 1.127-.067-2.586-3.239-14.692-12.204-17.503-12.976zM103.368 459.663h-.001c-7.667 0-22.515-1.984-25.648-4.337-4.287-3.215-6.257-13.28-6.339-13.708a1.041 1.041 0 0 1 .535-1.113c.212-.111 5.256-2.763 9.785-3.979.644-.174 1.554-.257 2.781-.257 7.155 0 25.559 3.166 28.186 5.651.547.517.758 1.176.594 1.855-.54 2.223-6.082 4.329-9.75 5.495 1.956 1.798 5.363 5.16 6.348 7.581a1.51 1.51 0 0 1-.138 1.437c-.458.679-1.571 1.375-6.353 1.375zm-29.791-17.675c.697 3.132 2.613 9.595 5.387 11.677 2.344 1.759 15.798 3.922 24.402 3.922h.002c2.684 0 3.869-.231 4.365-.389-1.292-2.461-5.403-6.263-6.967-7.595a1.036 1.036 0 0 1 .384-1.787c5.061-1.459 9.779-3.579 10.095-4.536-1.716-1.471-18.804-4.935-26.764-4.935-1.282 0-1.927.101-2.242.184-3.355.901-7.136 2.699-8.662 3.459zM449.412 77.406c-.55 0-1.009-.432-1.036-.989-1.936-40.633-42.061-44.94-42.466-44.978a1.037 1.037 0 0 1-.933-1.133c.054-.57.544-.959 1.132-.934.423.041 42.321 4.54 44.341 46.949a1.035 1.035 0 0 1-.987 1.084l-.051.001z" style="" fill="#241726" data-original="#241726"></path><path d="M452.673 91.971c-3.243 0-15.973-15.127-17.05-18.019-.284-.764-.086-1.297.131-1.609.529-.762 1.527-.762 1.855-.762 2.68 0 8.698 2.371 11.188 3.401.789-2.144 2.805-7.023 5.88-10.42.465-.513.936-.764 1.44-.764.622 0 1.425.359 1.713 2.069.643 3.813-1.877 25.054-4.674 26.025a2.185 2.185 0 0 1-.483.079zM437.77 73.66c1.908 3.679 12.046 14.823 14.654 16.124 1.841-3.194 3.799-19.342 3.392-23.339-3.463 4.181-5.395 10.175-5.415 10.238a1.037 1.037 0 0 1-1.399.638c-2.313-.997-8.732-3.549-11.232-3.661zM423.887 46.644h-.001c-5.121 0-26.61-7.958-28.993-11.31-.437-.614-.516-1.301-.223-1.936.962-2.076 6.806-3.067 10.631-3.498-1.57-2.144-4.259-6.101-4.757-8.669-.09-.466.02-.916.311-1.269.434-.527 1.164-.762 2.368-.762 5.914 0 25.449 6.302 28.554 9.759 3.582 3.987 3.562 14.245 3.559 14.679a1.036 1.036 0 0 1-.74.987c-.23.069-5.692 1.694-10.372 2.009-.105.006-.217.01-.337.01zm-21.191-25.342c.792 2.665 4.085 7.193 5.362 8.803a1.035 1.035 0 0 1-.724 1.678c-5.248.45-10.286 1.615-10.782 2.493 1.643 2.12 22.012 10.292 27.334 10.292l.199-.006c3.47-.233 7.525-1.263 9.168-1.713-.075-3.207-.7-9.922-3.02-12.504-2.511-2.797-21.191-9.07-27.009-9.07a5.101 5.101 0 0 0-.528.027zM221.746 53.983h-.006a1.037 1.037 0 0 1-1.032-1.043l.091-17.466a1.038 1.038 0 0 1 1.037-1.032h.006c.574.004 1.036.47 1.032 1.043l-.091 17.466a1.039 1.039 0 0 1-1.037 1.032z" style="" fill="#241726" data-original="#241726"></path><path d="M214.702 50.175a1.037 1.037 0 0 1-.596-1.888l14.416-10.065a1.037 1.037 0 1 1 1.189 1.701l-14.416 10.065a1.03 1.03 0 0 1-.593.187z" style="" fill="#241726" data-original="#241726"></path><path d="M227.366 50.9c-.276 0-.549-.109-.754-.324L215.7 39.061a1.039 1.039 0 0 1 1.507-1.427l10.912 11.515a1.038 1.038 0 0 1-.753 1.751z" style="" fill="#241726" data-original="#241726"></path><path d="M212.726 45.071a1.038 1.038 0 0 1-.011-2.076l16.799-.172h.006a1.04 1.04 0 0 1 .016 2.076l-16.799.172h-.011zM31.835 371.538h-.006a1.037 1.037 0 0 1-1.032-1.043l.091-17.466a1.038 1.038 0 0 1 1.037-1.032h.006c.574.004 1.036.47 1.032 1.043l-.091 17.466a1.038 1.038 0 0 1-1.037 1.032z" style="" fill="#241726" data-original="#241726"></path><path d="M24.791 367.73a1.037 1.037 0 0 1-.596-1.888l14.416-10.065a1.037 1.037 0 1 1 1.189 1.701l-14.416 10.065a1.026 1.026 0 0 1-.593.187z" style="" fill="#241726" data-original="#241726"></path><path d="M37.456 368.455c-.276 0-.549-.109-.754-.324L25.79 356.616a1.039 1.039 0 0 1 1.507-1.427l10.912 11.515a1.039 1.039 0 0 1-.753 1.751z" style="" fill="#241726" data-original="#241726"></path><path d="M22.816 362.626a1.038 1.038 0 0 1-.011-2.076l16.799-.172h.006a1.04 1.04 0 0 1 .016 2.076l-16.799.172h-.011zM352.503 245.969h-.006a1.037 1.037 0 0 1-1.032-1.043l.091-17.466a1.038 1.038 0 0 1 1.037-1.032h.006c.574.004 1.036.47 1.032 1.043l-.091 17.466a1.038 1.038 0 0 1-1.037 1.032z" style="" fill="#241726" data-original="#241726"></path><path d="M345.46 242.161a1.037 1.037 0 0 1-.596-1.888l14.416-10.065a1.037 1.037 0 1 1 1.189 1.701l-14.416 10.065a1.03 1.03 0 0 1-.593.187z" style="" fill="#241726" data-original="#241726"></path><path d="M358.124 242.886c-.276 0-.549-.109-.754-.324l-10.912-11.515a1.039 1.039 0 0 1 1.507-1.427l10.912 11.515a1.039 1.039 0 0 1-.753 1.751z" style="" fill="#241726" data-original="#241726"></path><path d="M343.484 237.057a1.038 1.038 0 0 1-.011-2.076l16.799-.172h.006a1.04 1.04 0 0 1 .016 2.076l-16.799.172h-.011z" style="" fill="#241726" data-original="#241726"></path><path d="M417.942 373.168s-2.059-15.545 12.909-10.525 10.101 19.257 4.393 14.39 4.985-21.394 16.44-14.046c11.456 7.348 8.905 21.624.783 22.683-8.122 1.059 4.906-16.623 15.145-5.715 10.239 10.908-12.087 30.822-21.228 23.512s-1.999-19.123.197-11.928-3.709 14.256-19.913 13.989c-16.204-.268-8.845-25.202-3.177-17.95s-3.729 15.449-15.165 6.908c-11.434-8.541 1.593-26.223 9.616-21.318z" style="" fill="#ffffff" data-original="#ffffff" class=""></path><path d="m427.554 406.573-.902-.008c-5.311-.087-9.052-2.805-10.372-7.493-2.796-.351-5.743-1.64-8.574-3.754-4.482-3.348-6.003-8.434-4.169-13.953 1.878-5.653 6.882-10.08 11.393-10.08.648 0 1.275.087 1.877.259-.02-2.165.311-5.848 2.505-8.351 2.449-2.799 6.484-3.34 11.869-1.532 2.077.695 3.896 1.601 5.423 2.696 2.574-2.72 5.861-4.26 9.145-4.26 2.22 0 4.406.679 6.495 2.019 4.951 3.176 7.959 8.063 8.209 13.238 2.905.081 5.566 1.39 7.916 3.894 3.188 3.395 3.778 7.962 1.659 12.858-3.222 7.443-12.02 13.973-18.83 13.973-2.129.002-3.968-.604-5.462-1.8a14.874 14.874 0 0 1-1.931-1.846c-3.581 2.711-9.166 4.14-16.251 4.14zm-9.074-7.423c.926 2.619 3.124 5.256 8.206 5.339l.868.008c8.169 0 12.628-1.917 15.02-3.738-2.284-3.691-2.111-7.726-.842-10.226.733-1.443 1.797-2.272 2.92-2.272.753 0 2.133.387 2.923 2.975 1.101 3.604.29 7.129-2.221 9.81.493.57 1.055 1.109 1.681 1.609 1.117.894 2.518 1.348 4.164 1.346 5.977 0 14.044-6.064 16.926-12.723 1.252-2.892 2.047-7.082-1.269-10.615-1.952-2.08-4.122-3.168-6.452-3.237-.485 4.97-3.593 8.722-7.802 9.271-2.72.341-3.66-1.076-3.713-2.406-.119-2.927 4.098-7.85 9.495-8.786-.201-4.524-2.864-8.825-7.259-11.644-4.321-2.775-9.276-1.95-12.913 1.818 3.539 3.363 4.199 7.501 3.213 10.266-1.099 3.079-4.295 4.052-6.853 1.877-3.15-2.686-2.136-7.937.704-11.865-1.334-.936-2.928-1.719-4.754-2.331-4.52-1.516-7.758-1.222-9.644.928-2.589 2.949-1.913 8.422-1.906 8.476a1.037 1.037 0 0 1-1.57 1.021 4.667 4.667 0 0 0-2.471-.693c-3.61 0-7.837 3.883-9.423 8.659-.726 2.183-1.842 7.69 3.442 11.636 2.31 1.725 4.675 2.834 6.917 3.251-.389-3.612.547-7.69 2.384-9.97.905-1.125 1.961-1.719 3.056-1.719.757 0 1.894.3 3.006 1.723 2.015 2.576 2.474 5.485 1.259 7.976-1.201 2.461-3.881 4.046-7.092 4.236zm26.171-8.813c-.191 0-.65.308-1.069 1.135-.928 1.83-1.079 4.933.544 7.834 1.785-2.096 2.306-4.704 1.463-7.463-.335-1.096-.752-1.506-.938-1.506zm-23.346-3.044c-.438 0-.949.336-1.438.945-1.383 1.719-2.396 5.389-1.888 8.855 2.629-.045 4.814-1.218 5.725-3.085.853-1.751.479-3.861-1.029-5.791-.329-.421-.834-.924-1.37-.924zm36.986-9.656c-4.349.971-7.394 4.968-7.329 6.573.008.197.019.468.844.468.162 0 .337-.012.527-.039 3.115-.405 5.449-3.212 5.958-7.002zm-21.412-10.359c-2.452 3.419-2.919 7.297-.962 8.965 1.476 1.261 2.911.801 3.551-.993.747-2.092.191-5.271-2.589-7.972z" style="" fill="#241726" data-original="#241726"></path><path d="M73.431 44.245S71.372 28.7 86.34 33.72s10.101 19.257 4.393 14.39c-5.708-4.867 4.985-21.394 16.44-14.046s8.905 21.624.783 22.683 4.906-16.623 15.145-5.715-12.087 30.822-21.228 23.512-1.999-19.123.197-11.928-3.709 14.256-19.913 13.989c-16.204-.268-8.845-25.202-3.177-17.95 5.669 7.253-3.729 15.449-15.165 6.908s1.593-26.223 9.616-21.318z" style="" fill="#ffffff" data-original="#ffffff" class=""></path><path d="m83.044 77.651-.902-.008c-5.312-.087-9.053-2.807-10.373-7.495-2.796-.353-5.743-1.64-8.574-3.754-4.482-3.348-6.003-8.434-4.169-13.951 1.878-5.653 6.882-10.08 11.392-10.08.649 0 1.276.087 1.878.259-.021-2.165.31-5.85 2.504-8.353 2.452-2.793 6.484-3.34 11.87-1.532 2.077.695 3.896 1.601 5.423 2.696 2.575-2.72 5.861-4.26 9.146-4.26 2.22 0 4.405.679 6.494 2.019 4.951 3.176 7.959 8.063 8.209 13.24 2.905.079 5.566 1.388 7.916 3.892 3.189 3.397 3.778 7.964 1.659 12.859-3.221 7.445-12.02 13.975-18.829 13.975-2.13 0-3.968-.606-5.463-1.802a14.939 14.939 0 0 1-1.931-1.846c-3.58 2.712-9.165 4.141-16.25 4.141zm-9.075-7.424c.926 2.619 3.124 5.258 8.207 5.341l.868.008c8.168 0 12.627-1.917 15.019-3.738-2.285-3.691-2.112-7.726-.843-10.228.733-1.443 1.798-2.272 2.921-2.272.753 0 2.133.387 2.923 2.975 1.101 3.604.29 7.129-2.221 9.81a12.74 12.74 0 0 0 1.68 1.609c1.118.894 2.52 1.348 4.167 1.348 5.975 0 14.042-6.064 16.924-12.723 1.252-2.892 2.048-7.084-1.269-10.617-1.952-2.08-4.122-3.168-6.452-3.235-.485 4.97-3.593 8.722-7.801 9.271-2.736.343-3.662-1.076-3.714-2.406-.12-2.929 4.098-7.852 9.495-8.789-.201-4.524-2.864-8.825-7.259-11.644-4.321-2.775-9.275-1.946-12.913 1.818 3.539 3.363 4.199 7.503 3.213 10.266-.687 1.928-2.161 3.123-3.846 3.125h-.001c-1.009 0-2.048-.432-3.005-1.247-3.151-2.688-2.137-7.937.704-11.867-1.335-.936-2.929-1.717-4.755-2.331-4.518-1.514-7.757-1.216-9.644.928-2.59 2.949-1.913 8.424-1.906 8.478a1.037 1.037 0 0 1-1.57 1.021 4.668 4.668 0 0 0-2.472-.693c-3.609 0-7.836 3.883-9.422 8.657-.726 2.185-1.842 7.69 3.442 11.636 2.31 1.725 4.676 2.834 6.917 3.251-.389-3.612.548-7.69 2.385-9.97.905-1.123 1.961-1.717 3.054-1.717.758 0 1.894.298 3.006 1.721 2.015 2.576 2.474 5.485 1.259 7.976-1.201 2.462-3.881 4.047-7.091 4.238zm26.171-8.813c-.191 0-.65.308-1.069 1.137-.929 1.83-1.08 4.933.544 7.832 1.785-2.096 2.306-4.704 1.463-7.463-.334-1.097-.752-1.506-.938-1.506zm-23.346-3.043c-.437 0-.948.334-1.438.942-1.383 1.719-2.396 5.389-1.888 8.855 2.629-.045 4.814-1.218 5.725-3.085.853-1.751.479-3.861-1.029-5.791-.33-.42-.834-.921-1.37-.921zm36.986-9.656c-4.35.969-7.394 4.966-7.329 6.571.008.199.019.47.845.47.161 0 .337-.014.527-.039 3.113-.404 5.447-3.213 5.957-7.002zM92.368 38.356c-2.452 3.419-2.918 7.297-.962 8.965 1.481 1.263 2.912.801 3.551-.995.746-2.092.191-5.27-2.589-7.97zM14.821 222.5h-.03c-3.956-.014-7.163-3.244-7.15-7.203.014-3.94 3.23-7.147 7.17-7.15a7.149 7.149 0 0 1 5.099 2.121 7.131 7.131 0 0 1 2.083 5.08c-.015 3.941-3.233 7.15-7.172 7.152zm.014-12.277c-2.823.002-5.108 2.282-5.118 5.081a5.107 5.107 0 0 0 5.081 5.12l.023 1.038-.001-1.038a5.114 5.114 0 0 0 5.098-5.083 5.06 5.06 0 0 0-1.482-3.611 5.07 5.07 0 0 0-3.601-1.507zM427.158 442.506h-.03c-3.956-.013-7.163-3.244-7.15-7.203.014-3.94 3.23-7.147 7.17-7.15a7.149 7.149 0 0 1 5.099 2.121 7.131 7.131 0 0 1 2.083 5.08c-.015 3.94-3.233 7.149-7.172 7.152zm.014-12.277c-2.823.002-5.108 2.282-5.118 5.081a5.107 5.107 0 0 0 5.081 5.12l.023 1.038-.001-1.038a5.114 5.114 0 0 0 5.098-5.083 5.06 5.06 0 0 0-1.482-3.611 5.061 5.061 0 0 0-3.601-1.507zM171.177 61.993h-.03c-3.956-.014-7.163-3.244-7.15-7.203.014-3.94 3.23-7.147 7.17-7.15a7.149 7.149 0 0 1 5.099 2.121 7.131 7.131 0 0 1 2.083 5.08c-.015 3.941-3.233 7.15-7.172 7.152zm.014-12.277c-2.823.002-5.108 2.282-5.118 5.081a5.107 5.107 0 0 0 5.081 5.12l.023 1.038-.001-1.038a5.114 5.114 0 0 0 5.098-5.083 5.06 5.06 0 0 0-1.482-3.611 5.07 5.07 0 0 0-3.601-1.507zM10.135 440.73h-.03c-3.956-.014-7.163-3.244-7.15-7.203.014-3.94 3.23-7.147 7.17-7.15a7.149 7.149 0 0 1 5.099 2.121 7.131 7.131 0 0 1 2.083 5.08c-.015 3.941-3.233 7.15-7.172 7.152zm.014-12.277c-2.823.002-5.108 2.282-5.118 5.081a5.107 5.107 0 0 0 5.081 5.12l.023 1.038-.001-1.038a5.114 5.114 0 0 0 5.098-5.083 5.06 5.06 0 0 0-1.482-3.611 5.07 5.07 0 0 0-3.601-1.507zM395.235 79.138h-.03c-3.956-.014-7.163-3.244-7.15-7.203.014-3.94 3.23-7.147 7.17-7.15a7.149 7.149 0 0 1 5.099 2.121 7.131 7.131 0 0 1 2.083 5.08c-.015 3.94-3.233 7.149-7.172 7.152zm.014-12.277c-2.823.002-5.108 2.282-5.118 5.081a5.107 5.107 0 0 0 5.081 5.12l.023 1.038-.001-1.038a5.114 5.114 0 0 0 5.098-5.083 5.06 5.06 0 0 0-1.482-3.611 5.061 5.061 0 0 0-3.601-1.507zM17.739 174.147c-.767 0-1.493 0-3.522-8.051-6.824-1.307-7.402-2.082-7.624-2.38-.193-.257-.276-.734-.188-1.044.124-.438.409-1.451 8.204-4.599 2.796-7.303 3.746-7.303 4.377-7.303.328 0 .778.233.975.497.502.673.958 2.42 1.648 5.219.216.874.476 1.93.626 2.396.409.182 1.312.505 2.062.772 4.009 1.435 5.044 1.924 5.232 2.882.07.357-.111.882-.383 1.127-.815.73-4.688 2.173-6.72 2.896-3.298 7.514-4.003 7.552-4.626 7.585-.019.003-.043.003-.061.003zM9.232 162.82c1.364.393 3.851.957 6.021 1.36.4.073.721.375.818.77.556 2.248 1.283 4.808 1.806 6.267.755-1.36 1.899-3.77 2.826-5.898.116-.266.334-.47.606-.565 1.854-.653 3.946-1.455 5.25-2.027-.913-.385-2.156-.829-2.961-1.117-2.291-.821-2.722-.999-3.018-1.394-.256-.345-.417-.92-.987-3.233-.215-.872-.544-2.207-.837-3.209-.68 1.299-1.629 3.504-2.367 5.458a1.036 1.036 0 0 1-.586.596c-2.408.964-5.14 2.192-6.571 2.992zM332.44 169.483c-.767 0-1.493 0-3.522-8.053-6.826-1.305-7.403-2.082-7.624-2.38-.193-.259-.276-.732-.189-1.042.123-.438.407-1.451 8.204-4.599 2.796-7.305 3.746-7.305 4.378-7.305.327 0 .777.233.974.497.502.673.958 2.42 1.648 5.219.216.876.476 1.932.626 2.398.409.182 1.314.505 2.065.774 4.008 1.433 5.042 1.921 5.229 2.878.07.359-.112.884-.384 1.127-.813.732-4.687 2.173-6.72 2.896-3.297 7.516-4.002 7.554-4.625 7.587-.018.003-.041.003-.06.003zm-8.506-11.326c1.365.393 3.851.955 6.02 1.358.4.073.721.375.818.77.556 2.248 1.283 4.808 1.806 6.269.756-1.362 1.899-3.772 2.826-5.9.116-.266.334-.47.607-.566 1.853-.653 3.945-1.455 5.248-2.027-.912-.383-2.153-.827-2.957-1.115-2.293-.821-2.725-.997-3.021-1.395-.256-.345-.417-.92-.987-3.235-.215-.87-.544-2.207-.837-3.207-.68 1.297-1.63 3.504-2.367 5.458a1.036 1.036 0 0 1-.586.596c-2.407.965-5.138 2.191-6.57 2.994zM194.072 471.125c-.768 0-1.495 0-3.522-8.051-6.826-1.309-7.423-2.11-7.624-2.378-.194-.259-.277-.736-.19-1.046.124-.438.409-1.451 8.205-4.599 2.796-7.303 3.746-7.303 4.377-7.303.328 0 .778.233.975.497.501.673.956 2.418 1.645 5.211.217.878.478 1.938.628 2.404.409.182 1.314.505 2.064.774 4.009 1.433 5.043 1.921 5.231 2.88.07.359-.111.882-.383 1.127-.815.73-4.689 2.173-6.721 2.896-3.297 7.514-4.002 7.552-4.625 7.585-.018.003-.042.003-.06.003zm-8.507-11.325c1.363.391 3.851.955 6.021 1.358.4.073.721.375.818.77.555 2.248 1.283 4.808 1.806 6.267.755-1.36 1.898-3.77 2.825-5.898.116-.266.334-.47.606-.565 1.854-.653 3.947-1.455 5.251-2.027-.913-.385-2.156-.829-2.96-1.117-2.292-.821-2.724-.999-3.02-1.395-.256-.345-.417-.92-.988-3.241-.215-.868-.543-2.201-.836-3.198-.679 1.297-1.629 3.504-2.366 5.456a1.036 1.036 0 0 1-.586.596c-2.408.963-5.14 2.192-6.571 2.994zM12.304 320.71c-.554 0-1.034-.341-1.252-.89-.05-.164-1.059-4.165-2.146-9.113h-.139c-6.768 0-8.136-.882-8.606-1.832-.135-.274-.38-1.001.26-1.838 1.191-1.559 4.456-4.131 6.608-5.748-1.43-8.3-.982-10.24-.277-11.081.447-.529 1.142-.705 1.82-.44 1.551.612 5.244 2.785 8.378 4.737 4.37-2.694 7.314-4.06 8.755-4.06 1.109 0 1.598.72 1.68 1.334.053.399.211 1.583-2.527 7.917 7.819 5.436 7.86 6.608 7.884 7.246.015.432-.166.831-.498 1.095-1.294 1.032-9.611 1.859-12.388 2.11-5.512 10.563-6.887 10.563-7.552 10.563zm-1.279-10.033a337.466 337.466 0 0 0 1.709 7.333c.834-1.028 2.352-3.318 4.67-7.664-2.258.169-4.42.28-6.379.331zm-8.737-2.645c.589.219 2.166.582 6.169.6-.381-1.8-.721-3.49-1.014-5.051-2.461 1.887-4.311 3.484-5.155 4.451zm7.008-5.842c.351 1.93.779 4.082 1.279 6.421 2.393-.053 5.118-.201 7.965-.436a166.4 166.4 0 0 0 3.727-7.743 193.408 193.408 0 0 0-5.319-3.48 137.088 137.088 0 0 0-7.652 5.238zm14.708-.561a167.839 167.839 0 0 1-3.025 6.328c4.735-.46 7.928-.987 9.312-1.34-.629-.689-2.232-2.148-6.287-4.988zm-15.76-9.741c-.134.72-.209 2.702.658 8.02 2-1.447 4.092-2.88 6.096-4.171-2.939-1.808-5.468-3.249-6.754-3.849zm10.667 3.853c1.447.924 2.868 1.857 4.203 2.759 1.379-3.227 1.964-5.045 2.147-5.906-1.021.247-3.066 1.173-6.35 3.147zM475.446 355.416c-.16 0-.44-.067-.583-.136-1.486-.73-5.793-7.893-7.207-10.297-12.022-.466-12.531-1.701-12.808-2.369-.204-.491-.092-1.034.296-1.449.128-.116 3.312-2.74 7.319-5.839-2.857-6.002-2.719-7.69-2.191-8.537.376-.604 1.071-.872 1.879-.703 1.918.411 5.639 2.264 8.021 3.517 6.359-4.469 8.356-5.053 9.379-5.053.953 0 1.632.61 1.694 1.518.111 1.662-.274 5.933-.695 9.601 7.611 4.946 7.615 6.332 7.617 7.005 0 .517-.251.975-.691 1.261-.339.219-1.34.865-8.235 1.103-1.732 10.376-2.873 10.376-3.795 10.378zm-5.332-10.353c2.442 4.082 4.285 6.743 5.196 7.844.355-.865.987-2.939 1.818-7.818a164.85 164.85 0 0 1-7.014-.026zm-1.241-2.112c2.879.093 5.88.111 8.594.057.31-1.99.606-4.139.87-6.293a135.631 135.631 0 0 0-8.008-4.678 212.275 212.275 0 0 0-5.256 3.902 133.754 133.754 0 0 0 3.8 7.012zm11.399-4.982a204.17 204.17 0 0 1-.695 4.978c3.511-.134 5.404-.383 6.259-.586-.485-.594-1.837-1.911-5.564-4.392zm-22.773 3.942c1.286.314 4.005.705 8.926.943a133.522 133.522 0 0 1-3.028-5.625 341.002 341.002 0 0 0-5.898 4.682zm14.723-11.206a141.023 141.023 0 0 1 6.38 3.725c.377-3.423.598-6.322.59-7.743-.751.201-2.597 1.004-6.97 4.018zm-10.171-2.506c.054.626.4 2.205 2.097 5.833a220.69 220.69 0 0 1 4.13-3.077c-2.758-1.416-4.991-2.407-6.227-2.756zM386.406 441.427a1.038 1.038 0 0 1-.726-1.779c.587-.632 4.204-5.655 5.862-8.288-2.321.657-6.577 2.1-10.438 3.504a1.036 1.036 0 0 1-1.33-.62 1.037 1.037 0 0 1 .62-1.33c13.203-4.806 13.448-4.289 13.903-3.357.774 1.597-7.079 11.488-7.166 11.573a1.034 1.034 0 0 1-.725.297z" style="" fill="#241726" data-original="#241726"></path><path d="M371.185 443.532s-1.459-15.994 7.305-14.296c12.141 2.353 22.003 31.135 1.239 40.641-20.764 9.507-31.354-7.167-31.354-7.167l11.274-4.328s-9.526-6.327-9.686-12.595c-.16-6.268 7.215-1.773 7.215-1.773s-9.827-13.109-3.546-14.429 17.553 13.947 17.553 13.947z" style="" fill="#f0bf00" data-original="#f0bf00"></path><path d="M380.007 440.679c-2.145 0-4.577-2.692-5.312-3.569a1.037 1.037 0 0 1 .129-1.461 1.035 1.035 0 0 1 1.462.128c1.061 1.265 2.623 2.578 3.462 2.801-.133-.861-1.028-2.846-2.09-4.573a1.038 1.038 0 0 1 .34-1.427 1.03 1.03 0 0 1 1.428.341c1.132 1.838 2.93 5.162 2.246 6.754a1.605 1.605 0 0 1-1.177.959c-.16.033-.324.047-.488.047zM362.781 458.148a1.03 1.03 0 0 1-.539-.152c-.702-.428-6.867-4.293-7.049-8.152-.06-1.277.598-1.855.995-2.084 1.171-.681 3.106-.075 4.783.72-1.283-3.788-1.246-6.036.116-6.699.583-.274 2.33-1.129 10.693 8.403a1.04 1.04 0 0 1-1.56 1.37c-2.953-3.367-6.697-7.029-8.128-7.735-.061 1.064.711 3.894 1.822 6.557a1.04 1.04 0 0 1-.29 1.194c-.35.29-.844.322-1.226.079-2.052-1.309-4.506-2.292-5.134-2.108.006.022-.002.091.003.205.098 2.086 3.767 5.079 6.056 6.478a1.038 1.038 0 0 1-.542 1.924zM370.609 467.472a19.19 19.19 0 0 1-2.232-.113 1.037 1.037 0 0 1-.898-1.159 1.036 1.036 0 0 1 1.158-.9c.084.014 8.404.987 13.899-3.857 3.275-2.886 4.942-7.289 4.952-13.086a1.038 1.038 0 0 1 1.038-1.036h.001a1.039 1.039 0 0 1 1.037 1.04c-.011 6.425-1.918 11.355-5.667 14.65-4.401 3.869-10.167 4.461-13.288 4.461zM27.92 95.739c-.256 0-.512-.095-.71-.29-.086-.085-7.936-9.984-7.165-11.573.455-.936.703-1.451 13.903 3.354.539.197.817.79.62 1.33-.195.539-.79.817-1.33.62-3.861-1.405-8.119-2.848-10.439-3.504 1.658 2.633 5.279 7.66 5.877 8.304a1.05 1.05 0 0 1-.027 1.459c-.204.201-.468.3-.729.3z" style="" fill="#241726" data-original="#241726"></path><path d="M43.157 97.849s1.459-15.994-7.305-14.296c-12.141 2.353-22.003 31.135-1.239 40.641s31.354-7.167 31.354-7.167l-11.274-4.328s9.526-6.327 9.686-12.595c.16-6.268-7.215-1.773-7.215-1.773s9.827-13.109 3.546-14.429c-6.281-1.32-17.553 13.947-17.553 13.947z" style="" fill="#f0bf00" data-original="#f0bf00"></path><path d="M34.335 94.995c-.164 0-.326-.014-.486-.049a1.606 1.606 0 0 1-1.178-.959c-.684-1.591 1.114-4.915 2.246-6.754a1.033 1.033 0 0 1 1.428-.341c.487.3.639.938.34 1.427-1.082 1.759-1.964 3.715-2.092 4.573.84-.219 2.403-1.534 3.464-2.801a1.037 1.037 0 1 1 1.591 1.333c-.737.879-3.169 3.571-5.313 3.571zM51.561 112.465a1.036 1.036 0 0 1-.541-1.924c2.289-1.399 5.958-4.392 6.056-6.478.009-.184-.019-.251-.02-.251-.5-.213-3.015.817-5.111 2.157a1.036 1.036 0 0 1-1.517-1.273c1.11-2.663 1.882-5.495 1.822-6.557-1.431.703-5.176 4.368-8.128 7.735a1.039 1.039 0 0 1-1.56-1.37c8.358-9.528 10.114-8.679 10.694-8.403 1.361.661 1.398 2.911.115 6.699 1.678-.795 3.614-1.401 4.784-.722.397.229 1.055.807.995 2.084-.183 3.861-6.347 7.724-7.049 8.152-.17.102-.355.151-.54.151zM43.733 121.788c-3.121 0-8.888-.592-13.288-4.461-3.749-3.296-5.656-8.225-5.667-14.65a1.038 1.038 0 0 1 1.036-1.04h.002c.573 0 1.037.464 1.038 1.036.01 5.797 1.676 10.199 4.952 13.086 5.497 4.844 13.815 3.869 13.899 3.857.565-.083 1.086.332 1.158.9a1.037 1.037 0 0 1-.898 1.159c-.11.014-.947.113-2.232.113z" style="" fill="#241726" data-original="#241726"></path><path d="M49.619 154.88s-15.21 24.337-15.21 33.463 32.449 188.609 47.659 198.749c15.21 10.14 176.441 73.01 183.539 73.01 7.098 0 186.581-137.908 187.595-141.964 1.014-4.056-2.089-20.931-2.089-20.931l-191.59 134.502s-152.104-69.968-159.202-80.108c-7.099-10.14-50.702-196.721-50.702-196.721z" style="" fill="#ffffff" data-original="#ffffff" class=""></path><path d="M265.607 461.14c-9.033 0-170.777-64.293-184.114-73.184-8.381-5.588-20.925-57.685-29.973-100.403-10.303-48.643-18.149-94.7-18.149-99.21 0-9.318 14.74-33.01 15.369-34.013a1.019 1.019 0 0 1 1.05-.474c.413.069.745.379.84.786 15.066 64.469 45.017 188.473 50.541 196.364 5.469 7.812 105.575 55.275 158.243 79.512l191.103-134.161c.289-.201.664-.241.989-.111.327.134.563.426.627.772.322 1.751 3.114 17.218 2.074 21.371-.919 3.681-90.983 72.384-91.892 73.077-27.476 20.95-91.902 69.674-96.708 69.674zM49.188 157.587c-3.666 6.115-13.741 23.581-13.741 30.756 0 4.496 8.197 52.002 18.103 98.78 12.677 59.852 23.01 95.05 29.095 99.106 7.896 5.264 55.903 24.949 94.616 40.205 46.304 18.25 85.029 32.556 88.322 32.631 3.524-.576 41.661-28.228 94.971-68.865 48.021-36.603 90.018-69.8 91.709-72.487.649-2.68-.941-13.262-1.886-18.72L260.119 432.559a1.027 1.027 0 0 1-1.03.093c-6.22-2.862-152.441-70.205-159.619-80.455-6.765-9.666-44.879-171.56-50.282-194.61z" style="" fill="#241726" data-original="#241726"></path><path d="M49.619 154.88s232.597-57.847 241.98-48.464c9.383 9.383 25.723 148.852 25.723 148.852l133.79 41.938-190.79 140.748s-159.514-56.299-165.769-75.065c-6.256-18.767-51.235-200.206-44.934-208.009z" style="" fill="#b1739a" data-original="#b1739a" class=""></path><path d="M84.3 176.348s186.886-52.225 190.069-46.566c9.126 16.224 22.673 128.528 22.673 128.528l-179.96 79.26L84.3 176.348z" style="" fill="#fdffff" data-original="#fdffff" class=""></path><path d="M245.446 406.39c-.049 0-.218-.012-.267-.018-5.851-.835-96.757-40.347-99.651-54.681-.333-1.652.348-3.079 1.917-4.021 9.292-5.576 152.18-77.104 158.258-80.147.249-.128.538-.146.806-.053.226.079 22.83 7.96 45.019 16.233 45.74 17.056 45.243 19.04 44.88 20.49-.931 3.731-71.898 52.332-72.615 52.822-21.692 14.847-72.75 49.375-78.347 49.375zm60.795-136.814c-8.51 4.258-148.738 74.478-157.727 79.873-1.038.622-1.063 1.275-.952 1.83 1.059 5.242 18.339 16.509 47.411 30.912 24.378 12.08 47.59 21.684 50.482 22.123 2.779-.03 27.383-14.97 76.135-48.305 36.628-25.044 69.01-48.321 72.597-52.147-4.555-4.231-55.671-23.037-87.946-34.286z" style="" fill="#241726" data-original="#241726"></path><path d="M142.909 256.623s18.381-6.95 18.931-5.301c.55 1.649 10.623 31.295 6.775 33.494-3.848 2.199-21.505 8.714-22.054 5.416-.551-3.298-6.951-30.86-3.652-33.609z" style="" fill="#52afa6" data-original="#52afa6"></path><path d="M170.927 230.877s21.41-7.707 21.96-6.058 11.463 45.259 7.615 47.458c-3.848 2.199-20.073 9.138-20.623 5.84-.55-3.299-12.251-44.491-8.952-47.24z" style="" fill="#f2c100" data-original="#f2c100"></path><path d="M198.188 207.402s22.925-5.435 23.475-3.786c.55 1.649 13.692 56.109 9.844 58.308-3.848 2.199-21.545 8.889-22.095 5.591-.55-3.298-14.523-57.364-11.224-60.113z" style="" fill="#e17b8d" data-original="#e17b8d"></path><path d="M230.749 181.656s19.139-5.435 19.688-3.786c.55 1.649 16.721 70.497 12.873 72.696s-21.545 8.889-22.095 5.591c-.549-3.299-13.764-71.752-10.466-74.501z" style="" fill="#b1739a" data-original="#b1739a" class=""></path><path d="M130.937 211.11s31.127-29.398 34.586-28.533c3.459.865 16.428 12.105 16.428 12.105l22.481-15.564s-7.782-4.323-5.188-6.052c2.594-1.729 22.481-6.052 22.481-6.052l-2.594 25.075-6.917-5.188s-29.398 27.669-31.992 25.939c-2.594-1.729-14.699-15.564-14.699-15.564s-24.21 27.669-26.804 27.669c-2.594-.001-7.782-9.512-7.782-13.835z" style="" fill="#dc4a44" data-original="#dc4a44"></path><path d="M128.726 319.928a1.033 1.033 0 0 1-1.003-.772c-.088-.332-8.903-33.648-16.43-67.023-15.411-68.338-10.637-70.329-8.599-71.178 5.971-1.83 144.212-44.04 164.612-44.04.921 0 3.078 0 3.415 1.518.241 1.088 23.183 109.368 14.71 114.079-7.174 3.985-150.214 64.749-156.299 67.333a1.06 1.06 0 0 1-.406.083zm138.58-180.938c-20.091 0-162.473 43.477-163.909 43.916-5.365 2.24 8.95 69.972 26.026 134.56 13.651-5.801 148.248-63.018 155.001-66.771 5.302-3.008-9.516-83.783-15.675-111.567-.181-.054-.595-.138-1.443-.138zM166.376 369.592a1.038 1.038 0 0 1-1.007-1.289c.794-3.174 102.543-58.49 163.124-91.181a1.038 1.038 0 0 1 .985 1.829c-63.278 34.145-158.421 86.173-162.191 90.101-.182.331-.532.54-.911.54zM207.228 389.618a1.039 1.039 0 0 1-.553-1.917c1.456-.912 145.706-91.325 152.719-100.673a1.038 1.038 0 1 1 1.66 1.244c-7.242 9.656-147.317 97.454-153.276 101.188a1.032 1.032 0 0 1-.55.158z" style="" fill="#241726" data-original="#241726"></path><path d="M372.239 323.132c-.174 0-.352-.045-.514-.136-5.504-3.146-86.416-40.436-87.233-40.813a1.037 1.037 0 0 1-.508-1.376c.239-.523.854-.75 1.377-.509 3.337 1.538 81.811 37.704 87.393 40.894a1.039 1.039 0 0 1-.515 1.94zM265.701 394.423c-.066 0-.134-.006-.202-.02-4.074-.815-83.431-50.542-92.466-56.209a1.039 1.039 0 0 1 1.103-1.759c35.132 22.038 88.566 55.121 91.78 55.936.546.138.903.691.778 1.24-.11.48-.521.812-.993.812zM349.009 338.352c-.174 0-.352-.045-.514-.136-5.517-3.154-88.821-44.415-89.661-44.83a1.037 1.037 0 1 1 .92-1.86c3.436 1.703 84.201 41.705 89.77 44.887a1.039 1.039 0 0 1-.515 1.939zM292.136 377.602c-.196 0-.393-.055-.569-.17-.817-.537-81.692-53.647-87.152-55.986a1.04 1.04 0 0 1 .817-1.909c5.628 2.414 84.135 53.968 87.474 56.161a1.038 1.038 0 0 1-.57 1.904zM288.933 337.549c-2.455 0-37.391-23.374-52.297-33.423a1.04 1.04 0 0 1 1.159-1.723c19.224 12.962 48.738 32.467 51.26 33.083.574 0 .977.458.977 1.032s-.526 1.031-1.099 1.031zM265.606 461.14a1.04 1.04 0 0 1-1.027-.892c-.015-.105-1.538-10.694-5.244-21.969a1.037 1.037 0 0 1 1.972-.648c3.764 11.458 5.311 22.219 5.327 22.326a1.04 1.04 0 0 1-1.028 1.183zM82.072 388.15c-.534 0-.99-.426-1.037-.969-.207-2.382 8.583-16.45 12.372-22.389.309-.48.949-.622 1.433-.318.483.308.624.951.316 1.433-5.852 9.174-11.961 19.588-12.052 21.134a1.022 1.022 0 0 1-.946 1.105c-.029.002-.057.004-.086.004z" style="" fill="#241726" data-original="#241726"></path><path d="M512 260.662s-8.615-91.825-21.037-91.825c-12.421 0-80.109 17.297-88.981 26.169s-4.402 53.694 1.809 55.468c6.211 1.774 28.667 12.363 30.441 15.912s.407 16.905 4.843 18.68c4.436 1.775 72.925-24.404 72.925-24.404z" style="" fill="#ec9b70" data-original="#ec9b70"></path><path d="M377.501 115.372s105.852-8.904 110.003 0c4.151 8.904-6.227 139.499-6.227 139.499s-93.398 5.936-97.549-5.936c-4.151-11.873-6.227-133.563-6.227-133.563z" style="" fill="#ffffff" data-original="#ffffff" class=""></path><path d="M434.059 257.392c-48.474 0-50.609-6.109-51.311-8.116-4.158-11.892-6.199-128.911-6.284-133.887a1.037 1.037 0 0 1 .951-1.052c.471-.041 47.462-3.961 79.726-3.961 25.864 0 30.315 2.434 31.304 4.556 4.218 9.048-5.708 134.676-6.133 140.021-.041.513-.452.92-.969.953-.234.015-23.656 1.486-47.284 1.486zm-55.503-141.066c.209 11.547 2.296 121.242 6.152 132.266.706 2.023 6.931 6.725 49.351 6.725 20.95 0 41.741-1.159 46.255-1.427 2.919-36.905 9.532-131.038 6.249-138.081-.367-.786-3.575-3.357-29.423-3.357-29.611.001-71.693 3.315-78.584 3.874z" style="" fill="#241726" data-original="#241726"></path><path d="M372.093 152.127s117.803-8.302 119.644-2.076-1.841 60.19-1.841 60.19H370.252l1.841-58.114z" style="" fill="#e17b8d" data-original="#e17b8d"></path><path d="M370.929 103.804s119.56-3.875 121.519-1.685c1.959 2.19.591 21.402.591 21.402l-121.223 2.28-.887-21.997z" style="" fill="#241726" data-original="#241726"></path><path d="M369.691 178.245s4.926-8.445 31.67-8.797c18.069-.238 33.449 6.927 23.69 13.137-9.76 6.211-38.151 4.436-38.151 4.436s48.947-3.498 40.15 8.114c-8.656 11.425-39.262 8.743-39.262 8.743s35.178-4.641 39.614 9.555-39.764 11.26-39.764 11.26 26.684-3.594 33.781 5.278c7.098 8.872-46.472 17.175-52.08 1.408-3.151-8.859-5.631-39.763.352-53.134zM504.902 214.525s-4.436-47.911-15.083-55.009-49.652-11.703-53.234-5.323c-7.776 13.847 32.769 16.186 30.58 22.996-3.167 9.853-19.046 33.787-9.286 46.209 9.759 12.421 45.249 15.083 47.023-8.873z" style="" fill="#ec9b70" data-original="#ec9b70"></path><path d="M452.856 162.918c-4.808 0-10.482-1.713-11.337-1.98a1.04 1.04 0 0 1 .618-1.982c3.011.94 11.515 2.977 14.651 1.151.174-.101.466-.3.456-.48-.059-1.139-3.761-3.586-7.045-5.067a1.039 1.039 0 0 1 .853-1.893c1.9.859 8.111 3.888 8.266 6.853.034.671-.195 1.628-1.484 2.38-1.28.746-3.06 1.018-4.978 1.018zM485.951 235.614c-11.876 0-20.601-3.119-25.953-9.283-7.305-8.414-5.548-19.3-5.469-19.758.096-.566.632-.926 1.196-.849.564.097.945.632.85 1.198-.018.101-1.66 10.408 5.004 18.066 5.224 6.004 14.073 8.874 26.317 8.523h.028a1.038 1.038 0 0 1 .029 2.075c-.676.018-1.345.028-2.002.028zM376.024 187.376a1.037 1.037 0 1 1 0-2.076c.201 0 20.185-.004 32.345-.353.588.028 1.051.436 1.067 1.007a1.038 1.038 0 0 1-1.008 1.068c-12.19.35-32.203.354-32.404.354zM381.741 205.758c-3.647 0-6.153-.075-6.453-.083a1.037 1.037 0 0 1-1.004-1.07 1.018 1.018 0 0 1 1.069-1.005c.225.008 22.516.669 33.857-2.084.557-.12 1.119.207 1.253.764a1.04 1.04 0 0 1-.764 1.255c-7.845 1.901-20.37 2.223-27.958 2.223zM373.913 226.787a1.037 1.037 0 1 1 0-2.076c.224 0 22.554-.024 33.589-2.092a1.038 1.038 0 0 1 .383 2.039c-11.226 2.104-33.048 2.129-33.972 2.129zM419.359 182.327c-.045 0-.089-.002-.135-.008-.862-.114-8.491-1.198-10.762-4.605-.766-1.149-.612-2.102-.348-2.7.98-2.211 5.086-2.931 5.9-3.052a1.037 1.037 0 0 1 .309 2.052c-1.572.239-3.944 1.011-4.311 1.842-.032.073-.118.266.176.707 1.488 2.232 7.22 3.425 9.302 3.697a1.038 1.038 0 0 1-.131 2.067zM416.564 198.998c-3.455 0-9.379-.513-10.315-3.944-1.272-4.664 7.344-7.224 8.331-7.499a1.039 1.039 0 0 1 .56 1.999c-2.497.701-7.467 2.836-6.889 4.954.561 2.061 6.386 2.619 10.345 2.351a1.038 1.038 0 0 1 .138 2.072c-.413.025-1.192.067-2.17.067zM416.59 217.958c-.108 0-.22-.016-.328-.053-.2-.059-.637-.097-1.219-.164-2.864-.322-8.195-.92-10.373-4.029-.698-.999-.563-1.887-.327-2.457 1.222-2.949 8.825-4.431 10.337-4.696.557-.118 1.103.278 1.202.841.1.563-.277 1.103-.841 1.202-3.816.675-8.257 2.185-8.78 3.448-.032.079-.081.197.11.47 1.641 2.343 6.546 2.894 8.904 3.16.892.099 1.335.152 1.644.255a1.039 1.039 0 0 1-.329 2.023zM412.44 235.946c-.027 0-.056-.002-.084-.004-1.662-.132-7.192-.722-8.576-2.716a2.004 2.004 0 0 1-.296-1.717c.803-2.805 6.463-4.82 7.589-5.197a1.039 1.039 0 0 1 .656 1.97c-2.303.768-5.881 2.507-6.249 3.798.297.626 3.722 1.526 7.041 1.794a1.037 1.037 0 0 1-.081 2.072z" style="" fill="#241726" data-original="#241726"></path><path d="M347.535 4.849s-89.778.402-96.274 10.958-3.178 70.119 5.754 76.615c8.932 6.496 63.893-4.629 64.705 3.491s-9.744 13.804-3.248 15.428 26.796-4.872 39.788-12.992 21.755-93.5-10.725-93.5z" style="" fill="#ffffff" data-original="#ffffff" class=""></path><path d="M320.933 112.631h-.001c-1.052 0-1.964-.095-2.711-.282-1.487-.373-2.385-1.001-2.744-1.926-.604-1.547.499-3.225 1.894-5.347 1.633-2.485 3.666-5.576 3.317-9.06-.065-.653-1.282-2.173-11.138-2.173-5.352 0-11.837.416-18.702.855-6.941.446-14.118.906-20.118.906-7.576 0-12.129-.744-14.326-2.343-9.595-6.979-12.568-67.371-6.027-77.998 1.074-1.745 4.343-7.058 51.393-9.93 23.019-1.406 45.535-1.521 45.759-1.522 9.512 0 16.54 6.985 20.33 20.198 6.276 21.886 2.16 68.215-9.049 75.219-11.422 7.14-29.122 13.403-37.877 13.403zM309.55 91.768c8.971 0 12.919 1.208 13.203 4.042.422 4.216-1.931 7.793-3.648 10.406-.85 1.295-1.909 2.905-1.694 3.454.07.18.452.45 1.314.665 5.513 1.386 25.588-4.492 38.985-12.865 8.145-5.089 15.574-47.017 8.155-72.888-3.558-12.404-9.725-18.694-18.33-18.694-35.851.16-90.846 3.079-95.39 10.463-6.794 11.04-2.543 69.398 5.48 75.234 1.776 1.291 6.185 1.946 13.106 1.946 5.933 0 13.076-.458 19.985-.902 6.899-.443 13.416-.861 18.834-.861z" style="" fill="#241726" data-original="#241726"></path><path d="M271.193 32.288s71.868-6.356 74.802-2.444c2.933 3.911 6.845 39.601 2.444 42.534-4.4 2.933-73.335 7.822-75.29 5.378-1.956-2.445-6.845-44.49-1.956-45.468z" style="" fill="#f2c100" data-original="#f2c100"></path><path d="M313.297 60.751c-.25 0-.494-.02-.729-.063-8.465-1.494-37.36-23.7-38.587-24.645a1.038 1.038 0 0 1 1.266-1.646c.296.229 29.714 22.841 37.681 24.248 5.591.993 20.625-16.91 28.797-28.423a1.038 1.038 0 1 1 1.692 1.2c-2.179 3.073-21.08 29.329-30.12 29.329z" style="" fill="#241726" data-original="#241726"></path><path d="M273.147 78.794a1.037 1.037 0 0 1-.808-1.688l22.001-27.379a1.037 1.037 0 0 1 1.617 1.301l-22.001 27.379a1.03 1.03 0 0 1-.809.387zM348.439 73.415c-.288 0-.575-.12-.779-.353-6.754-7.69-18.215-20.265-20.219-21.268a1.037 1.037 0 0 1-.464-1.392 1.036 1.036 0 0 1 1.392-.464c3.028 1.514 19.034 19.687 20.849 21.754a1.038 1.038 0 0 1-.779 1.723z" style="" fill="#241726" data-original="#241726"></path><circle cx="339.374" cy="26.83" r="14.722" style="" fill="#e17b8d" data-original="#e17b8d"></circle><path d="m336.006 15.982 6.477.244.197 12.695-6.674.244z" style="" fill="#fbffff" data-original="#fbffff"></path><circle cx="339.244" cy="34.367" r="3.828" style="" fill="#fbffff" data-original="#fbffff"></circle><path d="M267.72 508.188c-.574 0-1.097-.464-1.097-1.038s.404-1.038.978-1.038a41.26 41.26 0 0 0 4.041-.186c.578-.034 1.078.363 1.134.932a1.039 1.039 0 0 1-.931 1.135c-1.328.13-2.715.195-4.125.195zm-4.261-.193c-.031 0-.063-.002-.095-.004a55.564 55.564 0 0 1-4.19-.539 1.037 1.037 0 0 1-.853-1.194 1.024 1.024 0 0 1 1.194-.853c.839.14 1.697.261 2.572.367.497.059.984.109 1.466.152a1.038 1.038 0 0 1-.094 2.071zm12.381-.628a1.037 1.037 0 0 1-.216-2.053 30.804 30.804 0 0 0 3.859-1.088 1.032 1.032 0 0 1 1.326.628 1.038 1.038 0 0 1-.63 1.326 33.24 33.24 0 0 1-4.119 1.165 1.19 1.19 0 0 1-.22.022zm-20.55-.768c-.086 0-.173-.01-.26-.032a47.757 47.757 0 0 1-4.053-1.242 1.038 1.038 0 1 1 .698-1.954c1.259.448 2.563.847 3.874 1.186.555.144.889.709.746 1.265a1.042 1.042 0 0 1-1.005.777zm28.339-2.019a1.037 1.037 0 0 1-.483-1.956 26.033 26.033 0 0 0 3.377-2.116 1.038 1.038 0 0 1 1.236 1.666 27.859 27.859 0 0 1-3.648 2.286c-.154.082-.32.12-.482.12zm-36.142-.774c-.147 0-.297-.03-.44-.097a43.787 43.787 0 0 1-3.754-1.992 1.038 1.038 0 1 1 1.062-1.784 41.008 41.008 0 0 0 3.573 1.895 1.038 1.038 0 0 1-.441 1.978zm-51.946-.101c-.807 0-1.583-.03-2.329-.089a1.037 1.037 0 0 1-.954-1.115c.045-.572.561-1.024 1.116-.953 1 .079 2.056.103 3.175.065l.829-.032c.564-.055 1.06.409 1.089.983a1.037 1.037 0 0 1-.984 1.088l-.87.036c-.358.013-.717.017-1.072.017zm6.019-.416a1.037 1.037 0 0 1-.135-2.067 44.602 44.602 0 0 0 3.992-.707 1.037 1.037 0 0 1 .454 2.026 48.373 48.373 0 0 1-4.174.74 1.06 1.06 0 0 1-.137.008zm-12.326-.349c-.089 0-.178-.01-.268-.034a19.423 19.423 0 0 1-4.053-1.575 1.038 1.038 0 0 1 .969-1.837 17.149 17.149 0 0 0 3.618 1.405 1.039 1.039 0 0 1-.266 2.041zm20.407-1.479a1.039 1.039 0 0 1-.327-2.022 38.546 38.546 0 0 0 3.76-1.471 1.037 1.037 0 1 1 .859 1.889 40.778 40.778 0 0 1-3.965 1.553 1.057 1.057 0 0 1-.327.051zm103.331-1.666a1.038 1.038 0 0 1-.022-2.075 46.158 46.158 0 0 0 3.904-.251c.584-.055 1.15.341 1.215.906.065.565-.266 1.07-.832 1.139a47.572 47.572 0 0 1-4.244.281h-.021zm-4.144-.126c-.029 0-.059-.002-.089-.004a33.239 33.239 0 0 1-4.232-.628 1.036 1.036 0 1 1 .439-2.027c1.264.274 2.598.47 3.969.588a1.038 1.038 0 0 1-.087 2.071zm-18.561-.012a1.038 1.038 0 0 1-.741-1.763 24.578 24.578 0 0 0 2.545-3.059 1.04 1.04 0 0 1 1.698 1.196 26.608 26.608 0 0 1-2.762 3.314 1.028 1.028 0 0 1-.74.312zm-49.892-.099c-.215 0-.432-.067-.618-.205a41.534 41.534 0 0 1-3.281-2.712 1.038 1.038 0 0 1 1.404-1.528c.982.902 2.03 1.767 3.114 2.574a1.038 1.038 0 0 1-.619 1.871zm-58.372-.44c-.242 0-.485-.083-.682-.255a22.413 22.413 0 0 1-2.964-3.158 1.038 1.038 0 1 1 1.635-1.277 20.418 20.418 0 0 0 2.693 2.87 1.037 1.037 0 0 1-.682 1.82zm139.214-.195a1.04 1.04 0 0 1-1.02-.849 1.04 1.04 0 0 1 .833-1.21 47.235 47.235 0 0 0 3.955-.896 1.048 1.048 0 0 1 1.274.728 1.038 1.038 0 0 1-.729 1.275 50.463 50.463 0 0 1-4.126.936 1.18 1.18 0 0 1-.187.016zm-104.041-.902a1.038 1.038 0 0 1-.534-1.928 33.413 33.413 0 0 0 3.321-2.27 1.038 1.038 0 0 1 1.273 1.641 35.77 35.77 0 0 1-3.528 2.408c-.167.103-.35.149-.532.149zm83.574-.132c-.123 0-.248-.022-.37-.069a24.051 24.051 0 0 1-3.895-1.891 1.038 1.038 0 0 1 1.076-1.776 22.085 22.085 0 0 0 3.558 1.729 1.037 1.037 0 0 1-.369 2.007zm28.447-1.167a1.038 1.038 0 0 1-.374-2.007 34.6 34.6 0 0 0 3.668-1.656 1.037 1.037 0 1 1 .967 1.837 37.093 37.093 0 0 1-3.888 1.757 1.042 1.042 0 0 1-.373.069zm-94.926-2.767c-.286 0-.571-.118-.776-.349a40.885 40.885 0 0 1-2.656-3.328 1.037 1.037 0 0 1 1.688-1.208 38.351 38.351 0 0 0 2.52 3.158 1.038 1.038 0 0 1-.776 1.727zm59.444-.367c-.253 0-.508-.091-.707-.278a18.789 18.789 0 0 1-2.843-3.338 1.037 1.037 0 1 1 1.729-1.147c.616.928 1.345 1.81 2.173 2.625l.019-.043a22.183 22.183 0 0 0 1.398-3.705 1.05 1.05 0 0 1 1.276-.726c.553.154.878.726.725 1.277a24.414 24.414 0 0 1-1.527 4.054c-.227.47-.758.693-1.248.539a1.037 1.037 0 0 1-.995.742zm-70-.646a1.036 1.036 0 0 1-.733-1.771 31.26 31.26 0 0 0 2.65-3.012 1.04 1.04 0 0 1 1.456-.191 1.04 1.04 0 0 1 .19 1.455 32.707 32.707 0 0 1-2.831 3.215 1.033 1.033 0 0 1-.732.304zm112.791-.093a1.039 1.039 0 0 1-.602-1.883 26.623 26.623 0 0 0 3.068-2.546 1.038 1.038 0 0 1 1.443 1.491 28.333 28.333 0 0 1-3.309 2.744 1.024 1.024 0 0 1-.6.194zm-159.644-.181c-.356 0-.701-.182-.895-.511a54.658 54.658 0 0 1-1.991-3.736 1.038 1.038 0 0 1 1.864-.912 53.208 53.208 0 0 0 1.914 3.594 1.037 1.037 0 0 1-.892 1.565zm52.585-5.452c-.362 0-.713-.189-.904-.527a58.287 58.287 0 0 1-.229-.409 1.038 1.038 0 0 1-.585-1.106 36.641 36.641 0 0 1-1.077-2.311 1.037 1.037 0 0 1 .55-1.36 1.037 1.037 0 0 1 1.361.549c.104.247.214.497.325.744.24-.527.459-1.052.655-1.577a1.038 1.038 0 1 1 1.944.726 26.971 26.971 0 0 1-1.436 3.186c.098.178.198.359.298.537a1.038 1.038 0 0 1-.902 1.548zm112.987-.122a1.04 1.04 0 0 1-.831-1.658 24.185 24.185 0 0 0 2.107-3.373 1.037 1.037 0 0 1 1.845.951 26.305 26.305 0 0 1-2.287 3.663 1.04 1.04 0 0 1-.834.417zm-53.216-.379c-.439 0-.847-.28-.988-.722-.417-1.299-.628-2.576-.628-3.796 0-.229.008-.456.022-.679.039-.572.529-1.028 1.104-.967a1.04 1.04 0 0 1 .968 1.105 8.012 8.012 0 0 0-.018.541c0 1.005.178 2.069.529 3.164a1.039 1.039 0 0 1-.989 1.354zm-116.066-1.477a1.04 1.04 0 0 1-.948-.612l-1.7-3.788a1.037 1.037 0 1 1 1.889-.859l1.704 3.796a1.037 1.037 0 0 1-.945 1.463zm124.014-.308c-.017 0-.033 0-.051-.002a1.036 1.036 0 0 1-.987-1.086c.011-.235.017-.466.017-.693 0-1.151-.145-2.173-.432-3.032a1.039 1.039 0 0 1 1.97-.656c.357 1.072.537 2.315.537 3.689 0 .259-.006.523-.019.795a1.036 1.036 0 0 1-1.035.985zm49.047-5.189a1.038 1.038 0 0 1-.99-1.35c.709-2.254.801-3.798.801-3.815.031-.572.54-.981 1.09-.981.572.03 1.011.517.983 1.088-.004.071-.098 1.802-.894 4.331a1.04 1.04 0 0 1-.99.727zm-119.975-.166c-.456 0-.875-.304-1-.764-.414-1.524-.671-2.965-.76-4.289a1.038 1.038 0 1 1 2.072-.138c.08 1.184.312 2.489.691 3.879a1.038 1.038 0 0 1-1.003 1.312zm63.95-.71a1.038 1.038 0 0 1-.724-1.781c.951-.926 2.203-1.415 3.623-1.415.41.028.83.053 1.221.16.552.154.878.726.725 1.277-.152.553-.73.874-1.276.726-.209-.059-.407-.057-.668-.087-.882 0-1.614.278-2.178.827a1.03 1.03 0 0 1-.723.293zm-58.604-.251a1.037 1.037 0 0 1-1.027-1.196c.111-.726.168-1.427.168-2.084 0-.608-.049-1.182-.144-1.705a1.04 1.04 0 0 1 .836-1.208 1.05 1.05 0 0 1 1.207.835c.117.647.176 1.346.176 2.078 0 .762-.065 1.569-.193 2.4-.077.513-.519.88-1.023.88zm-61.909-.922c-.381 0-.748-.211-.929-.574a58.424 58.424 0 0 0-1.938-3.59 1.037 1.037 0 1 1 1.788-1.054 60.312 60.312 0 0 1 2.007 3.715 1.037 1.037 0 0 1-.928 1.503zm56.409-6.261a1.038 1.038 0 0 1-.913-1.531c.807-1.498 2.314-2.055 3.953-1.427.398.15.773.351 1.113.594a1.039 1.039 0 0 1-1.212 1.686 2.72 2.72 0 0 0-.637-.341 1.642 1.642 0 0 0-.58-.124c-.146 0-.489 0-.811.596a1.03 1.03 0 0 1-.913.547zm-60.659-.858c-.318 0-.632-.146-.835-.422a30.028 30.028 0 0 0-2.581-3.052 1.038 1.038 0 0 1 1.487-1.447c.96.987 1.889 2.086 2.762 3.267a1.036 1.036 0 0 1-.833 1.654zm-5.778-5.888c-.216 0-.433-.067-.619-.207a24.211 24.211 0 0 0-3.355-2.096 1.04 1.04 0 0 1-.446-1.399 1.036 1.036 0 0 1 1.399-.446 26.206 26.206 0 0 1 3.643 2.278 1.036 1.036 0 0 1-.622 1.87zm-7.296-3.796c-.11 0-.223-.018-.333-.055a30.666 30.666 0 0 0-3.857-1.026 1.037 1.037 0 1 1 .403-2.035c1.426.282 2.812.651 4.121 1.095a1.04 1.04 0 0 1-.334 2.021zm-8.079-1.646c-.031 0-.063-.002-.095-.004a47.452 47.452 0 0 0-4.052-.188 1.038 1.038 0 0 1 .006-2.076h.006a49.95 49.95 0 0 1 4.228.197 1.038 1.038 0 0 1-.093 2.071zM82.431 115.566a1.04 1.04 0 0 1-.993-1.34c.021-.067.514-1.676 1.564-4.007a1.038 1.038 0 0 1 1.893.851c-.991 2.201-1.466 3.746-1.472 3.76a1.036 1.036 0 0 1-.992.736zm44.53-.067a1.038 1.038 0 0 1-.156-2.064c1.152-.176 1.8-.75 1.979-1.757a1.038 1.038 0 0 1 2.043.365c-.334 1.879-1.686 3.136-3.708 3.444a1.07 1.07 0 0 1-.158.012zm-3.608-1.443c-.331 0-.658-.158-.858-.454-.731-1.072-1.21-2.546-1.427-4.38-.067-.57.34-1.084.909-1.151.571-.093 1.083.338 1.152.908.174 1.478.548 2.673 1.08 3.456a1.035 1.035 0 0 1-.856 1.621zm43.03-4.628c-1.015 0-2.032-.535-3.023-1.589a1.037 1.037 0 1 1 1.512-1.422c.568.604 1.104.936 1.511.936.077 0 .311 0 .616-.288a1.039 1.039 0 0 1 1.422 1.512c-.592.558-1.297.851-2.038.851zm-37.282-.559a1.04 1.04 0 0 1-.954-.626c-.467-1.082-1.145-2.199-2.013-3.322a1.037 1.037 0 1 1 1.641-1.269c.974 1.259 1.74 2.528 2.276 3.768a1.038 1.038 0 0 1-.95 1.449zm-43.273-.894a1.036 1.036 0 0 1-.901-1.551 40.14 40.14 0 0 1 2.297-3.594 1.031 1.031 0 0 1 1.449-.235c.464.334.57.983.235 1.447a37.941 37.941 0 0 0-2.178 3.407c-.19.338-.541.526-.902.526zm36.234-1.982a1.038 1.038 0 0 1-1.036-1.121c.109-1.364.323-2.793.635-4.242.006-.026.013-.055.021-.081-.45-.345-.915-.679-1.391-.999a1.04 1.04 0 0 1 1.159-1.723 29.53 29.53 0 0 1 3.385 2.655 1.037 1.037 0 0 1-1.344 1.581 29.722 29.722 0 0 0-.396 2.975 1.037 1.037 0 0 1-1.033.955zm47.236-.896a1.038 1.038 0 0 1-1.025-1.202 15.6 15.6 0 0 0 .182-2.45 20.132 20.132 0 0 0-.055-1.451 1.039 1.039 0 0 1 .959-1.113c.551-.053 1.069.387 1.111.959.041.549.06 1.084.061 1.603 0 .983-.07 1.917-.209 2.781-.082.51-.523.873-1.024.873zm-7.216-.505c-.45 0-.864-.294-.996-.748-.313-1.074-.473-2.254-.474-3.504 0-.316.01-.636.03-.961.036-.572.537-1.024 1.102-.969.573.036 1.006.529.97 1.103-.018.28-.026.555-.026.827.001 1.054.133 2.037.391 2.925a1.04 1.04 0 0 1-.997 1.327zm-71.383-3.33a1.038 1.038 0 0 1-.756-1.749 26.706 26.706 0 0 1 3.196-2.9 1.038 1.038 0 0 1 1.26 1.65 24.314 24.314 0 0 0-2.945 2.673 1.032 1.032 0 0 1-.755.326zm146.358-2.302c-.525 0-.972-.395-1.031-.924-.002-.014-.164-1.441-.737-3.673a1.039 1.039 0 0 1 2.011-.515c.588 2.29.796 3.904.796 4.076 0 .551-.431 1.003-.981 1.034-.02.002-.039.002-.058.002zm-113.276-1.077a1.04 1.04 0 0 1-.983-1.368 38.127 38.127 0 0 1 1.582-3.963c.24-.521.856-.748 1.378-.503.52.241.745.859.503 1.378a36.994 36.994 0 0 0-1.497 3.748c-.146.435-.55.708-.983.708zm-6.502-.235c-.153 0-.308-.034-.455-.105a30.996 30.996 0 0 0-3.712-1.524 1.036 1.036 0 0 1-.652-1.313 1.042 1.042 0 0 1 1.314-.653 33.31 33.31 0 0 1 3.962 1.626 1.037 1.037 0 0 1-.457 1.969zm51.482-.786c-.464 0-.886-.312-1.005-.784a23.614 23.614 0 0 0-1.295-3.756 1.037 1.037 0 0 1 1.899-.839 25.811 25.811 0 0 1 1.409 4.088 1.037 1.037 0 0 1-1.008 1.291zm-6.348-.454a1.037 1.037 0 0 1-.997-1.326 28.304 28.304 0 0 1 1.521-4.027c.24-.519.859-.744 1.377-.507.52.241.747.859.506 1.378a26.27 26.27 0 0 0-1.41 3.731 1.04 1.04 0 0 1-.997.751zM97.298 96.3a1.037 1.037 0 0 1-.451-1.972 19.083 19.083 0 0 1 4.133-1.435 1.034 1.034 0 0 1 1.237.79 1.036 1.036 0 0 1-.789 1.236 17.045 17.045 0 0 0-3.681 1.277 1.003 1.003 0 0 1-.449.104zm12.139-1.295c-.068 0-.137-.006-.207-.02a26.002 26.002 0 0 0-1.023-.188 19.165 19.165 0 0 0-2.902-.266 1.039 1.039 0 0 1 .013-2.076h.013c1.057.012 2.139.111 3.218.294.365.061.73.128 1.092.201.561.114.925.661.812 1.224a1.04 1.04 0 0 1-1.016.831zm125.628-3.835c-.425 0-.823-.261-.976-.685a41.029 41.029 0 0 0-1.565-3.738 1.039 1.039 0 0 1 1.872-.896 43.836 43.836 0 0 1 1.644 3.928 1.037 1.037 0 0 1-.975 1.391zm-107.777-.794a1.038 1.038 0 0 1-.88-1.585 31.324 31.324 0 0 1 2.505-3.486 1.038 1.038 0 0 1 1.597 1.325 29.4 29.4 0 0 0-2.339 3.255 1.038 1.038 0 0 1-.883.491zm38.123-1.064c-.334 0-.662-.16-.862-.458a21.01 21.01 0 0 0-2.497-3.061 1.038 1.038 0 0 1 1.475-1.459c.679.687 1.32 1.425 1.913 2.203a43.311 43.311 0 0 1 1.938-2.752 1.036 1.036 0 1 1 1.65 1.256 40.965 40.965 0 0 0-2.295 3.336 1.03 1.03 0 0 1-.402.377 1.044 1.044 0 0 1-.92.558zm-32.8-5.274a1.037 1.037 0 0 1-.678-1.824 22.134 22.134 0 0 1 3.545-2.509 1.037 1.037 0 1 1 1.022 1.808 19.917 19.917 0 0 0-3.211 2.274 1.042 1.042 0 0 1-.678.251zm98.869-.351c-.349 0-.688-.174-.885-.493a35.463 35.463 0 0 0-2.304-3.31 1.037 1.037 0 1 1 1.631-1.281 37.812 37.812 0 0 1 2.439 3.5 1.04 1.04 0 0 1-.881 1.584zm-71.87-.243a1.03 1.03 0 0 1-.585-.182 21.52 21.52 0 0 0-3.455-1.917 1.037 1.037 0 1 1 .839-1.897 23.446 23.446 0 0 1 3.787 2.104 1.037 1.037 0 0 1-.586 1.892zm11.26-1.174a1.036 1.036 0 0 1-.765-1.739 48.758 48.758 0 0 1 3-2.998 1.036 1.036 0 1 1 1.402 1.528 47.153 47.153 0 0 0-2.872 2.872 1.03 1.03 0 0 1-.765.337zm-18.795-2.185a1.02 1.02 0 0 1-.256-.032 28.68 28.68 0 0 0-3.936-.703 1.039 1.039 0 0 1 .225-2.063c1.456.16 2.876.413 4.222.756a1.036 1.036 0 0 1-.255 2.042zm-12.288-.081a1.039 1.039 0 0 1-.304-2.031 19.628 19.628 0 0 1 4.295-.799c.575-.032 1.068.389 1.11.961s-.388 1.068-.96 1.111a17.42 17.42 0 0 0-3.837.713 1.037 1.037 0 0 1-.304.045zm86.563-2.819c-.264 0-.528-.099-.731-.3a31.072 31.072 0 0 0-3.025-2.637 1.036 1.036 0 1 1 1.258-1.65 33.03 33.03 0 0 1 3.228 2.811 1.038 1.038 0 0 1-.73 1.776zm-49.367-.523a1.037 1.037 0 0 1-.636-1.858 48.15 48.15 0 0 1 3.468-2.442 1.036 1.036 0 1 1 1.119 1.747 47.082 47.082 0 0 0-3.318 2.337 1.038 1.038 0 0 1-.633.216zm6.985-4.469a1.037 1.037 0 0 1-.479-1.958 45.02 45.02 0 0 1 3.857-1.78 1.04 1.04 0 0 1 .778 1.926 43.247 43.247 0 0 0-3.679 1.694 1.014 1.014 0 0 1-.477.118zm35.798-.019c-.174 0-.352-.045-.514-.138a31.479 31.479 0 0 0-3.604-1.761 1.036 1.036 0 0 1-.562-1.354c.22-.531.828-.786 1.355-.563a33.323 33.323 0 0 1 3.841 1.879 1.036 1.036 0 0 1-.516 1.937zM191.655 69.1a1.038 1.038 0 0 1-.289-2.035 40.047 40.047 0 0 1 4.15-.963c.564-.12 1.102.278 1.202.841a1.04 1.04 0 0 1-.843 1.202 37.561 37.561 0 0 0-3.931.914 1.004 1.004 0 0 1-.289.041zm20.473-.087c-.092 0-.186-.012-.28-.039a37.287 37.287 0 0 0-3.935-.863 1.036 1.036 0 0 1-.855-1.192 1.027 1.027 0 0 1 1.192-.855c1.427.235 2.824.541 4.156.912.551.154.875.726.722 1.277a1.04 1.04 0 0 1-1 .76zm-12.316-1.338a1.038 1.038 0 0 1-.063-2.074 39.208 39.208 0 0 1 2.248-.067c.669 0 1.344.018 2.023.057.573.03 1.011.521.979 1.092-.031.572-.538 1.022-1.092.979a39.938 39.938 0 0 0-2.003-.053c-.682 0-1.357.022-2.027.063-.022.003-.044.003-.065.003z" style="" fill="#241726" data-original="#241726"></path></g></svg>