<svg xmlns="http://www.w3.org/2000/svg" version="1.1" xmlns:xlink="http://www.w3.org/1999/xlink" x="0" y="0" viewBox="0 0 512 512" style="enable-background:new 0 0 512 512" xml:space="preserve" class=""><g><path d="M37.035 512c-7.537 0-13.648-6.111-13.648-13.648V285.399c-6.684-7.171-9.71-16.831-7.688-25.868a27.385 27.385 0 0 1 1.635-4.974 47.721 47.721 0 0 1-10.99-16.943c-2.246-5.927-3.088-11.727-2.504-17.239.962-9.063 5.847-17.487 13.569-23.878a40.084 40.084 0 0 1-.791-5.137c-.462-5.342-.566-12.369 2.739-19.308 4.765-10.019 15.379-16.496 27.035-16.496.355 0 .713.005 1.071.019a32.9 32.9 0 0 1 8.401 1.414 249.997 249.997 0 0 1 29.798-42.12c10.823-12.331 22.73-23.481 35.399-33.156a203.504 203.504 0 0 1 9.999-7.264c.322-.233.744-.532 1.255-.85a214.942 214.942 0 0 1 5.469-3.589C144.134 30.216 178.886 0 219.872 0c1.122 0 2.235.027 3.343.071A84.2 84.2 0 0 1 226.558 0c26.846 0 51.446 12.592 67.087 34.012 54.212 6.388 105.058 31.624 143.8 71.513 45.719 47.099 70.895 109.674 70.895 176.201v216.625c0 7.537-6.111 13.648-13.648 13.648H37.035z" style="" fill="#ffffff" data-original="#ffffff" class=""></path><path d="M496.24 281.727v146.836l-348.285 16.493-109.371-16.493V281.727c0-60.735 22.292-116.08 58.893-157.867 10.123-11.533 21.292-22.042 33.416-31.3a189.287 189.287 0 0 1 9.554-6.938c.25-.182.523-.387.774-.523 36.191-24.681 79.548-39.08 126.18-39.08 63.192 0 120.402 26.387 161.802 69.016 41.423 42.674 67.037 101.589 67.037 166.692z" style="" fill="#bacde5" data-original="#bacde5"></path><path d="M477.262 442.871a1.137 1.137 0 0 1-1.137-1.114l-4.638-224.921-92.546-102.319-75.261 52.854a1.137 1.137 0 0 1-1.307-1.862l76.083-53.432a1.135 1.135 0 0 1 1.497.168l93.505 103.38c.184.203.289.465.294.74L478.4 441.71a1.139 1.139 0 0 1-1.114 1.161h-.024z" style="" fill="#5a2250" data-original="#5a2250"></path><path d="M384.917 114.461a6.098 6.098 0 1 1-12.196 0 6.098 6.098 0 0 1 12.196 0zM477.262 216.389a6.098 6.098 0 1 1-12.196 0 6.098 6.098 0 0 1 12.196 0zM332.161 143.433l4.017 3.331a9.073 9.073 0 0 1 2.552 10.551 11.727 11.727 0 0 1 3.415 13.18l-21.027 54.899-31.563-39.033-42.262-20.389 58.729-25.076a11.726 11.726 0 0 1 11.422 1.243l2.439 1.742 1.284-.898a9.074 9.074 0 0 1 10.994.45z" style="" fill="#5a2250" data-original="#5a2250"></path><path d="m321.13 225.383-31.778-25.568-6.347-5.118-35.713-28.73s20.131 2.343 38.284 13.899a69.769 69.769 0 0 1 10.487 8.075 112.66 112.66 0 0 1 5.687 5.755c15.104 16.537 19.38 31.687 19.38 31.687z" style="" fill="#ff9fc6" data-original="#ff9fc6"></path><path d="M301.749 193.696a30.812 30.812 0 0 1-4.8 3.776c-2.275 1.41-5.027 2.525-7.598 2.343a7.38 7.38 0 0 1-2.479-.637c-1.843-.864-3.185-2.57-3.867-4.481a6.8 6.8 0 0 1-.409-1.319c-.523-2.434-.205-4.982.409-7.393.387-1.547 1.297-3.708 2.57-6.119a69.769 69.769 0 0 1 10.487 8.075 111.838 111.838 0 0 1 5.687 5.755z" style="" fill="#ffe8d1" data-original="#ffe8d1"></path><path d="M38.584 428.563h457.655v69.789H38.584z" style="" fill="#ae85a6" data-original="#ae85a6"></path><path d="M97.912 299.499c-.469-3.175-.881-6.506.219-9.522s4.219-5.548 7.355-4.864c2.072-6.727 8.162-12.041 15.107-13.184 1.383-.228 2.815-.3 4.174.038 4.105 1.019 6.516 5.678 6.171 9.893-.345 4.215-2.826 7.96-5.661 11.098 1.353 1.606 2.699 3.277 3.432 5.245.732 1.969.76 4.315-.429 6.046-1.323 1.927-3.775 2.671-6.053 3.199a92.546 92.546 0 0 1-19.066 2.384c-2.157.042-4.012.136-4.653-2.234-.658-2.426-.219-5.546-.596-8.099zM73.698 285.005a176.4 176.4 0 0 1-15.762-.568c-6.639-.537-13.485-1.534-19.11-5.1s-9.714-10.329-8.259-16.828c.97-4.334 4.125-7.795 7.161-11.037-7.836-3.896-13.973-10.511-17.074-18.694-1.323-3.491-2.087-7.254-1.693-10.966.921-8.667 8.003-15.584 15.868-19.338-1.119-4.187-2.696-7.965-3.067-12.283-.357-4.154-.328-8.506 1.464-12.27 2.669-5.609 9.09-8.928 15.297-8.707 6.207.221 12.042 3.613 16.056 8.353 4.014 4.74 6.345 10.72 7.576 16.808 4.475-1.595 9.551 1.187 12.865 4.591 5.25 5.393 7.515 13.222 7.214 20.743-.301 7.52-2.955 14.777-6.437 21.449 3.649.262 6.896 2.39 8.668 5.59 2.073 3.743 1.805 8.345.85 12.516-2.465 10.762-12.334 19.762-21.617 25.741z" style="" fill="#7eb291" data-original="#7eb291"></path><path d="M105.895 239.63a176.205 176.205 0 0 0 15.714 1.346c6.655.272 13.571.112 19.588-2.745s10.895-9.075 10.238-15.703c-.437-4.42-3.15-8.238-5.77-11.823 8.25-2.917 15.144-8.74 19.214-16.487 1.736-3.305 2.951-6.948 3.009-10.68.137-8.714-6.055-16.44-13.407-21.119 1.619-4.02 3.642-7.579 4.534-11.821.858-4.08 1.356-8.403.034-12.358-1.969-5.891-7.94-9.963-14.129-10.497-6.188-.533-12.392 2.126-16.95 6.345-4.559 4.219-7.597 9.872-9.558 15.765-4.248-2.126-9.624.021-13.326 2.998-5.865 4.717-9.063 12.214-9.675 19.715-.613 7.501 1.142 15.026 3.79 22.071-3.653-.182-7.135 1.536-9.282 4.498-2.511 3.464-2.803 8.065-2.361 12.32 1.141 10.985 9.847 21.115 18.337 28.175z" style="" fill="#7eb291" data-original="#7eb291"></path><path d="m164.232 377.686-8.921 35.515c-2.406 5.855-5.366 11.477-8.985 16.48-.32.447-.639.894-.98 1.341l-20.803 16.033c-.341.17-.681.277-1.022.405-6.238 2.214-13.393 3.172-21.611 2.448a63.265 63.265 0 0 1-9.156-1.448L63.86 431.235c-6.026-6.835-10.284-14.926-13.308-23.208-.255-.639-.468-1.256-.702-1.874l-6.409-34.174c-.064-.894-.085-1.789-.128-2.64-.362-8.134.043-13.499.043-13.499l57.838 2.281 64.57-2.281c.001.001.129 9.177-1.532 21.846z" style="" fill="#ffb05c" data-original="#ffb05c"></path><path d="M125.672 362.186c0 .937-.064 1.853-.213 2.747-1.32 8.9-9.007 15.735-18.269 15.735-8.751 0-16.076-6.09-17.992-14.244a18.624 18.624 0 0 1-.49-4.237c0-2.236.383-4.365 1.129-6.345h34.706c.746 1.979 1.129 4.108 1.129 6.344z" style="" fill="#ffe8d1" data-original="#ffe8d1"></path><path d="M165.765 355.841s-15.692 5.813-40.306 9.092a241.972 241.972 0 0 1-17.311 1.703c-6.515.405-12.882.277-18.95-.213-25.827-2.087-45.842-10.582-45.842-10.582h122.409z" style="" fill="#5a2250" data-original="#5a2250"></path><path d="M71.313 387.906c0 10.22-8.283 18.482-18.482 18.482-1.022 0-2.023-.085-2.981-.234-.107-.341-.234-.703-.341-1.043-3.875-11.647-5.451-23.464-6.026-32.598-.021-.17-.021-.362-.042-.532a18.462 18.462 0 0 1 9.39-2.555c10.2-.001 18.482 8.282 18.482 18.48z" style="" fill="#ffe8d1" data-original="#ffe8d1"></path><circle cx="105.736" cy="406.755" r="18.483" style="" transform="rotate(-22.5 105.729 406.736)" fill="#ffe8d1" data-original="#ffe8d1"></circle><path d="M164.232 377.686c-.043.511-.128 1.022-.192 1.554a96.174 96.174 0 0 1-.511 3.322v.043c-1.49 9.518-4.003 20.398-8.219 30.597-9.326-.958-16.587-8.836-16.587-18.397 0-10.22 8.261-18.503 18.481-18.503 2.493 0 4.857.49 7.028 1.384zM145.346 431.023c-.49.66-1.001 1.299-1.533 1.916-4.748 5.749-10.582 10.454-17.672 13.499-.532.234-1.043.447-1.597.618 1.107-9.134 8.9-16.203 18.333-16.203.83 0 1.66.064 2.469.17zM92.861 446.439c0 .682-.042 1.363-.106 2.023-10.667-2.449-19.078-7.41-25.657-13.776a33.25 33.25 0 0 1-2.087-2.172c-.383-.426-.788-.852-1.15-1.277a18.448 18.448 0 0 1 10.518-3.279c10.221-.001 18.482 8.282 18.482 18.481z" style="" fill="#ffe8d1" data-original="#ffe8d1"></path><path d="M86.391 362.825a.853.853 0 0 1-.847-.765 677.389 677.389 0 0 0-30.597-142.932.85.85 0 0 1 .542-1.077.845.845 0 0 1 1.077.542 679.089 679.089 0 0 1 30.675 143.292.852.852 0 0 1-.85.94zM90.163 360.507h-.014a.855.855 0 0 1-.839-.867c1.006-59.368 12.539-117.486 34.276-172.738a.853.853 0 0 1 1.588.624c-21.662 55.063-33.155 112.98-34.158 172.143a.853.853 0 0 1-.853.838z" style="" fill="#5a2250" data-original="#5a2250"></path><path d="M91.475 332.541a.853.853 0 0 1-.823-1.076 110.365 110.365 0 0 1 26.151-46.694.853.853 0 0 1 1.242 1.17 108.66 108.66 0 0 0-25.746 45.97.855.855 0 0 1-.824.63z" style="" fill="#5a2250" data-original="#5a2250"></path><path d="M496.24 482.52v4.322c-70.221 3.503-169.491 8.371-175.224 8.121-8.894-.387-168.649-55.89-168.649-55.89l-.637-5.164 46.951 2.98 7.302.751 16.355 1.706 5.642.591 30.004 3.139 7.029.728 29.708 3.116 4.436.455 28.321 2.957 7.029.728 17.311 1.82 3.48.364 41.696 4.345 4.731.5 2.32.25 39.649 4.14 3.253.341 10.85 1.137 7.052.728 31.391 17.835z" style="" fill="#ff9fc6" data-original="#ff9fc6"></path><path d="m442.965 428.563 53.274 20.495v33.461l-170.947 8.007c-11.715 2.343-173.13-56.436-173.13-56.436-.227-.068-.341-.114-.432-.182l-.068-.523c0-.091 0-.182-.023-.318v-.114l-.114-.705-.046-.296-.591-3.389-32.483-187.439a2.262 2.262 0 0 1 2.229-2.661l264.348-.591c1.069 0 2.025.773 2.229 1.843l35.395 179.887c.091.455.318.842.637 1.137.228.25.501.432.796.546l.523.205 18.403 7.073z" style="" fill="#5a2250" data-original="#5a2250"></path><path d="M152.216 433.59a.57.57 0 0 1-.569-.544.57.57 0 0 1 .544-.593l271.818-11.746a.57.57 0 0 1 .049 1.137L152.24 433.59h-.024z" style="" fill="#ffe8d1" data-original="#ffe8d1"></path><path d="m411.238 413.276-3.662.205-278.042-160.915-.546-3.071 249.744-1.547z" style="" fill="#ff9fc6" data-original="#ff9fc6"></path><path d="m407.576 413.481-246.833 13.74-31.209-174.655 246.081-1.524zM215.423 437.139l3.207-.182 45.927-2.479.569-.023h.023l43.334-2.366 1.41-.068 36.578-1.979 1.115-.068h.023l26.092-1.41 2.525-.137 1.774-.091 27.069-1.456 2.343-.136h.023l16.492-.887 6.779 2.707 10.009 4.004 2.502.978 22.156 8.849 2.502 1.001 22.156 8.849 2.502 1.001 3.708 1.479v-1.228l-1.024-.409-2.502-1.001-22.156-8.849-2.502-1.001-22.133-8.826-2.502-1.001-9.622-3.844-9.577-3.822c-.068-.023-.137-.045-.227-.023l-18.698 1.001-1.137.068-51.364 2.775-137.235 7.416h-.023l-.455.023h-.023l-16.378.887-18.243.978a.56.56 0 0 0-.523.5.554.554 0 0 0 .387.614l23.885 7.188 3.185.955 28.184 8.508 3.185.955 28.184 8.485 3.184.955 27.138 8.189a.382.382 0 0 0 .159.023h.046l28.866-1.661h.023l3.162-.182h.045l28.025-1.592 2.798-.159 26.251-1.501h.023l2.366-.137h.023l31.164-1.774 2.275-.136h.023l27.342-1.547 2.298-.136 12.716-.728 16.765-.955 2.343-.136 12.284-.705v-1.137l-14.422.819-2.343.136-21.679 1.251-7.711.432-2.32.114h-.023l-27.32 1.57h-.028l-2.275.137-31.278 1.774h-.023l-2.366.136h-.023l-26.66 1.547h-.023l-2.753.159h-.023l-28.457 1.615-3.185.182-25.864 1.479-24.067-7.256-3.184-.955-28.207-8.485-3.162-.955-28.207-8.508-3.185-.955-23.703-7.143 22.224-1.206 9.444-.504z" style="" fill="#ffe8d1" data-original="#ffe8d1"></path><path d="m270.727 453.608 2.98.955-3.162.182h-.023l-2.98-.955h-.023l-26.819-8.576-3.003-.955h-.023l-22.247-7.12-.273-.091a.561.561 0 0 1-.364-.705.518.518 0 0 1 .273-.341h.023a.51.51 0 0 1 .409-.045l.045.023h.023l3.071.978 22.201 7.097h.023l3.025.978 26.819 8.576h.025zM329.506 472.397l-3.161.182h-.023l-2.98-.955-22.93-7.325-3.025-.978 3.162-.182 3.025.978h.023l22.93 7.325zM360.375 470.645l-2.798.159-2.57-.978h-.023l-19.79-7.529h-.023l-2.593-1.001h-.023l-23.111-8.78-2.593-1.001h-.023l-23.111-8.78-2.57-.978h-.023l-16.446-6.256a.599.599 0 0 1-.113-1.024.6.6 0 0 1 .523-.045l.046.023h.023l18.744 7.143h.046l2.57.978 23.111 8.781 2.616 1.001 23.111 8.78 2.616 1.001h.023l19.768 7.529h.023l2.59.977zM444.745 444.713l-2.32.136h-.023l-2.093-1.001-18.767-9.053h-.023l-2.093-1.001-14.354-6.915-.66-.318c-.273-.137-.409-.478-.273-.751 0 0 0-.023.023-.023.159-.273.455-.387.751-.25l.387.182 2.116 1.024h.023l14.331 6.915 2.093 1.001h.023l18.767 9.053 2.092 1.001zM483.961 463.594l-2.343.136-2.138-1.023-16.151-7.78h-.022l-2.116-1.024 2.343-.136 2.116 1.023h.022l16.151 7.78zM452.138 465.414l-2.297.136-2.07-1.046h-.023l-15.582-7.802h-.023l-2.025-1.024h-.023l-18.107-9.076h-.023l-2.025-1.024h-.023l-18.107-9.053h-.023l-2.025-1.024h-.023l-13.216-6.62a.523.523 0 0 1-.296-.455.451.451 0 0 1 .046-.296.573.573 0 0 1 .773-.273l.955.478 14.035 7.029h.023l2.025 1.024h.023l18.13 9.076h.023l2.025 1.024h.023l18.107 9.076h.023l2.002 1.001h.023l15.627 7.825 2.048 1.024zM402.662 457.27l2.047 1.024-2.275.136h-.023l-2.047-1.024h-.023l-18.266-9.076h-.023l-2.047-1.024h-.023l-18.243-9.053h-.023l-2.047-1.024h-.023l-12.921-6.415a.555.555 0 0 1-.273-.751s0-.023.023-.023c.159-.273.478-.387.751-.25l.364.182h.023l14.331 7.12 2.07 1.024 18.266 9.053h.023l2.047 1.024h.023l18.266 9.076h.023zM422.475 467.097l-2.275.136-2.07-1.023 2.275-.137h.023zM368.154 459.249l2.161 1.024-2.388.136-2.161-1.024h-.023l-19.267-9.008-2.161-1.001h-.023l-19.244-9.008h-.023l-2.184-1.024-14.058-6.574a.56.56 0 0 1-.296-.682c0-.023 0-.068.023-.091.137-.273.478-.409.751-.273l.637.296 15.354 7.188h.023l2.161 1.024h.023l19.244 9.008h.023l2.138 1.001h.023l19.244 9.008h.023zM389.014 469.008l-2.366.136h-.023l-2.161-1.024 2.366-.136h.023z" style="" fill="#ffe8d1" data-original="#ffe8d1"></path><path d="m445.928 433.408-2.707.136-19.336 1.115h-.022l-2.321.137h-.022l-27.411 1.592h-.023l-2.274.136h-.023l-27.775 1.593-2.274.136h-.023l-34.258 1.979h-.023l-2.388.137h-.023l-38.511 2.206-2.798.159-39.831 2.298-3.184.182-30.05 1.729-3.275.182-3.185-.956 3.276-.182 30.208-1.729h.023l3.139-.204h.023l40.263-2.298h.022l2.753-.159h.045l38.898-2.252 2.412-.137h.022l34.372-1.979h.022l2.275-.136 27.798-1.592h.022l2.275-.137h.023l27.365-1.569 2.343-.137 18.949-1.092 2.707-.159zM444.745 444.713l-2.32.137h-.023l-28.093 1.638h-.023l-2.297.113h-.023l-27.593 1.593h-.023l-2.274.136h-.023l-33.166 1.911h-.023l-2.388.136-34.235 1.98-2.798.159-35.713 2.047h-.023l-3.162.182h-.023l-28.502 1.661-3.276.182-3.184-.956 3.298-.182 28.662-1.66h.022l3.162-.182h.023l36.1-2.093h.023l2.775-.159 34.667-1.979h.023l2.388-.137h.023l33.257-1.933h.023l2.274-.137h.023l27.616-1.592h.022l2.298-.114h.023l28.047-1.615 2.343-.137zM470.563 443.235l-2.684.159-2.502-1.001 2.684-.159zM495.221 453.084l-2.684.16-26.865 1.546h-.022l-2.321.137h-.022l-28.844 1.638h-.023l-2.274.136h-.023l-27.434 1.593-2.274.136h-.023l-32.074 1.843h-.023l-2.388.136-29.936 1.729h-.023l-2.775.159h-.022l-31.574 1.82h-.023l-3.162.182-27.001 1.547-3.298.182-3.185-.956 3.299-.182 27.137-1.569h.023l3.162-.182 32.006-1.843h.022l2.776-.159 30.39-1.752h.023l2.366-.136h.022l32.188-1.843h.023l2.274-.136h.023l27.434-1.592h.022l2.298-.114h.022l28.753-1.661 2.343-.136 26.501-1.524 2.684-.159z" style="" fill="#ffe8d1" data-original="#ffe8d1"></path><path d="M192.871 355.051H277.6c-13.738-18.517-21.252-40.503-22.005-63.548h-85.182c-4.947 23.701 3.78 48.143 22.458 63.548z" style="" fill="#ffb05c" data-original="#ffb05c"></path><path d="m204.196 285.793-.29 11.035h20.037l.871-11.035z" style="" fill="#ffffff" data-original="#ffffff" class=""></path><path d="M311.351 395.126h84.729c-13.738-18.517-21.252-40.503-22.004-63.548h-85.182c-4.948 23.7 3.779 48.142 22.457 63.548z" style="" fill="#bacde5" data-original="#bacde5"></path><path d="m322.677 325.867-.291 11.035h20.037l.871-11.035z" style="" fill="#ffffff" data-original="#ffffff" class=""></path><circle cx="221.421" cy="83.148" r="69.499" style="" transform="rotate(-68.814 221.421 83.15)" fill="#5a2250" data-original="#5a2250"></circle><circle cx="228.106" cy="83.148" r="69.499" style="" transform="rotate(-77.056 228.105 83.146)" fill="#ffb05c" data-original="#ffb05c"></circle><path d="M287.905 83.143c0 .619 0 1.239-.039 1.858H168.344c-.039-.619-.039-1.239-.039-1.858 0-33.016 26.784-59.78 59.8-59.78s59.8 26.764 59.8 59.78z" style="" fill="#5a2250" data-original="#5a2250"></path><ellipse cx="228.105" cy="85.001" rx="59.761" ry="57.942" style="" fill="#ffe8d1" data-original="#ffe8d1"></ellipse><path d="M232.188 83.259a4.082 4.082 0 1 1-8.164 0 4.082 4.082 0 0 1 8.164 0z" style="" fill="#5a2250" data-original="#5a2250"></path><path d="M227.772 91.897a.972.972 0 0 1-.972-.969l-.024-29.651a.972.972 0 0 1 1.944 0l.024 29.644a.97.97 0 0 1-.969.975l-.003.001z" style="" fill="#5a2250" data-original="#5a2250"></path><path d="M219.195 84.496a.972.972 0 0 1-.003-1.944l45.474-.023a.972.972 0 0 1 0 1.944l-45.467.023h-.004zM228.189 43.082a.972.972 0 0 1-.972-.972v-9.267a.972.972 0 0 1 1.944 0v9.267a.972.972 0 0 1-.972.972zM228.189 133.542a.972.972 0 0 1-.972-.972v-9.267a.972.972 0 0 1 1.944 0v9.267a.972.972 0 0 1-.972.972zM256.896 54.972a.972.972 0 0 1-.688-1.659l6.552-6.552a.972.972 0 1 1 1.375 1.375l-6.552 6.552a.967.967 0 0 1-.687.284zM192.931 118.937a.972.972 0 0 1-.688-1.659l6.552-6.552a.972.972 0 1 1 1.375 1.375l-6.552 6.552a.967.967 0 0 1-.687.284zM278.053 83.679h-9.267a.972.972 0 0 1 0-1.944h9.267a.972.972 0 0 1 0 1.944zM187.593 83.679h-9.267a.972.972 0 0 1 0-1.944h9.267a.972.972 0 0 1 0 1.944zM263.448 118.937a.969.969 0 0 1-.688-.284l-6.552-6.552a.972.972 0 1 1 1.375-1.375l6.552 6.552a.972.972 0 0 1-.687 1.659zM199.483 54.972a.969.969 0 0 1-.688-.284l-6.552-6.552a.972.972 0 1 1 1.375-1.375l6.552 6.552a.972.972 0 0 1-.687 1.659z" style="" fill="#5a2250" data-original="#5a2250"></path><path d="M52.127 471.16H195v11.228H52.127z" style="" fill="#ffb05c" data-original="#ffb05c"></path><path d="M52.127 477.161H195v5.227H52.127z" style="opacity:0.28;" fill="#5a2250" data-original="#5a2250"></path><path d="M195 475.02H52.321a.569.569 0 1 1 0-1.138H195a.569.569 0 1 1 0 1.138zM195 480.247H52.321a.569.569 0 1 1 0-1.138H195a.569.569 0 1 1 0 1.138z" style="" fill="#5a2250" data-original="#5a2250"></path><path d="m212.238 476.287-7.87 2.775-9.372 3.322v-11.215l9.417 2.798z" style="" fill="#ff8d9e" data-original="#ff8d9e"></path><path d="m212.238 476.287-7.871 2.775c-.341-1.683-.341-3.458.046-5.095l7.825 2.32z" style="" fill="#5a2250" data-original="#5a2250"></path><path d="m429.658 193.524 2.908.851c.686.201.694 1.17.011 1.381l-2.838.879a15.144 15.144 0 0 0-9.827 9.497l-1.32 3.799c-.23.663-1.176.64-1.374-.034l-.89-3.043a15.146 15.146 0 0 0-10.282-10.282l-2.842-.832c-.691-.202-.691-1.182 0-1.384l2.842-.832a15.146 15.146 0 0 0 10.282-10.282l.832-2.842c.202-.692 1.182-.692 1.384 0l.832 2.842a15.144 15.144 0 0 0 10.282 10.282zM453.664 343.754l2.908.851c.686.201.694 1.17.011 1.381l-2.838.879a15.144 15.144 0 0 0-9.827 9.497l-1.32 3.799c-.23.663-1.176.64-1.374-.034l-.89-3.043a15.146 15.146 0 0 0-10.282-10.282l-2.842-.832c-.692-.202-.692-1.182 0-1.384l2.842-.832a15.146 15.146 0 0 0 10.282-10.282l.832-2.842c.202-.692 1.182-.692 1.384 0l.832 2.842a15.144 15.144 0 0 0 10.282 10.282zM217.478 191.201l2.908.851c.686.201.694 1.17.011 1.381l-2.838.879a15.144 15.144 0 0 0-9.827 9.497l-1.32 3.799c-.23.663-1.176.64-1.373-.034l-.89-3.043a15.146 15.146 0 0 0-10.282-10.282l-2.842-.832c-.692-.202-.692-1.182 0-1.384l2.842-.832a15.146 15.146 0 0 0 10.282-10.282l.832-2.842c.202-.692 1.182-.692 1.384 0l.832 2.842a15.14 15.14 0 0 0 10.281 10.282zM159.685 466.5l2.908.851c.686.201.694 1.17.011 1.381l-2.838.879a15.144 15.144 0 0 0-9.827 9.497l-1.32 3.799c-.23.663-1.176.64-1.373-.034l-.89-3.043a15.146 15.146 0 0 0-10.282-10.282l-2.842-.832c-.692-.202-.692-1.182 0-1.384l2.842-.832a15.146 15.146 0 0 0 10.282-10.282l.832-2.842c.202-.691 1.182-.691 1.384 0l.832 2.842a15.14 15.14 0 0 0 10.281 10.282zM332.473 87.822l2.908.851c.686.201.694 1.17.011 1.381l-2.838.879a15.144 15.144 0 0 0-9.827 9.497l-1.32 3.799c-.23.663-1.176.64-1.374-.034l-.89-3.043a15.146 15.146 0 0 0-10.282-10.282l-2.842-.832c-.692-.202-.692-1.182 0-1.384l2.842-.832a15.146 15.146 0 0 0 10.282-10.282l.832-2.842c.202-.692 1.182-.692 1.384 0l.832 2.842a15.148 15.148 0 0 0 10.282 10.282z" style="" fill="#ffe8d1" data-original="#ffe8d1"></path></g></svg>