<svg xmlns="http://www.w3.org/2000/svg" version="1.1" xmlns:xlink="http://www.w3.org/1999/xlink" width="512" height="512" x="0" y="0" viewBox="0 0 512 512" style="enable-background:new 0 0 512 512" xml:space="preserve"><g><path d="M503.056 322.637c.442-17.502 11.468-32.561 8.408-51.441-3.591-22.784-24.482-38.2-47.723-42.064-6.61-1.239-13.445-1.703-19.857-2.962 15.945-2.283 27.925-18.744 16.618-31.929-3.601-4.196-8.339-6.576-13.402-6.761 23.273-5.906 40.687-31.545 20.908-49.197-7.708-6.703-17.142-8.704-26.267-5.174-19.44-24.083-53.312-2.51-43.982 25.445-3.291-1.665-7.199-2.484-11.017-2.146-.258-76.912-98.316-109.413-144.374-48.04-44.108-56.965-136.604-29.732-142.965 41.97-3.88-.616-7.996.146-11.402 1.977-5.158-2.577-11.083-2.367-16.373.211-15.219 7.288-11.546 26.539 1.469 35.287-7.962-1.672-15.608.677-22.205 6.36-19.773 17.65-2.378 43.277 20.892 49.192-3.59 4.006-8.014 10.232-6.242 16.117-8.106 8.449-14.448 18.202-19.044 29.182-25.034-5.855-53.609 24.227-44.899 54.187 5.157 20.132 26.33 33.899 46.808 30.61 7.366 18.022 18.962 31.396 34.375 40.327 49.026 36.453 125.678 26.176 159.505-37.003 35.353 69.091 122.648 76.298 170.177 27.608 32.057 5.919 86.416-1.283 95.751-35.252 4.691-16.766-4.318-31.214-5.159-46.504z" style="" fill="#ffffff" data-original="#ffffff"></path><path d="M376.589 149.72c-3.282-35.227-33.092-62.916-68.467-63.645-29.198-.59-54.341 16.551-65.562 41.305-12.165-25.355-39.119-42.259-69.583-39.629-32.418 2.782-59.062 28.097-63.423 60.333-1.54 11.485-.272 22.495 3.149 32.492.054.13.055.26.109.39.054.156.133.285.187.441a71.53 71.53 0 0 0 3.451 8.067 222.611 222.611 0 0 0 9.514 18.973c9.944 17.743 22.113 33.977 36.479 48.674 18.633 19.096 40.936 35.656 66.695 49.85-5.089 4.595-9.435 9.639-10.509 16.135-1.032 6.241 2.148 13.598 8.755 15.055 5.725 1.263 12.089-2.745 13.423-8.454 1.034 4.199 4.144 7.832 8.134 9.501 6.522 2.729 15.483-.084 17.34-7.396.844-3.325.296-6.641-.893-9.844-1.588-4.28-4.318-8.359-6.398-11.995-.02-.035-.073-.114-.104-.163 23.636-17.251 44.225-34.932 61.52-53.053 16.155-16.911 29.465-34.182 39.929-51.89v-.026a219.468 219.468 0 0 0 8.249-15.338 78.6 78.6 0 0 0 2.295-4.717s0-.026.025-.026c4.678-10.581 6.84-22.516 5.685-35.04z" style="" fill="#f53432" data-original="#f53432"></path><g style="opacity:0.29;"><path d="M325.516 100.515c-1.206-.894-.455-2.837 1.033-2.64 16.488 2.177 35.275 22.764 38.968 37.037 3.736 14.517 1.924 29.062-4.616 42.175-.653 1.309-2.622.968-2.782-.486-.973-8.85-3.36-27.995-6.745-38.09-7.353-21.93-19.524-33.299-25.858-37.996z" style="" fill="#ffffff" data-original="#ffffff"></path></g><g style="opacity:0.29;"><path d="M355.694 195.296c9.42 2.076 12.662-12.561 3.226-14.64-9.42-2.076-12.662 12.561-3.226 14.64z" style="" fill="#ffffff" data-original="#ffffff"></path></g><path d="M145.556 185.59c-2.051.017-3.532-2.154-3.433-4.081l-.39-6.478c-3.138-1.194-3.431-5.721-.13-6.868l.065-.648.325-18.268c-.172-1.141-1.488-2.094-1.297-3.305.085-3.114 3.15-3.59 5.895-3.951 4.897-.682 9.403.502 13.93 3.303 6.355 3.867 7.3 12.716 3.821 18.981-2.884 6.229-8.609 9.305-15.483 10.365-.419 3.516 2.22 10.7-3.303 10.95zm3.175-18.204c.143-.021.279.104.388 0 6.352-.758 10.897-6.381 10.041-12.568-1.032-4.542-6.234-5.703-10.171-6.025l-.258 18.593zM175.162 184.359c-3.135-.262-3.275-2.999-2.787-5.441-.043-7.197.236-21.483-.453-28.311-.038-.628-.388-2.662-.39-3.175-.032-1.665 1.13-3.907 3.045-3.951 3.897-.431 11.023-.967 14.965.128 3.079 1.34 2.062 6.326-1.36 6.155l-1.943-.065c-1.877.042-5.881-.095-7.775.065l.518 9.848c3.241-.081 6.147-.325 10.042-.13 2.479.432 3.652 3.711 1.813 5.474-.604.626-1.382.962-2.332 1.004-1.618.058-7.835.054-9.393.26-.13.388-.195 2.915-.195 7.578 0 2.118.022 3.326.065 3.629.358.003.745.088 1.167 0l8.745-.26h.648c3.745.137 4.214 5.659.518 6.413-3.423.338-11.541.425-14.898.779zM206.969 186.174c-2.15.964-4.736-.791-4.73-3.175l.065-2.267.13-9.848-.065-.388c-3.796-.833-3.916-5.865-.13-6.803-.128-4.577-.431-8.745-.906-12.503l-.39-.065c-2.592-.058-4.022-3.455-2.46-5.441 1.378-2.033 4.028-2.579 6.153-2.98 5.774-.98 12.16-1.394 17.103 1.943 10.655 7.355 6.305 21.011-4.988 24.358 3.56 2.374 8.061 6.617 12.178 9.944 1.965 2.754-1.204 6.534-4.275 5.344-.821-.215-1.555-.689-2.202-1.425-3.547-3.667-7.498-6.752-12.568-10.236l-.388-.195c-.082.48-.115 3.337-.13 3.887-.387 1.995 1.175 8.72-2.397 9.85zm2.397-22.675c5.03-1.002 8.383-1.194 10.753-5.246 2.351-4.466-1.443-8.873-6.413-9.33-1.766-.084-3.585-.088-5.442.26.519 6.306.886 11.078 1.102 14.316zM238.971 184.424c-4.54.057-3.154-6.204-2.98-8.551.142-3.676.5-6.101-.13-10.107-.723-1.151-.183-2.285 0-3.498-.106-2.879-.367-6.651-.713-12.113a16.191 16.191 0 0 0-.39-2.915c-.389-1.905 1.082-3.619 2.98-3.822 4.181-.331 8.628-1.07 13.151.193 2.508 1.234 2.42 5.181-.258 6.025-.759.516-1.93.088-2.785 0h-5.702l-.388.065.583 10.43h.39l5.311-.583c.994-.13 1.868.108 2.624.713 1.567 1.167 1.488 3.912-.097 5.053-1.764 1.197-5.817 1.092-7.45 1.36-.173.086-.303.13-.388.13.034 3.852-.062 5.649-.325 10.625-.15 3.199.283 6.689-3.433 6.995zM261.514 184.359c-3.135-.262-3.275-2.999-2.787-5.441-.043-7.197.236-21.483-.453-28.311-.038-.628-.388-2.662-.39-3.175-.032-1.665 1.13-3.907 3.045-3.951 3.897-.431 11.023-.967 14.965.128 3.079 1.34 2.062 6.326-1.36 6.155l-1.943-.065c-1.877.042-5.881-.095-7.775.065l.518 9.848c3.241-.081 6.147-.325 10.042-.13 2.479.432 3.652 3.711 1.813 5.474-.604.626-1.382.962-2.332 1.004-1.618.058-7.835.054-9.393.26-.13.388-.195 2.915-.195 7.578 0 2.118.022 3.326.065 3.629.358.003.745.088 1.167 0l8.746-.26h.648c3.745.137 4.214 5.659.518 6.413-3.423.338-11.541.425-14.899.779zM296.107 184.165c-18.599-4.357-14.764-48.293 6.802-42.237 1.693.341 4.767 1.486 4.6 3.693 0 1.642-.842 2.742-2.527 3.303-2.652.973-6.124-2.483-8.486.26-3.307 3.341-4.194 7.11-4.665 12.113-.533 5.581.472 9.15 3.11 14.188 1.213 2.091 3.473 2.755 5.441 1.75.885-.414 1.375-1.302 1.75-2.138.91-1.683 3.06-2.275 4.795-1.62 1.747.601 2.716 2.543 2.073 4.275-1.658 4.793-7.828 7.786-12.893 6.413zM326.748 185.655c-4.991-.334-3.569-6.936-3.953-10.493v-8.811c-.028-7.153.025-10.793-.388-16.78l-.065-.518c-3.246-.038-5.17.05-9.135.325-3.267.372-5.355-3.602-3.045-5.929 1.865-1.66 3.581-.977 6.413-1.327 6.654-.093 12.736-.578 20.861-.259 3.105-.075 6.803.227 6.285 4.275-.385 2.547-2.693 2.917-5.054 2.785l-8.226-.193-.972.063c.25 5.749.516 14.798.324 21.703l.063 6.867c.05 3.058 1.458 8.178-3.108 8.292z" style="" fill="#ff9d55" data-original="#ff9d55"></path><path d="M192.573 234.347c-2.353.124-3.659-2.309-3.498-4.34-.085-3.186-.334-21.426-.583-24.23-.087 0-.151-.02-.195-.063l-.195.258-3.691 6.285c-1.358 2.386-2.385 4.395-3.823 6.348-2.25 2.682-6.165 1.235-7.58-1.62-.292-.381-3.905-7.399-4.275-7.385-.019.372.065 6.24.065 6.803.085 5.183.13 9.135.13 11.855-.072 1.711.083 3.923-1.362 5.149-2.06 1.987-5.893.355-5.765-2.559l.065-2.267c.168-.459-.209-23.218-.195-24.487v-3.757c-.15-3.705-.482-7.775 3.823-8.033 3.165.372 2.848 1.869 4.924 5.118a72.049 72.049 0 0 1 2.72 5.053c.27.498 4.043 7.865 4.21 8.033l.453-.712c1.685-3.281 4.427-7.795 8.228-13.54 1.014-1.695 2.417-3.488 4.405-3.433 3.309.279 3.983 2.994 4.47 6.348 1.23 11.031.901 17.556 1.167 31.031.085.476.042.972-.13 1.49-.312 1.619-1.752 2.669-3.368 2.655zM206.113 234.734c-1.936.919-4.946-.653-4.86-2.915-.013-1.457.425-4.604.842-6.283.027-.895-.352-1.341-.323-2.139-.128-1.217 1.031-1.911 1.36-2.978.949-4.966 2.547-11.121 4.793-18.463 1.467-4.746 1.464-5.602 2.722-8.357 1.291-2.613 5.542-2.667 6.931-.13 2.303 4.668 3.076 8.935 4.535 14.447 1.692 7.082 4.057 14.862 5.312 22.091.703 3.379-3.898 5.311-6.252 3.043-1.732-1.657-.732-3.635-1.652-5.96l-.389-1.813c-.951.087-1.577.13-1.878.13-3.397.401-5.559.269-7.775.712-.13.087-.238.388-.323.908l-.777 5.053c-.215 1.294-.971 2.18-2.266 2.654zm4.665-15.353 6.608-.518-3.11-12.438h-.195c-1.598 5.528-2.699 9.846-3.303 12.956zM245.047 235.252c-4.991-.334-3.568-6.936-3.953-10.493v-8.811c-.028-7.153.025-10.794-.388-16.78l-.065-.518c-3.246-.038-5.17.05-9.135.325-3.267.372-5.355-3.602-3.045-5.929 1.865-1.66 3.581-.977 6.413-1.327 6.654-.093 12.736-.579 20.861-.26 3.105-.075 6.803.227 6.285 4.276-.385 2.547-2.693 2.917-5.055 2.785l-8.226-.193-.972.063c.25 5.749.516 14.798.324 21.703l.064 6.868c.05 3.058 1.458 8.178-3.108 8.291zM277.89 233.762c-18.599-4.357-14.764-48.293 6.802-42.237 1.693.341 4.767 1.486 4.6 3.693 0 1.641-.842 2.742-2.527 3.303-2.652.973-6.124-2.483-8.486.26-3.307 3.341-4.194 7.11-4.665 12.113-.533 5.581.472 9.15 3.11 14.188 1.213 2.091 3.473 2.755 5.441 1.75.885-.414 1.375-1.302 1.75-2.138.91-1.683 3.06-2.275 4.795-1.62 1.747.601 2.716 2.543 2.073 4.275-1.658 4.793-7.828 7.786-12.893 6.413zM317.991 234.734c-1.769.018-3.133-1.374-3.175-3.175v-12.178l-.065-.777c-2.851-.208-8.691.173-11.208.065.007.384-.094.697 0 1.101l.065 11.208c.211 2.802-3.137 4.75-5.311 2.915-1.318-1.009-1.234-2.834-1.297-4.405 0-5.094-.022-8.917-.065-11.466.066-1.033-.839-2.046-.777-2.915-.057-.879.781-1.9.714-2.915.018-.564-.513-16.416-.325-16.52.031-2.669 3.54-4.031 5.409-2.202 1.244.953 1.066 3.298 1.134 4.535l.325 13.475c.015.172.077.336.065.583l11.271-.26v-.907l.065-13.086c.022-1.127.033-3.282 1.167-4.179 1.211-1.25 3.462-1.13 4.533.163.604.691.907 1.533.907 2.526-.087 6.651-.13 11.661-.13 15.03-.084 3.724.31 14.568 0 20.536-.322 1.678-1.564 2.867-3.302 2.848z" style="" fill="#ffd7c9" data-original="#ffd7c9"></path><path d="M493.985 313.998c2.481-13.853 9.858-27.295 7.739-41.205-1.4-9.19-6.985-17.443-14.323-23.15-7.338-5.707-16.316-9.028-25.458-10.717-11.827-2.186-24.656-1.968-34.765-8.484-6.383-4.114-10.971-10.523-17.129-14.968-9.056-6.537-21.398-8.246-31.89-4.417-8.421 3.074-15.462 9.643-19.308 17.719-4.69 9.847-4.977 20.601-6.021 31.374-2.356 24.302-3.668 48.69-4.773 73.077-.276 6.098-.539 12.197-.802 18.295-.12 2.77-.225 5.632.767 8.222 1.099 2.869 3.419 5.076 5.74 7.088 30.327 26.289 74.091 36.16 112.766 25.433 13.832-3.836 28.406-11.745 32.178-25.595 3.898-14.312-5.221-28.902-5.501-43.733-.057-3.004.25-5.981.78-8.939z" style="" fill="#ff9d55" data-original="#ff9d55"></path><path d="M468.321 317.323c8.732 15.638 3.28 35.42-12.18 44.184-15.459 8.764-35.07 3.191-43.803-12.447-8.733-15.639-3.28-35.42 12.18-44.184 15.458-8.764 32.491-7.809 43.803 12.447z" style="" fill="#ffd7c9" data-original="#ffd7c9"></path><path d="M446.417 330.297a10.83 10.83 0 0 0-4.636-1.851c3.345-4.72 8.047-8.415 13.885-11.26-17.591 3.339-24.131 20.525-20.044 36.844.063-3.881.197-7.702.77-11.425.65-4.896 2.184-9.122 4.472-12.777 5.571 2.078 8.421 6.643 8.288 12.792-.064 2.11-.297 4.193-.501 6.326.461-.97.873-1.973 1.274-2.989 1.893-5.283 1.507-12.223-3.508-15.66z" style="" fill="#620013" data-original="#620013"></path><path d="m433.03 320.595.003.029c.212 2.193.37 4.419.441 6.652l.007.086a94.296 94.296 0 0 1-1.352 18.955c-.056.354-.089.647-.148.972a95.297 95.297 0 0 1-1.36 6.131c-5.405 21.089-18.244 40.082-35.456 53.239-.215.192-.488.36-.731.554-6.175 4.664-12.904 8.559-20.056 11.529-24.593 10.301-53.487 9.437-77.673-1.902-2.755-1.258-5.406-2.669-8.01-4.201-18.3-10.861-33.376-28.617-41.261-48.88-2.452-6.255-4.233-12.74-5.158-19.323-1.446-10.06-.926-20.368 1.292-30.349.161-.827.379-1.66.572-2.46a95.492 95.492 0 0 1 3.622-11.434c.053-.062.074-.151.098-.212 9.906-25.47 31.692-43.509 57.177-52.778 16.374-5.964 32.963-7.99 50.217-5.156 22.07 3.603 42.835 15.716 57.213 33.035 8.964 10.782 15.507 21.879 18.693 34.849a69.294 69.294 0 0 1 1.818 10.378c.035.084.042.17.052.286z" style="" fill="#ffd7c9" data-original="#ffd7c9"></path><g style="opacity:0.55;"><path d="M242.271 344.427c.927 6.591 2.711 13.072 5.165 19.326 7.883 20.276 22.96 38.03 41.253 48.892 2.612 1.528 5.26 2.938 8.012 4.199 24.193 11.34 53.075 12.197 77.672 1.894 7.155-2.963 13.888-6.861 20.061-11.52.247-.191.515-.368.725-.553 17.226-13.158 30.054-32.162 35.457-53.247a92.015 92.015 0 0 0 1.372-6.128c.055-.327.081-.611.131-.973 1.108-6.251 1.548-12.591 1.368-18.956l-.016-.09a102.895 102.895 0 0 0-.431-6.639l-.006-.036c-.019-.109-.017-.202-.05-.29a67.468 67.468 0 0 0-1.328-8.275c-.139-.703-.315-1.4-.491-2.098-3.197-12.97-9.727-24.062-18.702-34.846-14.367-17.316-35.132-29.432-57.215-33.041-17.251-2.836-33.833-.809-50.206 5.155-25.502 9.266-47.278 27.308-57.186 52.784-.027.061-.051.139-.096.203a95.773 95.773 0 0 0-3.629 11.439c-.127.562-.269 1.146-.393 1.727a8.027 8.027 0 0 0-.172.738c-2.218 9.982-2.741 20.29-1.295 30.335z" style="" fill="#ffd7c9" data-original="#ffd7c9"></path></g><path d="M432.131 346.322c-.048.327-.136.637-.159.96-1.651 22.563-19.6 46.227-36.793 59.371a40.285 40.285 0 0 1-4.558-11.169c-5.201-21.427 7.77-42.988 28.974-48.166a39.084 39.084 0 0 1 12.536-.996zM298.505 392.223a40.103 40.103 0 0 1-1.813 24.633c-2.732-1.269-35.277-14.444-49.269-53.099a37.588 37.588 0 0 1 3.278-.952c21.194-5.175 42.603 7.991 47.804 29.418z" style="" fill="#ffbcb8" data-original="#ffbcb8"></path><path d="M328.453 369.193c11.648 1.026 19.7-.669 26.213-11.18.393-.639 1.439-.174 1.245.548-1.864 9.07-10.519 15.141-19.605 14.077a25.034 25.034 0 0 1-8.178-2.116c-.694-.292-.418-1.407.325-1.329z" style="" fill="#620013" data-original="#620013"></path><path d="M399.113 351.655c-6.897 11.36-21.66 14.876-32.936 7.873-6.344-3.943-10.246-10.421-11.187-17.343a24.068 24.068 0 0 1 3.277-15.937c.3-.479.6-.959.968-1.413 7.05-10.02 20.591-13.039 31.276-6.871.261.122.47.251.7.388 5.452 3.381 9.084 8.63 10.594 14.402a24.215 24.215 0 0 1-2.692 18.901z" style="" fill="#ffffff" data-original="#ffffff"></path><path d="M386.154 319.805c8.642 7.216 10.526 20.302 4.268 29.654a21.891 21.891 0 0 1-21.271 9.554c-6.959-.977-12.74-6.242-14.653-13.071-2.24-7.994-.312-16.91 5.729-23.264.181-.225.354-.398.541-.59a23.585 23.585 0 0 1 6.66-4.629c6.067-2.812 13.327-2.064 18.533 2.186l.193.16z" style="" fill="#9f9940" data-original="#9f9940"></path><path d="M313.898 348.625c-5.817 11.737-19.95 16.458-31.572 10.551-6.578-3.333-10.929-9.337-12.432-16.026a23.782 23.782 0 0 1 1.851-15.893 23.334 23.334 0 0 1 5.019-6.762c6.801-6.385 17.007-8.266 25.878-4.145l.727.344c7.425 3.785 12.018 10.952 12.849 18.707a23.44 23.44 0 0 1-2.32 13.224z" style="" fill="#ffffff" data-original="#ffffff"></path><path d="M297.227 317.565c9.844 5.418 14.171 17.909 9.804 28.302-3.39 8.068-10.937 13.047-19.055 13.492-7.011.384-13.679-3.671-16.849-10.009-3.711-7.42-3.509-16.549 1.213-23.956.134-.256.272-.459.419-.684a23.693 23.693 0 0 1 5.656-5.832c5.418-3.933 12.681-4.6 18.593-1.431l.219.118z" style="" fill="#9f9940" data-original="#9f9940"></path><path d="M342.839 356.019c.375-.028.75-.126 1.038-.284 1.034-.567 3.808-5.051 1.241-5.152-1.284-.05-1.95 2.335-2.769 3.019-.273.228-.574.435-.774.729-.871 1.282.201 1.767 1.264 1.688zM338.688 326.851c1.455 1.603 1.954 3.964 1.511 6.087-.443 2.123-1.753 4-3.43 5.352-1.59 1.282-3.481 2.116-5.223 3.179-1.742 1.063-3.412 2.456-4.131 4.379-.768 2.051-.325 4.383.543 6.398.994 2.306 2.721 4.496 5.206 5.195-3.02.941-6.775-1.056-8.583-3.472-2.035-2.719-2.497-6.483-1.443-9.711 1.054-3.228 3.523-5.895 6.518-7.445 2.339-1.21 5.095-1.863 6.811-3.871 1.418-1.658 1.845-3.932 2.221-6.091zM301.142 301.974c-8.079-5.149-19.14-1.661-25.249 5.006-2.07 2.193-3.781 4.689-4.86 7.527a.67.67 0 0 0 .38.861.668.668 0 0 0 .578-.051c4.76-2.893 8.947-6.034 13.798-8.367 4.814-2.367 9.528-3.39 15.039-3.758.619-.012.843-.903.314-1.218zM373.909 305.217c6.057.832 11.364 2.348 16.568 5.301 5.364 2.83 9.543 6.834 14.631 10.425.3.235.747.178.951-.153-3.38-12.87-19.746-22.667-32.355-16.817-.576.258-.421 1.188.205 1.244z" style="" fill="#620013" data-original="#620013"></path><path d="M243.739 313.352a19.866 19.866 0 0 0 10.192.282c36.319-8.494 53.408-41.991 54.541-43.752 2.644 3.667 6.738 6.227 10.851 8.131 14.117 6.526 30.583 7.725 45.45 3.307 4.209-1.226 8.342-2.999 11.944-5.482 2.478 9.979 7.362 19.415 14.766 26.478 8.654 8.266 20.839 12.979 32.635 11.419 2.222-.307 7.28-1.586 7.539-1.705-.139-.703-2.31-21.304-18.049-39.039-14.935-16.83-35.132-29.432-57.215-33.042-17.25-2.836-33.833-.808-50.206 5.155-25.502 9.265-58.108 34.683-62.448 68.248z" style="" fill="#ff9d55" data-original="#ff9d55"></path><path d="M14.129 315.682c-8.845 15.599-3.37 35.414 12.229 44.259 15.598 8.845 35.414 3.37 44.259-12.228 8.845-15.599 3.37-35.414-12.229-44.259-15.599-8.845-32.802-7.977-44.259 12.228z" style="" fill="#9f001c" data-original="#9f001c"></path><g style="opacity:0.27;"><path d="M14.129 315.682c-8.845 15.599-3.37 35.414 12.229 44.259 15.598 8.845 35.414 3.37 44.259-12.228 8.845-15.599 3.37-35.414-12.229-44.259-15.599-8.845-32.802-7.977-44.259 12.228z" style="" fill="#9f001c" data-original="#9f001c"></path></g><g style="opacity:0.26;"><path d="M14.129 315.682c-8.845 15.599-3.37 35.414 12.229 44.259 15.598 8.845 35.414 3.37 44.259-12.228 8.845-15.599 3.37-35.414-12.229-44.259-15.599-8.845-32.802-7.977-44.259 12.228z" style="" fill="#ffd7c9" data-original="#ffd7c9"></path></g><path d="M24.063 310.524c6.701 3.27 12.096 7.501 15.929 12.891a12.47 12.47 0 0 0-5.329 2.079c-5.766 3.882-6.223 11.776-4.058 17.798.46 1.159.931 2.302 1.459 3.408-.231-2.428-.494-4.799-.563-7.2-.142-6.997 3.14-12.175 9.543-14.507 2.622 4.172 4.376 8.988 5.114 14.563.651 4.239.797 8.587.863 13.003 4.724-18.542-2.756-38.134-22.958-42.035z" style="" fill="#620013" data-original="#620013"></path><path d="M242.387 343.937c-.955 6.591-2.769 13.087-5.24 19.311-7.998 20.225-24.004 35.709-42.49 46.462-2.629 1.536-4.593 5.143-7.358 6.397-24.461 11.21-53.626 11.908-78.454 1.488-7.216-2.988-14.016-6.93-20.242-11.622-.257-.185-.514-.369-.751-.574-17.351-13.234-30.297-32.279-35.718-53.437a81.943 81.943 0 0 1-1.335-6.13c-.075-.302-.109-.622-.164-.964a92.546 92.546 0 0 1-1.334-18.964l.002-.1c.078-2.221.237-4.441.455-6.64l.001-.04c.021-.1.023-.2.045-.299 1.847-17.628 9.416-31.593 20.802-45.112 14.554-17.248 35.545-29.259 57.851-32.758 17.407-2.743 34.169-.631 50.704 5.421 25.707 9.395 47.678 27.554 57.649 53.075.019.06.037.141.076.222a94.121 94.121 0 0 1 3.647 11.456c2.716 10.758 3.464 21.944 1.854 32.808z" style="" fill="#9f001c" data-original="#9f001c"></path><path d="M185.51 391.466a39.79 39.79 0 0 0 1.791 24.649c2.761-1.256 38.166-16.726 49.845-52.865a38.44 38.44 0 0 0-3.309-.969c-21.397-5.284-43.04 7.777-48.327 29.185z" style="" fill="#ffd7c9" data-original="#ffd7c9"></path><g style="opacity:0.26;"><path d="M242.387 343.937c-.955 6.591-2.769 13.087-5.24 19.311-7.998 20.225-23.993 33.021-42.479 43.774-2.629 1.536-4.604 7.831-7.369 9.085-24.461 11.21-53.626 11.908-78.454 1.488-7.216-2.988-14.016-6.93-20.242-11.622-.257-.185-.514-.369-.751-.574-17.351-13.234-30.297-32.279-35.718-53.437a81.943 81.943 0 0 1-1.335-6.13c-.075-.302-.109-.622-.164-.964a92.546 92.546 0 0 1-1.334-18.964l.002-.1c.078-2.221.237-4.441.455-6.64l.001-.04c.021-.1.023-.2.045-.299 1.847-17.628 9.416-31.593 20.802-45.112 14.554-17.248 35.545-29.259 57.851-32.758 17.407-2.743 34.169-.631 50.704 5.421 25.707 9.395 47.678 27.554 57.649 53.075.019.06.037.141.076.222a94.121 94.121 0 0 1 3.647 11.456c2.716 10.758 3.464 21.944 1.854 32.808z" style="" fill="#ffd7c9" data-original="#ffd7c9"></path></g><path d="M50.631 344.873c.048.327.098.643.16.961 3.944 22.738 13.59 46.343 37.062 59.575a39.921 39.921 0 0 0 4.621-11.149c5.287-21.407-7.777-43.04-29.184-48.327a39.903 39.903 0 0 0-12.659-1.06z" style="" fill="#ffd7c9" data-original="#ffd7c9"></path><path d="M155.302 368.276c-11.766.967-19.895-.77-26.455-11.316-.396-.641-1.453-.181-1.258.541 1.867 9.082 10.599 15.199 19.777 14.18a25.4 25.4 0 0 0 8.262-2.075c.701-.286.424-1.404-.326-1.33zM48.8 319.082c1.882-17.801 8.731-35.025 20.242-48.677 5.257-6.233 11.401-11.643 18.141-16.204-3.346-.271-7.364.421-12.242 2.5 2.882-8.667 12.98-13.063 16.17-13.916 3.19-.853 6.617-1.1 9.777-.143 4.196-7.32 11.167-13.005 19.182-15.642-3.338 4.365-5.706 9.447-6.998 14.788a102.58 102.58 0 0 1 14.746-3.472c20.283-3.184 41.529-.195 60.129 8.36l1.246.592a100.865 100.865 0 0 1 14.906 9.008c12.353 9.054 22.593 21.074 29.582 34.712a77.327 77.327 0 0 1 2.053 4.225 71.923 71.923 0 0 1 1.558 3.657c.093.226.176.436.256.658-20.893 4.615-47.952 3.976-76.305-3.026-20.606-5.089-39.022-12.855-53.839-22.003-7.99 22.715-30.998 34.718-58.638 44.886.013-.106.022-.198.034-.303z" style="" fill="#620013" data-original="#620013"></path><path d="M80.5 339.363c1.001 13.312 12.639 23.291 25.951 22.29 7.491-.566 13.949-4.521 17.953-10.245a23.933 23.933 0 0 0 4.336-15.705c-.05-.566-.1-1.132-.223-1.707-1.75-12.19-12.518-21.159-24.919-20.627-.29-.012-.536.005-.805.02a23.967 23.967 0 0 0-16.078 7.903 24.045 24.045 0 0 0-6.215 18.071z" style="" fill="#ffffff" data-original="#ffffff"></path><path d="M106.665 317.027c-11.047 2.412-18.711 13.186-17.367 24.413 1.043 8.716 6.975 15.642 14.719 18.374 6.689 2.359 14.278.355 19.112-4.835 5.659-6.076 8-14.906 5.482-23.364-.059-.284-.136-.518-.216-.776a23.935 23.935 0 0 0-3.862-7.21c-4.159-5.318-11.012-8.02-17.623-6.653-.082.016-.164.034-.245.051z" style="" fill="#620013" data-original="#620013"></path><path d="M167.652 339.113c1.137 13.097 12.655 22.783 25.728 21.644 7.395-.636 13.685-4.591 17.556-10.249a23.612 23.612 0 0 0 4.112-15.476 23.46 23.46 0 0 0-2.219-8.171c-4.029-8.487-12.909-14.061-22.745-13.551l-.808.048c-8.356.738-15.301 5.684-18.933 12.586a23.284 23.284 0 0 0-2.691 13.169z" style="" fill="#ffffff" data-original="#ffffff"></path><path d="M194.716 316.469c-11.226 1.352-19.88 11.348-19.608 22.652.211 8.775 5.457 16.234 12.907 19.689 6.434 2.984 14.18 1.711 19.484-2.997 6.21-5.511 9.38-14.078 7.677-22.738-.032-.289-.086-.529-.142-.793a23.96 23.96 0 0 0-3.159-7.545c-3.634-5.689-10.201-9.03-16.912-8.298-.082.011-.164.02-.247.03zM140.794 355.026a2.686 2.686 0 0 1-1.048-.289c-1.043-.573-3.838-5.072-1.245-5.159 1.296-.044 1.965 2.345 2.791 3.034.275.23.579.438.781.734.878 1.285-.205 1.764-1.279 1.68zM145.034 325.87c-1.472 1.596-1.979 3.955-1.536 6.081.444 2.126 1.763 4.01 3.455 5.371 1.604 1.29 3.513 2.134 5.27 3.206 1.758 1.072 3.441 2.475 4.165 4.402.772 2.055.321 4.386-.559 6.397-1.007 2.301-2.755 4.484-5.267 5.17 3.049.957 6.844-1.022 8.675-3.429 2.06-2.71 2.532-6.472 1.473-9.707-1.06-3.234-3.548-5.914-6.57-7.48-2.36-1.222-5.143-1.889-6.873-3.907-1.429-1.665-1.857-3.942-2.233-6.104zM184.737 306.98c8.167-5.109 19.333-1.564 25.492 5.135 2.087 2.204 3.811 4.71 4.896 7.554a.666.666 0 0 1-.969.807c-4.802-2.918-9.026-6.081-13.922-8.44-4.858-2.392-9.617-3.44-15.182-3.835-.625-.016-.85-.909-.315-1.221zM109.498 304.051c-6.118.802-11.481 2.291-16.742 5.219-5.422 2.804-9.649 6.788-14.793 10.354-.304.234-.755.174-.961-.158 3.435-12.856 19.979-22.573 32.704-16.658.582.261.424 1.19-.208 1.243z" style="" fill="#620013" data-original="#620013"></path><path d="M437.44 147.823s11.266-13.133 24.106-1.991c12.968 11.257-.321 27.344-16.383 32.066-17.42 5.121-18.874 6.992-21.487 3.936-2.45-2.87-7.818-9.393-11.316-14.705-3.489-5.317-11.449-20.817-1.172-30.218 10.281-9.401 24.61-1.902 26.252 10.912z" style="" fill="#f53432" data-original="#f53432"></path><path d="M462.18 154.046a6.046 6.046 0 0 1-.101.607c-.727 3.474-2.892 5.78-5.661 7.869-5.716 4.315-13.249 5.71-20.237 4.472-13.362-2.374-22.537-13.654-20.492-25.204.55-3.119 1.96-6.389 5.48-6.818 2.656-.321 5.484.895 7.585 2.351a16.295 16.295 0 0 1 4.696 5.076c.53.898 3.05 5.609 2.235 6.56.002-.005 10.615-12.375 22.709-1.881 1.995 1.73 4.057 4.134 3.786 6.968z" style="opacity:0.23;" fill="#f53432" data-original="#f53432"></path><path d="M434.654 152.285c.104.042.518-.779 1.008-1.547.26-.373.499-.759.721-1.013.203-.272.34-.448.34-.448s.496-.733 1.084-1.426c.586-.686 1.253-1.316 1.184-1.404-.06-.083-.855.407-1.567 1.019-.716.62-1.318 1.354-1.318 1.354s-.528.799-.915 1.662c-.393.863-.633 1.771-.537 1.803zM400.375 179.619s9.977-8.663 18.432 1.188c8.539 9.952-3.296 20.62-15.957 22.393-13.731 1.923-15.039 3.174-16.671.573-1.53-2.442-4.857-7.969-6.906-12.372-2.042-4.406-6.324-17.004 2.489-22.958 8.817-5.953 18.804 1.313 18.613 11.176z" style="" fill="#f53432" data-original="#f53432"></path><path d="M418.369 187.082c-.042.147-.083.294-.144.447-.937 2.543-2.83 4.043-5.155 5.312-4.8 2.621-10.646 2.834-15.787 1.119-9.829-3.285-15.5-12.831-12.665-21.327.764-2.295 2.194-4.607 4.901-4.539 2.043.054 4.043 1.289 5.467 2.623a12.43 12.43 0 0 1 2.98 4.359c.3.738 1.678 4.578.956 5.205.002-.004 9.401-8.163 17.364 1.115 1.314 1.53 2.604 3.576 2.083 5.686z" style="opacity:0.23;" fill="#f53432" data-original="#f53432"></path><path d="M397.772 182.678c.074.043.479-.531.934-1.056.238-.253.462-.518.658-.685.184-.183.307-.301.307-.301s.456-.498.978-.956c.52-.453 1.093-.854 1.051-.929-.036-.069-.691.212-1.298.595-.61.389-1.147.876-1.147.876s-.488.545-.877 1.154c-.392.608-.675 1.267-.606 1.302zM439.927 199.922s7.089-6.155 13.096.844c6.067 7.07-2.342 14.65-11.337 15.91-9.756 1.366-10.685 2.255-11.845.407-1.087-1.735-3.451-5.662-4.907-8.79-1.451-3.131-4.493-12.081 1.769-16.311 6.264-4.23 13.359.932 13.224 7.94z" style="" fill="#f53432" data-original="#f53432"></path><path d="M452.711 205.224c-.03.104-.059.209-.102.318-.666 1.807-2.011 2.873-3.663 3.774-3.41 1.862-7.564 2.013-11.216.795-6.983-2.334-11.012-9.116-8.998-15.153.543-1.63 1.559-3.273 3.482-3.225 1.451.038 2.872.916 3.884 1.864a8.824 8.824 0 0 1 2.117 3.097c.213.524 1.192 3.252.679 3.698.002-.003 6.679-5.8 12.337.792.934 1.087 1.85 2.541 1.48 4.04z" style="opacity:0.23;" fill="#f53432" data-original="#f53432"></path><path d="M438.078 202.095c.052.031.34-.377.664-.75.169-.18.328-.368.467-.487.13-.13.218-.214.218-.214s.324-.354.695-.679c.369-.322.777-.607.747-.66-.025-.049-.491.15-.922.423-.433.276-.815.622-.815.622s-.347.387-.623.82c-.279.432-.48.901-.431.925zM81.441 203.714s-11.266-13.133-24.106-1.991c-12.968 11.257.321 27.345 16.383 32.066 17.42 5.121 18.874 6.992 21.487 3.936 2.45-2.87 7.818-9.393 11.316-14.705 3.489-5.317 11.449-20.817 1.172-30.218-10.281-9.401-24.61-1.902-26.252 10.912z" style="" fill="#f53432" data-original="#f53432"></path><path d="M56.701 209.936c.026.198.052.397.101.607.727 3.474 2.892 5.78 5.661 7.869 5.716 4.315 13.249 5.71 20.237 4.473 13.362-2.374 22.537-13.654 20.492-25.204-.55-3.119-1.96-6.389-5.48-6.818-2.656-.321-5.484.895-7.585 2.351a16.283 16.283 0 0 0-4.696 5.076c-.53.898-3.05 5.609-2.235 6.56-.003-.005-10.615-12.375-22.709-1.881-1.994 1.73-4.056 4.134-3.786 6.967z" style="opacity:0.23;" fill="#f53432" data-original="#f53432"></path><path d="M84.228 208.176c-.104.042-.519-.779-1.008-1.547-.26-.373-.499-.759-.721-1.013-.203-.272-.34-.448-.34-.448s-.496-.733-1.084-1.426c-.586-.686-1.253-1.316-1.184-1.404.06-.083.855.407 1.567 1.019.716.62 1.318 1.354 1.318 1.354s.528.799.915 1.662c.392.863.633 1.771.537 1.803zM88.221 165.994s-4.022-8.482-12.334-4.483c-8.395 4.041-3.735 14.359 3.998 19.122 8.387 5.167 8.881 6.354 10.685 5.127 1.692-1.153 5.433-3.801 8.022-6.082 2.585-2.285 8.964-9.262 4.926-15.649-4.038-6.388-12.608-4.507-15.297 1.965z" style="" fill="#f53432" data-original="#f53432"></path><path d="M74.384 165.72c-.015.108-.03.215-.034.332-.115 1.922.688 3.438 1.84 4.927 2.376 3.074 6.12 4.88 9.954 5.23 7.333.665 13.745-3.93 14.323-10.267.157-1.711-.114-3.624-1.895-4.351-1.345-.547-2.998-.314-4.306.148a8.821 8.821 0 0 0-3.182 1.987c-.405.395-2.397 2.501-2.106 3.115 0-.003-3.79-7.993-11.618-4.226-1.291.62-2.713 1.583-2.976 3.105z" style="opacity:0.23;" fill="#f53432" data-original="#f53432"></path><path d="M89.043 168.728c-.06.007-.16-.482-.307-.954-.083-.232-.153-.469-.233-.633-.067-.171-.114-.283-.114-.283s-.155-.454-.364-.901c-.209-.443-.468-.867-.419-.904.043-.035.39.335.675.757.286.427.497.897.497.897s.162.494.242 1.001c.082.507.078 1.017.023 1.02z" style="" fill="#f53432" data-original="#f53432"></path></g></svg>