<svg xmlns="http://www.w3.org/2000/svg" version="1.1" xmlns:xlink="http://www.w3.org/1999/xlink" x="0" y="0" viewBox="0 0 128 128" style="enable-background:new 0 0 512 512" xml:space="preserve" class=""><g><g fill-rule="evenodd"><path fill="#ffffff" d="m116.315 61.7-1.278-.237-.6-1.145a4.852 4.852 0 0 0-4.262-2.615 3.982 3.982 0 0 0-.779.059 4.831 4.831 0 0 0-4.045 3.921l-.235 1.277-1.15.6a4.857 4.857 0 0 0 1.371 9.079l1.277.235.6 1.151a4.861 4.861 0 0 0 9.078-1.369l.237-1.278 1.151-.605a4.875 4.875 0 0 0 1.328-7.606 4.761 4.761 0 0 0-2.693-1.467z" opacity="1" data-original="#ffffff" class=""></path><path fill="#ffffff" d="M122.7 17.8a4.877 4.877 0 0 0-2.76-1.5l-2.08-.382-.974-1.863a4.939 4.939 0 0 0-4.35-2.667 4.629 4.629 0 0 0-.779.053c-2.093.334-3.54 1.691-4.524 6.08l-1.194.625a18.668 18.668 0 0 0-3.3-6.521 18.645 18.645 0 0 0-27.88-1.163c-6.87-1.872-13.655-2.179-16.31 2.554l-.006.01-.007.011c-2.35 4.245-1.336 9.063 2.287 13.888a6.433 6.433 0 0 0-2.365 7.48 38.452 38.452 0 0 0-8.32 1.148l1.7-.888a5.045 5.045 0 0 0-1.422-9.426l-2.731-.507-1.28-2.448a5.024 5.024 0 0 0-4.428-2.714 5.13 5.13 0 0 0-.794.056h-.011a5.031 5.031 0 0 0-4.2 4.07l-.5 2.731-2.459 1.286a5.046 5.046 0 0 0 1.423 9.424l2.731.5 1.19 2.284a38.572 38.572 0 0 0-4.909 3.692C20.77 40.566 8.3 40.344 4.806 47.974c-2.453 5.362 1 11.3 6.181 16.739a7.42 7.42 0 0 0 9.877 8.887 38.557 38.557 0 0 0 1.929 11.568 4.622 4.622 0 0 0-2.311-1.26l-1.282-.239-.6-1.145a4.853 4.853 0 0 0-4.265-2.615 4.952 4.952 0 0 0-.764.052H13.558a4.832 4.832 0 0 0-4.045 3.922l-.234 1.278-1.152.6A4.86 4.86 0 0 0 9.5 94.839l1.275.234.6 1.156a4.862 4.862 0 0 0 9.08-1.371l.237-1.279 1.154-.6a4.556 4.556 0 0 0 2.4-4.059A38.606 38.606 0 0 0 32.613 101l.008.008a38.552 38.552 0 0 0 25.6 10.591 8.98 8.98 0 1 0 15.691-2.734 38.761 38.761 0 0 0 10.474-6.534c13.668 3.051 26.132 3.271 29.624-4.354 2.825-6.166-2.035-13.154-8.51-19.19a91.858 91.858 0 0 0-7.519-6.046A38.484 38.484 0 0 0 93.4 54.8c.034 0 .062.019.1.018a6.526 6.526 0 0 0 6.382-6.254c6.012.51 10.635-1.185 12.989-5.435l.006-.012.007-.011c2.607-4.775-1.28-10.378-6.532-15.217.024-.1.06-.2.082-.3.133.036.193.155.332.181l2.077.382.977 1.869a4.965 4.965 0 0 0 9.268-1.4l.383-2.073 1.87-.979A4.976 4.976 0 0 0 122.7 17.8z" opacity="1" data-original="#ffffff" class=""></path><path fill="#2f949d" d="M15.937 64.4a3.141 3.141 0 1 0 4.44-.1 3.156 3.156 0 0 0-4.44.1zM91.1 67.848a3.391 3.391 0 1 0 4.8-.107 3.408 3.408 0 0 0-4.8.107z" opacity="1" data-original="#2f949d"></path><path fill="#74c8b3" d="M34.579 49.232a34.354 34.354 0 1 0 48.572-1.089 34.518 34.518 0 0 0-48.572 1.089z" opacity="1" data-original="#74c8b3" class=""></path><g fill="#2f949d"><path d="M25.706 66.355a34.338 34.338 0 0 0-.521 8.9A177.6 177.6 0 0 0 50.63 89.391a173.107 173.107 0 0 0 29.864 10.692 33.295 33.295 0 0 0 6.379-6.483c-8.281-1.081-20.362-4.856-33.246-10.754C42 77.518 32.11 71.558 25.706 66.355z" fill="#2f949d" opacity="1" data-original="#2f949d"></path><path d="M36.335 56.58a9.99 9.99 0 0 0-5.669-2.28q-.26.411-.507.83a8.961 8.961 0 0 1 5.652 2.111c4.172 3.335 7.144 10.456 6.171 19.685-.853 8.085-4.726 14.681-7.7 19.355q.291.327.589.647c3-4.7 7.056-11.492 7.944-19.914.934-8.86-1.65-15.922-5.663-19.716q-.398-.382-.817-.718zM73.144 48.02a17.074 17.074 0 0 0-2.333-1.947A5.284 5.284 0 0 0 67.465 45a5.18 5.18 0 0 0-2.965 1.241 14.618 14.618 0 0 0-4.076 6.7 23.964 23.964 0 0 0-1.243 8.542c.146 2.679.885 5 2.545 6.126s3.967.888 6.223-.146a15.842 15.842 0 0 0 6.133-5.19 11.6 11.6 0 0 0 2.3-7.937 10.628 10.628 0 0 0-3.238-6.316zm.256 13.767a15.091 15.091 0 0 1-5.8 4.91c-2.1.963-4.1 1.1-5.4.214s-2.037-2.929-2.176-5.475a23.224 23.224 0 0 1 1.2-8.232 14 14 0 0 1 3.808-6.311 4.329 4.329 0 0 1 2.482-1.054 4.406 4.406 0 0 1 2.816.923 16.412 16.412 0 0 1 2.22 1.846 9.727 9.727 0 0 1 3 5.822 10.767 10.767 0 0 1-2.15 7.357zM45.926 41.43c2.275 4.258 2.1 8.3.58 10.637a4.5 4.5 0 0 1-3.753 2.188c-1.587.04-3.507-.7-5.574-2.584a74.041 74.041 0 0 1-2.554-2.479l-.046.041q-.255.3-.5.606c.863.866 1.713 1.7 2.535 2.453 2.178 1.986 4.3 2.851 6.164 2.8a5.4 5.4 0 0 0 4.435-2.572c1.735-2.674 1.857-7-.524-11.463q-.389.184-.763.373zM91.111 69.414a24.156 24.156 0 0 1-2.961 9.767c-1.977 3.287-5.374 6.54-11.537 9.447-10.788 5.088-14.447 12.181-15.057 18.572.28 0 .56-.01.84-.019.587-6.113 4.047-12.828 14.576-17.8 6.275-2.959 9.828-6.329 11.9-9.771a25 25 0 0 0 3.073-10.092c.234-1.759.427-3.406.778-4.9q-.2-.792-.434-1.574a34.185 34.185 0 0 0-1.178 6.37zM54.513 40.647c.131-.592.289-1.143.462-1.673q-.468.071-.935.155c-.128.432-.246.876-.347 1.337-1.489 6.751-.325 16.688 1.223 27.056 1.538 10.3.448 17.988-2.759 23.606-2.668 4.676-6.829 7.932-12.236 10.094q.438.278.885.541a24.127 24.127 0 0 0 12.082-10.218c3.329-5.834 4.412-13.729 2.859-24.145-1.547-10.351-2.665-20.266-1.234-26.753z" fill="#2f949d" opacity="1" data-original="#2f949d"></path><path d="M82.079 47.255q-.528-.456-1.075-.89a20.221 20.221 0 0 1 .674 4.569c.266 7.858-3.6 17.227-11.482 25.844-7.927 8.67-13.839 14.483-16.396 20.764a17.929 17.929 0 0 0-1.211 9.083c.282.051.566.1.849.142a17.141 17.141 0 0 1 1.142-8.907c2.45-6.027 8.292-11.829 16.233-20.515 7.99-8.739 11.977-18.286 11.7-26.44a21.141 21.141 0 0 0-.434-3.65z" fill="#2f949d" opacity="1" data-original="#2f949d"></path></g><path fill="#fbe986" d="M102.487 82.017a88.339 88.339 0 0 0-8.79-7.064 34.168 34.168 0 0 1-.415 3.719c5.2 4.357 7.835 8.13 6.772 10.453-2.367 5.169-22.066 1.219-44-8.822s-37.8-22.372-35.431-27.542c1.069-2.333 5.69-2.793 12.432-1.688q.729-.947 1.523-1.84.49-.462 1-.9c-14.173-3.452-24.6-3.213-26.754 1.486-3.507 7.665 16.3 24.247 44.233 37.037s53.427 16.946 56.937 9.283c1.536-3.358-1.389-8.419-7.507-14.122z" opacity="1" data-original="#fbe986"></path><path fill="#2f949d" d="M85.873 69.248a2.3 2.3 0 0 0-.9-.638 3.054 3.054 0 0 0-2.194.124A12.8 12.8 0 0 0 78.2 72.4a21.093 21.093 0 0 0-3.434 5.4 7.514 7.514 0 0 0-.627 2.446 2.308 2.308 0 0 0 .64 1.882 2.208 2.208 0 0 0 1.481.487 6.63 6.63 0 0 0 1.948-.3 14.383 14.383 0 0 0 4.492-2.326 11.674 11.674 0 0 0 3.554-4.158 6.818 6.818 0 0 0 .27-5.468 3.55 3.55 0 0 0-.651-1.115zm-.373 6.223a10.915 10.915 0 0 1-3.3 3.848 13.664 13.664 0 0 1-4.218 2.19 5.856 5.856 0 0 1-1.695.269 1.173 1.173 0 0 1-1.3-1.488 6.86 6.86 0 0 1 .565-2.166 20.431 20.431 0 0 1 3.3-5.179 12.345 12.345 0 0 1 4.236-3.427 2.239 2.239 0 0 1 1.592-.122 1.938 1.938 0 0 1 1.069 1.265 5.92 5.92 0 0 1-.249 4.81zM68.282 58.017a2.712 2.712 0 1 0 .612.881 2.668 2.668 0 0 0-.612-.881zm-.533 3.238a1.853 1.853 0 1 1-.058-2.62 1.846 1.846 0 0 1 .058 2.62zM46.148 67.32A2.018 2.018 0 1 0 49 67.256a2.026 2.026 0 0 0-2.852.064zM35.169 81.781a3.239 3.239 0 1 0 4.579-.1 3.255 3.255 0 0 0-4.579.1zM65.829 76.384a3.214 3.214 0 0 0 .733 5.044 35.459 35.459 0 0 0 4.245-4.684 3.233 3.233 0 0 0-4.978-.36zM61.915 50.605c3.514 4.591 11.7.962 9.165-3.662-1.371-.956-5.136-4.143-9.165 3.662z" opacity="1" data-original="#2f949d"></path><path fill="#485774" d="M19.5 51.712a2.252 2.252 0 1 0 3.184-.072 2.262 2.262 0 0 0-3.184.072zM63.455 110.982a4.633 4.633 0 1 0 6.552-.147 4.656 4.656 0 0 0-6.552.147z" opacity="1" data-original="#485774"></path><path fill="#e2e9ef" d="M93.142 34.735a2.156 2.156 0 0 0-2.123 2.2l.2 11.341a2.162 2.162 0 1 0 4.324-.077l-.2-11.341a2.157 2.157 0 0 0-2.201-2.123zM73.152 24.567l-9.721 5.845a2.162 2.162 0 1 0 2.228 3.706l9.721-5.845a2.162 2.162 0 1 0-2.228-3.706z" opacity="1" data-original="#e2e9ef" class=""></path><path fill="#6b7392" d="M80.758 37.012C98.134 46.637 106.6 45.327 109 40.985l-46.6-25.81c-2.4 4.342.981 12.213 18.358 21.837z" opacity="1" data-original="#6b7392" class=""></path><path fill="#79809f" d="M89.466 21.29c-12.781-7.08-25-9.84-27.06-6.115s6.756 12.616 19.538 19.7 25 9.84 27.06 6.114-6.756-12.62-19.538-19.699z" opacity="1" data-original="#79809f"></path><path fill="#e2e9ef" d="M95.177 10.979A14.413 14.413 0 0 0 75.586 16.6c-3.857 6.963 2.7 8.446 9.662 12.3s11.7 8.627 15.554 1.664a14.414 14.414 0 0 0-5.625-19.585z" opacity="1" data-original="#e2e9ef" class=""></path><path fill="#fbe986" d="m119.139 20.645-2.527-.467a3.47 3.47 0 0 1-2.447-1.8l-1.191-2.278a.539.539 0 0 0-.558-.285.541.541 0 0 0-.449.437l-.467 2.527a3.476 3.476 0 0 1-1.8 2.448l-2.277 1.19a.54.54 0 0 0 .152 1.009l2.527.466a3.471 3.471 0 0 1 2.447 1.806l1.191 2.277a.539.539 0 0 0 1.008-.152l.467-2.527a3.473 3.473 0 0 1 1.8-2.448l2.278-1.191a.539.539 0 0 0-.154-1.012zM115.511 66.04l-2.047-.378a2.813 2.813 0 0 1-1.982-1.463l-.965-1.844a.437.437 0 0 0-.452-.231.438.438 0 0 0-.364.354l-.378 2.047a2.813 2.813 0 0 1-1.462 1.983l-1.845.964a.437.437 0 0 0 .123.817l2.047.378a2.811 2.811 0 0 1 1.983 1.462l.965 1.845a.436.436 0 0 0 .816-.123l.378-2.047a2.817 2.817 0 0 1 1.463-1.983l1.845-.964a.437.437 0 0 0-.125-.817zM19.678 88.25l-2.047-.378a2.809 2.809 0 0 1-1.982-1.462l-.965-1.845a.437.437 0 0 0-.452-.23.438.438 0 0 0-.364.353l-.378 2.047a2.811 2.811 0 0 1-1.462 1.983l-1.845.965a.436.436 0 0 0 .123.816l2.047.378a2.815 2.815 0 0 1 1.983 1.463l.965 1.844a.436.436 0 0 0 .816-.123l.378-2.047a2.813 2.813 0 0 1 1.463-1.982l1.845-.965a.437.437 0 0 0-.125-.817zM49.612 29.585l-2.921-.539a4.018 4.018 0 0 1-2.83-2.088l-1.376-2.632a.623.623 0 0 0-1.166.176l-.54 2.921a4.017 4.017 0 0 1-2.087 2.83l-2.633 1.376a.624.624 0 0 0 .176 1.166l2.922.54a4.017 4.017 0 0 1 2.83 2.087l1.376 2.633a.624.624 0 0 0 1.166-.176l.54-2.922a4.017 4.017 0 0 1 2.087-2.83l2.633-1.376a.624.624 0 0 0-.177-1.166z" opacity="1" data-original="#fbe986"></path><path fill="#f4f5f7" d="M95.027 12.688c-9.422-4.916-14.087.12-15.08 2.695-1.848 4.789 5.28 7.142 6.553 2.509s12.839-2.954 8.527-5.204z" opacity="1" data-original="#f4f5f7" class=""></path></g></g></svg>