<svg xmlns="http://www.w3.org/2000/svg" version="1.1" xmlns:xlink="http://www.w3.org/1999/xlink" width="512" height="512" x="0" y="0" viewBox="0 0 512 512" style="enable-background:new 0 0 512 512" xml:space="preserve"><g><path d="M496.737 302.504c.857-2.258 1.691-4.54 2.487-6.842.161-.414.307-.83.434-1.244 3.729-10.881 6.141-20.775 7.389-30.358.041-.33.077-.65.102-.971.45-3.538.723-7.13.816-10.662.141-5.086-.007-12.706-2.93-20.123-2.581-6.561-7.044-12.069-12.587-15.535a16.82 16.82 0 0 0-1.466-.858 25.834 25.834 0 0 0-4.763-2.047 27.756 27.756 0 0 0-8.476-1.313c-.946 0-1.898.047-2.855.141-3.499-3.445-7.553-6.207-11.818-8.126.471-1.28.923-2.568 1.359-3.859.123-.327.232-.654.355-1.025a163.006 163.006 0 0 0 7.655-36.901c.016-.172.041-.51.05-.682a161.358 161.358 0 0 0-1.382-38.692 121.223 121.223 0 0 0-.734-4.072 20.436 20.436 0 0 0-.216-1.103c-1.687-8.083-4.206-14.329-7.903-19.617-8.021-11.537-22.171-18.425-37.852-18.425-3.547 0-7.096.354-10.561 1.05a17.99 17.99 0 0 0-1.753.374 51.419 51.419 0 0 0-5.316 1.548c-.086.031-.173.061-.259.093a48.302 48.302 0 0 0-6.052-4.017c-8.267-4.685-17.906-6.564-27.371-5.962-10.401.47-20.025 4.337-27.701 10.568l-.793-2.137c-2.087-5.626-7.421-9.111-13.096-9.111-1.58 0-3.188.27-4.756.838l-66.456 24.069a131.432 131.432 0 0 0-9.853-9.318 128.798 128.798 0 0 0-13.141-9.793c-.289-.48-.611-.938-.955-1.379l2.362-2.707h60.551c11.063 0 20.062-9.472 20.062-21.113V41.844c0-11.642-8.999-21.112-20.062-21.112h-79.767c-4.758 0-9.128 1.759-12.571 4.682h-14.052c-4.906 0-9.219 2.528-11.713 6.353h-35.672c-8.148 0-14.778 6.63-14.778 14.778v15.58c-24.863 7.27-46.764 21.485-63.848 41.55-21.035 24.458-30.639 58.054-29.179 90.076a129.948 129.948 0 0 0 8.096 38.293H20.062C9 232.045 0 241.515 0 253.157v11.35c0 11.642 9 21.113 20.062 21.113h20.501v8.974c0 7.715 6.255 13.969 13.969 13.969H68.86c4.904 0 9.219-2.528 11.711-6.352h28.594c1.982.982 3.992 1.914 6.02 2.791l3.851 10.837a46.962 46.962 0 0 0-13.953 10.189 136.398 136.398 0 0 0-6.809-2.046c-5.293-1.452-10.042-2.158-14.521-2.158-10.527 0-17.25 4.091-21.001 7.491a26.141 26.141 0 0 0-3.52 3.868 16.732 16.732 0 0 0-.957 1.352c-3.626 5.458-5.416 12.337-5.045 19.388.416 7.966 3.435 14.962 5.661 19.515a108.675 108.675 0 0 0 5.186 9.413c.166.292.346.593.548.922 5.036 8.094 11.331 16.1 19.241 24.466.296.333.607.657.928.969a239.517 239.517 0 0 0 5.07 5.162c-7.148 6.972-8.901 18.494-3.895 28.204 3.829 7.429 10.349 11.865 15.674 14.94 1.082.616 2.189 1.228 3.292 1.812.177.093 1.403.698 1.425.707 10.388 5.356 21.74 9.285 34.669 12.004.225.052.468.105.782.171.339.084.68.152 1.023.209 9.765 1.955 20.507 3.247 33.239 3.976l1.98 5.582c2.031 5.711 7.405 9.297 13.162 9.297 1.439 0 2.903-.225 4.345-.696l254.409-83.22a13.964 13.964 0 0 0 8.237-7.205 13.96 13.96 0 0 0 .516-10.932l-.859-2.317c5.377-3.216 10.274-6.423 14.798-9.69.302-.204.598-.418.882-.642.182-.137.364-.273.546-.413 10.633-7.828 19.33-16.103 26.562-25.276.034-.039.866-1.054 1.016-1.248.755-.986 1.507-1.997 2.271-3.057 3.524-4.937 7.621-11.673 8.03-20.03.529-10.884-5.803-20.616-15.231-24.042z" style="" fill="#ffffff" data-original="#ffffff"></path><path d="M64.421 129.016c-.274.419-.462.831-.737 1.249-10.876 19.292-15.541 40.774-14.445 62.101-.033.135-.019.31-.005.485 1.693 30.401 15.315 60.108 40.383 81.448 11.257 9.583 23.853 16.635 37.08 21.125 43.515 15.1 93.662 3.053 125.351-34.171 41.272-48.48 35.387-121.199-13.046-162.43a116.343 116.343 0 0 0-18.112-12.646S112.924 69.071 76.525 111.828a116.156 116.156 0 0 0-12.104 17.188zm124.595 9.646a52.829 52.829 0 0 1 10.244 6.844c22.656 19.287 25.391 53.349 6.105 76.005-14.415 16.933-37.081 22.763-57.098 16.572-6.738-2.147-13.184-5.595-18.907-10.467-12.014-10.227-18.456-24.604-18.923-39.195-.021-.263-.002-.573-.023-.835-.175-9.857 2.291-19.749 7.625-28.505.496-.965 1.085-1.85 1.675-2.735a46.46 46.46 0 0 1 3.541-4.735c16.549-19.44 43.968-24.242 65.761-12.949z" style="" fill="#f05d6a" data-original="#f05d6a"></path><path d="m49.234 192.851 61.179-5.266c.225 14.875 6.696 29.602 18.946 40.031 5.723 4.872 12.169 8.32 18.907 10.467l-21.569 57.341c-13.227-4.49-25.823-11.542-37.08-21.125-25.067-21.34-38.69-51.047-40.383-81.448z" style="" fill="#ffa766" data-original="#ffa766"></path><path d="m61.865 131.702 36.885 15.713 18.546 13.497c-4.542 8.308-7.061 17.52-6.883 26.673.021.263.002.573.023.835-15.378 1.103-43.796 3.341-61.202 4.431-1.13-21.765 1.25-41.551 12.631-61.149z" style="" fill="#ff899a" data-original="#ff899a"></path><path d="M75.11 112.731c37.489-44.036 98.841-53.209 146.896-26.162l-31.98 52.996c-22.227-11.444-50.304-6.361-67.348 13.661a48.292 48.292 0 0 0-3.651 4.874c-.608.911-1.217 1.82-1.73 2.812l-55.431-29.21c.284-.43.477-.853.761-1.285a120.788 120.788 0 0 1 12.483-17.686z" style="" fill="#ffd0c4" data-original="#ffd0c4"></path><path d="M52.154 280.268H66.48v14.326H52.154z" style="" transform="rotate(-180 59.317 287.43)" fill="#401a49" data-original="#401a49"></path><path d="M113.864 288.241H58.215a.809.809 0 1 1 0-1.618h54.84v-42.17a.809.809 0 1 1 1.618 0v42.978a.808.808 0 0 1-.809.81z" style="" fill="#401a49" data-original="#401a49"></path><path d="M97.451 246.013H17.683c-3.364 0-6.093 3.198-6.093 7.144v11.349c0 3.946 2.728 7.144 6.093 7.144h66.902l9.02 10.336-2.626-10.336h6.472c3.365 0 6.093-3.199 6.093-7.144v-11.349c0-3.945-2.728-7.144-6.093-7.144z" style="" fill="#ffe5d2" data-original="#ffe5d2"></path><path d="M89.544 253.757h-63.78a.548.548 0 1 1 0-1.098h63.779a.548.548 0 1 1 .001 1.098zM89.544 257.609h-63.78a.548.548 0 1 1 0-1.098h63.779a.548.548 0 1 1 .001 1.098z" style="" fill="#401a49" data-original="#401a49"></path><path d="M89.544 257.609h-63.78a.548.548 0 1 1 0-1.098h63.779a.548.548 0 1 1 .001 1.098zM89.544 261.458h-63.78a.548.548 0 1 1 0-1.098h63.779a.548.548 0 1 1 .001 1.098z" style="" fill="#401a49" data-original="#401a49"></path><path d="M89.544 261.458h-63.78a.548.548 0 1 1 0-1.098h63.779a.548.548 0 1 1 .001 1.098zM89.544 265.31h-63.78a.548.548 0 1 1 0-1.098h63.779a.548.548 0 1 1 .001 1.098zM190.483 39.383h14.326v14.326h-14.326z" style="" fill="#401a49" data-original="#401a49"></path><path d="M143.098 90.334a.81.81 0 0 1-.809-.81V46.545c0-.448.362-.81.809-.81h55.65a.809.809 0 1 1 0 1.618h-54.84v42.17a.81.81 0 0 1-.81.811z" style="" fill="#401a49" data-original="#401a49"></path><path d="M217.108 34.7h79.767c3.365 0 6.093 3.198 6.093 7.144v11.35c0 3.946-2.728 7.144-6.093 7.144h-66.902l-9.02 10.336 2.626-10.336h-6.472c-3.365 0-6.092-3.199-6.092-7.144v-11.35c0-3.945 2.728-7.144 6.093-7.144z" style="" fill="#ffe5d2" data-original="#ffe5d2"></path><path d="M288.795 42.444h-63.779a.548.548 0 1 1 0-1.098h63.779a.548.548 0 1 1 0 1.098zM288.795 46.296h-63.779a.548.548 0 1 1 0-1.098h63.779a.548.548 0 1 1 0 1.098z" style="" fill="#401a49" data-original="#401a49"></path><path d="M288.795 46.296h-63.779a.548.548 0 1 1 0-1.098h63.779a.548.548 0 1 1 0 1.098zM288.795 50.147h-63.779a.548.548 0 1 1 0-1.098h63.779a.548.548 0 1 1 0 1.098z" style="" fill="#401a49" data-original="#401a49"></path><path d="M288.795 50.147h-63.779a.548.548 0 1 1 0-1.098h63.779a.548.548 0 1 1 0 1.098zM288.795 53.997h-63.779a.548.548 0 1 1 0-1.098h63.779a.548.548 0 1 1 0 1.098z" style="" fill="#401a49" data-original="#401a49"></path><path d="M454.135 121.237c.05.179.083.388.11.574.257 1.281.492 2.569.697 3.841 1.84 11.664 2.239 23.533 1.252 35.276-.018.198-.036.396-.047.617a148.946 148.946 0 0 1-6.998 33.735c-.079.239-.142.45-.243.695a143.195 143.195 0 0 1-9.981 22.918c6.225-6.764 17.584-2.531 24.051 4.018 6.467 6.548 7.93 16.843 5.807 25.785a24.692 24.692 0 0 1-.576 2.115 13.15 13.15 0 0 1-.182.654c-2.471 7.854-7.154 14.869-12.037 21.505-27.462 37.206-63.65 66.94-99.482 96.214-3.822 3.131-8.221 6.445-13.125 5.914-.521-.05-1.038-.173-1.561-.318-.21-.063-.421-.125-.609-.194-6.35-2.185-13.239-10.525-15.832-16.162-11.427-24.887-14.154-52.463-14.786-80.061 0 0-.023.006-.006-.023-.016-.406-.025-.79-.04-1.196-.17-7.536-.171-15.071-.176-22.532-.01-10.72.184-22.1 5.584-31.245.108-.223.244-.43.364-.607.13-.229.266-.436.403-.643 6.185-9.361 20.689-14.037 28.789-6.297 1.388-18.085 5.203-36.042 11.474-53.058.063-.211.148-.427.233-.644l-.006-.022c4.961-13.274 11.365-25.956 19.318-37.664l.033-.057c.126-.156.223-.328.35-.483 8.13-11.854 18.615-22.787 32.129-27.552a36.4 36.4 0 0 1 4.05-1.165c.247-.068.494-.136.753-.159 12.779-2.703 27.197.976 34.563 11.575 3.027 4.33 4.653 9.436 5.727 14.646z" style="" fill="#ff899a" data-original="#ff899a"></path><path d="M413.842 95.013c-6.438 11.508-11.927 23.044-16.742 33.694a643.491 643.491 0 0 0-4.746 10.727c-.13.229-.215.446-.3.663-6.038 13.836-11.52 27.496-16.458 41.029-.085.217-.176.411-.217.615a633.312 633.312 0 0 0-12.688 38.324c-.063.211-.148.427-.205.66-4.813 16.349-8.818 32.475-11.983 48.321-.04.204-.087.386-.127.59-3.186 16.117-5.533 31.955-7.016 47.506-.05.255-.078.505-.084.748-1.842 19.417-2.333 38.39-1.458 56.889.089 2.511.245 5.004.401 7.497l-.57.036c-.175-2.56-.311-5.155-.441-7.727-.849-18.579-.344-37.676 1.518-57.196.005-.243.033-.492.061-.741 1.469-15.426 3.779-31.133 6.887-47.012.063-.21.103-.415.127-.59a486.19 486.19 0 0 1 3.577-16.539c5.334-22.868 12.446-46.468 21.285-70.64.063-.21.154-.405.239-.621 4.938-13.534 10.431-27.244 16.468-41.081a3.67 3.67 0 0 1 .252-.577c1.588-3.698 3.25-7.393 4.928-11.116 4.779-10.519 10.202-21.94 16.537-33.299.249-.069.496-.137.755-.16z" style="" fill="#ffd2a7" data-original="#ffd2a7"></path><path d="M454.135 121.237c.05.179.083.388.11.574a821.822 821.822 0 0 1-62.191 18.286l-.606.167-.076-.1-.035-.039-14.777-15.752c.126-.156.223-.328.35-.483l14.714 15.697.006.023c.247-.068.471-.13.724-.176a821.546 821.546 0 0 0 61.781-18.197zM456.194 160.928c-.018.198-.036.396-.047.617a590.297 590.297 0 0 1-26.736 8.049c-18.112 4.995-36.189 9.062-54.03 12.147l-.714.124c-.09.025-.186.027-.276.052l-.157.043-.105-.116a172.87 172.87 0 0 1-17.145-19.084c.063-.211.148-.427.233-.644a171.924 171.924 0 0 0 17.204 19.212c.164-.021.32-.064.484-.085l.692-.118c26.57-4.622 53.608-11.402 80.597-20.197zM449.149 195.28c-.079.239-.142.45-.243.695a880.973 880.973 0 0 1-51.366 15.856 888.956 888.956 0 0 1-35.053 8.894c-.141.015-.253.046-.388.083l-.132-.567c.247-.068.478-.107.725-.176 29.094-6.768 58.106-15.059 86.457-24.785zM468.206 250.81a13.15 13.15 0 0 1-.182.654 374.154 374.154 0 0 1-14.748 4.405c-32.992 9.098-67.987 13.823-102.899 13.766-.237.017-.457.006-.7 0-.237.017-.48.012-.723.006l-.118.008-.076-.1c-13.763-13.037-24.989-28.875-32.805-46.184.108-.223.244-.43.364-.607 7.778 17.344 18.988 33.211 32.763 46.293.243.005.486.011.723-.006.243.005.464.017.701 0 40.152.06 80.447-6.198 117.7-18.235zM344.094 317.785l-.379.467c-.155-.126-.282-.236-.438-.362l-.006-.023c-.19-.165-.375-.307-.543-.478-12.748-11.023-23.722-24.37-32.136-39.027 0 0-.023.006-.006-.023-.016-.406-.025-.79-.04-1.196 8.389 14.833 19.413 28.36 32.243 39.505l.571.495c.232.225.48.422.734.642z" style="" fill="#ffd2a7" data-original="#ffd2a7"></path><path d="M491.625 252.037a93.48 93.48 0 0 1-.764 9.717c-.003.215-.033.411-.059.63-1.227 9.433-3.702 18.697-6.832 27.788-.053.201-.13.407-.21.591-3.603 10.473-8.089 20.702-12.553 30.807 3.504-2.82 6.911-4.051 11.183-5.461 1.954-.667 4.042-1.148 6.09-.789 4.549.839 7.385 5.909 7.159 10.545-.226 4.636-2.757 8.824-5.446 12.592a111.38 111.38 0 0 1-1.989 2.672c-.172.202-.339.427-.511.629l-.023.005c-6.966 8.937-15.274 16.559-24.393 23.256-.286.226-.577.429-.863.655l-.023.005c-15.664 11.361-33.626 20.132-51.245 28.38-4.464 2.092-9.206 4.218-14.108 3.738-2.476-.247-4.802-1.143-6.881-2.447-.165-.108-.335-.239-.5-.348a21.105 21.105 0 0 1-5.344-5.239c-3.053-4.169-6.058-12.224-5.772-17.372a212.777 212.777 0 0 1 5.857-38.666l-.005-.023c.052-.32.132-.622.212-.924l-.005-.023a211.891 211.891 0 0 1 15.333-42.037c.832-1.719 1.733-3.451 2.766-5.116.122-.216.266-.436.415-.633 1.851-2.881 4.106-5.418 7.085-6.988 4.903-2.611 12.278-1.218 14.061 4.047 1.728-4.734 3.731-9.287 6.036-13.642.14-.243.257-.481.397-.724 4.977-9.237 11.235-17.575 18.641-25.081.154-.175.312-.326.489-.506a122.281 122.281 0 0 1 8.377-7.637c6.04-5.035 13.901-9.663 21.388-7.271.865.272 1.676.627 2.46 1.082.183.081.349.189.514.298 3.243 1.99 5.687 5.287 7.097 8.869 1.81 4.596 2.103 9.671 1.966 14.621z" style="" fill="#ffd2a7" data-original="#ffd2a7"></path><path d="M482.562 228.549a747.267 747.267 0 0 0-26.746 39.176c-.167.225-.316.423-.415.633a713.38 713.38 0 0 0-15.808 25.896 4.808 4.808 0 0 0-.352.596 785.95 785.95 0 0 0-17.077 30.891c.005.023-.013.05-.031.078-2.351 4.483-4.623 8.997-6.891 13.534-.085.16-.166.344-.27.532a746.278 746.278 0 0 0-11.635 24.577c-.104.188-.18.394-.261.578a729.1 729.1 0 0 0-12.918 30.312c-.165-.108-.335-.239-.5-.348a763.981 763.981 0 0 1 12.815-30.006c.058-.179.157-.389.261-.577a772.23 772.23 0 0 1 11.919-25.159c2.25-4.51 4.527-9.001 6.855-13.479.122-.215.221-.426.324-.614a742.525 742.525 0 0 1 16.852-30.487c.076-.206.221-.426.365-.647a652.774 652.774 0 0 1 15.989-26.171c.099-.211.221-.426.411-.656a739.278 739.278 0 0 1 26.602-38.956c.18.08.346.188.511.297z" style="" fill="#ff899a" data-original="#ff899a"></path><path d="M490.861 261.755c-.003.215-.033.411-.059.63a273.72 273.72 0 0 1-8.52 1.912c-9.186 1.908-18.176 3.275-26.882 4.06l-.255.029-.109-.524a600.055 600.055 0 0 1-5.702-25.281c.154-.175.312-.326.489-.506a630.7 630.7 0 0 0 5.623 25.13c.038.182.099.36.137.542.068-.014.164-.01.233-.024 11.288-1.058 23.026-3.044 35.045-5.968zM483.97 290.174c-.053.201-.13.407-.21.591-14.073 2.304-28.985 3.665-44.52 4.086-.096-.004-.187.015-.283.011l-.21.02-.065-.2a317.494 317.494 0 0 1-8.385-26.293c.14-.243.257-.481.397-.724a339.677 339.677 0 0 0 8.354 26.37c.042.087.056.155.097.241.142-.005.306-.016.448-.021 15.506-.44 30.344-1.809 44.377-4.081zM422.195 325.781l-.064.037-.446.259c-.069-.105-.111-.191-.18-.296a228.784 228.784 0 0 1-18.806-40.178c.122-.216.266-.436.415-.633 4.874 13.968 11.192 27.445 18.715 40.197l.333.573c.028.019.028.019.033.041zM488.203 341.13c-.172.202-.339.427-.511.629 0 0 .005.023-.023.005-24.162 2.616-48.521 1.992-72.699-1.88-.146-.017-.27-.039-.416-.056l.096-.567.59.091a271.676 271.676 0 0 0 72.963 1.778zM463.276 365.02c-.286.226-.577.429-.863.655l-.023.005c-20.65 2.125-41.454.643-59.316-.641-.192-.008-.361-.02-.53-.033l-.073-.009-.05-.013-.097-.123c-6.757-9.867-12.756-20.32-17.927-31.135l-.005-.023c.052-.32.132-.622.212-.924a229.29 229.29 0 0 0 18.127 31.641c.192.008.388.039.603.041 18.083 1.31 39.124 2.79 59.942.559z" style="" fill="#ff899a" data-original="#ff899a"></path><path d="M69.071 367.315a93.3 93.3 0 0 0 4.722 8.527c.092.194.201.36.315.549 5.025 8.077 11.117 15.483 17.731 22.46.132.161.287.317.436.45 7.619 8.039 15.939 15.49 24.189 22.837-4.358-1.115-7.968-.823-12.44-.337-2.055.202-4.154.63-5.869 1.805-3.793 2.648-4.273 8.438-2.147 12.563 2.127 4.126 6.165 6.888 10.174 9.204a111.42 111.42 0 0 0 2.918 1.608c.24.113.486.248.726.361l.023-.005c10.042 5.247 20.762 8.742 31.837 11.058.354.087.703.151 1.056.238l.023-.005c18.964 3.849 38.945 4.39 58.397 4.596 4.93.055 10.126.025 14.39-2.444 2.152-1.25 3.897-3.03 5.248-5.078.105-.167.206-.357.311-.524a21.11 21.11 0 0 0 2.693-6.982c1.051-5.06.448-13.635-1.945-18.202a212.787 212.787 0 0 0-21.351-32.764l-.005-.023c-.18-.27-.378-.511-.576-.753l-.005-.023a211.845 211.845 0 0 0-31.373-31.906c-1.469-1.219-3.006-2.423-4.637-3.51a5.836 5.836 0 0 0-.64-.404c-2.878-1.855-5.982-3.23-9.344-3.424-5.544-.345-11.679 3.979-11.12 9.509-3.534-3.592-7.243-6.907-11.146-9.915-.228-.163-.433-.332-.661-.495-8.357-6.344-17.507-11.34-27.357-15.103-.212-.095-.42-.168-.655-.257-3.495-1.31-7.1-2.476-10.788-3.479-7.584-2.08-16.655-3.035-22.479 2.244a12.088 12.088 0 0 0-1.79 2.004c-.133.15-.239.317-.344.484-2.127 3.155-2.986 7.168-2.784 11.013.255 4.934 2.091 9.674 4.267 14.123z" style="" fill="#ffd2a7" data-original="#ffd2a7"></path><path d="M67.587 342.182a747.685 747.685 0 0 1 40.575 24.573c.245.135.463.253.64.404a714.007 714.007 0 0 1 25.117 17.018c.195.123.39.246.567.397a788.066 788.066 0 0 1 28.342 21.038c.005.023.033.04.061.058 3.996 3.106 7.935 6.273 11.879 9.462.144.111.294.244.466.372a744.629 744.629 0 0 1 20.773 17.547c.172.128.327.284.476.417a725.947 725.947 0 0 1 24.316 22.236c.105-.167.206-.357.311-.524a761.924 761.924 0 0 0-24.096-21.999 3.547 3.547 0 0 0-.477-.418 768.7 768.7 0 0 0-21.272-17.959 909.045 909.045 0 0 0-11.824-9.427c-.2-.146-.377-.296-.549-.425a741.539 741.539 0 0 0-27.97-20.765c-.155-.156-.377-.297-.6-.437a652.835 652.835 0 0 0-25.396-17.193 2.946 2.946 0 0 0-.645-.427 739.426 739.426 0 0 0-40.352-24.432c-.131.15-.237.317-.342.484z" style="" fill="#ff899a" data-original="#ff899a"></path><path d="M73.793 375.843c.092.194.201.36.315.549 2.882-.556 5.73-1.153 8.546-1.79 9.151-2.07 17.899-4.55 26.148-7.443l.245-.079-.118-.522a597.61 597.61 0 0 0-5.286-25.371c-.212-.095-.42-.168-.655-.257a631.471 631.471 0 0 1 5.295 25.201c.041.182.06.368.101.55-.068.015-.154.059-.222.074-10.713 3.712-22.219 6.769-34.369 9.088zM91.84 398.852c.132.161.287.317.436.45 13.763-3.734 27.898-8.674 42.211-14.728.086-.043.176-.064.262-.107l.199-.069-.023-.21a317.647 317.647 0 0 0-3.263-27.404c-.228-.163-.433-.332-.661-.495a340.047 340.047 0 0 1 3.324 27.461c-.002.096.013.164.011.26-.131.053-.285.112-.416.166-14.296 6.028-28.368 10.93-42.08 14.676zM162.816 405.663l.073.007.513.051c.02-.124.022-.22.042-.344a228.842 228.842 0 0 0 .468-44.359 5.836 5.836 0 0 0-.64-.404c1.351 14.732 1.186 29.616-.377 44.339l-.066.66c-.018.027-.018.027-.013.05zM109.1 446.982c.24.113.486.248.726.361 0 0 .005.023.023-.005 23.074-7.63 44.985-18.291 65.385-31.833.126-.076.229-.147.355-.224l-.322-.476-.499.328a271.684 271.684 0 0 1-65.668 31.849zM141.686 458.396c.354.087.703.151 1.056.238l.023-.005c19.674-6.623 37.994-16.591 53.719-25.161.172-.087.32-.168.469-.249l.063-.038.04-.033.037-.152c2.061-11.78 3.19-23.779 3.415-35.765l-.005-.023c-.18-.27-.378-.511-.576-.753a229.342 229.342 0 0 1-3.387 36.308c-.171.087-.337.196-.532.288-15.914 8.685-34.451 18.75-54.322 25.345z" style="" fill="#ff899a" data-original="#ff899a"></path><path d="m81.847 176.127 106.994 301.167 254.408-83.217L329.122 86.569z" style="" fill="#401a49" data-original="#401a49"></path><path d="m99.284 178.463 94.479 265.94 224.649-73.483L317.635 99.38z" style="" fill="#ffe5d2" data-original="#ffe5d2"></path><path d="m198.966 430.502-.096-.268-86.763-244.222.272-.099 200.566-72.639.1.27 92.549 249.368-.288.095-206.34 67.495zM112.85 186.363l86.474 243.409 205.515-67.225-92.238-248.53-199.751 72.346z" style="" fill="#401a49" data-original="#401a49"></path><path d="m148.818 148.982 9.213 24.668 103.427-37.448-9.808-25.262-31.801 9.808s-9.213-28.829-33.287-19.318c-20.132 7.953-8.024 33.881-8.024 33.881l-29.72 13.671z" style="" fill="#8f8fef" data-original="#8f8fef"></path><path d="M200.566 114.174a6.984 6.984 0 1 1-9.877 9.878 6.984 6.984 0 0 1 9.877-9.878zM157.14 170.077a.29.29 0 0 1-.101-.563l102.832-38.338c.146-.061.316.02.374.171a.29.29 0 0 1-.171.374L157.242 170.06a.307.307 0 0 1-.102.017z" style="" fill="#401a49" data-original="#401a49"></path><path d="M160.373 217.871h20.908v20.908h-20.908z" style="" transform="rotate(-19.312 170.827 228.328)" fill="#ff899a" data-original="#ff899a"></path><path d="M175.008 259.636h20.908v20.907h-20.908z" style="" transform="rotate(-19.312 185.462 270.093)" fill="#ff899a" data-original="#ff899a"></path><path d="M190.911 305.017h20.907v20.908h-20.907z" style="" transform="rotate(-19.312 201.369 315.479)" fill="#ff899a" data-original="#ff899a"></path><path d="M260.279 192.179 192.2 216.035a.542.542 0 0 1-.688-.331l-.68-1.94a.542.542 0 0 1 .331-.688l68.079-23.856c.28-.098.59.051.688.331l.68 1.941a.541.541 0 0 1-.331.687zM262.929 199.743l-68.078 23.856a.542.542 0 0 1-.688-.331l-.68-1.941a.542.542 0 0 1 .331-.688l68.079-23.857c.28-.098.59.051.688.331l.68 1.941a.544.544 0 0 1-.332.689zM320.602 217.933 207.806 257.46a1.572 1.572 0 0 1-1.998-.961 1.572 1.572 0 0 1 .961-1.998l112.796-39.526a1.572 1.572 0 0 1 1.998.961 1.571 1.571 0 0 1-.961 1.997zM323.252 225.497l-112.796 39.526a1.572 1.572 0 0 1-1.998-.961 1.574 1.574 0 0 1 .961-1.999l112.796-39.526a1.574 1.574 0 0 1 1.999.961 1.574 1.574 0 0 1-.962 1.999zM336.85 264.301l-112.796 39.526a1.574 1.574 0 0 1-1.999-.961 1.574 1.574 0 0 1 .961-1.999l112.796-39.526a1.574 1.574 0 0 1 1.999.961 1.572 1.572 0 0 1-.961 1.999zM339.501 271.865l-112.796 39.526a1.572 1.572 0 0 1-1.998-.961 1.572 1.572 0 0 1 .961-1.998l112.796-39.526a1.572 1.572 0 0 1 1.998.961 1.572 1.572 0 0 1-.961 1.998z" style="" fill="#8f8fef" data-original="#8f8fef"></path><path d="m276.315 176.636 7.289-2.918 5.336 14.22-7.31 2.743-5.036-13.421M286.666 165.363l7.262-2.991 7.793 20.77-7.309 2.742-7.356-19.603" style="" fill="#ff899a" data-original="#ff899a"></path><path d="M276.588 195.561a.25.25 0 0 1-.244-.162l-12.47-33.232a.25.25 0 1 1 .47-.176l12.382 32.998 50.252-18.857a.253.253 0 0 1 .323.147.251.251 0 0 1-.147.323l-50.487 18.945a.313.313 0 0 1-.079.014z" style="" fill="#ff899a" data-original="#ff899a"></path><path d="M281.64 190.931a.25.25 0 0 1-.244-.162l-7.868-20.97a.25.25 0 0 1 .147-.323l7.429-2.788a.25.25 0 0 1 .323.147l7.869 20.97a.25.25 0 0 1-.147.323l-7.429 2.788a.289.289 0 0 1-.08.015zm-7.556-21.073 7.693 20.501 6.96-2.612-7.693-20.5-6.96 2.611zM294.462 186.151a.283.283 0 0 1-.274-.182l-9.937-26.481a.282.282 0 0 1 .164-.363l7.429-2.788a.283.283 0 0 1 .363.164l9.937 26.482a.282.282 0 0 1-.164.363l-7.429 2.788a.299.299 0 0 1-.089.017zm-9.584-26.599 9.739 25.954 6.902-2.589-9.739-25.954-6.902 2.589zM306.805 181.54a.287.287 0 0 1-.135-.027.295.295 0 0 1-.158-.169l-11.421-30.436a.302.302 0 0 1 .177-.389l7.429-2.788a.301.301 0 0 1 .389.176l11.421 30.436a.302.302 0 0 1-.177.389l-7.429 2.788a.275.275 0 0 1-.096.02zm-11.043-30.561 11.209 29.87 6.864-2.576-11.209-29.87-6.864 2.576z" style="" fill="#ff899a" data-original="#ff899a"></path><path d="m297.762 157.775 7.249-3.025 8.932 23.805-7.309 2.743-8.431-22.468" style="" fill="#ff899a" data-original="#ff899a"></path><path d="m217.27 414.278-24.931-68.742.574-.207 168.156-60.987 24.93 68.74-.574.207-168.155 60.989zm-23.367-68.008 24.098 66.441 166.433-60.363-24.097-66.439-166.434 60.361z" style="" fill="#ffa766" data-original="#ffa766"></path><path d="m231.022 401.193-1.114-.504 14.058-31.063 23.021 4.279 15.401-38.901.598.304c9.501 4.838 24.825 12.449 27.299 13.194 1.903-3.291 12.758-18.725 32.342-45.979l.993.711c-12.557 17.478-31.382 43.91-32.413 45.99l.007.232-.311.218c-.37.243-1.076.662-27.873-12.973l-15.277 38.591-23.068-4.288-13.663 30.189z" style="" fill="#ffa766" data-original="#ffa766"></path><path d="M233.029 400.169a2.824 2.824 0 0 1-5.307 1.925 2.823 2.823 0 0 1 5.307-1.925z" style="" fill="#8f8fef" data-original="#8f8fef"></path><path d="M285.272 335.079a2.823 2.823 0 1 1-5.307 1.925 2.823 2.823 0 0 1 5.307-1.925z" style="" fill="#ff899a" data-original="#ff899a"></path><path d="M345.369 302.538a2.824 2.824 0 0 1-5.307 1.925 2.822 2.822 0 1 1 5.307-1.925z" style="" fill="#ffa766" data-original="#ffa766"></path><path d="M364.994 335.551h7.353v7.353h-7.353z" style="" transform="rotate(-19.937 368.613 339.187)" fill="#ff899a" data-original="#ff899a"></path><path d="M361.651 326.334h7.353v7.353h-7.353z" style="" transform="rotate(-19.932 365.38 330.042)" fill="#8f8fef" data-original="#8f8fef"></path><path d="M368.139 344.221h7.353v7.353h-7.353z" style="" transform="rotate(-19.937 371.777 347.87)" fill="#ffa766" data-original="#ffa766"></path><path d="M406.492 120.745c0 16.692-12.199 30.545-28.17 33.129-1.443.233-2.91.372-4.4.419-.326.023-.675.023-1.001.023A33.25 33.25 0 0 1 360 151.708a28.289 28.289 0 0 1-4.028-2.002c-9.941-5.797-16.622-16.599-16.622-28.962 0-18.112 14.294-32.849 32.244-33.525.442-.047.885-.047 1.327-.047.326 0 .675 0 1.001.023a32.68 32.68 0 0 1 12.967 3.027c1.35.629 2.677 1.35 3.935 2.142a33.424 33.424 0 0 1 15.668 28.381z" style="" fill="#f05d6a" data-original="#f05d6a"></path><path d="M408.471 120.745c0 17.368-13.2 31.662-30.103 33.408a42.795 42.795 0 0 1-3.469.163c-.326 0-.652 0-.978-.023-4.866-.14-9.429-1.281-13.549-3.26a32.99 32.99 0 0 1-3.935-2.235c-9.103-6.006-15.11-16.343-15.11-28.054 0-17.437 13.27-31.755 30.289-33.385.745-.093 1.537-.14 2.305-.163.326-.023.652-.023.978-.023 4.353 0 8.521.838 12.339 2.352a36.25 36.25 0 0 1 4.074 1.932c10.245 5.751 17.159 16.693 17.159 29.288z" style="" fill="#ffa766" data-original="#ffa766"></path><path d="M390.172 93.622a28.032 28.032 0 0 0-4.051-1.932 30.918 30.918 0 0 0-11.221-2.095c-1.024 0-2.049.047-3.05.163-15.761 1.513-28.1 14.83-28.1 30.987 0 10.756 5.494 20.278 13.829 25.865a32.614 32.614 0 0 0 3.911 2.235 31.203 31.203 0 0 0 13.41 3.026c1.071 0 2.142-.046 3.213-.163 15.645-1.606 27.937-14.876 27.937-30.964 0-11.616-6.402-21.767-15.878-27.122zm-12.106 57.574a28.347 28.347 0 0 1-3.166.163 30.37 30.37 0 0 1-13.154-2.98 31.071 31.071 0 0 1-3.911-2.258c-8.172-5.494-13.55-14.807-13.55-25.376 0-15.854 12.129-28.962 27.611-30.475a25.287 25.287 0 0 1 3.003-.163c3.865 0 7.566.722 10.965 2.049a29.559 29.559 0 0 1 4.074 1.932c9.289 5.238 15.575 15.249 15.575 26.657.002 15.808-12.058 28.869-27.447 30.451z" style="" fill="#fff5ee" data-original="#fff5ee"></path><path d="M377.321 118.394c-.303-.163-.629-.303-.931-.442-.629-.303-1.234-.582-1.793-.908-1.304-.722-2.282-1.583-2.282-2.98 0-1.071.861-1.769 1.793-2.095a3.81 3.81 0 0 1 1.374-.279c1.141 0 2.468.14 3.003 1.257.046.582.489 1.071 1.001 1.28.21.093.419.14.629.14.792 0 1.49-.559 1.49-1.56 0-.652-.186-1.234-.512-1.7-.885-1.35-2.724-2.049-4.284-2.282.023-.629.023-1.373.023-1.863 0-.931-.582-1.187-1.42-1.187-1.281 0-1.49.815-1.49 1.956v1.211c-.047 0-.07.023-.116.047-2.375.605-4.563 2.352-4.563 4.982 0 4.028 2.91 5.331 5.448 6.355.093.047.163.07.256.116.349.14.722.279 1.071.442 1.537.722 2.98 1.746 2.98 3.585 0 2.072-1.606 2.864-3.329 2.98-.186.047-.396.047-.582.047-.792 0-1.606-.116-2.282-.419-.815-.303-1.42-.861-1.42-1.723 0-.279.07-.605.14-.955.07-.349.14-.722.14-1.141 0-.861-.629-1.42-1.467-1.42-1.839 0-1.839 1.909-1.839 3.539 0 2.142 1.327 3.562 3.096 4.33.675.302 1.42.512 2.212.628-.023.861-.023 1.909-.023 2.468 0 .931.582 1.187 1.444 1.187.605 0 .978-.187 1.187-.536.233-.349.279-.838.279-1.443v-1.7c2.864-.489 5.518-2.421 5.518-5.867-.001-3.35-2.399-4.933-4.751-6.05z" style="" fill="#fff5ee" data-original="#fff5ee"></path><path d="M408.471 120.745c0 17.368-13.2 31.662-30.103 33.408l-.046-.279-.21-2.165-.047-.512-1.792-17.74-.373-3.772-.233-2.235-.14-1.327-.582-5.681-.279-2.77-.07-.629-.256-2.77-.233-2.305-.303-2.98-.047-.396-.442-4.26-1.42-14.062-.047-.512-.233-2.398-.023-.14c.442-.047.885-.047 1.327-.047.326 0 .675 0 1.001.023.326-.023.652-.023.978-.023 4.353 0 8.521.838 12.339 2.352a36.25 36.25 0 0 1 4.074 1.932c10.246 5.751 17.16 16.693 17.16 29.288z" style="opacity:0.15;" fill="#ffe5d2" data-original="#ffe5d2"></path><path d="M170.862 358.673c0 16.693-12.2 30.545-28.17 33.129-1.443.233-2.91.373-4.4.419-.326.023-.675.023-1.001.023-4.563 0-8.94-.931-12.921-2.607a28.289 28.289 0 0 1-4.028-2.002c-9.941-5.797-16.622-16.6-16.622-28.962 0-18.112 14.295-32.849 32.244-33.525.442-.047.885-.047 1.327-.047.326 0 .675 0 1.001.023a32.7 32.7 0 0 1 12.967 3.026c1.35.629 2.677 1.35 3.935 2.142a33.428 33.428 0 0 1 15.668 28.381z" style="" fill="#f05d6a" data-original="#f05d6a"></path><path d="M172.841 358.673c0 17.368-13.2 31.662-30.103 33.408a42.795 42.795 0 0 1-3.469.163c-.326 0-.652 0-.978-.023-4.866-.14-9.429-1.281-13.55-3.259a32.99 32.99 0 0 1-3.935-2.235c-9.103-6.007-15.109-16.343-15.109-28.054 0-17.438 13.27-31.755 30.289-33.385a24.9 24.9 0 0 1 2.305-.163c.326-.023.652-.023.978-.023 4.354 0 8.521.838 12.339 2.351a36.341 36.341 0 0 1 4.074 1.932c10.244 5.751 17.159 16.693 17.159 29.288z" style="" fill="#ffa766" data-original="#ffa766"></path><path d="M154.542 331.551a28.082 28.082 0 0 0-4.051-1.932 30.918 30.918 0 0 0-11.221-2.095c-1.024 0-2.049.047-3.05.163-15.761 1.513-28.1 14.83-28.1 30.987 0 10.756 5.494 20.278 13.829 25.865a32.614 32.614 0 0 0 3.911 2.235 31.203 31.203 0 0 0 13.41 3.027c1.071 0 2.142-.047 3.213-.163 15.645-1.606 27.937-14.877 27.937-30.964 0-11.618-6.403-21.769-15.878-27.123zm-12.106 57.574a28.347 28.347 0 0 1-3.166.163 30.37 30.37 0 0 1-13.154-2.98 31 31 0 0 1-3.911-2.258c-8.171-5.494-13.549-14.807-13.549-25.376 0-15.854 12.129-28.962 27.611-30.475a25.5 25.5 0 0 1 3.003-.163c3.865 0 7.566.722 10.965 2.049a29.559 29.559 0 0 1 4.074 1.932c9.289 5.238 15.575 15.249 15.575 26.657 0 15.807-12.059 28.868-27.448 30.451z" style="" fill="#fff5ee" data-original="#fff5ee"></path><path d="M141.691 356.322c-.303-.163-.629-.303-.931-.442-.629-.303-1.234-.582-1.793-.908-1.304-.722-2.282-1.583-2.282-2.98 0-1.071.861-1.769 1.793-2.095a3.814 3.814 0 0 1 1.374-.279c1.141 0 2.468.14 3.003 1.257.046.582.489 1.071 1.001 1.28.209.093.419.14.628.14.792 0 1.49-.559 1.49-1.56 0-.652-.186-1.234-.512-1.699-.885-1.35-2.724-2.049-4.284-2.281.023-.629.023-1.374.023-1.863 0-.931-.582-1.187-1.42-1.187-1.281 0-1.49.815-1.49 1.956v1.211c-.047 0-.07.023-.116.047-2.375.605-4.563 2.351-4.563 4.982 0 4.028 2.91 5.331 5.448 6.356.093.047.163.07.256.116.349.14.722.279 1.071.442 1.537.722 2.98 1.746 2.98 3.585 0 2.072-1.606 2.863-3.329 2.98-.186.047-.396.047-.582.047-.792 0-1.607-.116-2.282-.419-.815-.303-1.42-.861-1.42-1.723 0-.279.07-.605.14-.954s.14-.722.14-1.141c0-.861-.628-1.42-1.466-1.42-1.839 0-1.839 1.909-1.839 3.539 0 2.142 1.327 3.562 3.096 4.33.675.303 1.42.512 2.212.629-.023.861-.023 1.909-.023 2.468 0 .931.582 1.187 1.444 1.187.605 0 .978-.186 1.187-.536.233-.349.279-.838.279-1.443v-1.699c2.863-.489 5.518-2.421 5.518-5.867-.002-3.356-2.4-4.939-4.751-6.056z" style="" fill="#fff5ee" data-original="#fff5ee"></path><path d="M172.841 358.673c0 17.368-13.2 31.662-30.103 33.408l-.046-.28-.21-2.165-.047-.512-1.792-17.74-.373-3.771-.233-2.235-.14-1.327-.582-5.681-.279-2.77-.07-.628-.256-2.771-.233-2.305-.303-2.98-.047-.396-.442-4.261-1.42-14.062-.047-.512-.233-2.398-.023-.14c.442-.047.885-.047 1.327-.047.326 0 .675 0 1.001.023.326-.023.652-.023.978-.023 4.354 0 8.521.838 12.339 2.351a36.341 36.341 0 0 1 4.074 1.932c10.245 5.753 17.16 16.695 17.16 29.29z" style="opacity:0.15;" fill="#ffe5d2" data-original="#ffe5d2"></path></g></svg>