<svg width="31" height="42" viewBox="0 0 31 42" fill="none" xmlns="http://www.w3.org/2000/svg">
<path d="M17.1638 31.6911C17.6243 31.2279 18.3793 31.2279 18.8407 31.6911L20.0044 32.8548L21.1681 31.6911C21.9081 30.9511 23.1939 31.4696 23.1939 32.5305C23.1939 32.8346 23.0771 33.1387 22.8477 33.3672L21.684 34.5309L22.8477 35.6945C23.5877 36.4346 23.0691 37.7204 22.0083 37.7204C21.7042 37.7204 21.4001 37.6035 21.1689 37.3741L20.0053 36.2105L18.8416 37.3741C18.1016 38.1142 16.8184 37.5956 16.8184 36.5348C16.8184 36.2307 16.9326 35.9266 17.1646 35.6954L18.3283 34.5317L17.1646 33.3681C16.7006 32.9067 16.7006 32.1517 17.1638 31.6911ZM18.0031 32.0471C17.5672 32.0471 17.3624 32.5727 17.6595 32.8715L19.0719 34.2839C19.209 34.421 19.209 34.6425 19.0719 34.7796L17.6595 36.192C17.3633 36.4908 17.5672 37.0164 18.0031 37.0164C18.1253 37.0164 18.2501 36.969 18.3441 36.874L19.7565 35.4643C19.8937 35.3245 20.1151 35.3245 20.2522 35.4643L21.6646 36.874C21.9608 37.1729 22.4891 36.969 22.4891 36.533C22.4891 36.4082 22.4416 36.2843 22.3467 36.192L20.9369 34.7796C20.7972 34.6425 20.7972 34.421 20.9369 34.2839L22.3467 32.8715C22.6455 32.5727 22.4416 32.0471 22.0057 32.0471C21.8809 32.0471 21.7569 32.0945 21.6646 32.1868L20.2522 33.5992C20.1151 33.7363 19.8937 33.7363 19.7565 33.5992L18.3441 32.1868C18.2501 32.0945 18.1253 32.0471 18.0031 32.0471ZM20.138 27.9364C23.723 28.0085 26.6006 30.9361 26.6006 34.5309C26.6006 36.0734 26.0697 37.4928 25.1829 38.6169H27.1763V26.4344C27.1438 26.3799 27.1235 26.3175 27.1235 26.2472V19.2238C27.1235 19.0296 27.2809 18.8723 27.4751 18.8723C27.5023 18.8723 27.5296 18.8749 27.5551 18.8819C27.5797 18.8749 27.6052 18.8723 27.6324 18.8723C27.8267 18.8723 27.984 19.0296 27.984 19.2238V25.8912H28.0016H29.9694L29.9624 16.5757C29.9624 14.8196 28.5245 13.3791 26.7658 13.3791H26.3202C25.4255 13.8353 24.4121 14.0893 23.3381 14.0893C22.2641 14.0893 21.2524 13.8353 20.356 13.3791H19.2494C17.4934 13.3791 16.0528 14.8188 16.0528 16.5757V18.5014H17.6621V17.7789C17.6621 17.3157 18.367 17.3157 18.367 17.7789V18.5014H19.1141C19.6774 18.5014 20.138 18.9619 20.138 19.5253V27.9364ZM24.5404 39.3192C21.9468 41.7783 17.8687 41.723 15.34 39.1943C13.3467 37.201 12.8316 34.1415 14.0946 31.598H2.39727C1.07715 31.598 0.000488281 30.5195 0.000488281 29.2012V19.5244C0.000488281 18.961 0.461035 18.5005 1.02441 18.5005H5.29941V15.9148C5.29941 15.4463 5.68086 15.0649 6.14668 15.0649H13.9892C14.4576 15.0649 14.8391 15.4463 14.8391 15.9148V18.5005H15.3497V16.5748C15.3497 14.4294 17.104 12.676 19.2538 12.676C16.1442 10.2274 15.8604 5.6131 18.6658 2.80763C21.2472 0.228919 25.4299 0.228919 28.0112 2.80763C30.8369 5.63507 30.5223 10.2915 27.3635 12.7234C29.2399 13.0126 30.6673 14.6439 30.6673 16.5748L30.6726 26.241C30.6726 26.4353 30.5152 26.5926 30.321 26.5926H28.0684L27.8794 26.5979V38.9676C27.8794 39.1618 27.7221 39.3192 27.5278 39.3192H24.5404ZM14.5007 30.8957C15.594 29.2442 17.3932 28.1351 19.434 27.961V23.2273C19.3347 23.2598 19.2274 23.2774 19.1149 23.2774H12.1812V25.2628C12.1812 25.457 12.0239 25.6144 11.8297 25.6144H8.30967C8.11543 25.6144 7.95811 25.457 7.95811 25.2628V23.2774H1.02441C0.911914 23.2774 0.805566 23.2598 0.702734 23.2273V29.2012C0.702734 30.1328 1.46475 30.8957 2.39727 30.8957H14.5007ZM24.1722 30.3657C21.8703 28.0639 18.1376 28.0639 15.8384 30.3657C13.5515 32.65 13.5216 36.3827 15.8384 38.6995C16.9045 39.7656 18.3767 40.4257 20.0044 40.4257C23.2581 40.4257 25.8992 37.7872 25.8992 34.5309C25.8983 32.904 25.2383 31.4318 24.1722 30.3657ZM8.30967 21.6153H11.8297C12.0239 21.6153 12.1812 21.7727 12.1812 21.9669V22.5751H19.1149C19.289 22.5751 19.434 22.431 19.434 22.2534V19.5253C19.434 19.3513 19.2898 19.2036 19.1149 19.2036H1.02441C0.847754 19.2036 0.702734 19.3504 0.702734 19.5253V22.2534C0.702734 22.4301 0.846875 22.5751 1.02441 22.5751H7.95811V21.9669C7.95811 21.7727 8.11455 21.6153 8.30967 21.6153ZM11.4781 22.3185H8.66035V24.9121H11.4781V22.3185ZM6.00254 18.5014H6.725V17.2709C6.725 17.0195 6.82695 16.7901 6.99395 16.6258C7.16094 16.4588 7.38769 16.3568 7.63906 16.3568H12.4994C13.0004 16.3568 13.4135 16.7682 13.4135 17.2709V18.5014H14.1359V15.9156C14.1359 15.8357 14.0683 15.7689 13.9892 15.7689H6.14668C6.0667 15.7689 6.00254 15.8365 6.00254 15.9156V18.5014ZM7.42725 18.5014H12.7086V17.2709C12.7086 17.1584 12.6163 17.0591 12.4994 17.0591H7.63906L7.48965 17.1215C7.45186 17.161 7.42725 17.2138 7.42725 17.2709V18.5014ZM27.5129 3.30685C25.2084 0.999719 21.4687 0.999719 19.1615 3.30685C16.857 5.61398 16.857 9.35109 19.1615 11.6582C21.4687 13.9627 25.2084 13.9627 27.5129 11.6582C29.82 9.35021 29.82 5.6131 27.5129 3.30685Z" fill="#039855"/>
</svg>
