<svg xmlns="http://www.w3.org/2000/svg" version="1.1" xmlns:xlink="http://www.w3.org/1999/xlink" width="512" height="512" x="0" y="0" viewBox="0 0 512 512" style="enable-background:new 0 0 512 512" xml:space="preserve" class=""><g><path d="M14.823 508.016c-8.18 0-14.811-6.631-14.811-14.811V258.11C-1.28 130.06 99.277 18.939 228.942 5.284c9.453-.309 19.014-1.435 28.549-1.287 51.835 0 104.439 17.101 148.123 48.153 44.126 31.366 77.189 75.679 93.131 124.814a139.316 139.316 0 0 1 2.165 6.275c7.762 24.598 11.484 49.829 11.057 75.001v80.86c0 .299-.01.597-.026.894.017.296.026.594.026.893v152.318c0 8.179-6.631 14.811-14.811 14.811H14.823z" style="" fill="#ffffff" data-original="#ffffff"></path><path d="M495.471 257.927v21.958l-9.865 35.609 9.865 25.209v33.403l-11.125 32.773 11.125 23.319v62.824H354.516L36.875 473.684 13.138 274.528v-16.601c-1.264-125.42 98.064-225.712 215.67-238.098 19.238-2.026 114.231 56.295 118.776 59.325 1.26.84 110.191 21.785 137.517 108.362 7.118 22.554 10.792 46.271 10.37 70.411z" style="" fill="#ffa2cc" data-original="#ffa2cc"></path><path d="M354.572 493.022H13.138v-218.63c8.294.37 16.563 2.123 24.265 5.184.444.173.864.346 1.284.543 4.641 1.925 9.035 4.344 13.058 7.282 2.542 1.827 4.962 3.851 7.183 6.097a52.01 52.01 0 0 1 5.085 5.826 39.945 39.945 0 0 1 1.876 2.666c11.923 17.797 13.502 40.779 21.303 60.921a91.187 91.187 0 0 0 8.22 16.242 38.124 38.124 0 0 0 1.604 2.444c1.259 1.876 2.617 3.678 4.024 5.431.346.444.716.913 1.111 1.358 7.924 9.429 17.847 17.057 29.325 21.475 5.702 2.197 11.651 3.555 17.674 4.419.494.049.963.123 1.432.173 9.8 1.284 19.846 1.333 29.745 1.555 6.295.148 12.614.395 18.908.741.494.025.963.049 1.456.099 15.033.889 30.041 2.518 44.753 5.455a78.93 78.93 0 0 1 4.196.864c.247.025.469.074.716.148a218.967 218.967 0 0 1 20.439 5.455 189.886 189.886 0 0 1 18.069 6.838c22.191 9.726 42.433 23.919 57.194 43.025 3.306 4.293 6.342 9.23 8.514 14.389z" style="" fill="#a8cfe9" data-original="#a8cfe9"></path><path d="M485.375 189.082c-77.827 15.261-99.063-67.23-153.041-90.965-55.129-11.953-101.393-1.274-103.8-77.877C340.65 6.404 454.45 79.994 485.375 189.082z" style="" fill="#cf87ac" data-original="#cf87ac"></path><path d="M464.556 419.466 74.43 455.339l-.718.057-18.722-47.451 2.58-255.39 373.267-21.282z" style="" fill="#ffead1" data-original="#ffead1"></path><path d="m74.43 455.339-.718.057-28.463-17.979-27.286-17.205L57.57 152.555z" style="" fill="#cf87ac" data-original="#cf87ac"></path><g style="opacity:0.28;"><path d="M57.57 152.555 45.249 437.417l-27.286-17.205z" style="" fill="#641043" data-original="#641043"></path></g><path d="m441.215 383.546-.815-8.59-1.21-12.712-.148-1.432-1.456-15.304-.123-1.358-.691-7.109v-.025l-1.037-10.836v-.025l-.395-4.196-.148-1.432-1.21-12.861-.148-1.407-2.543-27.005-.148-1.456-2.271-23.82v-.025l-1.827-19.303-.148-1.456-3.678-38.68c-.025-.37-.346-.691-.741-.617l-43.198 2.987-1.432.099-46.974 3.258-1.432.099-48.925 3.406-1.456.074-46.95 3.283-1.432.074-48.11 3.332-1.432.123-48.135 3.332-1.456.123-47.394 3.258a.563.563 0 0 0-.469.247.544.544 0 0 0-.173.494l3.061 41.519.099 1.432 3.209 43.247.099 1.407 3.061 41.371.099 1.432 2.271 30.658.617 8.269.099 1.432 3.481 47.295c.049.197.123.37.272.494a.694.694 0 0 0 .469.173h.074l50.332-4.542 1.407-.123 48.036-4.32 1.432-.123 48.036-4.344.691-.049.741-.049 46.876-4.221 1.432-.123 48.85-4.394 1.456-.148 29.992-2.715 16.859-1.506 1.456-.123 44.605-3.999c.197-.049.37-.123.469-.272.148-.148.222-.346.173-.543l-2.049-21.675zm-43.321 25.055-1.432.123-17.353 1.555-29.523 2.666-1.432.123-48.875 4.419-1.432.123-46.876 4.221-1.432.099-4.098.37-43.914 3.974-1.432.123-48.085 4.32-1.407.148-49.616 4.443-3.431-46.579-.123-1.432-.42-5.702-2.444-33.225-.123-1.432-3.036-41.322-.123-1.432-3.184-43.272-.123-1.407-3.012-40.779 46.703-3.234 1.432-.099 48.135-3.357 1.432-.099 48.11-3.332 1.456-.099 46.95-3.258 1.432-.099 48.949-3.406 1.432-.074 46.95-3.283 1.481-.074 42.457-2.962 3.604 37.965.123 1.432 2.222 23.475 1.876 19.698.148 1.432 2.493 26.24.148 1.407 1.284 13.626.148 1.456 1.53 16.218v.049l.642 6.615.123 1.358.346 3.678v.025l1.037 10.911.148 1.432 1.21 12.589.815 8.59 1.999 21.105-43.889 3.95z" style="" fill="#641043" data-original="#641043"></path><path d="m152.151 432.16-1.408.115-.143-1.407-4.021-45.926-.144-1.436-3.418-38.889-.115-1.436-3.619-41.302-.144-1.407-3.791-43.226-.115-1.408-3.561-40.353-.115-1.408 1.436-.115.115 1.436 3.561 40.325.116 1.408 3.791 43.226.115 1.407 3.647 41.302.115 1.436 3.418 38.889.115 1.436 4.021 45.897zM201.638 427.709l-1.436.114-.115-1.436-3.992-45.294-.115-1.436-3.418-38.86-.144-1.436-3.619-41.302-.115-1.436-3.82-43.197-.114-1.436-3.504-39.952-.115-1.408 1.436-.114.115 1.436 3.503 39.923.115 1.436 3.82 43.226.115 1.407 3.619 41.302.144 1.436 3.418 38.86.115 1.437 3.992 45.294zM230.675 207.184l.115 1.436 3.476 39.55.143 1.407 3.791 43.226.115 1.408 3.648 41.301.115 1.436 3.418 38.861.115 1.436 3.934 44.691.115 1.436 1.437-.115-.115-1.436-3.935-44.691-.115-1.407-3.418-38.89-.115-1.436-3.648-41.301-.114-1.408-3.792-43.226-.143-1.407-3.476-39.55-.114-1.407zM299.406 418.92l-1.436.115-.115-1.436-3.877-44.088-.144-1.436-3.418-38.889-.115-1.437-3.618-41.272-.144-1.437-3.791-43.225-.115-1.408-3.447-39.147-.115-1.437 1.436-.086.115 1.408 3.447 39.147.115 1.436 3.791 43.198.144 1.436 3.619 41.302.115 1.436 3.417 38.86.144 1.436 3.877 44.088zM349.698 414.382l-1.436.143-.115-1.465-3.82-43.455-.144-1.436-3.417-38.861-.116-1.436-3.619-41.302-.143-1.436-3.791-43.197-.115-1.436-3.418-38.745-.115-1.408 1.436-.115.115 1.436 3.418 38.717.115 1.436 3.791 43.198.144 1.436 3.619 41.301.114 1.436h.029l3.389 38.861.144 1.436 3.82 43.456zM398.008 410.045l-1.436.115-.115-1.436-3.763-42.853-.144-1.436-3.417-38.889-.115-1.436-3.619-41.302-.144-1.436-3.791-43.197-.115-1.436-3.389-38.344-.115-1.407 1.436-.115.144 1.436 3.36 38.343.115 1.408 3.791 43.226.144 1.407 3.619 41.302.143 1.436 3.39 38.889h.029l.114 1.436 3.763 42.853z" style="" fill="#641043" data-original="#641043"></path><path d="m427.045 234.642-1.436.115-42.709 3.303-1.436.115-46.931 3.647-1.436.115-48.913 3.791-1.436.087-46.903 3.647-1.436.115-48.109 3.734-1.436.115-48.079 3.705-1.437.115-47.247 3.676-1.436.115-.086-1.436 1.407-.086 47.247-3.677 1.436-.115 48.081-3.733 1.435-.115 48.081-3.705 1.436-.115 46.931-3.648 1.436-.115 48.913-3.791 1.436-.115 46.931-3.647 1.436-.087 42.709-3.331 1.408-.115zM431.296 279.246l-1.436.115-43.025 3.332-1.436.115-46.931 3.648-1.437.114-48.912 3.792-1.436.115-46.932 3.619-1.436.115-48.08 3.733-1.436.115-48.108 3.705-1.408.115-47.879 3.734-1.436.086-.086-1.407 1.407-.115 47.85-3.705 1.437-.115 48.108-3.734 1.436-.086 48.08-3.734 1.437-.115 46.902-3.648 1.436-.114 48.913-3.792 1.436-.114 46.931-3.648 1.436-.086 43.025-3.361 1.436-.115zM435.346 321.956l-1.408.114-43.341 3.361-1.464.115-46.903 3.647h-.029l-1.435.115-48.913 3.792-1.437.086-46.902 3.647-1.436.115-48.08 3.734-1.436.115-48.109 3.705-1.436.115-48.453 3.763-1.436.114-.087-1.436 1.408-.115 48.453-3.762 1.436-.115 48.08-3.705 1.436-.115 48.109-3.734 1.436-.115 46.902-3.648 1.437-.085 48.912-3.792 1.437-.115 46.931-3.647 1.436-.115 43.341-3.361 1.407-.114zM439.194 362.252l-1.435.115-43.629 3.389-1.436.115-46.931 3.619-1.436.115-48.913 3.791-1.436.115-46.931 3.619-1.436.115-48.08 3.734-1.436.114-48.109 3.734-1.407.115-49.028 3.791-1.437.115-.085-1.436 1.407-.115 48.999-3.791 1.436-.115 48.109-3.734 1.436-.115 48.08-3.733 1.436-.087 46.902-3.647 1.436-.115 48.913-3.791 1.436-.115 46.931-3.619 1.437-.115h.029l43.599-3.389 1.436-.115zM274.052 222.505l-.666-10.022c.065-1.099-.588-1.661-1.703-1.53-.42.049-.765.222-1.061.543-.074.071-2.746 2.844-2.814 2.913-.395.42-.592.765-.568 1.086.025.321.247.716.716 1.185.346.321.716.494 1.086.469.321-.025.716-.247 1.185-.642l.222-.247.42 6.418c-.04 1.11.559 1.696 1.703 1.53.37-.049.691-.099.913-.173.614-.306.621-.882.567-1.53zM322.902 219.222a3.771 3.771 0 0 0-.173-.913c-.298-.663-.858-.63-1.53-.592l-3.283.222v-.099c1.487-.686 3.003-1.868 3.678-3.505.247-.642.37-1.284.321-1.975-.099-1.284-.617-2.394-1.58-3.332-.963-.938-2.172-1.358-3.604-1.259-1.456.099-2.592.666-3.406 1.703-.839 1.061-1.21 2.197-1.135 3.456.042.676.144 1.315.913 1.456.222.049.469.049.79.025.37-.025.691-.074.913-.148s.37-.222.444-.37c.302-.477.057-1.017.173-1.58.025-.272.173-.568.42-.864.272-.296.642-.469 1.111-.494.893-.133 1.591.57 1.753 1.333.025.543-.173 1.061-.592 1.58a6.956 6.956 0 0 1-1.53 1.382c-.617.42-1.21.864-1.827 1.284a6.8 6.8 0 0 0-1.53 1.506c-.42.592-.592 1.185-.568 1.851.049.42.222.79.543 1.086.346.321.716.444 1.16.42l7.035-.469c.649-.061 1.214-.119 1.456-.79.048-.223.073-.544.048-.914zM370.667 212.384c-.315-.748-.979-1.28-1.629-1.629v-.123c.844-.434 1.32-1.404 1.259-2.394-.074-1.012-.568-1.925-1.481-2.715-.913-.765-2.098-1.111-3.579-1.012-2.04.015-4.144 1.598-4.196 3.604.025.444.346.839.963 1.135.37.197.716.272 1.012.272.518-.049.889-.37 1.135-.987l.099-.222c.188-.447.797-.717 1.358-.741.469-.025.839.049 1.086.272.272.197.395.444.42.691.025.469-.42.741-1.333.79-.692.034-1.308.133-1.456.913a3.716 3.716 0 0 0-.025.765c.025.395.074.691.173.913.074.222.222.37.395.469.173.074.346.123.494.123.148.025.346.025.617 0 .543-.025.963.074 1.259.296.321.222.469.494.494.79.025.346-.099.642-.37.938-.296.272-.765.42-1.382.469-.769.078-1.608-.285-1.876-.963l-.049-.099c-.173-.346-.321-.568-.494-.691-.173-.099-.494-.148-.963-.123-1.185.099-1.728.469-1.679 1.16 0 .272.099.592.247.963.67 1.995 2.895 3.082 4.986 2.863 1.456-.099 2.641-.592 3.555-1.481.889-.913 1.308-1.999 1.21-3.283a2.861 2.861 0 0 0-.25-.963zM418.9 212.73l-.667-9.997a7.027 7.027 0 0 0-.074-.617c-.061-.34-.288-.746-.716-.815-.222-.074-.518-.074-.889-.049a4.17 4.17 0 0 0-.938.148c-.373.137-.582.508-.592.839-.025.148 0 .346 0 .617l.346 4.912-2.937.197c0-.025.815-4.517.815-4.517.074-.321.099-.568.074-.765-.025-.543-.469-.889-1.333-1.061a2.382 2.382 0 0 0-.815-.074c-.429.021-.822.32-.913.666-.049.148-.099.37-.148.642l-1.086 6.122a1.57 1.57 0 0 0-.025.592c.023.678.136 1.353.913 1.456.197.049.469.049.765.025l4.888-.321.148 2.197c.016.484.03.967.42 1.259.658.391 2.243.398 2.641-.346.189-.414.159-.609.123-1.11zM132.61 268.295c-.987-.79-2.049-1.135-3.184-1.037-.296 0-.494.049-.617.074.025-.765.049-1.234.074-1.382l3.135-.247c.509-.05.612-.008 1.012-.272a.738.738 0 0 0 .321-.469c.049-.222.049-.518.025-.864a3.766 3.766 0 0 0-.173-.938c-.135-.441-.567-.545-.913-.617-1.309.052-3.757.316-5.036.346a1.64 1.64 0 0 0-.716.222c-.506.345-.762.962-.765 1.506-.074 1.16-.173 2.888-.296 5.184v.346c0 .148.099.296.222.444.148.123.444.272.864.444.444.222.864.296 1.185.272s.642-.173.938-.469c.197-.247.494-.37.864-.395.346-.025.666.049.963.272.597.382.65 1.431.197 1.901-.247.247-.592.37-1.037.42-.617.049-1.061-.049-1.284-.296-.494-.346-.913-.494-1.21-.469-.37.025-.716.247-1.037.667-.42.494-.592.913-.568 1.259.025.296.272.642.765.987.97.802 2.384 1.151 3.703 1.037 1.284-.099 2.32-.617 3.11-1.58s1.135-2.098 1.037-3.382c-.073-1.187-.616-2.174-1.579-2.964zM180.226 265.382c-.889-.716-1.95-1.037-3.135-.938-.444.025-.864.173-1.308.42.122-.609.482-1.164.963-1.679.57-.63 1.616-.99 2.542-1.061.496-.049.947-.028 1.259-.444.074-.099.148-.272.197-.469.081-.441.006-1.312-.148-1.703-.099-.222-.222-.37-.395-.444-.455-.167-.575-.154-1.086-.123-2.246.173-3.974 1.086-5.159 2.715-1.185 1.629-1.679 3.579-1.506 5.875.123 1.58.617 2.839 1.481 3.777s2.098 1.358 3.653 1.234c1.234-.099 2.246-.592 3.061-1.456.79-.889 1.16-1.925 1.061-3.135-.073-.989-.566-1.853-1.48-2.569zm-2.937 4.221c-.321.025-.568 0-.765-.049-.509-.169-.64-.613-.716-1.086-.025-.296.099-.543.321-.79s.592-.395 1.086-.42c.42-.025.741.049.987.272.222.247.346.494.37.765.05.79-.37 1.234-1.283 1.308zM228.756 256.224c-.025-.099-.049-.247-.123-.395-.267-.589-.903-.589-1.53-.568l-6.467.494c-.58.064-1.181.15-1.333.79-.116.447-.046 1.382.123 1.802.303.639.883.635 1.53.592l4.098-.321c.025.173-.099.444-.321.839-.572 1.011-1.287 2.2-1.827 3.357a11.177 11.177 0 0 0-.79 2.271c-.197.839-.272 1.654-.197 2.444.056.608.091 1.122.765 1.234.421.05 1.433-.002 1.827-.148.606-.196.646-.705.592-1.308-.049-.568.049-1.234.321-1.999a16.06 16.06 0 0 1 .938-2.246c.395-.741.765-1.481 1.16-2.222.37-.716.691-1.456.963-2.172.247-.741.37-1.382.321-1.925-.025-.223-.05-.396-.05-.519zM276.545 258.939c-.469-.701-.662-.955-1.16-1.259.499-.563.967-1.492.889-2.32-.099-1.21-.592-2.172-1.53-2.888-.913-.691-1.95-1.012-3.11-.913-1.185.074-2.197.543-3.036 1.382-.815.839-1.185 1.827-1.086 3.012.016.805.635 1.846 1.234 2.222-.701.681-1.354 1.874-1.234 2.962.099 1.358.666 2.394 1.703 3.135s2.197 1.061 3.456.963c1.21-.074 2.271-.592 3.184-1.481s1.308-1.999 1.21-3.357a3.377 3.377 0 0 0-.52-1.458zm-5.603-3.949c.173-.222.469-.346.864-.37.395-.049.691.049.913.222.222.197.346.42.37.666s-.074.469-.247.691c-.173.247-.469.37-.839.395-.395.025-.716-.049-.938-.247-.222-.197-.346-.42-.37-.666-.025-.247.049-.469.247-.691zm2.616 6.689c-.247.321-.617.494-1.16.518-.518.049-.938-.074-1.234-.321-.296-.272-.444-.568-.469-.913-.025-.346.074-.642.321-.963.272-.296.642-.469 1.16-.494.518-.049.938.049 1.234.321.296.272.444.568.469.889.025.346-.074.667-.321.963zM324.235 252.966c-.123-1.58-.617-2.839-1.481-3.801-.864-.938-2.073-1.333-3.653-1.21-1.234.099-2.246.568-3.036 1.456-.815.889-1.16 1.925-1.061 3.135.074.987.568 1.827 1.456 2.567.913.716 1.95 1.012 3.135.938a3.369 3.369 0 0 0 1.308-.42c-.276 1.021-.916 1.888-1.975 2.37a4.818 4.818 0 0 1-1.506.37c-.5.032-.966.035-1.284.444-.235.337-.249.773-.222 1.259-.01 1.116.65 1.668 1.703 1.481 2.246-.197 3.95-1.086 5.134-2.715 1.161-1.629 1.68-3.603 1.482-5.874zm-3.653-.148c-.247.247-.592.37-1.086.42-.762.072-1.304-.375-1.382-1.037-.049-.79.37-1.234 1.284-1.308.321-.025.568 0 .765.049.501.128.704.629.716 1.086.024.271-.075.543-.297.79zM369.21 256.002l-.765-9.997c-.065-.502-.04-1.008-.444-1.308a1.291 1.291 0 0 0-.494-.173c-.197-.049-.469-.074-.79-.049-.45.047-.847.203-1.111.592l-2.74 2.888c-.395.42-.592.79-.568 1.086.025.346.272.741.741 1.185.37.321.716.494 1.086.444.321-.025.716-.222 1.185-.642l.222-.222.494 6.393c.056.66.079 1.285.79 1.456.247.074.543.074.913.049.37-.025.691-.099.913-.173.629-.303.615-.883.568-1.529zM380.195 250.127c-.229-2.31-.95-5.113-3.332-6.122-1.246-.553-3.215-.396-4.344.346-1.24.735-1.725 1.768-2.098 3.11-.504 2.376-.379 4.621.543 6.862.272.642.592 1.16.987 1.604.915.997 2.327 1.493 3.801 1.382.79-.074 1.481-.272 2.073-.642 1.224-.713 1.701-1.692 2.098-3.011.335-1.228.359-2.314.272-3.529zm-4.764 3.974c-1.21.099-1.901-1.061-2.073-3.456-.197-2.419.321-3.678 1.53-3.777 1.234-.099 1.925 1.061 2.123 3.48v.099c.197 2.346-.346 3.58-1.58 3.654zM416.135 252.398l-.765-10.022c-.025-.247-.025-.42-.049-.518-.014-.223-.185-.666-.395-.79-.368-.204-.765-.241-1.259-.197-.42.025-.765.222-1.061.543-.075.071-2.721 2.869-2.789 2.937-.395.42-.592.765-.568 1.086.025.346.272.716.741 1.16.346.346.716.494 1.086.469.321-.025.716-.247 1.185-.642l.197-.247.494 6.418c.025.296.049.518.099.666.078.344.274.716.716.79.407.118 1.403.043 1.802-.148.394-.105.586-.574.592-.889-.001-.147-.001-.345-.026-.616zM423.64 251.805l-.765-9.997c-.05-.478-.039-.555-.173-.963a.805.805 0 0 0-.272-.346c-.38-.197-.766-.244-1.284-.197-.451.009-.776.25-1.111.568l-2.74 2.888c-.395.42-.592.79-.568 1.111.025.321.272.716.741 1.16.37.346.716.494 1.086.469.321-.025.716-.247 1.185-.666l.222-.222.494 6.418c.025.272.049.494.074.642.064.355.321.74.716.815.453.086 1.405.035 1.827-.148.408-.144.526-.563.592-.913 0-.125 0-.347-.024-.619zM126.069 318.256l-.765-9.997c-.067-.533-.032-.979-.444-1.308-.346-.192-.78-.245-1.259-.197-.449.018-.823.234-1.111.592l-2.74 2.863c-.42.42-.592.79-.568 1.111.025.321.272.716.741 1.16.346.346.716.494 1.086.469.321-.025.716-.247 1.16-.667l.222-.222.494 6.418c.025.272.049.494.074.642.072.336.321.736.716.815.446.105 1.423.029 1.827-.148.374-.104.569-.582.592-.889-.001-.148-.001-.371-.025-.642zM137.646 317.367a2.824 2.824 0 0 0-.197-.913c-.12-.399-.515-.557-.864-.592-.148 0-.37 0-.642.025l-3.308.247v-.099l.444-.197c.296-.148.642-.37 1.037-.691.395-.321.79-.691 1.21-1.086.395-.42.716-.938.963-1.58a4.42 4.42 0 0 0 .296-1.975c-.099-1.259-.642-2.37-1.604-3.308-.987-.938-2.197-1.333-3.629-1.234-1.456.123-2.567.691-3.382 1.753s-1.185 2.222-1.086 3.456c.05.487.029.967.444 1.259.519.375 1.611.233 2.172.049.222-.074.37-.197.444-.37.204-.409.15-.554.123-1.061.006-.518.016-.927.444-1.382.272-.321.617-.494 1.111-.518.272-.025.543 0 .765.099.559.214.863.728.987 1.234.025.543-.148 1.061-.568 1.58s-.913.963-1.53 1.407c-.592.42-1.21.864-1.802 1.284a6.916 6.916 0 0 0-1.53 1.53c-.395.592-.568 1.185-.518 1.851.02.824.867 1.591 1.703 1.481l7.01-.543c.272-.025.494-.049.642-.074.334-.098.714-.304.815-.716.05-.225.074-.545.05-.916zM177.758 314.282l-.79-9.997c.088-1.105-.596-1.688-1.703-1.506-.42.025-.765.197-1.061.543l-.049.025-2.74 2.888c-.395.42-.592.79-.568 1.111.025.321.272.716.741 1.16.37.346.716.494 1.086.469.321-.025.716-.247 1.185-.666l.222-.222.494 6.418c-.313 2.234 3.788 1.937 3.183-.223zM188.668 309.814c-.334-.734-1.006-1.289-1.654-1.604v-.123l.148-.099c.71-.48 1.198-1.393 1.086-2.32-.099-1.037-.592-1.925-1.506-2.691-.913-.79-2.098-1.111-3.579-.987-1.727.091-3.441 1.052-3.95 2.641-.173.42-.247.765-.222.987.025.469.346.839.987 1.135.37.197.716.272 1.012.247.518-.025.889-.37 1.111-.987.127-.289.162-.449.518-.691.247-.148.568-.247.938-.296.469-.025.839.074 1.086.272.272.222.395.444.42.691.025.469-.395.741-1.308.815-.418.025-.55.009-.913.173a.559.559 0 0 0-.346.272c-.099.099-.148.272-.197.469-.105.452.007 1.287.148 1.703.099.197.222.37.42.444.173.074.346.123.469.123.538.021 1.49-.102 1.901.272.321.222.469.469.494.79.025.346-.099.642-.37.938-.272.272-.741.444-1.382.469-.778.106-1.574-.269-1.876-.938-.101-.35-.377-.671-.543-.765-.173-.123-.494-.148-.963-.123-1.185.099-1.728.494-1.679 1.185.025.247.099.568.272.963.68 1.99 2.93 3.033 5.011 2.789 1.456-.099 2.641-.617 3.53-1.506.889-.913 1.284-1.999 1.185-3.283a2.512 2.512 0 0 0-.248-.965zM224.683 310.678l-.765-10.022c-.048-.497-.051-.991-.444-1.308-.123-.049-.272-.123-.494-.173a3.64 3.64 0 0 0-.765-.025c-.42.025-.765.222-1.061.543-.075.071-2.721 2.869-2.789 2.937-.395.42-.592.79-.568 1.086.025.346.272.741.741 1.185.346.321.716.469 1.086.444.321-.025.716-.222 1.185-.642l.197-.247.494 6.418c.054.537.057.714.296 1.135.099.173.272.272.518.321.419.12 1.414.038 1.802-.123.39-.153.584-.566.592-.913 0-.147 0-.345-.025-.616zM235.495 309.789l-.765-9.997c-.052-.645-.111-1.225-.79-1.432-.453-.124-1.4-.024-1.827.123-.653.297-.644.804-.592 1.481l.395 4.888-2.937.222.765-4.468c.048-.319.111-.613.074-.815-.049-.543-.494-.889-1.358-1.037a2.382 2.382 0 0 0-.815-.074c-.759.071-.963.63-1.037 1.333l-1.037 6.122c-.057.271.002.846.025 1.086.045.227.178.63.395.765.377.215.766.235 1.284.197l4.863-.37.173 2.197c.021.482.057.949.42 1.259.123.074.296.148.494.197.439.104 1.312-.006 1.703-.148.222-.099.37-.222.444-.42.18-.423.162-.59.123-1.109zM275.286 296.706c-.018-.685-.131-1.373-.913-1.481-.222-.049-.469-.049-.79-.025-.444.022-.805.255-1.111.592l-2.74 2.888c-.395.42-.592.765-.568 1.086.025.346.272.716.741 1.16.346.346.716.494 1.086.469.321-.025.716-.247 1.185-.642l.222-.247.494 6.418c.025.296.049.518.074.666.062.342.314.715.716.79.222.049.543.074.913.049.37-.049.691-.099.889-.197.412-.104.58-.572.592-.889.025-.148 0-.346 0-.617l-.79-10.02zM284.222 300.162c-.987-.765-2.049-1.135-3.184-1.037a7.027 7.027 0 0 0-.617.074c.049-.765.074-1.234.074-1.358l3.135-.247c.272-.025.469-.049.592-.074.31-.08.684-.303.741-.691.049-.222.049-.494.025-.864-.025-.395-.074-.716-.173-.938-.131-.377-.552-.583-.889-.592-1.316.05-3.757.251-5.06.346-.718.05-1.196.5-1.382 1.16-.071.269-.111.353-.099.568-.049 1.135-.148 2.863-.272 5.184-.025.173-.025.272-.025.321a.677.677 0 0 0 .247.444c.148.123.42.272.839.469.469.197.864.296 1.185.272.346-.025.642-.197.963-.494.197-.222.469-.37.839-.395.346-.025.666.074.963.272.321.222.469.518.518.913.025.42-.074.741-.321.987-.247.247-.592.395-1.037.42-.617.049-1.037-.049-1.284-.272-.494-.346-.889-.518-1.21-.494-.346.025-.691.247-1.037.691-.395.469-.592.889-.568 1.234.025.321.272.642.765.987.977.806 2.396 1.162 3.703 1.037 1.284-.099 2.32-.617 3.135-1.58.79-.963 1.135-2.073 1.037-3.382-.097-1.183-.64-2.171-1.603-2.961zM326.333 302.853l-.765-9.997c-.025-.247-.049-.42-.049-.543-.081-.486-.338-.896-.889-.963-.197-.025-.469-.049-.79-.025-.505.014-.756.266-1.111.592l-2.74 2.888c-.395.42-.592.79-.568 1.086.025.346.296.741.741 1.185.37.321.716.494 1.086.444.321-.025.716-.222 1.185-.642l.222-.247.494 6.418c.025.296.049.518.074.666.063.34.314.733.716.79.247.074.543.074.913.049.37-.025.691-.099.913-.173a.826.826 0 0 0 .444-.42c.181-.442.165-.594.124-1.108zM335.171 297.003c-.889-.716-1.95-1.037-3.135-.938-.444.025-.864.173-1.308.42a3.506 3.506 0 0 1 1.975-2.37 4.805 4.805 0 0 1 1.53-.37c.222-.025.395-.025.518-.049.442-.045.874-.348.913-.864.049-.222.074-.469.049-.79-.049-.37-.099-.691-.197-.913-.11-.381-.53-.545-.839-.568a2.491 2.491 0 0 0-.617 0c-2.246.173-3.974 1.086-5.159 2.715-1.185 1.629-1.679 3.604-1.506 5.875.123 1.58.617 2.839 1.481 3.777.864.938 2.098 1.358 3.653 1.234 1.234-.099 2.246-.592 3.036-1.456.815-.889 1.16-1.925 1.086-3.135-.073-.989-.567-1.853-1.48-2.568zm-2.963 4.221c-.296.025-.543 0-.741-.049-.502-.149-.657-.615-.716-1.086-.025-.296.099-.543.321-.79s.592-.37 1.086-.42c.42-.025.741.074.987.272.222.247.346.494.37.765.051.789-.369 1.234-1.307 1.308zM372.395 299.298l-.148-1.901-.617-8.096c-.03-.692-.116-1.376-.913-1.481-.222-.049-.469-.049-.79-.025a.905.905 0 0 0-.37.074c-.3.061-.503.28-.741.494l-2.74 2.888c-.395.42-.592.79-.568 1.111s.272.716.741 1.16c.346.346.716.494 1.086.469.321-.025.716-.247 1.185-.667l.197-.222.494 6.418c.076.652.111 1.254.815 1.456.222.049.518.049.913.025.37-.025.666-.074.889-.173.641-.29.636-.875.567-1.53zM382.293 287.968c-.025-.123-.049-.247-.123-.42-.264-.574-.912-.575-1.53-.543l-6.467.494c-.596.061-1.193.114-1.333.79-.049.222-.074.518-.049.913.049.346.099.666.197.889.27.636.882.614 1.506.568l4.098-.296c.025.148-.099.42-.321.839-.247.395-.518.889-.839 1.481a18.858 18.858 0 0 0-.987 1.876c-.321.667-.568 1.432-.79 2.271-.197.839-.272 1.629-.197 2.419.055.605.094 1.146.765 1.234.222.049.543.049.913 0a5.93 5.93 0 0 0 .913-.123c.611-.216.647-.717.592-1.308-.049-.592.049-1.259.321-2.024.247-.741.568-1.506.938-2.246.395-.741.765-1.481 1.16-2.197.37-.741.691-1.456.963-2.197.247-.741.37-1.382.321-1.925-.026-.223-.051-.396-.051-.495zM418.505 295.744l-.79-9.997c-.026-.543-.012-.984-.444-1.308-.099-.074-.272-.123-.469-.173-.197-.049-.469-.049-.79-.025-.42.025-.765.222-1.061.543-.075.071-2.721 2.869-2.789 2.937-.395.42-.592.765-.568 1.086s.272.716.741 1.16c.37.346.716.494 1.086.469.321-.025.716-.247 1.185-.642l.222-.247.494 6.418c.061.663.079 1.266.79 1.456.247.049.543.074.913.049.37-.049.691-.099.913-.197.63-.278.613-.891.567-1.529zM428.675 290.782c-.448-.701-.658-.957-1.16-1.259.499-.563.967-1.492.889-2.32-.074-1.21-.592-2.172-1.506-2.888a4.392 4.392 0 0 0-2.468-.913 2.043 2.043 0 0 0-.666-.025c-1.185.099-2.197.568-3.012 1.407-.839.839-1.21 1.827-1.111 3.012.056.804.643 1.873 1.259 2.222-.432.447-.697.749-1.012 1.456-.197.494-.296.987-.247 1.506.099 1.358.667 2.394 1.703 3.135.741.518 1.53.839 2.394.938.346.049.716.049 1.086.025 1.185-.099 2.246-.592 3.16-1.481.913-.889 1.308-2.024 1.21-3.357-.025-.495-.198-.989-.519-1.458zm-5.603-3.974c.173-.197.469-.321.864-.37.099 0 .197 0 .296.025.272 0 .469.074.642.222.222.197.321.42.346.667.025.222-.049.469-.247.691-.173.247-.444.37-.839.395h-.025c-.395.025-.691-.049-.913-.247s-.346-.42-.37-.666a1.138 1.138 0 0 1 .246-.717zm2.616 6.714c-.222.296-.617.494-1.135.518-.272.025-.494 0-.716-.099a1.015 1.015 0 0 1-.518-.247c-.296-.247-.469-.568-.494-.889-.025-.346.099-.666.346-.963.197-.222.444-.37.79-.469.123-.025.222-.049.346-.049.543-.025.938.074 1.234.346.296.272.444.568.469.889.049.321-.075.667-.322.963zM129.5 361.775l-.79-9.997c-.017-.465-.029-.546-.148-.963-.162-.391-.376-.428-.765-.543-.222-.025-.469-.049-.79-.025-.45.035-.776.274-1.111.592l-2.74 2.888c-.395.42-.592.79-.568 1.086.025.346.272.741.741 1.185.37.321.716.494 1.086.444.321-.025.716-.222 1.185-.642l.222-.222.494 6.393c.058.539.021.715.272 1.135a.815.815 0 0 0 .518.321c.45.141 1.401.031 1.827-.123.222-.099.37-.222.444-.42.179-.448.163-.577.123-1.109zM139.497 354.493c-.123-1.58-.617-2.839-1.481-3.777-.864-.938-2.073-1.358-3.653-1.234-1.234.099-2.246.592-3.036 1.481-.815.864-1.16 1.925-1.061 3.135.074.963.568 1.827 1.456 2.543.913.716 1.95 1.037 3.11.938.444-.025.889-.173 1.333-.395-.281.991-.923 1.894-1.975 2.345-.536.27-1.428.372-2.024.42-.123.025-.247.049-.42.123-.364.162-.448.375-.543.765-.106.422.008 1.281.148 1.654.099.222.222.37.37.469.417.202.65.143 1.16.123 2.246-.173 3.95-1.061 5.134-2.715 1.161-1.63 1.655-3.58 1.482-5.875zm-3.653-.148c-.247.247-.592.395-1.086.42-.444.049-.79-.049-1.012-.272-.222-.222-.346-.469-.37-.741-.074-.815.37-1.259 1.284-1.333.482-.036.91.015 1.185.346.217.243.286.479.296.79a.975.975 0 0 1-.297.79zM179.461 356.986a.713.713 0 0 0-.395-.444c-.43-.194-.603-.156-1.135-.123l-3.283.247v-.074c1.452-.733 2.98-1.908 3.653-3.555a4.525 4.525 0 0 0 .296-1.975c-.099-1.284-.642-2.394-1.604-3.332-.987-.913-2.197-1.333-3.629-1.234-1.456.123-2.592.716-3.406 1.753-.815 1.061-1.16 2.222-1.061 3.456 0 .222.025.395.049.518.038.465.334.875.864.938.451.093 1.288.017 1.703-.148.399-.101.524-.51.592-.815 0-.666-.164-1.416.42-1.999.247-.296.617-.469 1.111-.518.272-.025.543.025.765.099.535.205.899.745.963 1.234.049.543-.123 1.061-.543 1.58s-.913.987-1.53 1.407c-.592.42-1.21.864-1.802 1.308a6.332 6.332 0 0 0-1.53 1.506c-.395.592-.592 1.21-.543 1.851.049.444.222.79.568 1.086.321.296.716.444 1.135.42l7.035-.543c.648-.076 1.251-.111 1.456-.815.049-.222.074-.518.049-.889-.05-.396-.099-.692-.198-.939zM190.174 352.049c-.11-1.722-.638-3.637-1.777-5.011a4.28 4.28 0 0 0-1.555-1.086c-.642-.272-1.358-.37-2.172-.321-.839.074-1.555.296-2.172.667-.592.37-1.061.815-1.358 1.333-1.44 2.64-1.283 5.904-.173 8.64.558 1.274 1.224 2.126 2.542 2.666.666.272 1.407.37 2.246.321.79-.074 1.481-.272 2.073-.642a4.013 4.013 0 0 0 1.358-1.284c.926-1.536 1.139-3.509.988-5.283zm-4.739 3.999c-1.21.099-1.901-1.061-2.098-3.456-.173-2.419.321-3.678 1.555-3.777 1.21-.099 1.925 1.061 2.098 3.48l.025.099c.172 2.346-.346 3.58-1.58 3.654zM230.04 353.11c-.292-.673-.862-.621-1.53-.592l-3.283.272v-.099c1.456-.756 2.977-1.873 3.629-3.555a3.87 3.87 0 0 0 .296-1.975c-.099-1.284-.617-2.394-1.604-3.308-.963-.938-2.172-1.358-3.604-1.234-1.456.099-2.592.691-3.406 1.753-.815 1.061-1.185 2.197-1.086 3.456.049.676.143 1.355.938 1.432.421.099 1.317-.001 1.679-.123a.927.927 0 0 0 .592-.839c-.001-.247-.046-.826.025-1.135 0-.272.148-.568.395-.864.272-.296.642-.469 1.111-.518.862-.068 1.632.537 1.753 1.333.049.543-.148 1.086-.568 1.58-.395.518-.913.987-1.506 1.407-.617.444-1.21.864-1.827 1.308-.592.444-1.111.938-1.506 1.53-.42.568-.592 1.185-.543 1.827.025.444.222.815.543 1.111.346.296.716.42 1.16.395l7.035-.543c.62-.073 1.245-.13 1.432-.79.139-.447.029-1.422-.125-1.829zM237.247 353.481l-.765-9.997c-.04-.703-.113-1.377-.913-1.506-.222-.025-.469-.049-.79-.025-.42.049-.765.222-1.061.568-.083.006-2.73 2.879-2.789 2.913-.395.42-.592.79-.568 1.086.025.346.272.741.741 1.185.346.321.716.494 1.086.444.321-.025.716-.222 1.185-.642l.197-.222.494 6.393c.079.655.092 1.289.815 1.456.401.141 1.4.033 1.802-.123.651-.294.618-.877.566-1.53zM277.162 350.395c-.025-.37-.074-.691-.173-.913-.312-.652-.867-.611-1.53-.568l-3.283.247v-.099c.961-.401 1.879-1.148 2.666-1.975.395-.42.716-.938.987-1.555a4.525 4.525 0 0 0 .296-1.975c-.099-1.284-.642-2.394-1.604-3.332-.987-.938-2.197-1.333-3.629-1.234-1.456.123-2.592.716-3.406 1.753-.815 1.061-1.16 2.222-1.061 3.456-.006.685.142 1.36.913 1.456.409.093 1.307.019 1.679-.148a.8.8 0 0 0 .469-.37c.262-.503.046-1.017.148-1.58.025-.272.148-.568.42-.864.247-.296.617-.469 1.111-.518.272-.025.543.025.765.099.528.208.879.74.963 1.234.049.543-.148 1.061-.543 1.58a7.67 7.67 0 0 1-1.53 1.407c-.617.42-1.21.864-1.827 1.308a6.243 6.243 0 0 0-1.506 1.506c-.42.592-.592 1.21-.543 1.851.049.42.222.79.568 1.086.321.296.716.444 1.135.395l7.035-.518c.616-.078 1.26-.102 1.432-.815.073-.223.073-.519.048-.914zM288.122 348.642c-.285-.685-.885-.615-1.53-.592l-3.283.272-.025-.099.444-.222c1.833-1 3.751-2.96 3.505-5.307-.099-1.284-.642-2.394-1.604-3.332-.987-.913-2.172-1.333-3.629-1.21-1.432.099-2.567.691-3.382 1.753-.815 1.061-1.185 2.197-1.086 3.456.031.676.141 1.32.913 1.432.435.097 1.311.003 1.703-.123.222-.099.37-.222.444-.395.296-.492.053-1.019.148-1.58.025-.272.173-.568.42-.864.272-.296.642-.469 1.111-.518.87-.078 1.616.565 1.753 1.333.058 1.275-1.071 2.25-2.098 2.987-.592.444-1.21.864-1.802 1.308a6.424 6.424 0 0 0-1.53 1.53c-.395.568-.568 1.185-.518 1.827.025.444.197.79.543 1.111.346.296.716.42 1.16.395l7.01-.543c.638-.072 1.238-.118 1.456-.79.049-.247.074-.543.049-.913a3.519 3.519 0 0 0-.172-.916zM327.568 345.582c-.267-.641-.882-.597-1.506-.568l-3.308.247v-.074c1.463-.738 2.975-1.888 3.653-3.555a4.473 4.473 0 0 0 .296-1.975c-.099-1.284-.642-2.394-1.604-3.332-.987-.913-2.197-1.333-3.629-1.21-1.456.099-2.567.691-3.406 1.753-.815 1.037-1.16 2.197-1.061 3.456.034.507.041.94.444 1.259.099.074.272.123.469.173.435.097 1.311.003 1.703-.123.386-.14.543-.523.592-.839 0-.666-.164-1.416.42-1.999.247-.296.617-.469 1.111-.518.866-.102 1.604.571 1.753 1.333.025.543-.148 1.061-.568 1.58-.42.518-.913.987-1.53 1.407-.592.42-1.21.864-1.802 1.308a6.424 6.424 0 0 0-1.53 1.53c-.395.568-.592 1.185-.543 1.827.049.444.222.79.568 1.111.321.296.716.42 1.16.395l7.01-.543c.648-.076 1.251-.111 1.456-.815.124-.442.031-1.412-.148-1.828zM338.231 342.076c-.34-.732-.986-1.296-1.654-1.604v-.123c.793-.491 1.324-1.414 1.21-2.419-.074-1.037-.568-1.925-1.481-2.691-.913-.79-2.123-1.111-3.579-.987-1.044.041-2.122.46-2.839 1.012-.754.612-1.321 1.79-1.358 2.617.049.469.37.839.987 1.135.395.197.716.272 1.012.247.518-.025.889-.37 1.135-.987.127-.608.78-.909 1.456-.987.469-.025.815.074 1.086.272.247.197.395.444.42.691.025.469-.42.741-1.308.815-.533.027-.928.047-1.284.42-.074.123-.123.296-.173.494-.093.451-.017 1.288.148 1.703.146.365.553.566.889.568.148.025.37 0 .642 0 .518-.049.938.049 1.259.272.296.222.469.469.494.79.025.346-.099.642-.37.913-.296.296-.741.469-1.382.494-.809.12-1.639-.298-1.925-1.037-.173-.346-.346-.568-.494-.691-.173-.099-.494-.123-.963-.099-1.185.099-1.753.494-1.679 1.185 0 .247.099.568.272.963.659 1.992 2.944 3.037 5.011 2.789 1.456-.099 2.617-.617 3.53-1.506.889-.913 1.284-1.999 1.185-3.283a3.045 3.045 0 0 0-.247-.966zM378.146 341.706c-.099-.222-.222-.395-.395-.469-.444-.183-.588-.125-1.135-.123l-3.283.272v-.099c1.472-.75 2.99-1.877 3.629-3.555.272-.642.37-1.284.321-1.975-.099-1.284-.642-2.394-1.629-3.308-.963-.938-2.172-1.358-3.604-1.234-1.456.099-2.592.691-3.406 1.753-.815 1.061-1.185 2.197-1.086 3.456.045.664.157 1.36.938 1.432.197.049.469.074.765.049.395-.025.691-.099.913-.173a.918.918 0 0 0 .592-.839c.023-.637-.133-1.412.42-1.999.272-.296.642-.469 1.111-.494.872-.12 1.633.53 1.753 1.333.049.518-.148 1.061-.543 1.58-.42.494-.938.963-1.53 1.407-.617.42-1.21.839-1.827 1.284-.592.444-1.111.938-1.506 1.53-.42.568-.592 1.185-.543 1.827a1.602 1.602 0 0 0 1.703 1.506l7.035-.543c.63-.056 1.241-.133 1.432-.79.074-.247.074-.543.049-.913-.026-.372-.075-.693-.174-.915zM387.995 332.869l-.074-1.086a7.027 7.027 0 0 0-.074-.617c-.081-.332-.315-.745-.741-.815-.496-.166-1.38-.014-1.802.123-.417.109-.561.523-.617.839 0 .148 0 .346.025.617l.37 4.912-2.913.222c0-.025.766-4.46.758-4.484.056-.316.08-.6.081-.799-.049-.543-.494-.889-1.358-1.061-.296-.049-.568-.074-.815-.049-.451.026-.776.3-.913.666-.049.148-.099.37-.148.642l-1.012 6.146c-.059.252.007.856.025 1.086.031.236.201.636.395.765.346.192.78.245 1.259.197l4.888-.37.148 2.197c.051.679.155 1.355.938 1.432.197.049.469.074.765.049.395-.049.691-.099.938-.197.64-.266.595-.885.568-1.506l-.691-8.909zM423.689 338.201c-.074-.222-.222-.395-.395-.469-.417-.185-.613-.125-1.111-.123l-3.308.272v-.099c1.485-.726 3.008-1.877 3.653-3.555a4.473 4.473 0 0 0 .296-1.975c-.099-1.284-.642-2.394-1.604-3.308-.987-.938-2.197-1.358-3.629-1.234-1.012.074-1.876.395-2.592.963-.296.222-.543.494-.79.79-.765 1.012-1.135 2.074-1.111 3.258.095.543-.012 1.225.543 1.481a.95.95 0 0 0 .395.148c.222.049.469.074.79.049.37-.049.691-.099.913-.173.398-.162.529-.478.592-.839-.007-.641-.148-1.421.42-1.999.272-.296.617-.469 1.111-.494.296-.025.543 0 .765.099.568.174.848.738.987 1.21.025.543-.148 1.086-.568 1.58-.42.518-.913.987-1.53 1.432l-.741.518c-.346.247-.716.494-1.061.765a6.424 6.424 0 0 0-1.53 1.53c-.395.568-.592 1.185-.518 1.827.025.444.197.815.543 1.111s.716.42 1.16.395l2.715-.222h.025l4.27-.321c.647-.055 1.233-.12 1.456-.79.049-.247.074-.543.049-.913a2.727 2.727 0 0 0-.195-.914zM431.588 332.598c-.987-.79-2.049-1.135-3.184-1.037a7.027 7.027 0 0 0-.617.074c.025-.765.049-1.234.074-1.382l3.135-.222c.272-.025.469-.049.592-.074.31-.1.684-.306.741-.691.049-.222.049-.518.025-.864-.025-.395-.074-.716-.173-.938-.13-.395-.549-.577-.889-.592-.148-.025-.346 0-.642 0-1.069.106-3.387.282-4.419.321-.47.026-.92.316-1.16.667-.153.298-.342.757-.321 1.061-.049 1.16-.148 2.888-.272 5.208-.025.148-.025.272-.025.321.025.173.099.296.247.444.123.123.42.272.839.469.469.197.864.296 1.185.247.346 0 .642-.173.938-.469.222-.247.494-.37.864-.395.346-.025.666.074.963.272.321.222.469.518.494.913.049.42-.074.741-.296.987-.247.247-.592.395-1.037.42-.617.049-1.037-.049-1.284-.272-.494-.346-.889-.518-1.21-.494-.346.025-.691.247-1.037.666-.395.494-.592.913-.568 1.259.025.296.272.642.765.987.977.791 2.392 1.169 3.703 1.037 1.284-.099 2.32-.617 3.11-1.58.815-.963 1.16-2.098 1.061-3.382-.096-1.184-.639-2.172-1.602-2.961zM133.548 402.726c-.049-.37-.099-.691-.197-.913-.122-.404-.531-.524-.864-.592-.148 0-.37 0-.642.025l-3.308.247v-.099c1.485-.726 3.008-1.877 3.653-3.555.272-.617.37-1.284.321-1.975-.099-1.259-.642-2.37-1.604-3.308-.987-.938-2.172-1.358-3.629-1.234-1.432.099-2.567.691-3.406 1.728-.815 1.061-1.16 2.222-1.086 3.456.025.222.049.395.049.518.089.476.347.873.889.938.197.049.469.049.765.025.395-.025.691-.074.913-.173.378-.099.582-.496.592-.815.038-.253-.052-.817.025-1.135.075-.686.708-1.342 1.53-1.382.85-.077 1.626.551 1.728 1.333.049.543-.148 1.086-.543 1.58a7.67 7.67 0 0 1-1.53 1.407c-.617.42-1.234.864-1.827 1.308a6.332 6.332 0 0 0-1.53 1.506c-.395.592-.592 1.185-.543 1.851.062.806.865 1.592 1.703 1.481l7.035-.518c.272 0 .494-.049.642-.074.355-.079.7-.278.815-.716.049-.223.074-.519.049-.914zM141.941 396.95c-.889-.716-1.925-1.037-3.11-.938a2.872 2.872 0 0 0-1.308.395c.213-1.009.945-1.9 1.975-2.345.536-.27 1.428-.372 2.024-.42.469-.059.874-.32.938-.864.049-.222.049-.469.049-.79-.049-.37-.099-.691-.197-.913-.111-.393-.534-.522-.839-.592-.148 0-.346 0-.617.025-2.246.173-3.974 1.061-5.159 2.691-1.185 1.629-1.703 3.604-1.53 5.875.123 1.58.617 2.839 1.481 3.777.864.963 2.074 1.358 3.629 1.259 1.234-.099 2.246-.592 3.061-1.456.815-.889 1.16-1.925 1.086-3.135-.076-.989-.57-1.853-1.483-2.569zm-2.962 4.221c-.634.041-1.192-.121-1.382-.716-.11-.415-.124-.87.247-1.234.222-.222.592-.37 1.086-.395.42-.049.741.049.987.272.222.222.346.469.37.765.049.79-.37 1.234-1.308 1.308zM183.065 398.135c-.074-.222-.197-.395-.395-.469-.416-.172-.614-.151-1.111-.123l-3.308.247v-.099c1.487-.694 2.992-1.862 3.653-3.53.272-.642.37-1.284.321-1.975-.099-1.284-.642-2.394-1.604-3.332-.987-.913-2.172-1.333-3.629-1.234-1.432.123-2.567.691-3.382 1.753-.839 1.061-1.185 2.197-1.111 3.456.025.222.049.395.049.494.082.466.338.905.889.938.197.049.469.074.765.049.395-.049.691-.099.913-.173.391-.127.584-.492.592-.839.025-.629-.138-1.408.444-1.975.247-.321.617-.494 1.111-.518.86-.114 1.619.556 1.728 1.333.049.543-.148 1.061-.543 1.58a7.67 7.67 0 0 1-1.53 1.407c-.617.42-1.234.864-1.827 1.284a6.424 6.424 0 0 0-1.53 1.53c-.395.568-.592 1.185-.543 1.827.049.444.222.815.568 1.111.321.296.716.42 1.135.395l7.035-.518c.272-.025.494-.049.642-.074.337-.117.697-.296.815-.716.049-.247.074-.543.049-.913-.048-.373-.097-.694-.196-.916zM192.717 387.767c0-.123-.049-.247-.123-.395-.121-.374-.36-.445-.741-.543-.222-.049-.469-.049-.79-.025l-6.467.469a6.71 6.71 0 0 0-.568.074c-.346.099-.652.308-.765.716a2.707 2.707 0 0 0-.025.913c.025.37.074.666.173.889.123.392.554.573.889.592.148.025.346.025.617 0l4.098-.321c.025.173-.099.444-.321.864-.247.395-.518.889-.839 1.456-.346.592-.666 1.21-.987 1.876-.321.691-.592 1.432-.79 2.271s-.272 1.654-.222 2.444c.025.272.049.469.074.592.078.299.298.612.691.642.222.025.543.025.913 0a5.93 5.93 0 0 0 .913-.123.824.824 0 0 0 .592-.741c.025-.123.025-.321 0-.592-.049-.568.049-1.234.321-1.999.247-.741.568-1.506.963-2.246.37-.741.765-1.456 1.16-2.197.37-.716.691-1.456.963-2.197.247-.741.37-1.358.321-1.901-.026-.222-.026-.394-.05-.518zM232.804 394.432c-.122-.404-.531-.524-.864-.592-.148 0-.37 0-.666.025l-3.283.247v-.099c1.466-.714 3.003-1.877 3.653-3.53.247-.642.37-1.308.321-1.975-.099-1.284-.642-2.394-1.604-3.332-.987-.938-2.197-1.358-3.629-1.234-1.432.099-2.567.691-3.406 1.728-.815 1.061-1.16 2.222-1.086 3.456.025.222.049.395.049.518.08.496.335.875.889.938.406.095 1.327.013 1.679-.148.378-.099.582-.496.592-.815-.002-.669-.142-1.418.444-1.999.247-.296.617-.469 1.111-.494.838-.123 1.612.541 1.728 1.333.049.518-.148 1.061-.568 1.58a6.956 6.956 0 0 1-1.53 1.382c-.592.444-1.21.864-1.802 1.308a6.332 6.332 0 0 0-1.53 1.506c-.42.592-.592 1.21-.543 1.851.025.42.222.79.543 1.086.346.321.741.444 1.16.42l7.035-.543c.272 0 .469-.025.617-.074.358-.08.741-.281.815-.716.074-.222.074-.518.049-.889-.026-.395-.075-.691-.174-.938zM242.727 390.433c-.45-.701-.678-.927-1.16-1.259.544-.517.968-1.517.913-2.296-.099-1.21-.592-2.172-1.53-2.888a4.424 4.424 0 0 0-3.11-.963 4.722 4.722 0 0 0-3.036 1.407c-.815.815-1.185 1.827-1.111 2.987.069.84.635 1.845 1.259 2.246-.713.647-1.384 1.871-1.259 2.937.099 1.358.666 2.419 1.703 3.16a5.107 5.107 0 0 0 3.456.963c1.21-.074 2.246-.568 3.16-1.456.913-.913 1.333-2.024 1.234-3.357-.05-.518-.222-.987-.519-1.481zm-5.603-3.974c.197-.197.469-.321.889-.37.395-.025.691.074.913.247.222.197.346.42.37.666 0 .247-.074.469-.247.691-.197.247-.469.37-.864.395-.395.025-.691-.049-.913-.247-.247-.197-.37-.42-.37-.667a.988.988 0 0 1 .222-.715zm2.617 6.714c-.247.321-.617.494-1.16.518-.518.049-.938-.074-1.234-.346a1.277 1.277 0 0 1-.469-.889 1.233 1.233 0 0 1 .346-.963c.247-.296.617-.469 1.135-.494.543-.049.938.049 1.234.321.296.272.444.568.469.889.024.347-.075.668-.321.964zM282.914 390.729c-.118-.402-.517-.576-.864-.592a2.7 2.7 0 0 0-.642 0l-3.308.247v-.099c1.476-.694 2.997-1.862 3.653-3.53.272-.642.37-1.284.321-1.975-.099-1.284-.642-2.394-1.604-3.332-.987-.913-2.172-1.333-3.629-1.234-1.432.123-2.567.691-3.406 1.753-.815 1.061-1.16 2.197-1.086 3.456.025.222.049.395.049.494.063.467.34.904.889.938.197.049.469.074.765.049.395-.049.691-.099.913-.173.391-.127.584-.492.592-.839.013-.628-.146-1.412.444-1.975.247-.321.617-.494 1.111-.518.861-.115 1.605.557 1.728 1.333.049.543-.148 1.061-.568 1.58-.395.518-.913.987-1.506 1.407-.617.42-1.234.864-1.827 1.284a6.424 6.424 0 0 0-1.53 1.53c-.395.568-.592 1.185-.543 1.827.028.866.864 1.585 1.703 1.506l7.035-.518c.272-.025.469-.049.617-.074.333-.112.738-.281.815-.716.074-.247.099-.543.049-.913-.023-.373-.073-.693-.171-.916zM291.208 380.633c-.864-.938-2.074-1.333-3.653-1.234-1.234.099-2.246.592-3.061 1.456-.79.889-1.16 1.925-1.061 3.135.074.987.568 1.827 1.456 2.567a4.317 4.317 0 0 0 3.135.938c.42-.025.864-.148 1.308-.395-.281.991-.923 1.894-1.975 2.345-.529.266-1.409.368-2.024.42-.242.02-.661.167-.79.395-.206.345-.239.777-.197 1.259.059.581.097 1.069.543 1.358.417.206.657.142 1.135.123 2.246-.173 3.974-1.061 5.134-2.691 1.185-1.629 1.679-3.604 1.53-5.875-.123-1.579-.616-2.838-1.48-3.801zm-2.197 3.654c-.222.222-.592.37-1.086.395-.444.049-.765-.049-1.012-.272a1.183 1.183 0 0 1-.37-.765c-.049-.79.37-1.234 1.308-1.308.296-.025.543 0 .741.074.528.14.684.599.741 1.086-.001.271-.1.543-.322.79zM332.159 384.361c-.303-.75-1.005-1.265-1.629-1.604v-.123c.818-.446 1.307-1.425 1.234-2.394-.099-1.037-.592-1.95-1.506-2.715-.913-.765-2.098-1.111-3.579-1.012-1.692.109-3.458 1.064-3.949 2.666-.173.42-.247.741-.222.987.025.444.346.839.987 1.135.37.173.691.272 1.012.247.494-.049.889-.37 1.111-.987.127-.289.162-.449.518-.691.247-.173.568-.247.938-.296.469-.025.839.074 1.086.272.272.222.395.444.42.691.025.469-.395.741-1.308.815-.433.018-.551.027-.913.148-.387.173-.446.353-.543.765-.094.424-.013 1.32.148 1.679.124.407.551.547.889.592.148.025.346 0 .617 0 .543-.049.963.049 1.284.272.296.222.469.494.494.79.025.346-.099.642-.395.938-.272.272-.741.444-1.358.469-.824.118-1.651-.299-1.925-1.037-.173-.346-.346-.568-.494-.691-.173-.099-.494-.148-.987-.099-1.16.074-1.728.469-1.679 1.16.025.247.123.568.272.963.665 1.991 2.944 3.058 5.011 2.814 1.456-.099 2.641-.592 3.53-1.506.889-.913 1.284-1.999 1.21-3.283a2.889 2.889 0 0 0-.274-.965zM343.341 382.139c-.103-1.738-.626-3.651-1.777-5.011-.855-1.046-2.286-1.567-3.727-1.432a4.507 4.507 0 0 0-3.53 1.975c-1.43 2.657-1.291 5.902-.197 8.664.551 1.252 1.242 2.136 2.543 2.666 1.253.529 3.154.429 4.32-.321 2.217-1.293 2.534-4.232 2.368-6.541zm-4.764 3.974c-1.21.099-1.901-1.061-2.074-3.481-.173-2.419.346-3.678 1.555-3.752 1.234-.099 1.925 1.061 2.098 3.48l.025.099c.173 2.346-.37 3.556-1.604 3.654zM82.028 194.378l-.09-.735c-.727-5.958 3.719-11.296 9.711-11.659l157.401-9.526a10.417 10.417 0 0 1 10.986 9.283c.634 5.891-3.766 11.123-9.679 11.509L93.046 203.511a10.417 10.417 0 0 1-11.018-9.133z" style="" fill="#641043" data-original="#641043"></path><path d="M111.467 164.282a8.067 8.067 0 1 1-16.133-.001 8.067 8.067 0 0 1 16.133.001z" style="" fill="#ffa2cc" data-original="#ffa2cc"></path><path d="M108.716 149.637c-1.901-6.64-7.998-11.478-15.206-11.478-7.726 0-14.194 5.579-15.576 12.935l2.962-.099c1.358-5.702 6.492-9.948 12.614-9.948 5.653 0 10.516 3.653 12.268 8.763.469 1.308.716 2.74.716 4.221 0 .938-.099 1.851-.296 2.715-1.086 5.11-5.208 9.084-10.343 10.022.296.79.765 1.679 1.456 2.617 5.529-1.358 9.948-5.653 11.454-11.108.395-1.358.592-2.765.592-4.246a15.15 15.15 0 0 0-.641-4.394z" style="" fill="#641043" data-original="#641043"></path><path d="M164.51 161.348a8.067 8.067 0 1 1-16.135 0 8.067 8.067 0 0 1 16.135 0z" style="" fill="#ffa2cc" data-original="#ffa2cc"></path><path d="M161.738 146.6c-1.925-6.591-8.022-11.38-15.206-11.38-7.726 0-14.169 5.579-15.551 12.935l2.962-.074c1.333-5.727 6.492-9.973 12.589-9.973 5.653 0 10.466 3.629 12.243 8.664.469 1.358.741 2.814.741 4.32 0 .938-.099 1.827-.296 2.691-1.061 5.11-5.159 9.109-10.318 10.047.296.79.765 1.679 1.456 2.617a15.855 15.855 0 0 0 11.454-11.108c.395-1.358.592-2.765.592-4.246 0-1.555-.222-3.061-.666-4.493z" style="" fill="#641043" data-original="#641043"></path><path d="M215.598 158.66a8.067 8.067 0 1 1-16.132-.002 8.067 8.067 0 0 1 16.132.002z" style="" fill="#ffa2cc" data-original="#ffa2cc"></path><path d="M212.76 143.712c-1.999-6.467-8.022-11.157-15.132-11.157-7.726 0-14.194 5.554-15.576 12.91l2.962-.074c0-.025.025-.074.025-.099a12.95 12.95 0 0 1 12.589-9.874c5.579 0 10.343 3.53 12.145 8.467.543 1.407.839 2.937.839 4.517 0 .938-.099 1.851-.296 2.715a12.954 12.954 0 0 1-10.318 10.022c.272.79.765 1.679 1.456 2.617 5.529-1.333 9.923-5.628 11.429-11.108.395-1.358.592-2.765.592-4.246a15.497 15.497 0 0 0-.715-4.69z" style="" fill="#641043" data-original="#641043"></path><path d="M266.93 155.482a8.067 8.067 0 1 1-16.133.001 8.067 8.067 0 0 1 16.133-.001z" style="" fill="#ffa2cc" data-original="#ffa2cc"></path><path d="M264.178 140.775c-1.925-6.591-8.022-11.404-15.206-11.404-7.726 0-14.194 5.579-15.576 12.91l2.962-.074c1.358-5.727 6.492-9.973 12.614-9.973 5.653 0 10.491 3.653 12.243 8.714.494 1.333.741 2.765.741 4.27 0 .938-.099 1.851-.296 2.715-1.086 5.085-5.208 9.109-10.343 10.047.296.765.765 1.654 1.456 2.617 5.529-1.358 9.923-5.653 11.454-11.108.395-1.358.592-2.789.592-4.27a15.55 15.55 0 0 0-.641-4.444z" style="" fill="#641043" data-original="#641043"></path><path d="M317.04 152.549a8.067 8.067 0 1 1-16.133.001 8.067 8.067 0 0 1 16.133-.001z" style="" fill="#ffa2cc" data-original="#ffa2cc"></path><path d="M314.312 137.912c-1.901-6.64-8.022-11.478-15.23-11.478-7.726 0-14.194 5.579-15.576 12.935l2.962-.099c1.358-5.702 6.492-9.973 12.614-9.973 5.677 0 10.516 3.703 12.268 8.788.469 1.333.716 2.74.716 4.196 0 .938-.099 1.851-.296 2.715-1.086 5.11-5.208 9.109-10.343 10.047.296.765.79 1.654 1.456 2.617 5.529-1.358 9.948-5.653 11.454-11.133.395-1.358.592-2.765.592-4.246 0-1.531-.222-2.987-.617-4.369z" style="" fill="#641043" data-original="#641043"></path><path d="M366.661 149.615a8.067 8.067 0 1 1-16.135 0 8.067 8.067 0 0 1 16.135 0z" style="" fill="#ffa2cc" data-original="#ffa2cc"></path><path d="M363.953 135.073c-1.851-6.665-7.998-11.577-15.255-11.577-7.726 0-14.194 5.579-15.576 12.935l2.962-.099c1.358-5.702 6.492-9.948 12.614-9.948 5.727 0 10.59 3.727 12.318 8.862.444 1.284.666 2.666.666 4.098 0 .938-.099 1.851-.296 2.715-1.086 5.11-5.184 9.109-10.343 10.047.296.765.79 1.679 1.481 2.617 5.529-1.358 9.923-5.653 11.429-11.108v-.025c.395-1.358.592-2.765.592-4.246 0-1.482-.197-2.914-.592-4.271z" style="" fill="#641043" data-original="#641043"></path><path d="M414.877 146.866a8.067 8.067 0 1 1-16.133-.001 8.067 8.067 0 0 1 16.133.001z" style="" fill="#ffa2cc" data-original="#ffa2cc"></path><path d="M412.161 132.333c-1.851-6.689-7.998-11.577-15.255-11.577-7.726 0-14.194 5.554-15.551 12.91l2.937-.074c1.358-5.727 6.492-9.973 12.614-9.973 5.727 0 10.59 3.727 12.293 8.886.469 1.284.691 2.666.691 4.098 0 .938-.099 1.851-.296 2.715-1.086 5.11-5.184 9.109-10.318 10.047.272.765.765 1.654 1.456 2.617 5.529-1.358 9.923-5.653 11.429-11.133.395-1.358.592-2.765.592-4.246s-.197-2.913-.592-4.27z" style="" fill="#641043" data-original="#641043"></path><path d="M495.471 374.956v55.441l-9.454 23.524a24.113 24.113 0 0 1-22.389 15.132h-43.42a24.12 24.12 0 0 1-22.167-14.613l-34.065-79.484h131.495z" style="" fill="#a8cfe9" data-original="#a8cfe9"></path><path d="M495.471 374.956v4.715c-8.22 1.308-18.587 2.567-30.831 3.283-1.135.074-2.296.123-3.456.173-1.061.049-2.123.099-3.209.148-1.234.049-2.493.099-3.777.123a24.64 24.64 0 0 1-1.382.049l-3.012.074c-1.555.025-3.16.049-4.764.049h-.494c-1.382 0-2.74 0-4.098-.025-1.358 0-2.691-.025-4.024-.049-.42 0-.815-.025-1.234-.025a415.62 415.62 0 0 1-8.146-.272c-.099 0-.222 0-.321-.025a96.482 96.482 0 0 1-2.691-.123l-1.284-.074c-.321-.025-.642-.025-.938-.049-1.382-.074-2.74-.148-4.073-.247-31.818-2.222-53.763-7.726-53.763-7.726h131.497z" style="" fill="#641043" data-original="#641043"></path><path d="M426.719 383.166a96.234 96.234 0 0 1-2.69-.123l-1.284-.074a162.137 162.137 0 0 1-5.011-.296 419.513 419.513 0 0 1-5.061-7.726 649.562 649.562 0 0 1-13.799-22.512v-.025a81.025 81.025 0 0 1-.864-1.481c-5.061-8.689-10.343-18.341-15.033-27.968-.222-.444-.444-.888-.642-1.333-7.035-14.589-12.638-29.079-13.946-40.236a7.783 7.783 0 0 1-.124-1.283c-.79-8.294.987-14.589 6.566-17.452.123-.074.247-.148.37-.198.272-.123.518-.247.79-.321 6.443-2.518 12.54 2.074 18.119 10.787v.025c.271.42.543.815.815 1.259 4.048 6.64 7.825 15.428 11.256 25.153v.025c.173.518.345 1.012.518 1.506 3.135 9.01 5.949 18.785 8.467 28.412.148.567.272 1.111.42 1.654 4.344 16.909 7.627 33.201 9.651 43.988a676.532 676.532 0 0 1 1.482 8.219zM460.043 271.543c0 .469 0 .938-.024 1.407-.074 12.194-1.309 26.067-3.036 39.841-.049.469-.123.938-.197 1.407v.025c-.864 6.862-1.876 13.675-2.913 20.241-.099.518-.173 1.062-.272 1.58v.025c-2.493 15.453-5.233 29.375-7.208 38.878-.74 3.53-1.382 6.443-1.851 8.615-2.764 0-5.455-.025-8.121-.074-.42 0-.815-.025-1.234-.025a415.62 415.62 0 0 1-8.146-.272 752.753 752.753 0 0 1-.716-8.245 962.496 962.496 0 0 1-1.604-22.265l-.074-1.481c-.815-14.44-1.407-31.522-1.111-48.159.025-.444.025-.888.05-1.358.395-18.019 1.876-35.397 5.381-48.085v-.025c.148-.568.296-1.136.444-1.679 3.357-11.207 8.368-18.365 15.749-18.44h.148c.444 0 .864.025 1.284.099 10.045 1.259 13.476 17.008 13.451 37.99zM495.471 278.86v60.057a642.865 642.865 0 0 1-2.641 4.073c-.272.395-.543.815-.79 1.21a731.67 731.67 0 0 1-11.799 17.254c-.296.444-.617.889-.938 1.333a872.88 872.88 0 0 1-8.738 12.169 1684.917 1684.917 0 0 1-5.924 7.998c-1.135.074-2.296.123-3.456.173-1.061.074-2.123.099-3.209.148-1.234.049-2.493.099-3.777.123a24.64 24.64 0 0 1-1.382.049l-3.012.074c-1.555.025-3.16.049-4.764.049.741-2.172 1.753-5.11 3.011-8.615 4.69-13.009 12.663-33.941 22.167-53.96.197-.42.395-.839.568-1.234 7.479-15.601 15.872-30.51 24.339-40.507.123-.123.222-.271.345-.394z" style="" fill="#65b5a0" data-original="#65b5a0" class=""></path><path d="M495.471 298.434v2.567a947.27 947.27 0 0 0-4.196 7.504c-.247.42-.469.864-.716 1.308-5.85 10.688-11.651 22.019-16.884 32.608-.222.395-.42.815-.617 1.234a1338.636 1338.636 0 0 0-9.405 19.427c-.222.444-.42.889-.617 1.308-1.851 3.925-3.53 7.504-4.937 10.565a1404.874 1404.874 0 0 0-3.9 8.442 24.64 24.64 0 0 1-1.382.049c.889-1.925 2.197-4.838 3.875-8.491 1.481-3.184 3.258-6.961 5.208-11.133v-.025c.074-.173.148-.296.222-.444v-.025c2.913-6.122 6.245-13.107 9.874-20.488a.4.4 0 0 1 .099-.173c1.999-4.024 4.073-8.195 6.22-12.392l.592-1.185c5.333-10.414 11.01-21.053 16.564-30.656z" style="" fill="#641043" data-original="#641043"></path><path d="M495.471 308.185v1.259l-4.912.37h-.123a.619.619 0 0 1-.617-.568.63.63 0 0 1 .568-.666l.889-.074 4.195-.321zM479.297 330.465a.671.671 0 0 1-.42.148.609.609 0 0 1-.469-.222l-.099-.123-8.096-9.281c.197-.42.395-.84.568-1.234l8.121 9.33.444.494a.647.647 0 0 1-.049.888zM492.824 342.98a34.64 34.64 0 0 0-.79 1.21l-18.982-.543-.494-.025c-.345 0-.592-.296-.592-.617 0-.049 0-.123.025-.173a.41.41 0 0 1 .099-.173.645.645 0 0 1 .518-.272l1.061.025 19.155.568zM480.235 361.444c-.296.444-.617.889-.938 1.333l-16.267 1.605-.469.049h-.074a.614.614 0 0 1-.593-.567V363.789c.074-.173.148-.296.222-.444v-.025a.47.47 0 0 1 .321-.123l1.21-.123 16.588-1.63zM446.59 233.554c-3.727 8.861-6.097 27.992-7.603 49.788-.049.494-.074.987-.098 1.481-.815 11.849-1.358 24.413-1.728 36.484 0 .469-.025.913-.05 1.357a1497.75 1497.75 0 0 0-.469 21.945l-.025.025v1.431c-.296 18.02-.222 32.361-.197 37.422-.42 0-.815-.025-1.234-.025-.025-3.95-.074-12.959 0-24.759v-1.382c.123-13.774.42-31.127 1.135-48.628 0-.444.025-.864.05-1.308.518-12.663 1.284-25.351 2.345-36.755a58.08 58.08 0 0 1 .197-2.073c1.481-15.255 3.53-28.017 6.393-35.102.445 0 .864.024 1.284.099z" style="" fill="#641043" data-original="#641043"></path><path d="M439.407 270.704a.661.661 0 0 1-.296.074.56.56 0 0 1-.395-.148.414.414 0 0 1-.148-.148l-9.602-16.884v-.025c.148-.568.296-1.136.444-1.679l9.503 16.662.741 1.308a.64.64 0 0 1-.247.84zM460.043 271.543c0 .469 0 .938-.024 1.407l-21.13 11.873-.272.148a.661.661 0 0 1-.296.074.594.594 0 0 1-.543-.321c-.173-.296-.05-.667.247-.84l.963-.543 21.055-11.798zM437.161 308.421a.603.603 0 0 1-.568.346c-.074 0-.173 0-.247-.049l-.025-.025-12.787-5.653c.025-.444.025-.888.05-1.358l12.787 5.702.469.222c.321.124.469.495.321.815zM456.982 312.791c-.049.469-.123.938-.197 1.407v.025l-19.674 8.442-.296.123c-.074.025-.148.05-.222.05a.609.609 0 0 1-.568-.395.579.579 0 0 1 .321-.79l.815-.345 19.821-8.517zM453.872 334.463c-.099.518-.173 1.062-.272 1.58v.025l-16.983 9.997-.321.197a.496.496 0 0 1-.321.099c-.197 0-.395-.123-.518-.321-.173-.272-.074-.666.222-.839l.938-.568 17.255-10.17zM435.927 358.457c-.099.198-.321.296-.519.296-.074 0-.148 0-.222-.049-.049 0-.074 0-.099-.025l-10.367-5.998-.074-1.481 10.54 6.122.518.296c.296.148.395.543.223.839zM424.029 383.043l-1.284-.074a2204.273 2204.273 0 0 0-7.627-26.634 23.007 23.007 0 0 1-.42-1.382c-2.641-8.936-5.653-18.834-8.64-28.141-.148-.419-.272-.864-.42-1.284-1.851-5.702-3.678-11.157-5.431-16.02-.025-.025-.049-.049-.049-.099-.346-1.012-.716-1.999-1.062-2.937a167.026 167.026 0 0 0-9.553-21.031 14.68 14.68 0 0 0-.741-1.382c-5.85-10.614-11.404-18.143-13.971-21.401.123-.074.247-.148.37-.198.272-.123.518-.247.79-.321 2.641 3.382 8.022 10.713 13.675 20.957.247.445.518.889.765 1.358v.024c3.382 6.245 6.837 13.502 9.824 21.55.222.568.42 1.16.642 1.752.173.469.346.963.518 1.456v.025c2.937 8.121 6.097 17.871 9.133 27.671.173.543.321 1.062.494 1.58a1251.749 1251.749 0 0 1 5.085 16.934c.05.148.074.296.123.445v.024c3.632 12.341 6.545 22.734 7.779 27.128z" style="" fill="#641043" data-original="#641043"></path><path d="m394.926 274.209-4.493 10.244v.024l-.272.593a.624.624 0 0 1-.568.37h-.098l-21.105-4.048a7.783 7.783 0 0 1-.124-1.283l20.537 3.949.42.074.445-1.037 4.443-10.145c.272.42.543.815.815 1.259zM406.7 300.893l-5.282 8.343v.025l-.173.271c-.099.173-.296.272-.519.272a.546.546 0 0 1-.321-.099.503.503 0 0 1-.197-.197c-.025-.025-.049-.049-.049-.099a.607.607 0 0 1 .049-.543l.691-1.086 5.282-8.392c.173.517.346 1.011.519 1.505zM406.602 326.318a.604.604 0 0 1-.543.494c-.024.025-.049.025-.074.025-.025 0-.074-.025-.099-.025l-22.907-3.851c-.222-.444-.444-.888-.642-1.333l23.302 3.9.444.074a.62.62 0 0 1 .519.716zM415.587 330.958l-4.542 7.553-.123.197a.607.607 0 0 1-.519.296.69.69 0 0 1-.321-.074c-.296-.197-.395-.568-.222-.864l.691-1.135 4.616-7.627c.148.568.272 1.111.42 1.654zM416.253 355.89V355.963c-.074.296-.321.494-.592.494-.049 0-.098-.025-.148-.025l-.395-.098-16.243-3.9v-.025a81.025 81.025 0 0 1-.864-1.481l16.686 4.024 1.086.272a.7.7 0 0 1 .346.222c.05.147.075.296.124.444z" style="" fill="#641043" data-original="#641043"></path><path d="M145.756 118.177a2.47 2.47 0 0 1-.921-4.761l51.588-20.701c3.719-1.491 5.539-5.735 4.058-9.458l-7.259-18.247a7.282 7.282 0 0 0-9.123-4.204l-51.696 17.612a7.218 7.218 0 0 0-4.281 3.874 7.217 7.217 0 0 0-.119 5.772l5.74 14.102a7.218 7.218 0 0 0 4.096 4.04 7.23 7.23 0 0 0 5.752-.191l39.391-18.49a7.254 7.254 0 0 0 3.757-9.076 7.217 7.217 0 0 0-3.971-4.216 7.216 7.216 0 0 0-5.791.012l-23.285 10.137a2.468 2.468 0 1 1-1.969-4.527l23.285-10.137a12.277 12.277 0 0 1 9.714-.019 12.274 12.274 0 0 1 6.662 7.072 12.168 12.168 0 0 1-6.302 15.224l-39.391 18.491a12.123 12.123 0 0 1-9.646.319 12.113 12.113 0 0 1-6.871-6.777l-5.74-14.102a12.117 12.117 0 0 1 .201-9.683 12.114 12.114 0 0 1 7.181-6.498l51.696-17.612c6.172-2.098 12.892.997 15.301 7.053l7.259 18.247c2.484 6.246-.569 13.363-6.807 15.865l-51.587 20.701c-.305.12-.617.178-.922.178zM318.282 79.489l7.867 2.724c1.523.528 1.523 2.682 0 3.209l-7.867 2.724a11.87 11.87 0 0 0-7.332 7.332l-2.724 7.866c-.527 1.523-2.682 1.523-3.209 0l-2.724-7.866a11.87 11.87 0 0 0-7.332-7.332l-7.866-2.724c-1.523-.528-1.523-2.682 0-3.209l7.866-2.724a11.87 11.87 0 0 0 7.332-7.332l2.724-7.867c.527-1.523 2.682-1.523 3.209 0l2.724 7.867a11.872 11.872 0 0 0 7.332 7.332zM53.476 286.733l7.867 2.724c1.523.528 1.523 2.682 0 3.209l-7.867 2.724a11.87 11.87 0 0 0-7.332 7.332l-2.724 7.867c-.528 1.523-2.682 1.523-3.209 0l-2.724-7.867a11.87 11.87 0 0 0-7.332-7.332l-7.866-2.724c-1.523-.527-1.523-2.682 0-3.209l7.866-2.724a11.87 11.87 0 0 0 7.332-7.332l2.724-7.866c.528-1.523 2.682-1.523 3.209 0l2.724 7.866a11.872 11.872 0 0 0 7.332 7.332zM364.395 456.478l7.866 2.724c1.523.528 1.523 2.682 0 3.209l-7.866 2.724a11.87 11.87 0 0 0-7.332 7.332l-2.724 7.866c-.527 1.523-2.682 1.523-3.209 0l-2.724-7.866a11.87 11.87 0 0 0-7.332-7.332l-7.867-2.724c-1.523-.527-1.523-2.682 0-3.209l7.867-2.724a11.87 11.87 0 0 0 7.332-7.332l2.724-7.867c.527-1.523 2.682-1.523 3.209 0l2.724 7.867a11.87 11.87 0 0 0 7.332 7.332zM492.632 221.123a45.99 45.99 0 0 1-2.617.074c-20.389 0-37.496-14.292-41.815-33.398a42.918 42.918 0 0 1-1.061-9.479c0-14.737 7.455-27.745 18.785-35.496-.395-.716-.79-1.456-1.185-2.148-12.095 8.171-20.068 21.994-20.068 37.644 0 2.962.272 5.85.815 8.64 4.048 20.883 22.488 36.706 44.531 36.706a39.84 39.84 0 0 0 2.987-.099c-.1-.815-.223-1.63-.372-2.444zM189.187 455.649c-22.29 0-40.853 16.144-44.629 37.372h2.493c3.752-19.846 21.204-34.904 42.136-34.904s38.384 15.057 42.136 34.904h2.493c-3.776-21.228-22.339-37.372-44.629-37.372z" style="" fill="#ffead1" data-original="#ffead1"></path></g></svg>