<svg width="26" height="37" viewBox="0 0 26 37" fill="none" xmlns="http://www.w3.org/2000/svg">
<path d="M18.3182 2.36365H5.31819C4.53489 2.36459 3.78393 2.67617 3.23005 3.23005C2.67617 3.78393 2.36459 4.53489 2.36365 5.31819V31.3182C2.36459 32.1015 2.67617 32.8525 3.23005 33.4063C3.78393 33.9602 4.53489 34.2718 5.31819 34.2727H18.3182C19.1015 34.2718 19.8525 33.9602 20.4063 33.4063C20.9602 32.8525 21.2718 32.1015 21.2727 31.3182V5.31819C21.2718 4.53489 20.9602 3.78393 20.4063 3.23005C19.8525 2.67617 19.1015 2.36459 18.3182 2.36365ZM5.31819 3.54547H18.3182C18.7883 3.54547 19.2392 3.73223 19.5717 4.06469C19.9042 4.39714 20.0909 4.84804 20.0909 5.31819V30.1364H3.54547V5.31819C3.54547 4.84804 3.73223 4.39714 4.06469 4.06469C4.39714 3.73223 4.84804 3.54547 5.31819 3.54547ZM18.3182 33.0909H5.31819C4.84804 33.0909 4.39714 32.9042 4.06469 32.5717C3.73223 32.2393 3.54547 31.7884 3.54547 31.3182H20.0909C20.0909 31.7884 19.9042 32.2393 19.5717 32.5717C19.2392 32.9042 18.7883 33.0909 18.3182 33.0909Z" fill="#444CE7"/>
<path d="M8.27271 4.72729H15.3636V5.90911H8.27271V4.72729Z" fill="#444CE7"/>
<path d="M6.74521 16.5455L7.80884 16.0249L6.2252 12.7938C6.01762 12.3691 5.90951 11.9027 5.90907 11.43C5.9058 11.0615 5.9793 10.6963 6.12488 10.3577C6.27046 10.0191 6.48494 9.71459 6.75466 9.46344C6.98403 9.24785 7.25672 9.08364 7.55456 8.98175C7.85239 8.87985 8.16853 8.84262 8.48189 8.87253C9.10529 8.97413 9.66948 9.30166 10.0668 9.79264C10.4642 10.2836 10.6669 10.9037 10.6363 11.5346C10.6366 11.9385 10.5449 12.3372 10.3681 12.7004L8.2727 16.9757L8.10016 16.6211L7.03652 17.1417L7.74089 18.5782C7.78927 18.6781 7.86482 18.7624 7.95888 18.8213C8.05294 18.8803 8.1617 18.9115 8.2727 18.9115C8.38371 18.9115 8.49247 18.8803 8.58653 18.8213C8.68059 18.7624 8.75614 18.6781 8.80452 18.5782L11.4305 13.221C11.6859 12.6955 11.8184 12.1188 11.8182 11.5346C11.8475 10.6095 11.5346 9.70604 10.9392 8.99733C10.3439 8.28861 9.50808 7.82442 8.5918 7.69366C8.11474 7.6489 7.63361 7.70534 7.17987 7.8593C6.72613 8.01326 6.31 8.26127 5.9587 8.58712C5.56729 8.94949 5.25565 9.38942 5.04363 9.87888C4.83161 10.3683 4.72386 10.8966 4.72725 11.43C4.72718 12.0827 4.87571 12.727 5.16157 13.3138L6.74521 16.5455Z" fill="#444CE7"/>
<path d="M8.86364 20.0909H7.68182V22.4545C7.68182 22.6112 7.74408 22.7615 7.8549 22.8724C7.96571 22.9832 8.11601 23.0454 8.27273 23.0454H10.6364V21.8636H8.86364V20.0909Z" fill="#444CE7"/>
<path d="M11.8182 21.8636H13V23.0455H11.8182V21.8636Z" fill="#444CE7"/>
<path d="M14.1818 21.8636H15.3636V23.0455H14.1818V21.8636Z" fill="#444CE7"/>
<path d="M17.7273 24.2273H18.9091V22.4546C18.9091 22.2978 18.8469 22.1475 18.736 22.0367C18.6252 21.9259 18.4749 21.8636 18.3182 21.8636H16.5455V23.0455H17.7273V24.2273Z" fill="#444CE7"/>
<path d="M17.7273 25.4091H18.9091V26.5909H17.7273V25.4091Z" fill="#444CE7"/>
<path d="M16.5455 27.7727H18.9091V28.9545H16.5455V27.7727Z" fill="#444CE7"/>
<path d="M14.1818 27.7727H15.3636V28.9545H14.1818V27.7727Z" fill="#444CE7"/>
<path d="M11.8182 27.7727H13V28.9545H11.8182V27.7727Z" fill="#444CE7"/>
<path d="M25.4091 11.8182C25.5658 11.8182 25.7161 11.7559 25.8269 11.6451C25.9377 11.5343 26 11.384 26 11.2273V7.68182C26 7.5251 25.9377 7.3748 25.8269 7.26398C25.7161 7.15317 25.5658 7.09091 25.4091 7.09091H23.6364V4.13636C23.6351 3.03972 23.1989 1.98834 22.4235 1.21289C21.648 0.437447 20.5966 0.00125117 19.5 0H4.13636C3.03972 0.00125117 1.98834 0.437447 1.21289 1.21289C0.437447 1.98834 0.00125117 3.03972 0 4.13636V32.5C0.00125117 33.5967 0.437447 34.648 1.21289 35.4235C1.98834 36.1989 3.03972 36.6351 4.13636 36.6364H19.5C20.5966 36.6351 21.648 36.1989 22.4235 35.4235C23.1989 34.648 23.6351 33.5967 23.6364 32.5V17.7273H25.4091C25.5658 17.7273 25.7161 17.665 25.8269 17.5542C25.9377 17.4434 26 17.2931 26 17.1364V13.5909C26 13.4342 25.9377 13.2839 25.8269 13.1731C25.7161 13.0623 25.5658 13 25.4091 13H23.6364V11.8182H25.4091ZM24.8182 8.27273V10.6364H23.6364V8.27273H24.8182ZM22.4545 32.5C22.4536 33.2833 22.142 34.0343 21.5881 34.5881C21.0343 35.142 20.2833 35.4536 19.5 35.4546H4.13636C3.35306 35.4536 2.6021 35.142 2.04822 34.5881C1.49434 34.0343 1.18276 33.2833 1.18182 32.5V4.13636C1.18276 3.35306 1.49434 2.6021 2.04822 2.04822C2.6021 1.49434 3.35306 1.18276 4.13636 1.18182H19.5C20.2833 1.18276 21.0343 1.49434 21.5881 2.04822C22.142 2.6021 22.4536 3.35306 22.4545 4.13636V32.5ZM24.8182 14.1818V16.5455H23.6364V14.1818H24.8182Z" fill="#444CE7"/>
</svg>
